<svg xmlns="http://www.w3.org/2000/svg">
<defs>
<font horiz-adv-x="0" id="font"><font-face ascent="818" bbox="-124 -322 1422 1107" cap-height="764" descent="-182" font-family="Vulf Mono" font-stretch="normal" font-style="normal" font-weight="700" units-per-em="1000" x-height="640" /><missing-glyph d="M178 338C181 338 182 336 182 334C182 324 172 309 172 295C172 282 179 275 193 275C227 275 258 307 258 334C258 347 251 354 240 354C229 354 222 348 222 339C222 331 227 328 233 328C236 328 239 328 241 330C237 312 215 293 199 293C194 293 192 295 192 299C192 309 202 324 202 338C202 349 196 354 185 354C176 354 168 350 159 341C162 338 164 334 166 329C172 336 175 338 178 338ZM313 338C313 348 306 353 296 353C287 353 278 349 270 341C273 337 275 333 277 328C283 335 286 337 289 337C291 337 292 336 292 333C292 323 276 307 276 292C276 281 283 275 294 275C306 275 319 282 330 301H332C331 298 330 295 330 291C330 280 337 275 347 275C357 275 365 280 372 286C370 289 367 295 365 300C361 296 358 293 354 293C351 293 350 295 350 298C350 306 359 327 371 351C361 352 354 352 348 353C338 320 319 293 305 293C301 293 299 295 299 299C299 309 313 323 313 338ZM429 292C422 292 420 295 420 300C420 314 444 347 444 366C444 376 438 381 427 381C414 381 399 374 382 361C385 358 388 353 391 347C403 357 411 362 416 362C420 362 421 361 421 358C421 346 398 317 398 295C398 281 406 275 422 275C440 275 456 284 474 306C470 309 466 312 462 317C449 299 438 292 429 292ZM513 336C508 336 498 336 488 337C488 331 487 326 485 320H512C511 308 509 292 508 282C507 272 504 266 498 262C497 270 493 274 485 274C476 274 471 269 471 261C471 251 479 245 492 245C512 245 523 256 527 286C528 292 530 308 531 320H568C568 326 569 331 571 337C553 336 541 336 532 336C534 353 539 363 547 365V364C547 357 551 352 561 352C569 352 574 358 574 366C574 375 565 381 552 381C526 381 516 363 513 336ZM369 643C172 643 40 508 40 314C40 119 172 -15 369 -15C566 -15 699 119 699 314C699 508 566 643 369 643ZM369 624C554 624 679 497 679 314C679 130 554 4 369 4C184 4 60 130 60 314C60 497 184 624 369 624Z" horiz-
<glyph d="M628 0C632 22 650 78 660 103C651 102 647 102 637 102C608 102 597 116 591 146C574 239 559 498 556 628C512 624 296 625 252 628C244 596 233 561 219 526C234 528 252 527 268 527C295 527 309 517 284 477C232 396 129 239 61 146C34 107 20 102 -3 102C-12 102 -16 102 -24 103C-32 69 -44 34 -58 0C-22 2 203 3 240 0C246 24 262 76 273 103C257 103 234 102 210 102C186 102 175 109 175 124C175 137 183 148 195 169C203 182 211 196 221 211C289 212 399 211 464 210C465 195 466 181 467 169C468 160 469 150 469 143C469 114 452 103 413 103C391 103 378 103 365 104C357 70 345 34 331 0C367 2 591 3 628 0ZM276 297C321 365 374 444 431 527C439 468 449 377 457 297C403 297 333 297 276 297Z" glyph-name="A" horiz-adv-x="740" unicode="A" /><glyph d="M793 628C676 626 316 624 196 628C188 596 177 561 163 526C177 526 201 527 225 527C254 527 258 512 244 487C194 407 87 242 24 146C-2 107 -14 102 -36 102C-43 102 -47 102 -53 103C-61 69 -74 34 -87 0C-36 1 101 2 153 0C158 27 174 77 186 103C182 103 169 102 161 102C137 102 128 109 128 122C128 131 134 142 142 156C153 175 164 194 177 214C218 215 282 216 328 216C318 186 308 159 299 135C288 113 281 102 256 102C248 102 243 102 236 103C229 69 216 34 202 0C334 3 520 3 650 0C658 36 698 151 716 190C676 198 640 209 610 219C604 200 597 178 590 159C573 112 559 99 516 99C482 99 429 100 406 101C423 164 438 221 455 276C513 274 587 271 605 270C609 299 615 328 624 359C606 358 536 356 479 355C498 413 518 469 542 530H612C649 530 661 522 660 492C659 464 656 435 653 410C688 413 730 413 767 412C771 458 787 584 793 628ZM228 295C280 376 337 460 381 527C393 527 406 527 424 527C406 466 381 379 354 297C318 296 268 295 228 295Z" glyph-name="AE" horiz-adv-x="740" unicode="&#198;" /><glyph d="M793 628C676 626 316 624 196 628C188 596 177 561 163 526C177 526 201 527 225 527C254 527 258 512 244 487C194 407 87 242 24 146C-2 107 -14 102 -36 102C-43 102 -47 102 -53 103C-61 69 -74 34 -87 0C-36 1 101 2 153 0C158 27 174 77 186 103C182 103 169 102 161 102C137 102 128 109 128 122C128 131 134 142 142 156C153 175 164 194 177 214C218 215 282 216 328 216C318 186 308 159 299 135C288 113 281 102 256 102C248 102 243 102 236 103C229 69 216 34 202 0C334 3 520 3 650 0C658 36 698 151 716 190C676 198 640 209 610 219C604 200 597 178 590 159C573 112 559 99 516 99C482 99 429 100 406 101C423 164 438 221 455 276C513 274 587 271 605 270C609 299 615 328 624 359C606 358 536 356 479 355C498 413 518 469 542 530H612C649 530 661 522 660 492C659 464 656 435 653 410C688 413 730 413 767 412C771 458 787 584 793 628ZM429 675C482 692 685 740 755 752C746 776 728 844 721 869C664 845 457 776 403 759C411 740 423 698 429 675ZM228 295C280 376 337 460 381 527C393 527 406 527 424 527C406 466 381 379 354 297C318 296 268 295 228 295Z" glyph-name="AEacute" horiz-adv-x="740" unicode="&#508;" /><glyph d="M628 0C632 22 650 78 660 103C651 102 647 102 637 102C608 102 597 116 591 146C574 239 559 498 556 628C512 624 296 625 252 628C244 596 233 561 219 526C234 528 252 527 268 527C295 527 309 517 284 477C232 396 129 239 61 146C34 107 20 102 -3 102C-12 102 -16 102 -24 103C-32 69 -44 34 -58 0C-22 2 203 3 240 0C246 24 262 76 273 103C257 103 234 102 210 102C186 102 175 109 175 124C175 137 183 148 195 169C203 182 211 196 221 211C289 212 399 211 464 210C465 195 466 181 467 169C468 160 469 150 469 143C469 114 452 103 413 103C391 103 378 103 365 104C357 70 345 34 331 0C367 2 591 3 628 0ZM370 675C423 692 626 740 696 752C687 776 669 844 662 869C605 845 398 776 344 759C352 740 364 698 370 675ZM276 297C321 365 374 444 431 527C439 468 449 377 457 297C403 297 333 297 276 297Z" glyph-name="Aacute" horiz-adv-x="740" unicode="&#193;" /><glyph d="M628 0C632 22 650 78 660 103C651 102 647 102 637 102C608 102 597 116 591 146C574 239 559 498 556 628C512 624 296 625 252 628C244 596 233 561 219 526C234 528 252 527 268 527C295 527 309 517 284 477C232 396 129 239 61 146C34 107 20 102 -3 102C-12 102 -16 102 -24 103C-32 69 -44 34 -58 0C-22 2 203 3 240 0C246 24 262 76 273 103C257 103 234 102 210 102C186 102 175 109 175 124C175 137 183 148 195 169C203 182 211 196 221 211C289 212 399 211 464 210C465 195 466 181 467 169C468 160 469 150 469 143C469 114 452 103 413 103C391 103 378 103 365 104C357 70 345 34 331 0C367 2 591 3 628 0ZM481 772C424 772 408 807 406 858C384 852 322 838 295 834C302 739 365 683 469 683C581 683 646 736 693 831C669 836 614 851 594 859C565 799 535 772 481 772ZM276 297C321 365 374 444 431 527C439 468 449 377 457 297C403 297 333 297 276 297Z" glyph-name="Abreve" horiz-adv-x="740" unicode="&#258;" /><glyph d="M628 0C632 22 650 78 660 103C651 102 647 102 637 102C608 102 597 116 591 146C574 239 559 498 556 628C512 624 296 625 252 628C244 596 233 561 219 526C234 528 252 527 268 527C295 527 309 517 284 477C232 396 129 239 61 146C34 107 20 102 -3 102C-12 102 -16 102 -24 103C-32 69 -44 34 -58 0C-22 2 203 3 240 0C246 24 262 76 273 103C257 103 234 102 210 102C186 102 175 109 175 124C175 137 183 148 195 169C203 182 211 196 221 211C289 212 399 211 464 210C465 195 466 181 467 169C468 160 469 150 469 143C469 114 452 103 413 103C391 103 378 103 365 104C357 70 345 34 331 0C367 2 591 3 628 0ZM568 665C589 677 626 695 654 705C618 750 576 818 561 850C541 849 516 849 505 849C494 849 462 849 443 850C413 819 315 752 267 719C288 705 322 680 338 664C393 701 446 738 486 772C508 739 538 701 568 665ZM276 297C321 365 374 444 431 527C439 468 449 377 457 297C403 297 333 297 276 297Z" glyph-name="Acircumflex" horiz-adv-x="740" unicode="&#194;" /><glyph d="M628 0C632 22 650 78 660 103C651 102 647 102 637 102C608 102 597 116 591 146C574 239 559 498 556 628C512 624 296 625 252 628C244 596 233 561 219 526C234 528 252 527 268 527C295 527 309 517 284 477C232 396 129 239 61 146C34 107 20 102 -3 102C-12 102 -16 102 -24 103C-32 69 -44 34 -58 0C-22 2 203 3 240 0C246 24 262 76 273 103C257 103 234 102 210 102C186 102 175 109 175 124C175 137 183 148 195 169C203 182 211 196 221 211C289 212 399 211 464 210C465 195 466 181 467 169C468 160 469 150 469 143C469 114 452 103 413 103C391 103 378 103 365 104C357 70 345 34 331 0C367 2 591 3 628 0ZM441 769C441 817 408 846 359 846C310 846 277 818 277 769C277 719 310 690 359 690C408 690 441 721 441 769ZM654 769C654 817 621 846 572 846C523 846 490 818 490 769C490 719 523 690 572 690C621 690 654 721 654 769ZM276 297C321 365 374 444 431 527C439 468 449 377 457 297C403 297 333 297 276 297Z" glyph-name="Adieresis" horiz-adv-x="740" unicode="&#196;" /><glyph d="M628 0C632 22 650 78 660 103C651 102 647 102 637 102C608 102 597 116 591 146C574 239 559 498 556 628C512 624 296 625 252 628C244 596 233 561 219 526C234 528 252 527 268 527C295 527 309 517 284 477C232 396 129 239 61 146C34 107 20 102 -3 102C-12 102 -16 102 -24 103C-32 69 -44 34 -58 0C-22 2 203 3 240 0C246 24 262 76 273 103C257 103 234 102 210 102C186 102 175 109 175 124C175 137 183 148 195 169C203 182 211 196 221 211C289 212 399 211 464 210C465 195 466 181 467 169C468 160 469 150 469 143C469 114 452 103 413 103C391 103 378 103 365 104C357 70 345 34 331 0C367 2 591 3 628 0ZM529 675C536 698 547 740 555 759C501 776 294 845 237 869C230 844 212 776 203 752C273 740 476 692 529 675ZM276 297C321 365 374 444 431 527C439 468 449 377 457 297C403 297 333 297 276 297Z" glyph-name="Agrave" horiz-adv-x="740" unicode="&#192;" /><glyph d="M628 0C632 22 650 78 660 103C651 102 647 102 637 102C608 102 597 116 591 146C574 239 559 498 556 628C512 624 296 625 252 628C244 596 233 561 219 526C234 528 252 527 268 527C295 527 309 517 284 477C232 396 129 239 61 146C34 107 20 102 -3 102C-12 102 -16 102 -24 103C-32 69 -44 34 -58 0C-22 2 203 3 240 0C246 24 262 76 273 103C257 103 234 102 210 102C186 102 175 109 175 124C175 137 183 148 195 169C203 182 211 196 221 211C289 212 399 211 464 210C465 195 466 181 467 169C468 160 469 150 469 143C469 114 452 103 413 103C391 103 378 103 365 104C357 70 345 34 331 0C367 2 591 3 628 0ZM298 822C289 787 276 749 262 714C312 716 630 716 685 714C694 748 709 789 721 822C664 821 346 821 298 822ZM276 297C321 365 374 444 431 527C439 468 449 377 457 297C403 297 333 297 276 297Z" glyph-name="Amacron" horiz-adv-x="740" unicode="&#256;" /><glyph d="M593 -122C575 -130 560 -132 544 -132C508 -132 491 -118 491 -91C491 -36 557 0 627 0C627 0 628 0 628 0C632 22 650 78 660 103C651 102 647 102 637 102C608 102 597 116 591 146C574 239 559 498 556 628C512 624 296 625 252 628C244 596 233 561 219 526C234 528 252 527 268 527C295 527 309 517 284 477C232 396 129 239 61 146C34 107 20 102 -3 102C-12 102 -16 102 -24 103C-32 69 -44 34 -58 0C-22 2 203 3 240 0C246 24 262 76 273 103C257 103 234 102 210 102C186 102 175 109 175 124C175 137 183 148 195 169C203 182 211 196 221 211C289 212 399 211 464 210C465 195 466 181 467 169C468 160 469 150 469 143C469 114 452 103 413 103C391 103 378 103 365 104C357 70 345 34 331 0C351 1 430 2 502 2C431 -22 373 -68 373 -139C373 -202 419 -244 502 -244C529 -244 562 -241 592 -230C589 -209 590 -151 593 -122ZM276 297C321 365 374 444 431 527C439 468 449 377 457 297C403 297 333 297 276 297Z" glyph-name="Aogonek" horiz-adv-x="740" unicode="&#260;" /><glyph d="M628 0C632 22 650 78 660 103C651 102 647 102 637 102C608 102 597 116 591 146C574 239 559 498 556 628C512 624 296 625 252 628C244 596 233 561 219 526C234 528 252 527 268 527C295 527 309 517 284 477C232 396 129 239 61 146C34 107 20 102 -3 102C-12 102 -16 102 -24 103C-32 69 -44 34 -58 0C-22 2 203 3 240 0C246 24 262 76 273 103C257 103 234 102 210 102C186 102 175 109 175 124C175 137 183 148 195 169C203 182 211 196 221 211C289 212 399 211 464 210C465 195 466 181 467 169C468 160 469 150 469 143C469 114 452 103 413 103C391 103 378 103 365 104C357 70 345 34 331 0C367 2 591 3 628 0ZM468 672C554 672 608 738 608 803C608 857 575 892 512 892C423 892 368 827 368 762C368 707 402 672 468 672ZM477 736C451 735 440 748 440 768C440 797 463 827 500 827C525 827 537 814 537 795C537 764 514 736 477 736ZM276 297C321 365 374 444 431 527C439 468 449 377 457 297C403 297 333 297 276 297Z" glyph-name="Aring" horiz-adv-x="740" unicode="&#197;" /><glyph d="M628 0C632 22 650 78 660 103C651 102 647 102 637 102C608 102 597 116 591 146C574 239 559 498 556 628C512 624 296 625 252 628C244 596 233 561 219 526C234 528 252 527 268 527C295 527 309 517 284 477C232 396 129 239 61 146C34 107 20 102 -3 102C-12 102 -16 102 -24 103C-32 69 -44 34 -58 0C-22 2 203 3 240 0C246 24 262 76 273 103C257 103 234 102 210 102C186 102 175 109 175 124C175 137 183 148 195 169C203 182 211 196 221 211C289 212 399 211 464 210C465 195 466 181 467 169C468 160 469 150 469 143C469 114 452 103 413 103C391 103 378 103 365 104C357 70 345 34 331 0C367 2 591 3 628 0ZM468 672C554 672 608 738 608 803C608 857 575 892 512 892C423 892 368 827 368 762C368 707 402 672 468 672ZM477 736C451 735 440 748 440 768C440 797 463 827 500 827C525 827 537 814 537 795C537 764 514 736 477 736ZM470 913C523 930 726 978 796 990C787 1014 769 1082 762 1107C705 1083 498 1014 444 997C452 978 464 936 470 913ZM276 297C321 365 374 444 431 527C439 468 449 377 457 297C403 297 333 297 276 297Z" glyph-name="Aringacute" horiz-adv-x="740" unicode="&#506;" /><glyph d="M628 0C632 22 650 78 660 103C651 102 647 102 637 102C608 102 597 116 591 146C574 239 559 498 556 628C512 624 296 625 252 628C244 596 233 561 219 526C234 528 252 527 268 527C295 527 309 517 284 477C232 396 129 239 61 146C34 107 20 102 -3 102C-12 102 -16 102 -24 103C-32 69 -44 34 -58 0C-22 2 203 3 240 0C246 24 262 76 273 103C257 103 234 102 210 102C186 102 175 109 175 124C175 137 183 148 195 169C203 182 211 196 221 211C289 212 399 211 464 210C465 195 466 181 467 169C468 160 469 150 469 143C469 114 452 103 413 103C391 103 378 103 365 104C357 70 345 34 331 0C367 2 591 3 628 0ZM399 859C310 859 259 803 237 686C262 687 289 687 314 686C325 744 348 772 377 772C398 772 407 758 418 737C439 701 463 673 530 673C617 673 667 729 690 846C660 844 633 844 613 846C604 790 582 762 553 762C528 762 517 777 504 797C481 832 459 859 399 859ZM276 297C321 365 374 444 431 527C439 468 449 377 457 297C403 297 333 297 276 297Z" glyph-name="Atilde" horiz-adv-x="740" unicode="&#195;" /><glyph d="M447 361C389 361 350 362 313 363C332 422 352 479 371 528C412 529 442 529 492 529C556 529 588 514 588 463C588 410 551 361 447 361ZM407 100C353 100 280 102 234 103C248 156 264 209 280 262C339 263 387 264 414 264C488 264 524 243 524 190C524 125 481 100 407 100ZM415 -1C568 -1 641 75 641 185C641 266 599 293 512 301V308C645 312 707 368 707 488C707 585 650 628 513 628C455 628 399 626 339 626C277 626 215 627 166 628C158 595 148 561 133 526C145 527 170 527 183 527C223 527 241 513 230 477C207 395 156 233 123 146C110 116 97 103 58 103C42 103 16 103 2 104C-6 70 -19 34 -33 0C31 1 105 2 182 2C262 3 337 -1 415 -1Z" glyph-name="B" horiz-adv-x="740" unicode="B" /><glyph d="M643 216C604 232 566 252 532 271C486 164 419 96 322 96C236 96 183 142 183 240C183 370 276 529 421 529C496 529 555 489 555 394C555 384 555 375 554 365C585 364 628 359 657 353C673 404 720 560 750 628C714 626 662 626 615 628C611 611 598 557 584 499H578C560 588 501 642 397 642C189 642 48 419 48 228C48 84 132 -14 310 -14C476 -14 586 89 643 216Z" glyph-name="C" horiz-adv-x="740" unicode="C" /><glyph d="M643 216C604 232 566 252 532 271C486 164 419 96 322 96C236 96 183 142 183 240C183 370 276 529 421 529C496 529 555 489 555 394C555 384 555 375 554 365C585 364 628 359 657 353C673 404 720 560 750 628C714 626 662 626 615 628C611 611 598 557 584 499H578C560 588 501 642 397 642C189 642 48 419 48 228C48 84 132 -14 310 -14C476 -14 586 89 643 216ZM376 675C429 692 632 740 702 752C693 776 675 844 668 869C611 845 404 776 350 759C358 740 370 698 376 675Z" glyph-name="Cacute" horiz-adv-x="740" unicode="&#262;" /><glyph d="M643 216C604 232 566 252 532 271C486 164 419 96 322 96C236 96 183 142 183 240C183 370 276 529 421 529C496 529 555 489 555 394C555 384 555 375 554 365C585 364 628 359 657 353C673 404 720 560 750 628C714 626 662 626 615 628C611 611 598 557 584 499H578C560 588 501 642 397 642C189 642 48 419 48 228C48 84 132 -14 310 -14C476 -14 586 89 643 216ZM509 669C539 700 637 767 685 800C664 814 630 839 614 855C559 818 506 781 466 747C444 780 414 818 384 854C363 842 326 824 298 814C334 769 376 701 391 669C411 670 436 670 447 670C458 670 490 670 509 669Z" glyph-name="Ccaron" horiz-adv-x="740" unicode="&#268;" /><glyph d="M99 -199C133 -225 193 -243 256 -243C359 -243 404 -193 408 -135C412 -81 384 -55 333 -55C305 -55 282 -64 262 -77C273 -57 285 -34 296 -14C301 -14 305 -14 310 -14C476 -14 586 89 643 216C604 232 566 252 532 271C486 164 419 96 322 96C236 96 183 142 183 240C183 370 276 529 421 529C496 529 555 489 555 394C555 384 555 375 554 365C585 364 628 359 657 353C673 404 720 560 750 628C714 626 662 626 615 628C611 611 598 557 584 499H578C560 588 501 642 397 642C189 642 48 419 48 228C48 105 109 16 238 -8C223 -36 204 -69 192 -87C207 -92 224 -102 241 -115C256 -107 272 -100 294 -100C316 -100 333 -109 331 -132C329 -159 305 -174 267 -174C221 -174 178 -152 151 -126C138 -149 116 -182 99 -199Z" glyph-name="Ccedilla" horiz-adv-x="740" unicode="&#199;" /><glyph d="M643 216C604 232 566 252 532 271C486 164 419 96 322 96C236 96 183 142 183 240C183 370 276 529 421 529C496 529 555 489 555 394C555 384 555 375 554 365C585 364 628 359 657 353C673 404 720 560 750 628C714 626 662 626 615 628C611 611 598 557 584 499H578C560 588 501 642 397 642C189 642 48 419 48 228C48 84 132 -14 310 -14C476 -14 586 89 643 216ZM565 665C586 677 623 695 651 705C615 750 573 818 558 850C538 849 513 849 502 849C491 849 459 849 440 850C410 819 312 752 264 719C285 705 319 680 335 664C390 701 443 738 483 772C505 739 535 701 565 665Z" glyph-name="Ccircumflex" horiz-adv-x="740" unicode="&#264;" /><glyph d="M643 216C604 232 566 252 532 271C486 164 419 96 322 96C236 96 183 142 183 240C183 370 276 529 421 529C496 529 555 489 555 394C555 384 555 375 554 365C585 364 628 359 657 353C673 404 720 560 750 628C714 626 662 626 615 628C611 611 598 557 584 499H578C560 588 501 642 397 642C189 642 48 419 48 228C48 84 132 -14 310 -14C476 -14 586 89 643 216ZM547 769C547 816 514 856 456 856C397 856 365 816 365 769C365 720 392 684 456 684C514 684 547 720 547 769Z" glyph-name="Cdotaccent" horiz-adv-x="740" unicode="&#266;" /><glyph d="M357 0C589 0 713 197 713 404C713 574 614 628 486 628C442 628 390 626 331 626C270 626 203 627 166 628C158 595 147 560 133 525C148 526 159 526 177 526C219 526 238 513 227 476C204 392 153 233 119 145C106 113 90 102 45 102C25 102 12 102 1 103C-7 69 -20 34 -33 0C17 1 90 2 167 2C235 2 302 0 357 0ZM343 102C307 102 271 103 236 105C277 248 326 398 374 528C404 529 432 528 458 528C560 528 587 489 587 404C587 245 506 102 343 102Z" glyph-name="D" horiz-adv-x="740" unicode="D" /><glyph d="M357 0C589 0 713 197 713 404C713 574 614 628 486 628C442 628 390 626 331 626C270 626 203 627 166 628C158 595 147 560 133 525C148 526 159 526 177 526C219 526 238 513 227 476C204 392 153 233 119 145C106 113 90 102 45 102C25 102 12 102 1 103C-7 69 -20 34 -33 0C17 1 90 2 167 2C235 2 302 0 357 0ZM343 102C307 102 271 103 236 105C277 248 326 398 374 528C404 529 432 528 458 528C560 528 587 489 587 404C587 245 506 102 343 102ZM522 669C552 700 650 767 698 800C677 814 643 839 627 855C572 818 519 781 479 747C457 780 427 818 397 854C376 842 339 824 311 814C347 769 389 701 404 669C424 670 449 670 460 670C471 670 503 670 522 669Z" glyph-name="Dcaron" horiz-adv-x="740" unicode="&#270;" /><glyph d="M357 0C589 0 713 197 713 404C713 574 614 628 486 628C442 628 390 626 331 626C270 626 203 627 166 628C158 595 147 560 133 525C148 526 159 526 177 526C219 526 238 513 227 476C219 445 206 404 193 360C129 361 74 361 57 363C50 334 41 303 28 273C45 274 101 275 165 275C149 227 133 180 119 145C106 113 90 102 45 102C25 102 12 102 1 103C-7 69 -20 34 -33 0C17 1 90 2 167 2C235 2 302 0 357 0ZM343 102C307 102 271 103 236 105C252 161 270 219 288 276C349 275 401 274 419 273C427 302 437 332 448 363C430 362 377 361 315 360C335 418 355 475 374 528C404 529 432 528 458 528C560 528 587 489 587 404C587 245 506 102 343 102Z" glyph-name="Dcroat" horiz-adv-x="740" unicode="&#272;" /><glyph d="M-33 0C150 3 403 3 582 0C591 36 630 151 648 190C609 199 573 209 542 219C537 200 529 178 522 159C506 112 491 99 449 99C384 99 284 100 249 101C264 161 280 216 295 269C371 267 478 263 504 262C509 295 517 329 527 365C502 362 399 361 324 360C342 416 361 471 385 530H544C581 530 594 522 593 492C592 464 589 435 586 410C620 413 662 413 699 412C703 458 719 584 725 628C566 626 323 626 167 629C160 596 148 561 133 526C146 527 157 527 199 527C238 527 254 514 243 477C220 395 171 235 137 147C124 117 108 103 72 103C55 103 31 102 2 104C-5 70 -19 34 -33 0Z" glyph-name="E" horiz-adv-x="740" unicode="E" /><glyph d="M-33 0C150 3 403 3 582 0C591 36 630 151 648 190C609 199 573 209 542 219C537 200 529 178 522 159C506 112 491 99 449 99C384 99 284 100 249 101C264 161 280 216 295 269C371 267 478 263 504 262C509 295 517 329 527 365C502 362 399 361 324 360C342 416 361 471 385 530H544C581 530 594 522 593 492C592 464 589 435 586 410C620 413 662 413 699 412C703 458 719 584 725 628C566 626 323 626 167 629C160 596 148 561 133 526C146 527 157 527 199 527C238 527 254 514 243 477C220 395 171 235 137 147C124 117 108 103 72 103C55 103 31 102 2 104C-5 70 -19 34 -33 0ZM416 675C469 692 672 740 742 752C733 776 715 844 708 869C651 845 444 776 390 759C398 740 410 698 416 675Z" glyph-name="Eacute" horiz-adv-x="740" unicode="&#201;" /><glyph d="M-33 0C150 3 403 3 582 0C591 36 630 151 648 190C609 199 573 209 542 219C537 200 529 178 522 159C506 112 491 99 449 99C384 99 284 100 249 101C264 161 280 216 295 269C371 267 478 263 504 262C509 295 517 329 527 365C502 362 399 361 324 360C342 416 361 471 385 530H544C581 530 594 522 593 492C592 464 589 435 586 410C620 413 662 413 699 412C703 458 719 584 725 628C566 626 323 626 167 629C160 596 148 561 133 526C146 527 157 527 199 527C238 527 254 514 243 477C220 395 171 235 137 147C124 117 108 103 72 103C55 103 31 102 2 104C-5 70 -19 34 -33 0ZM501 772C444 772 428 807 426 858C404 852 342 838 315 834C322 739 385 683 489 683C601 683 666 736 713 831C689 836 634 851 614 859C585 799 555 772 501 772Z" glyph-name="Ebreve" horiz-adv-x="740" unicode="&#276;" /><glyph d="M-33 0C150 3 403 3 582 0C591 36 630 151 648 190C609 199 573 209 542 219C537 200 529 178 522 159C506 112 491 99 449 99C384 99 284 100 249 101C264 161 280 216 295 269C371 267 478 263 504 262C509 295 517 329 527 365C502 362 399 361 324 360C342 416 361 471 385 530H544C581 530 594 522 593 492C592 464 589 435 586 410C620 413 662 413 699 412C703 458 719 584 725 628C566 626 323 626 167 629C160 596 148 561 133 526C146 527 157 527 199 527C238 527 254 514 243 477C220 395 171 235 137 147C124 117 108 103 72 103C55 103 31 102 2 104C-5 70 -19 34 -33 0ZM535 669C565 700 663 767 711 800C690 814 656 839 640 855C585 818 532 781 492 747C470 780 440 818 410 854C389 842 352 824 324 814C360 769 402 701 417 669C437 670 462 670 473 670C484 670 516 670 535 669Z" glyph-name="Ecaron" horiz-adv-x="740" unicode="&#282;" /><glyph d="M-33 0C150 3 403 3 582 0C591 36 630 151 648 190C609 199 573 209 542 219C537 200 529 178 522 159C506 112 491 99 449 99C384 99 284 100 249 101C264 161 280 216 295 269C371 267 478 263 504 262C509 295 517 329 527 365C502 362 399 361 324 360C342 416 361 471 385 530H544C581 530 594 522 593 492C592 464 589 435 586 410C620 413 662 413 699 412C703 458 719 584 725 628C566 626 323 626 167 629C160 596 148 561 133 526C146 527 157 527 199 527C238 527 254 514 243 477C220 395 171 235 137 147C124 117 108 103 72 103C55 103 31 102 2 104C-5 70 -19 34 -33 0ZM589 665C610 677 647 695 675 705C639 750 597 818 582 850C562 849 537 849 526 849C515 849 483 849 464 850C434 819 336 752 288 719C309 705 343 680 359 664C414 701 467 738 507 772C529 739 559 701 589 665Z" glyph-name="Ecircumflex" horiz-adv-x="740" unicode="&#202;" /><glyph d="M-33 0C150 3 403 3 582 0C591 36 630 151 648 190C609 199 573 209 542 219C537 200 529 178 522 159C506 112 491 99 449 99C384 99 284 100 249 101C264 161 280 216 295 269C371 267 478 263 504 262C509 295 517 329 527 365C502 362 399 361 324 360C342 416 361 471 385 530H544C581 530 594 522 593 492C592 464 589 435 586 410C620 413 662 413 699 412C703 458 719 584 725 628C566 626 323 626 167 629C160 596 148 561 133 526C146 527 157 527 199 527C238 527 254 514 243 477C220 395 171 235 137 147C124 117 108 103 72 103C55 103 31 102 2 104C-5 70 -19 34 -33 0ZM471 769C471 817 438 846 389 846C340 846 307 818 307 769C307 719 340 690 389 690C438 690 471 721 471 769ZM684 769C684 817 651 846 602 846C553 846 520 818 520 769C520 719 553 690 602 690C651 690 684 721 684 769Z" glyph-name="Edieresis" horiz-adv-x="740" unicode="&#203;" /><glyph d="M-33 0C150 3 403 3 582 0C591 36 630 151 648 190C609 199 573 209 542 219C537 200 529 178 522 159C506 112 491 99 449 99C384 99 284 100 249 101C264 161 280 216 295 269C371 267 478 263 504 262C509 295 517 329 527 365C502 362 399 361 324 360C342 416 361 471 385 530H544C581 530 594 522 593 492C592 464 589 435 586 410C620 413 662 413 699 412C703 458 719 584 725 628C566 626 323 626 167 629C160 596 148 561 133 526C146 527 157 527 199 527C238 527 254 514 243 477C220 395 171 235 137 147C124 117 108 103 72 103C55 103 31 102 2 104C-5 70 -19 34 -33 0ZM592 769C592 816 559 856 501 856C442 856 410 816 410 769C410 720 437 684 501 684C559 684 592 720 592 769Z" glyph-name="Edotaccent" horiz-adv-x="740" unicode="&#278;" /><glyph d="M-33 0C150 3 403 3 582 0C591 36 630 151 648 190C609 199 573 209 542 219C537 200 529 178 522 159C506 112 491 99 449 99C384 99 284 100 249 101C264 161 280 216 295 269C371 267 478 263 504 262C509 295 517 329 527 365C502 362 399 361 324 360C342 416 361 471 385 530H544C581 530 594 522 593 492C592 464 589 435 586 410C620 413 662 413 699 412C703 458 719 584 725 628C566 626 323 626 167 629C160 596 148 561 133 526C146 527 157 527 199 527C238 527 254 514 243 477C220 395 171 235 137 147C124 117 108 103 72 103C55 103 31 102 2 104C-5 70 -19 34 -33 0ZM534 675C541 698 552 740 560 759C506 776 299 845 242 869C235 844 217 776 208 752C278 740 481 692 534 675Z" glyph-name="Egrave" horiz-adv-x="740" unicode="&#200;" /><glyph d="M-33 0C150 3 403 3 582 0C591 36 630 151 648 190C609 199 573 209 542 219C537 200 529 178 522 159C506 112 491 99 449 99C384 99 284 100 249 101C264 161 280 216 295 269C371 267 478 263 504 262C509 295 517 329 527 365C502 362 399 361 324 360C342 416 361 471 385 530H544C581 530 594 522 593 492C592 464 589 435 586 410C620 413 662 413 699 412C703 458 719 584 725 628C566 626 323 626 167 629C160 596 148 561 133 526C146 527 157 527 199 527C238 527 254 514 243 477C220 395 171 235 137 147C124 117 108 103 72 103C55 103 31 102 2 104C-5 70 -19 34 -33 0ZM303 822C294 787 281 749 267 714C317 716 635 716 690 714C699 748 714 789 726 822C669 821 351 821 303 822Z" glyph-name="Emacron" horiz-adv-x="740" unicode="&#274;" /><glyph d="M710 434C716 464 719 491 719 514C719 602 668 643 593 643C505 643 416 597 342 461L331 462C352 524 372 588 385 628C329 627 208 626 169 628C161 596 150 559 137 526C151 528 172 527 189 527C220 527 232 515 221 477C198 395 147 231 113 144C102 115 94 102 58 102C41 102 20 101 0 103C-7 69 -20 34 -34 0C6 2 265 3 302 0C307 22 325 76 335 102H281C237 102 229 122 238 152C318 411 427 528 514 528C558 528 578 506 578 462C578 439 574 413 567 386C546 299 509 190 462 62C426 -35 399 -82 361 -96C361 -95 361 -93 361 -91C361 -55 334 -30 295 -30C239 -30 214 -67 214 -109C214 -163 254 -200 337 -200C466 -200 535 -98 582 32C638 187 688 331 710 434Z" glyph-name="Eng" horiz-adv-x="740" unicode="&#330;" /><glyph d="M-33 0C110 2 296 3 456 2C385 -23 328 -69 328 -139C328 -202 374 -244 457 -244C484 -244 517 -241 547 -230C544 -209 545 -151 548 -122C530 -130 515 -132 499 -132C463 -132 446 -118 446 -91C446 -36 512 0 582 0C591 36 630 151 648 190C609 199 573 209 542 219C537 200 529 178 522 159C506 112 491 99 449 99C384 99 284 100 249 101C264 161 280 216 295 269C371 267 478 263 504 262C509 295 517 329 527 365C502 362 399 361 324 360C342 416 361 471 385 530H544C581 530 594 522 593 492C592 464 589 435 586 410C620 413 662 413 699 412C703 458 719 584 725 628C566 626 323 626 167 629C160 596 148 561 133 526C146 527 157 527 199 527C238 527 254 514 243 477C220 395 171 235 137 147C124 117 108 103 72 103C55 103 31 102 2 104C-5 70 -19 34 -33 0Z" glyph-name="Eogonek" horiz-adv-x="740" unicode="&#280;" /><glyph d="M357 0C589 0 713 197 713 404C713 574 614 628 486 628C442 628 390 626 331 626C270 626 203 627 166 628C158 595 147 560 133 525C148 526 159 526 177 526C219 526 238 513 227 476C219 445 206 404 193 360C129 361 74 361 57 363C50 334 41 303 28 273C45 274 101 275 165 275C149 227 133 180 119 145C106 113 90 102 45 102C25 102 12 102 1 103C-7 69 -20 34 -33 0C17 1 90 2 167 2C235 2 302 0 357 0ZM343 102C307 102 271 103 236 105C252 161 270 219 288 276C349 275 401 274 419 273C427 302 437 332 448 363C430 362 377 361 315 360C335 418 355 475 374 528C404 529 432 528 458 528C560 528 587 489 587 404C587 245 506 102 343 102Z" glyph-name="Eth" horiz-adv-x="740" unicode="&#208;" /><glyph d="M5 282C-1 258 -8 234 -18 209C-4 210 34 210 82 210C82 78 156 -14 319 -14C478 -14 582 83 643 216C604 232 566 252 532 271C486 164 419 96 332 96C262 96 223 133 218 211C294 211 364 210 387 209C393 233 401 257 411 282C387 281 306 280 222 280C225 299 229 318 234 337C320 337 403 336 428 334C433 358 441 383 451 408C427 406 346 405 261 405C298 476 358 529 437 529C496 529 555 489 555 394C555 384 555 375 554 365C585 364 628 359 657 353C673 404 720 560 750 628C714 626 662 626 615 628C611 611 598 557 584 499H578C559 588 501 642 419 642C277 642 173 536 120 406C85 406 57 407 46 408C40 384 32 359 22 334C34 335 61 335 97 336C93 317 89 299 87 280C47 281 17 281 5 282Z" glyph-name="Euro" horiz-adv-x="740" unicode="&#8364;" /><glyph d="M7 322C0 293 -9 265 -19 237C-6 238 27 239 69 239C68 229 68 218 68 207C68 69 150 -10 324 -10C432 -10 520 10 629 98C609 119 590 143 564 182C497 127 416 100 345 100C252 100 205 140 205 222C205 228 205 234 206 240C284 239 359 238 382 237C389 264 398 293 408 322C384 319 307 318 227 318C265 395 349 451 460 451C498 451 537 443 560 420C524 416 491 393 491 352C491 316 520 288 567 288C633 288 669 340 669 404C669 483 609 557 458 557C252 557 129 449 86 319C48 319 19 320 7 322Z" glyph-name="Euro.osf" horiz-adv-x="740" /><glyph d="M414 0C422 34 433 68 447 104C414 103 364 102 304 102C263 102 260 126 268 154C275 179 283 204 290 228C370 227 505 226 535 224C539 257 548 292 558 327C529 324 400 324 318 324C339 393 361 459 389 530H558C598 530 614 522 611 484C608 452 606 416 602 384C636 387 678 387 715 386C720 438 733 579 739 629C576 627 327 627 167 630C160 597 148 562 133 526C159 527 179 527 209 527C244 527 259 513 248 477C225 395 176 235 142 147C129 113 116 103 77 103C42 103 22 103 2 104C-7 69 -19 34 -32 0C44 2 337 2 414 0Z" glyph-name="F" horiz-adv-x="740" unicode="F" /><glyph d="M412 529C485 529 541 490 541 398C541 389 542 381 541 373C573 375 612 375 646 372C661 423 707 564 736 628C702 626 650 626 602 628C599 615 584 558 569 498H564C547 588 491 642 391 642C187 642 48 418 48 228C48 84 124 -13 264 -13C339 -13 406 33 457 98L464 96C453 56 436 23 428 0C474 2 518 1 543 0C560 65 578 126 596 176C608 209 614 221 640 221C653 221 669 220 682 220C689 250 702 283 714 314C667 310 390 311 340 313C332 282 322 250 310 219C332 220 387 222 444 222C476 222 484 215 484 199C484 152 412 96 324 96C230 96 183 143 183 240C183 370 269 529 412 529Z" glyph-name="G" horiz-adv-x="740" unicode="G" /><glyph d="M412 529C485 529 541 490 541 398C541 389 542 381 541 373C573 375 612 375 646 372C661 423 707 564 736 628C702 626 650 626 602 628C599 615 584 558 569 498H564C547 588 491 642 391 642C187 642 48 418 48 228C48 84 124 -13 264 -13C339 -13 406 33 457 98L464 96C453 56 436 23 428 0C474 2 518 1 543 0C560 65 578 126 596 176C608 209 614 221 640 221C653 221 669 220 682 220C689 250 702 283 714 314C667 310 390 311 340 313C332 282 322 250 310 219C332 220 387 222 444 222C476 222 484 215 484 199C484 152 412 96 324 96C230 96 183 143 183 240C183 370 269 529 412 529ZM463 772C406 772 390 807 388 858C366 852 304 838 277 834C284 739 347 683 451 683C563 683 628 736 675 831C651 836 596 851 576 859C547 799 517 772 463 772Z" glyph-name="Gbreve" horiz-adv-x="740" unicode="&#286;" /><glyph d="M412 529C485 529 541 490 541 398C541 389 542 381 541 373C573 375 612 375 646 372C661 423 707 564 736 628C702 626 650 626 602 628C599 615 584 558 569 498H564C547 588 491 642 391 642C187 642 48 418 48 228C48 84 124 -13 264 -13C339 -13 406 33 457 98L464 96C453 56 436 23 428 0C474 2 518 1 543 0C560 65 578 126 596 176C608 209 614 221 640 221C653 221 669 220 682 220C689 250 702 283 714 314C667 310 390 311 340 313C332 282 322 250 310 219C332 220 387 222 444 222C476 222 484 215 484 199C484 152 412 96 324 96C230 96 183 143 183 240C183 370 269 529 412 529ZM566 665C587 677 624 695 652 705C616 750 574 818 559 850C539 849 514 849 503 849C492 849 460 849 441 850C411 819 313 752 265 719C286 705 320 680 336 664C391 701 444 738 484 772C506 739 536 701 566 665Z" glyph-name="Gcircumflex" horiz-adv-x="740" unicode="&#284;" /><glyph d="M412 529C485 529 541 490 541 398C541 389 542 381 541 373C573 375 612 375 646 372C661 423 707 564 736 628C702 626 650 626 602 628C599 615 584 558 569 498H564C547 588 491 642 391 642C187 642 48 418 48 228C48 84 124 -13 264 -13C339 -13 406 33 457 98L464 96C453 56 436 23 428 0C474 2 518 1 543 0C560 65 578 126 596 176C608 209 614 221 640 221C653 221 669 220 682 220C689 250 702 283 714 314C667 310 390 311 340 313C332 282 322 250 310 219C332 220 387 222 444 222C476 222 484 215 484 199C484 152 412 96 324 96C230 96 183 143 183 240C183 370 269 529 412 529ZM154 -322C290 -317 369 -234 369 -151C369 -93 341 -53 282 -53C231 -53 198 -84 198 -123C198 -158 221 -182 259 -182C285 -182 304 -172 315 -154L321 -156C315 -213 247 -244 149 -245C152 -266 154 -297 154 -322Z" glyph-name="Gcommaaccent" horiz-adv-x="740" unicode="&#290;" /><glyph d="M412 529C485 529 541 490 541 398C541 389 542 381 541 373C573 375 612 375 646 372C661 423 707 564 736 628C702 626 650 626 602 628C599 615 584 558 569 498H564C547 588 491 642 391 642C187 642 48 418 48 228C48 84 124 -13 264 -13C339 -13 406 33 457 98L464 96C453 56 436 23 428 0C474 2 518 1 543 0C560 65 578 126 596 176C608 209 614 221 640 221C653 221 669 220 682 220C689 250 702 283 714 314C667 310 390 311 340 313C332 282 322 250 310 219C332 220 387 222 444 222C476 222 484 215 484 199C484 152 412 96 324 96C230 96 183 143 183 240C183 370 269 529 412 529ZM547 769C547 816 514 856 456 856C397 856 365 816 365 769C365 720 392 684 456 684C514 684 547 720 547 769Z" glyph-name="Gdotaccent" horiz-adv-x="740" unicode="&#288;" /><glyph d="M278 102H245C203 102 196 122 204 152C212 183 223 221 235 261C308 261 415 261 493 261C479 217 465 176 453 144C442 115 423 102 395 102H351C344 69 331 34 317 0C353 2 576 3 612 0C620 30 634 76 644 102C633 101 621 101 615 101C579 101 572 120 580 152C605 244 656 396 688 484C701 519 721 526 750 527C759 527 773 527 782 526C791 558 803 594 815 628C774 624 556 626 518 628C509 597 498 561 485 526C498 527 508 527 528 527C566 527 569 511 560 477C551 445 538 402 524 355C448 354 341 354 265 355C280 401 296 446 311 484C324 516 338 527 367 527C378 527 396 528 410 526C419 557 431 595 444 628C399 624 189 626 150 628C142 596 131 559 118 526C127 527 143 527 153 527C184 527 196 515 185 477C162 395 112 231 77 144C66 115 58 102 22 102C12 102 -2 102 -14 103C-22 69 -35 34 -48 0C-12 2 212 3 245 0C251 22 268 76 278 102Z" glyph-name="H" horiz-adv-x="740" unicode="H" /><glyph d="M278 102H245C203 102 196 122 204 152C210 176 218 204 227 234C302 234 409 234 484 234C473 200 462 169 453 144C442 115 423 102 395 102H351C344 69 331 34 317 0C354 2 575 3 612 0C620 30 634 76 644 102C633 101 621 101 615 101C579 101 572 120 580 152C597 214 625 303 652 381C707 380 750 379 770 378C776 402 787 434 794 454C773 452 731 451 676 450C680 462 684 474 688 484C701 519 721 526 750 527C759 527 772 527 782 526C791 558 803 594 815 628C774 624 557 626 518 628C509 597 498 561 485 526C499 527 508 527 528 527C566 527 569 511 560 477C558 468 555 459 552 449C470 448 379 448 298 449C302 461 307 473 311 484C324 516 338 527 367 527C378 527 396 528 410 526C419 557 431 595 444 628C399 624 189 626 150 628C142 596 131 559 118 526C127 527 143 527 153 527C184 527 196 515 185 477C183 469 180 460 177 450C125 451 85 452 67 454C61 428 53 404 44 378C62 380 103 381 157 381C132 300 101 204 77 144C66 115 58 102 22 102C12 102 -2 102 -14 103C-22 69 -35 34 -48 0C-12 2 212 3 245 0C251 22 268 76 278 102ZM253 317C260 339 267 361 274 383C357 383 449 383 532 382C526 361 519 339 512 317C436 316 328 316 253 317Z" glyph-name="Hbar" horiz-adv-x="740" unicode="&#294;" /><glyph d="M278 102H245C203 102 196 122 204 152C212 183 223 221 235 261C308 261 415 261 493 261C479 217 465 176 453 144C442 115 423 102 395 102H351C344 69 331 34 317 0C353 2 576 3 612 0C620 30 634 76 644 102C633 101 621 101 615 101C579 101 572 120 580 152C605 244 656 396 688 484C701 519 721 526 750 527C759 527 773 527 782 526C791 558 803 594 815 628C774 624 556 626 518 628C509 597 498 561 485 526C498 527 508 527 528 527C566 527 569 511 560 477C551 445 538 402 524 355C448 354 341 354 265 355C280 401 296 446 311 484C324 516 338 527 367 527C378 527 396 528 410 526C419 557 431 595 444 628C399 624 189 626 150 628C142 596 131 559 118 526C127 527 143 527 153 527C184 527 196 515 185 477C162 395 112 231 77 144C66 115 58 102 22 102C12 102 -2 102 -14 103C-22 69 -35 34 -48 0C-12 2 212 3 245 0C251 22 268 76 278 102ZM601 665C622 677 659 695 687 705C651 750 609 818 594 850C574 849 549 849 538 849C527 849 495 849 476 850C446 819 348 752 300 719C321 705 355 680 371 664C426 701 479 738 519 772C541 739 571 701 601 665Z" glyph-name="Hcircumflex" horiz-adv-x="740" unicode="&#292;" /><glyph d="M400 153C424 245 470 387 507 484C522 521 538 529 568 529C632 529 672 528 703 526C712 561 723 595 736 629C672 624 286 626 219 629C211 596 199 561 185 526C210 527 268 529 331 529C367 529 369 506 361 477C337 396 287 232 254 145C240 107 222 100 192 100C128 100 91 100 56 103C48 70 36 34 22 0C87 3 471 5 540 0C547 33 560 68 574 103C541 102 491 100 429 100C394 100 392 125 400 153Z" glyph-name="I" horiz-adv-x="740" unicode="I" /><glyph d="M474 628C432 626 184 626 139 628C130 594 119 559 105 522C117 522 139 523 169 523C205 523 209 509 198 475C189 447 172 392 161 362C149 327 136 316 93 316C63 316 49 316 37 317C32 291 14 237 3 209C45 211 292 212 338 209C345 237 362 292 373 319C362 318 348 316 319 316C281 316 270 328 281 363C289 393 307 447 317 475C329 510 342 523 378 523C407 523 428 522 440 522C449 558 461 594 474 628ZM-47 71C13 18 124 -14 273 -14C465 -14 575 68 627 231C649 298 681 417 707 483C719 517 740 524 766 524C780 524 790 524 800 523C810 560 820 597 833 628C768 624 552 627 527 628C520 596 506 558 493 522C506 523 525 523 541 523C579 523 583 506 573 473C558 413 521 299 496 235C456 132 386 96 277 96C150 96 68 136 26 173C9 145 -22 96 -47 71Z" glyph-name="IJ" horiz-adv-x="740" unicode="&#306;" /><glyph d="M400 153C424 245 470 387 507 484C522 521 538 529 568 529C632 529 672 528 703 526C712 561 723 595 736 629C672 624 286 626 219 629C211 596 199 561 185 526C210 527 268 529 331 529C367 529 369 506 361 477C337 396 287 232 254 145C240 107 222 100 192 100C128 100 91 100 56 103C48 70 36 34 22 0C87 3 471 5 540 0C547 33 560 68 574 103C541 102 491 100 429 100C394 100 392 125 400 153ZM405 675C458 692 661 740 731 752C722 776 704 844 697 869C640 845 433 776 379 759C387 740 399 698 405 675Z" glyph-name="Iacute" horiz-adv-x="740" unicode="&#205;" /><glyph d="M400 153C424 245 470 387 507 484C522 521 538 529 568 529C632 529 672 528 703 526C712 561 723 595 736 629C672 624 286 626 219 629C211 596 199 561 185 526C210 527 268 529 331 529C367 529 369 506 361 477C337 396 287 232 254 145C240 107 222 100 192 100C128 100 91 100 56 103C48 70 36 34 22 0C87 3 471 5 540 0C547 33 560 68 574 103C541 102 491 100 429 100C394 100 392 125 400 153ZM510 772C453 772 437 807 435 858C413 852 351 838 324 834C331 739 394 683 498 683C610 683 675 736 722 831C698 836 643 851 623 859C594 799 564 772 510 772Z" glyph-name="Ibreve" horiz-adv-x="740" unicode="&#300;" /><glyph d="M400 153C424 245 470 387 507 484C522 521 538 529 568 529C632 529 672 528 703 526C712 561 723 595 736 629C672 624 286 626 219 629C211 596 199 561 185 526C210 527 268 529 331 529C367 529 369 506 361 477C337 396 287 232 254 145C240 107 222 100 192 100C128 100 91 100 56 103C48 70 36 34 22 0C87 3 471 5 540 0C547 33 560 68 574 103C541 102 491 100 429 100C394 100 392 125 400 153ZM612 665C633 677 670 695 698 705C662 750 620 818 605 850C585 849 560 849 549 849C538 849 506 849 487 850C457 819 359 752 311 719C332 705 366 680 382 664C437 701 490 738 530 772C552 739 582 701 612 665Z" glyph-name="Icircumflex" horiz-adv-x="740" unicode="&#206;" /><glyph d="M400 153C424 245 470 387 507 484C522 521 538 529 568 529C632 529 672 528 703 526C712 561 723 595 736 629C672 624 286 626 219 629C211 596 199 561 185 526C210 527 268 529 331 529C367 529 369 506 361 477C337 396 287 232 254 145C240 107 222 100 192 100C128 100 91 100 56 103C48 70 36 34 22 0C87 3 471 5 540 0C547 33 560 68 574 103C541 102 491 100 429 100C394 100 392 125 400 153ZM495 769C495 817 462 846 413 846C364 846 331 818 331 769C331 719 364 690 413 690C462 690 495 721 495 769ZM708 769C708 817 675 846 626 846C577 846 544 818 544 769C544 719 577 690 626 690C675 690 708 721 708 769Z" glyph-name="Idieresis" horiz-adv-x="740" unicode="&#207;" /><glyph d="M400 153C424 245 470 387 507 484C522 521 538 529 568 529C632 529 672 528 703 526C712 561 723 595 736 629C672 624 286 626 219 629C211 596 199 561 185 526C210 527 268 529 331 529C367 529 369 506 361 477C337 396 287 232 254 145C240 107 222 100 192 100C128 100 91 100 56 103C48 70 36 34 22 0C87 3 471 5 540 0C547 33 560 68 574 103C541 102 491 100 429 100C394 100 392 125 400 153ZM594 769C594 816 561 856 503 856C444 856 412 816 412 769C412 720 439 684 503 684C561 684 594 720 594 769Z" glyph-name="Idotaccent" horiz-adv-x="740" unicode="&#304;" /><glyph d="M400 153C424 245 470 387 507 484C522 521 538 529 568 529C632 529 672 528 703 526C712 561 723 595 736 629C672 624 286 626 219 629C211 596 199 561 185 526C210 527 268 529 331 529C367 529 369 506 361 477C337 396 287 232 254 145C240 107 222 100 192 100C128 100 91 100 56 103C48 70 36 34 22 0C87 3 471 5 540 0C547 33 560 68 574 103C541 102 491 100 429 100C394 100 392 125 400 153ZM558 675C565 698 576 740 584 759C530 776 323 845 266 869C259 844 241 776 232 752C302 740 505 692 558 675Z" glyph-name="Igrave" horiz-adv-x="740" unicode="&#204;" /><glyph d="M400 153C424 245 470 387 507 484C522 521 538 529 568 529C632 529 672 528 703 526C712 561 723 595 736 629C672 624 286 626 219 629C211 596 199 561 185 526C210 527 268 529 331 529C367 529 369 506 361 477C337 396 287 232 254 145C240 107 222 100 192 100C128 100 91 100 56 103C48 70 36 34 22 0C87 3 471 5 540 0C547 33 560 68 574 103C541 102 491 100 429 100C394 100 392 125 400 153ZM327 822C318 787 305 749 291 714C341 716 659 716 714 714C723 748 738 789 750 822C693 821 375 821 327 822Z" glyph-name="Imacron" horiz-adv-x="740" unicode="&#298;" /><glyph d="M400 153C424 245 470 387 507 484C522 521 538 529 568 529C632 529 672 528 703 526C712 561 723 595 736 629C672 624 286 626 219 629C211 596 199 561 185 526C210 527 268 529 331 529C367 529 369 506 361 477C337 396 287 232 254 145C240 107 222 100 192 100C128 100 91 100 56 103C48 70 36 34 22 0C68 2 277 4 418 3C345 -21 286 -68 286 -139C286 -202 332 -244 415 -244C442 -244 475 -241 505 -230C502 -209 503 -151 506 -122C488 -130 473 -132 457 -132C421 -132 404 -118 404 -91C404 -36 470 0 540 0C547 33 560 68 574 103C541 102 491 100 429 100C394 100 392 125 400 153Z" glyph-name="Iogonek" horiz-adv-x="740" unicode="&#302;" /><glyph d="M400 153C424 245 470 387 507 484C522 521 538 529 568 529C632 529 672 528 703 526C712 561 723 595 736 629C672 624 286 626 219 629C211 596 199 561 185 526C210 527 268 529 331 529C367 529 369 506 361 477C337 396 287 232 254 145C240 107 222 100 192 100C128 100 91 100 56 103C48 70 36 34 22 0C87 3 471 5 540 0C547 33 560 68 574 103C541 102 491 100 429 100C394 100 392 125 400 153ZM446 859C357 859 306 803 284 686C309 687 336 687 361 686C372 744 395 772 424 772C445 772 454 758 465 737C486 701 510 673 577 673C664 673 714 729 737 846C707 844 680 844 660 846C651 790 629 762 600 762C575 762 564 777 551 797C528 832 506 859 446 859Z" glyph-name="Itilde" horiz-adv-x="740" unicode="&#296;" /><glyph d="M555 192C580 270 621 407 650 484C660 512 678 526 713 526C731 526 750 525 772 525C782 556 796 596 809 630C701 624 336 628 294 630C287 597 272 560 259 522C303 525 376 526 463 526C516 526 519 509 510 477C490 405 448 261 424 203C391 121 337 97 281 97C207 97 163 138 163 202C163 208 164 215 164 222C172 219 181 218 191 218C239 218 270 255 270 303C270 352 240 382 185 382C100 382 51 310 51 206C51 81 117 -14 284 -14C417 -14 508 46 555 192Z" glyph-name="J" horiz-adv-x="740" unicode="J" /><glyph d="M555 192C580 270 621 407 650 484C660 512 678 526 713 526C731 526 750 525 772 525C782 556 796 596 809 630C701 624 336 628 294 630C287 597 272 560 259 522C303 525 376 526 463 526C516 526 519 509 510 477C490 405 448 261 424 203C391 121 337 97 281 97C207 97 163 138 163 202C163 208 164 215 164 222C172 219 181 218 191 218C239 218 270 255 270 303C270 352 240 382 185 382C100 382 51 310 51 206C51 81 117 -14 284 -14C417 -14 508 46 555 192ZM726 665C747 677 784 695 812 705C776 750 734 818 719 850C699 849 674 849 663 849C652 849 620 849 601 850C571 819 473 752 425 719C446 705 480 680 496 664C551 701 604 738 644 772C666 739 696 701 726 665Z" glyph-name="Jcircumflex" horiz-adv-x="740" unicode="&#308;" /><glyph d="M531 -10C599 -10 652 22 687 53C670 84 657 114 647 150C618 117 592 102 562 102C470 102 482 247 407 303C503 365 604 437 659 473C712 507 737 522 772 525C779 559 793 595 807 628C771 627 544 626 507 628C501 605 486 557 476 530C485 531 501 531 521 531C540 531 544 524 544 517C544 506 536 499 522 488C475 450 360 374 256 326C273 381 293 437 312 484C325 516 343 527 372 527C382 527 399 527 410 526C419 557 431 596 444 628C400 624 190 626 151 628C143 596 131 558 118 526C126 527 133 527 150 527C183 527 195 512 185 475C163 393 111 228 77 142C67 118 57 103 20 103C6 103 -4 103 -14 104C-21 69 -34 34 -48 0C-9 2 232 3 268 0C274 24 290 76 300 103H248C204 103 197 125 205 153C212 181 221 213 231 246C248 254 260 259 269 259C397 257 341 -10 531 -10Z" glyph-name="K" horiz-adv-x="740" unicode="K" /><glyph d="M531 -10C599 -10 652 22 687 53C670 84 657 114 647 150C618 117 592 102 562 102C470 102 482 247 407 303C503 365 604 437 659 473C712 507 737 522 772 525C779 559 793 595 807 628C771 627 544 626 507 628C501 605 486 557 476 530C485 531 501 531 521 531C540 531 544 524 544 517C544 506 536 499 522 488C475 450 360 374 256 326C273 381 293 437 312 484C325 516 343 527 372 527C382 527 399 527 410 526C419 557 431 596 444 628C400 624 190 626 151 628C143 596 131 558 118 526C126 527 133 527 150 527C183 527 195 512 185 475C163 393 111 228 77 142C67 118 57 103 20 103C6 103 -4 103 -14 104C-21 69 -34 34 -48 0C-9 2 232 3 268 0C274 24 290 76 300 103H248C204 103 197 125 205 153C212 181 221 213 231 246C248 254 260 259 269 259C397 257 341 -10 531 -10ZM123 -322C259 -317 338 -234 338 -151C338 -93 310 -53 251 -53C200 -53 167 -84 167 -123C167 -158 190 -182 228 -182C254 -182 273 -172 284 -154L290 -156C284 -213 216 -244 118 -245C121 -266 123 -297 123 -322Z" glyph-name="Kcommaaccent" horiz-adv-x="740" unicode="&#310;" /><glyph d="M426 101C380 101 307 102 274 102C308 234 348 370 390 478C405 517 419 529 476 529C523 529 546 529 571 527C581 560 592 596 605 628C484 627 297 628 178 630C170 597 156 562 142 527C161 528 187 528 215 528C256 528 271 513 260 478C237 396 187 234 153 146C141 115 128 104 87 103C56 103 32 103 11 104C2 69 -9 34 -23 0C157 3 408 3 584 0C596 48 652 205 673 257C634 267 596 277 562 287C549 240 533 191 510 145C493 112 475 101 426 101Z" glyph-name="L" horiz-adv-x="740" unicode="L" /><glyph d="M426 101C380 101 307 102 274 102C308 234 348 370 390 478C405 517 419 529 476 529C523 529 546 529 571 527C581 560 592 596 605 628C484 627 297 628 178 630C170 597 156 562 142 527C161 528 187 528 215 528C256 528 271 513 260 478C237 396 187 234 153 146C141 115 128 104 87 103C56 103 32 103 11 104C2 69 -9 34 -23 0C157 3 408 3 584 0C596 48 652 205 673 257C634 267 596 277 562 287C549 240 533 191 510 145C493 112 475 101 426 101ZM314 675C367 692 570 740 640 752C631 776 613 844 606 869C549 845 342 776 288 759C296 740 308 698 314 675Z" glyph-name="Lacute" horiz-adv-x="740" unicode="&#313;" /><glyph d="M426 101C380 101 307 102 274 102C308 234 348 370 390 478C405 517 419 529 476 529C523 529 546 529 571 527C581 560 592 596 605 628C484 627 297 628 178 630C170 597 156 562 142 527C161 528 187 528 215 528C256 528 271 513 260 478C237 396 187 234 153 146C141 115 128 104 87 103C56 103 32 103 11 104C2 69 -9 34 -23 0C157 3 408 3 584 0C596 48 652 205 673 257C634 267 596 277 562 287C549 240 533 191 510 145C493 112 475 101 426 101ZM771 649C735 640 687 636 649 631C666 566 647 484 608 424C633 417 667 404 687 392C751 475 779 568 771 649Z" glyph-name="Lcaron" horiz-adv-x="740" unicode="&#317;" /><glyph d="M426 101C380 101 307 102 274 102C308 234 348 370 390 478C405 517 419 529 476 529C523 529 546 529 571 527C581 560 592 596 605 628C484 627 297 628 178 630C170 597 156 562 142 527C161 528 187 528 215 528C256 528 271 513 260 478C237 396 187 234 153 146C141 115 128 104 87 103C56 103 32 103 11 104C2 69 -9 34 -23 0C157 3 408 3 584 0C596 48 652 205 673 257C634 267 596 277 562 287C549 240 533 191 510 145C493 112 475 101 426 101ZM160 -322C296 -317 375 -234 375 -151C375 -93 347 -53 288 -53C237 -53 204 -84 204 -123C204 -158 227 -182 265 -182C291 -182 310 -172 321 -154L327 -156C321 -213 253 -244 155 -245C158 -266 160 -297 160 -322Z" glyph-name="Lcommaaccent" horiz-adv-x="740" unicode="&#315;" /><glyph d="M439 101C388 101 309 102 274 102C308 234 348 370 390 478C405 517 419 529 476 529C523 529 546 529 571 527C581 560 592 596 605 628C484 627 297 628 178 630C170 597 156 562 142 527C161 528 187 528 215 528C256 528 271 514 260 478C237 396 187 234 153 146C141 116 128 104 87 103C56 103 32 103 11 104C2 69 -9 35 -23 0C157 3 408 3 584 0C592 33 629 141 644 176C605 186 567 197 533 206C526 183 518 157 507 134C494 108 478 101 439 101ZM687 350C687 401 653 442 590 442C525 442 491 401 491 350C491 298 519 257 590 257C653 257 687 298 687 350Z" glyph-name="Ldot" horiz-adv-x="740" unicode="&#319;" /><glyph d="M48 300C55 276 61 250 65 224C83 231 132 245 194 262C180 219 165 178 153 146C141 115 128 104 87 103C56 103 32 103 11 104C2 69 -9 34 -23 0C157 3 408 3 584 0C596 48 652 205 673 257C634 267 596 277 562 287C549 240 533 191 510 145C493 112 475 101 426 101C380 101 307 102 274 102C291 168 309 235 329 299C442 330 555 359 590 366C582 392 575 419 571 441C542 430 452 405 354 378C366 413 378 447 390 478C405 517 419 529 476 529C523 529 546 529 571 527C581 560 592 596 605 628C484 627 297 628 178 630C170 597 156 562 142 527C161 528 187 528 215 528C256 528 271 513 260 478C250 443 236 394 220 343C139 322 70 304 48 300Z" glyph-name="Lslash" horiz-adv-x="740" unicode="&#321;" /><glyph d="M601 0C605 23 624 79 633 104C619 103 613 103 600 103C566 103 560 122 570 153C594 243 644 398 676 485C688 516 703 527 736 527C748 527 757 527 770 526C778 560 789 595 803 628C772 626 606 627 577 628C556 588 451 438 387 354C373 435 365 585 364 628C333 625 183 626 155 628C148 595 136 561 122 527H157C191 527 197 513 187 477C164 395 114 233 81 146C69 116 56 103 23 103C10 103 0 103 -9 104C-17 70 -30 34 -43 0C-10 2 199 3 234 0C238 23 257 77 267 104C256 103 245 103 227 103C186 103 183 124 191 154C203 198 217 254 233 312C249 372 264 441 275 499H283L308 203C328 205 348 205 368 203L570 500L577 498C554 439 526 360 507 305C486 245 465 188 450 146C437 114 422 103 399 103C387 103 371 102 359 104C350 69 339 34 325 0C359 2 566 3 601 0Z" glyph-name="M" horiz-adv-x="740" unicode="M" /><glyph d="M553 0C570 83 664 383 702 484C716 523 730 527 757 527C769 527 773 527 779 526C789 558 799 594 813 628C781 624 575 626 538 628C530 595 517 558 504 526C516 527 522 527 541 527C584 527 595 513 586 478C576 440 563 388 542 319C529 274 510 200 499 124L491 123C484 185 468 255 450 320C414 452 386 582 382 628C357 625 182 626 152 628C145 595 134 562 120 526C125 526 137 527 150 527C177 527 187 512 176 477C153 396 102 233 69 146C56 111 41 103 18 103C8 103 -1 102 -13 104C-22 70 -33 34 -47 0C-11 2 202 3 238 0C242 22 259 76 271 104C257 101 238 103 219 103C180 105 181 129 186 153C195 198 213 248 229 307C243 354 264 444 276 522H282C295 450 316 365 337 279C365 157 397 36 400 0C411 1 518 1 553 0Z" glyph-name="N" horiz-adv-x="740" unicode="N" /><glyph d="M553 0C570 83 664 383 702 484C716 523 730 527 757 527C769 527 773 527 779 526C789 558 799 594 813 628C781 624 575 626 538 628C530 595 517 558 504 526C516 527 522 527 541 527C584 527 595 513 586 478C576 440 563 388 542 319C529 274 510 200 499 124L491 123C484 185 468 255 450 320C414 452 386 582 382 628C357 625 182 626 152 628C145 595 134 562 120 526C125 526 137 527 150 527C177 527 187 512 176 477C153 396 102 233 69 146C56 111 41 103 18 103C8 103 -1 102 -13 104C-22 70 -33 34 -47 0C-11 2 202 3 238 0C242 22 259 76 271 104C257 101 238 103 219 103C180 105 181 129 186 153C195 198 213 248 229 307C243 354 264 444 276 522H282C295 450 316 365 337 279C365 157 397 36 400 0C411 1 518 1 553 0ZM394 675C447 692 650 740 720 752C711 776 693 844 686 869C629 845 422 776 368 759C376 740 388 698 394 675Z" glyph-name="Nacute" horiz-adv-x="740" unicode="&#323;" /><glyph d="M553 0C570 83 664 383 702 484C716 523 730 527 757 527C769 527 773 527 779 526C789 558 799 594 813 628C781 624 575 626 538 628C530 595 517 558 504 526C516 527 522 527 541 527C584 527 595 513 586 478C576 440 563 388 542 319C529 274 510 200 499 124L491 123C484 185 468 255 450 320C414 452 386 582 382 628C357 625 182 626 152 628C145 595 134 562 120 526C125 526 137 527 150 527C177 527 187 512 176 477C153 396 102 233 69 146C56 111 41 103 18 103C8 103 -1 102 -13 104C-22 70 -33 34 -47 0C-11 2 202 3 238 0C242 22 259 76 271 104C257 101 238 103 219 103C180 105 181 129 186 153C195 198 213 248 229 307C243 354 264 444 276 522H282C295 450 316 365 337 279C365 157 397 36 400 0C411 1 518 1 553 0ZM544 669C574 700 672 767 720 800C699 814 665 839 649 855C594 818 541 781 501 747C479 780 449 818 419 854C398 842 361 824 333 814C369 769 411 701 426 669C446 670 471 670 482 670C493 670 525 670 544 669Z" glyph-name="Ncaron" horiz-adv-x="740" unicode="&#327;" /><glyph d="M553 0C570 83 664 383 702 484C716 523 730 527 757 527C769 527 773 527 779 526C789 558 799 594 813 628C781 624 575 626 538 628C530 595 517 558 504 526C516 527 522 527 541 527C584 527 595 513 586 478C576 440 563 388 542 319C529 274 510 200 499 124L491 123C484 185 468 255 450 320C414 452 386 582 382 628C357 625 182 626 152 628C145 595 134 562 120 526C125 526 137 527 150 527C177 527 187 512 176 477C153 396 102 233 69 146C56 111 41 103 18 103C8 103 -1 102 -13 104C-22 70 -33 34 -47 0C-11 2 202 3 238 0C242 22 259 76 271 104C257 101 238 103 219 103C180 105 181 129 186 153C195 198 213 248 229 307C243 354 264 444 276 522H282C295 450 316 365 337 279C365 157 397 36 400 0C411 1 518 1 553 0ZM119 -322C255 -317 334 -234 334 -151C334 -93 306 -53 247 -53C196 -53 163 -84 163 -123C163 -158 186 -182 224 -182C250 -182 269 -172 280 -154L286 -156C280 -213 212 -244 114 -245C117 -266 119 -297 119 -322Z" glyph-name="Ncommaaccent" horiz-adv-x="740" unicode="&#325;" /><glyph d="M553 0C570 83 664 383 702 484C716 523 730 527 757 527C769 527 773 527 779 526C789 558 799 594 813 628C781 624 575 626 538 628C530 595 517 558 504 526C516 527 522 527 541 527C584 527 595 513 586 478C576 440 563 388 542 319C529 274 510 200 499 124L491 123C484 185 468 255 450 320C414 452 386 582 382 628C357 625 182 626 152 628C145 595 134 562 120 526C125 526 137 527 150 527C177 527 187 512 176 477C153 396 102 233 69 146C56 111 41 103 18 103C8 103 -1 102 -13 104C-22 70 -33 34 -47 0C-11 2 202 3 238 0C242 22 259 76 271 104C257 101 238 103 219 103C180 105 181 129 186 153C195 198 213 248 229 307C243 354 264 444 276 522H282C295 450 316 365 337 279C365 157 397 36 400 0C411 1 518 1 553 0ZM441 859C352 859 301 803 279 686C304 687 331 687 356 686C367 744 390 772 419 772C440 772 449 758 460 737C481 701 505 673 572 673C659 673 709 729 732 846C702 844 675 844 655 846C646 790 624 762 595 762C570 762 559 777 546 797C523 832 501 859 441 859Z" glyph-name="Ntilde" horiz-adv-x="740" unicode="&#209;" /><glyph d="M438 642C184 642 46 432 46 233C46 86 132 -14 321 -14C575 -14 713 196 713 395C713 542 627 642 438 642ZM331 97C239 97 185 146 185 248C185 388 280 531 425 531C519 531 573 481 573 380C573 240 478 97 331 97Z" glyph-name="O" horiz-adv-x="740" unicode="O" /><glyph d="M319 0C374 1 442 2 508 2C560 2 608 1 650 0C658 36 698 151 716 190C676 198 640 209 610 219C604 200 597 178 590 159C573 112 559 99 516 99C481 99 430 100 406 101C423 164 438 221 455 276C513 274 587 271 605 270C609 299 615 328 624 359C606 358 536 356 479 355C498 413 518 469 542 530H612C649 530 661 522 660 492C659 464 656 435 653 410C688 413 730 413 767 412C771 458 787 584 793 628C755 627 683 626 608 626C533 626 458 628 410 628C151 628 19 424 19 239C19 93 113 0 319 0ZM146 247C146 381 240 532 403 532H417C389 432 336 256 283 103C197 111 146 152 146 247Z" glyph-name="OE" horiz-adv-x="740" unicode="&#338;" /><glyph d="M438 642C184 642 46 432 46 233C46 86 132 -14 321 -14C575 -14 713 196 713 395C713 542 627 642 438 642ZM331 97C239 97 185 146 185 248C185 388 280 531 425 531C519 531 573 481 573 380C573 240 478 97 331 97ZM383 675C436 692 639 740 709 752C700 776 682 844 675 869C618 845 411 776 357 759C365 740 377 698 383 675Z" glyph-name="Oacute" horiz-adv-x="740" unicode="&#211;" /><glyph d="M438 642C184 642 46 432 46 233C46 86 132 -14 321 -14C575 -14 713 196 713 395C713 542 627 642 438 642ZM331 97C239 97 185 146 185 248C185 388 280 531 425 531C519 531 573 481 573 380C573 240 478 97 331 97ZM475 772C418 772 402 807 400 858C378 852 316 838 289 834C296 739 359 683 463 683C575 683 640 736 687 831C663 836 608 851 588 859C559 799 529 772 475 772Z" glyph-name="Obreve" horiz-adv-x="740" unicode="&#334;" /><glyph d="M438 642C184 642 46 432 46 233C46 86 132 -14 321 -14C575 -14 713 196 713 395C713 542 627 642 438 642ZM331 97C239 97 185 146 185 248C185 388 280 531 425 531C519 531 573 481 573 380C573 240 478 97 331 97ZM577 665C598 677 635 695 663 705C627 750 585 818 570 850C550 849 525 849 514 849C503 849 471 849 452 850C422 819 324 752 276 719C297 705 331 680 347 664C402 701 455 738 495 772C517 739 547 701 577 665Z" glyph-name="Ocircumflex" horiz-adv-x="740" unicode="&#212;" /><glyph d="M438 642C184 642 46 432 46 233C46 86 132 -14 321 -14C575 -14 713 196 713 395C713 542 627 642 438 642ZM331 97C239 97 185 146 185 248C185 388 280 531 425 531C519 531 573 481 573 380C573 240 478 97 331 97ZM459 769C459 817 426 846 377 846C328 846 295 818 295 769C295 719 328 690 377 690C426 690 459 721 459 769ZM672 769C672 817 639 846 590 846C541 846 508 818 508 769C508 719 541 690 590 690C639 690 672 721 672 769Z" glyph-name="Odieresis" horiz-adv-x="740" unicode="&#214;" /><glyph d="M438 642C184 642 46 432 46 233C46 86 132 -14 321 -14C575 -14 713 196 713 395C713 542 627 642 438 642ZM331 97C239 97 185 146 185 248C185 388 280 531 425 531C519 531 573 481 573 380C573 240 478 97 331 97ZM522 675C529 698 540 740 548 759C494 776 287 845 230 869C223 844 205 776 196 752C266 740 469 692 522 675Z" glyph-name="Ograve" horiz-adv-x="740" unicode="&#210;" /><glyph d="M438 642C184 642 46 432 46 233C46 86 132 -14 321 -14C575 -14 713 196 713 395C713 542 627 642 438 642ZM331 97C239 97 185 146 185 248C185 388 280 531 425 531C519 531 573 481 573 380C573 240 478 97 331 97ZM388 671C411 697 526 808 556 836C537 846 495 876 474 892C448 858 350 745 325 719C344 707 369 689 388 671ZM553 668C581 692 707 786 738 810C713 827 676 861 660 879C634 850 519 744 492 719C512 706 536 685 553 668Z" glyph-name="Ohungarumlaut" horiz-adv-x="740" unicode="&#336;" /><glyph d="M438 642C184 642 46 432 46 233C46 86 132 -14 321 -14C575 -14 713 196 713 395C713 542 627 642 438 642ZM331 97C239 97 185 146 185 248C185 388 280 531 425 531C519 531 573 481 573 380C573 240 478 97 331 97ZM291 822C282 787 269 749 255 714C305 716 623 716 678 714C687 748 702 789 714 822C657 821 339 821 291 822Z" glyph-name="Omacron" horiz-adv-x="740" unicode="&#332;" /><glyph d="M-1 49C13 30 31 10 44 -12C56 0 82 22 116 51C161 10 229 -14 321 -14C575 -14 713 196 713 395C713 441 705 483 687 518C721 544 747 565 763 576C744 596 728 617 715 636C702 623 678 601 646 574C601 617 532 642 438 642C184 642 46 432 46 233C46 185 55 142 74 106C39 79 13 59 -1 49ZM178 250C178 395 271 538 426 538C480 538 522 522 548 491C438 399 297 284 184 194C180 210 178 229 178 250ZM329 90C278 90 239 104 213 134C323 224 463 339 576 429C579 414 581 397 581 378C581 233 484 90 329 90Z" glyph-name="Oslash" horiz-adv-x="740" unicode="&#216;" /><glyph d="M-1 49C13 30 31 10 44 -12C56 0 82 22 116 51C161 10 229 -14 321 -14C575 -14 713 196 713 395C713 441 705 483 687 518C721 544 747 565 763 576C744 596 728 617 715 636C702 623 678 601 646 574C601 617 532 642 438 642C184 642 46 432 46 233C46 185 55 142 74 106C39 79 13 59 -1 49ZM178 250C178 395 271 538 426 538C480 538 522 522 548 491C438 399 297 284 184 194C180 210 178 229 178 250ZM329 90C278 90 239 104 213 134C323 224 463 339 576 429C579 414 581 397 581 378C581 233 484 90 329 90ZM383 675C436 692 639 740 709 752C700 776 682 844 675 869C618 845 411 776 357 759C365 740 377 698 383 675Z" glyph-name="Oslashacute" horiz-adv-x="740" unicode="&#510;" /><glyph d="M438 642C184 642 46 432 46 233C46 86 132 -14 321 -14C575 -14 713 196 713 395C713 542 627 642 438 642ZM331 97C239 97 185 146 185 248C185 388 280 531 425 531C519 531 573 481 573 380C573 240 478 97 331 97ZM410 859C321 859 270 803 248 686C273 687 300 687 325 686C336 744 359 772 388 772C409 772 418 758 429 737C450 701 474 673 541 673C628 673 678 729 701 846C671 844 644 844 624 846C615 790 593 762 564 762C539 762 528 777 515 797C492 832 470 859 410 859Z" glyph-name="Otilde" horiz-adv-x="740" unicode="&#213;" /><glyph d="M421 307C373 307 336 309 293 313C312 376 336 448 364 527C409 529 462 529 497 529C574 529 612 503 612 445C612 353 549 307 421 307ZM365 0C369 22 385 77 394 104C362 103 323 103 286 103C241 103 236 114 246 153C252 174 259 198 267 227C311 221 363 215 429 215C633 215 738 311 738 452C738 585 646 628 512 628C485 628 406 627 329 627C253 627 177 627 154 628C146 596 135 561 121 526C134 527 160 527 184 527C220 527 235 513 225 477C201 396 150 233 118 146C104 108 86 103 55 103C35 103 14 102 -9 104C-16 69 -30 34 -44 0C6 3 314 4 365 0Z" glyph-name="P" horiz-adv-x="740" unicode="P" /><glyph d="M325 85C287 86 258 120 258 189C258 236 279 274 319 274C359 274 378 237 366 88C353 86 339 85 325 85ZM154 246C154 388 261 535 426 535C535 535 598 484 598 376C598 276 545 174 456 121C468 283 437 350 340 350C251 350 207 277 207 197C207 166 216 135 233 110L229 104C181 129 154 175 154 246ZM438 642C184 642 46 432 46 233C46 86 132 -14 321 -14C336 -14 351 -13 366 -12C377 -128 426 -202 556 -202C627 -202 689 -162 689 -94C689 -58 669 -9 607 -9C563 -9 524 -39 524 -88C524 -93 524 -98 525 -102C478 -90 459 -48 454 7C623 66 713 234 713 395C713 542 627 642 438 642Z" glyph-name="Q" horiz-adv-x="740" unicode="Q" /><glyph d="M417 336C352 336 312 338 262 342C281 398 302 462 328 533C368 534 417 535 450 535C551 535 583 511 583 454C583 375 518 336 417 336ZM531 -10C599 -10 652 22 687 53C670 84 657 114 647 150C618 117 592 102 562 102C511 102 494 144 473 189C461 216 448 239 428 257C434 257 440 257 446 257C623 257 713 354 713 468C713 589 628 629 482 629C451 629 363 627 279 626C214 626 171 627 151 628C143 596 131 559 118 526C124 527 134 527 149 527C181 527 195 514 185 476C163 394 111 228 77 142C66 116 57 103 20 102C10 102 -4 102 -13 103C-21 69 -34 34 -47 0C-10 2 218 3 253 0C258 22 276 76 286 103C272 102 261 102 248 102C208 102 197 121 204 150C212 180 223 216 235 256C324 249 342 209 372 131C401 61 430 -10 531 -10Z" glyph-name="R" horiz-adv-x="740" unicode="R" /><glyph d="M417 336C352 336 312 338 262 342C281 398 302 462 328 533C368 534 417 535 450 535C551 535 583 511 583 454C583 375 518 336 417 336ZM531 -10C599 -10 652 22 687 53C670 84 657 114 647 150C618 117 592 102 562 102C511 102 494 144 473 189C461 216 448 239 428 257C434 257 440 257 446 257C623 257 713 354 713 468C713 589 628 629 482 629C451 629 363 627 279 626C214 626 171 627 151 628C143 596 131 559 118 526C124 527 134 527 149 527C181 527 195 514 185 476C163 394 111 228 77 142C66 116 57 103 20 102C10 102 -4 102 -13 103C-21 69 -34 34 -47 0C-10 2 218 3 253 0C258 22 276 76 286 103C272 102 261 102 248 102C208 102 197 121 204 150C212 180 223 216 235 256C324 249 342 209 372 131C401 61 430 -10 531 -10ZM375 675C428 692 631 740 701 752C692 776 674 844 667 869C610 845 403 776 349 759C357 740 369 698 375 675Z" glyph-name="Racute" horiz-adv-x="740" unicode="&#340;" /><glyph d="M417 336C352 336 312 338 262 342C281 398 302 462 328 533C368 534 417 535 450 535C551 535 583 511 583 454C583 375 518 336 417 336ZM531 -10C599 -10 652 22 687 53C670 84 657 114 647 150C618 117 592 102 562 102C511 102 494 144 473 189C461 216 448 239 428 257C434 257 440 257 446 257C623 257 713 354 713 468C713 589 628 629 482 629C451 629 363 627 279 626C214 626 171 627 151 628C143 596 131 559 118 526C124 527 134 527 149 527C181 527 195 514 185 476C163 394 111 228 77 142C66 116 57 103 20 102C10 102 -4 102 -13 103C-21 69 -34 34 -47 0C-10 2 218 3 253 0C258 22 276 76 286 103C272 102 261 102 248 102C208 102 197 121 204 150C212 180 223 216 235 256C324 249 342 209 372 131C401 61 430 -10 531 -10ZM525 669C555 700 653 767 701 800C680 814 646 839 630 855C575 818 522 781 482 747C460 780 430 818 400 854C379 842 342 824 314 814C350 769 392 701 407 669C427 670 452 670 463 670C474 670 506 670 525 669Z" glyph-name="Rcaron" horiz-adv-x="740" unicode="&#344;" /><glyph d="M417 336C352 336 312 338 262 342C281 398 302 462 328 533C368 534 417 535 450 535C551 535 583 511 583 454C583 375 518 336 417 336ZM531 -10C599 -10 652 22 687 53C670 84 657 114 647 150C618 117 592 102 562 102C511 102 494 144 473 189C461 216 448 239 428 257C434 257 440 257 446 257C623 257 713 354 713 468C713 589 628 629 482 629C451 629 363 627 279 626C214 626 171 627 151 628C143 596 131 559 118 526C124 527 134 527 149 527C181 527 195 514 185 476C163 394 111 228 77 142C66 116 57 103 20 102C10 102 -4 102 -13 103C-21 69 -34 34 -47 0C-10 2 218 3 253 0C258 22 276 76 286 103C272 102 261 102 248 102C208 102 197 121 204 150C212 180 223 216 235 256C324 249 342 209 372 131C401 61 430 -10 531 -10ZM181 -322C317 -317 396 -234 396 -151C396 -93 368 -53 309 -53C258 -53 225 -84 225 -123C225 -158 248 -182 286 -182C312 -182 331 -172 342 -154L348 -156C342 -213 274 -244 176 -245C179 -266 181 -297 181 -322Z" glyph-name="Rcommaaccent" horiz-adv-x="740" unicode="&#342;" /><glyph d="M157 449C157 347 234 308 381 255C468 222 500 202 500 166C500 124 465 96 383 96C263 96 194 149 194 235C194 245 194 253 195 263C162 264 117 268 86 275C72 222 25 68 -4 0C35 2 81 2 131 0C137 32 147 82 159 130H168C191 40 267 -14 402 -14C541 -14 626 58 626 166C626 269 554 314 437 354C305 398 284 418 284 458C284 503 323 533 393 533C491 533 561 492 561 394C561 384 561 375 560 365C592 365 636 362 665 358C679 411 725 561 754 628C724 626 662 626 619 628C612 595 602 549 590 500H580C559 589 492 642 380 642C243 642 157 554 157 449Z" glyph-name="S" horiz-adv-x="740" unicode="S" /><glyph d="M157 449C157 347 234 308 381 255C468 222 500 202 500 166C500 124 465 96 383 96C263 96 194 149 194 235C194 245 194 253 195 263C162 264 117 268 86 275C72 222 25 68 -4 0C35 2 81 2 131 0C137 32 147 82 159 130H168C191 40 267 -14 402 -14C541 -14 626 58 626 166C626 269 554 314 437 354C305 398 284 418 284 458C284 503 323 533 393 533C491 533 561 492 561 394C561 384 561 375 560 365C592 365 636 362 665 358C679 411 725 561 754 628C724 626 662 626 619 628C612 595 602 549 590 500H580C559 589 492 642 380 642C243 642 157 554 157 449ZM395 675C448 692 651 740 721 752C712 776 694 844 687 869C630 845 423 776 369 759C377 740 389 698 395 675Z" glyph-name="Sacute" horiz-adv-x="740" unicode="&#346;" /><glyph d="M157 449C157 347 234 308 381 255C468 222 500 202 500 166C500 124 465 96 383 96C263 96 194 149 194 235C194 245 194 253 195 263C162 264 117 268 86 275C72 222 25 68 -4 0C35 2 81 2 131 0C137 32 147 82 159 130H168C191 40 267 -14 402 -14C541 -14 626 58 626 166C626 269 554 314 437 354C305 398 284 418 284 458C284 503 323 533 393 533C491 533 561 492 561 394C561 384 561 375 560 365C592 365 636 362 665 358C679 411 725 561 754 628C724 626 662 626 619 628C612 595 602 549 590 500H580C559 589 492 642 380 642C243 642 157 554 157 449ZM536 669C566 700 664 767 712 800C691 814 657 839 641 855C586 818 533 781 493 747C471 780 441 818 411 854C390 842 353 824 325 814C361 769 403 701 418 669C438 670 463 670 474 670C485 670 517 670 536 669Z" glyph-name="Scaron" horiz-adv-x="740" unicode="&#352;" /><glyph d="M157 449C157 347 234 308 381 255C468 222 500 202 500 166C500 124 465 96 383 96C263 96 194 149 194 235C194 245 194 253 195 263C162 264 117 268 86 275C72 222 25 68 -4 0C35 2 81 2 131 0C137 32 147 82 159 130H168C181 77 214 36 266 12C250 -19 225 -64 210 -87C225 -92 242 -102 259 -115C274 -107 290 -100 312 -100C334 -100 351 -109 349 -132C347 -159 323 -174 285 -174C239 -174 196 -152 169 -126C156 -149 134 -182 117 -199C151 -225 211 -243 274 -243C377 -243 422 -193 426 -135C430 -81 402 -55 351 -55C323 -55 300 -64 280 -77C292 -54 306 -28 319 -6C343 -11 371 -14 402 -14C541 -14 626 58 626 166C626 269 554 314 437 354C305 398 284 418 284 458C284 503 323 533 393 533C491 533 561 492 561 394C561 384 561 375 560 365C592 365 636 362 665 358C679 411 725 561 754 628C724 626 662 626 619 628C612 595 602 549 590 500H580C559 589 492 642 380 642C243 642 157 554 157 449Z" glyph-name="Scedilla" horiz-adv-x="740" unicode="&#350;" /><glyph d="M157 449C157 347 234 308 381 255C468 222 500 202 500 166C500 124 465 96 383 96C263 96 194 149 194 235C194 245 194 253 195 263C162 264 117 268 86 275C72 222 25 68 -4 0C35 2 81 2 131 0C137 32 147 82 159 130H168C191 40 267 -14 402 -14C541 -14 626 58 626 166C626 269 554 314 437 354C305 398 284 418 284 458C284 503 323 533 393 533C491 533 561 492 561 394C561 384 561 375 560 365C592 365 636 362 665 358C679 411 725 561 754 628C724 626 662 626 619 628C612 595 602 549 590 500H580C559 589 492 642 380 642C243 642 157 554 157 449ZM596 665C617 677 654 695 682 705C646 750 604 818 589 850C569 849 544 849 533 849C522 849 490 849 471 850C441 819 343 752 295 719C316 705 350 680 366 664C421 701 474 738 514 772C536 739 566 701 596 665Z" glyph-name="Scircumflex" horiz-adv-x="740" unicode="&#348;" /><glyph d="M157 449C157 347 234 308 381 255C468 222 500 202 500 166C500 124 465 96 383 96C263 96 194 149 194 235C194 245 194 253 195 263C162 264 117 268 86 275C72 222 25 68 -4 0C35 2 81 2 131 0C137 32 147 82 159 130H168C191 40 267 -14 402 -14C541 -14 626 58 626 166C626 269 554 314 437 354C305 398 284 418 284 458C284 503 323 533 393 533C491 533 561 492 561 394C561 384 561 375 560 365C592 365 636 362 665 358C679 411 725 561 754 628C724 626 662 626 619 628C612 595 602 549 590 500H580C559 589 492 642 380 642C243 642 157 554 157 449ZM162 -322C298 -317 377 -234 377 -151C377 -93 349 -53 290 -53C239 -53 206 -84 206 -123C206 -158 229 -182 267 -182C293 -182 312 -172 323 -154L329 -156C323 -213 255 -244 157 -245C160 -266 162 -297 162 -322Z" glyph-name="Scommaaccent" horiz-adv-x="740" unicode="&#536;" /><glyph d="M527 0C534 33 549 69 562 104C540 103 485 101 428 101C381 101 381 125 389 154C412 241 455 376 503 528C533 528 556 529 570 529C603 529 619 521 617 483C612 423 601 366 590 301C625 303 667 304 703 302C708 373 735 562 744 628C629 623 230 625 160 628C146 573 74 397 48 330C87 327 126 319 157 309C180 374 197 423 227 482C246 516 264 529 304 529C329 529 354 529 380 529C338 385 288 231 256 146C242 106 222 101 190 101C141 101 104 101 87 104C80 69 66 34 52 0C112 3 464 5 527 0Z" glyph-name="T" horiz-adv-x="740" unicode="T" /><glyph d="M175 351C169 320 159 288 148 257C167 259 226 259 296 260C281 215 267 176 256 146C242 106 222 101 190 101C141 101 104 101 87 104C80 69 66 34 52 0C112 3 464 5 527 0C534 33 549 69 562 104C540 103 485 101 428 101C381 101 381 125 389 154C397 184 407 220 419 260C490 260 552 259 573 257C580 288 590 318 601 351C580 349 517 348 446 347C463 403 483 464 503 528C533 528 555 529 570 529C603 529 619 521 617 483C614 456 609 426 604 396C639 399 681 399 716 397C720 447 738 581 744 628C629 623 230 625 160 628C150 588 102 462 84 414C122 411 162 403 192 393C204 426 212 452 227 482C245 517 264 529 304 529C329 529 354 529 380 529C362 468 343 406 325 347C254 348 193 349 175 351Z" glyph-name="Tbar" horiz-adv-x="740" unicode="&#358;" /><glyph d="M527 0C534 33 549 69 562 104C540 103 485 101 428 101C381 101 381 125 389 154C412 241 455 376 503 528C533 528 556 529 570 529C603 529 619 521 617 483C612 423 601 366 590 301C625 303 667 304 703 302C708 373 735 562 744 628C629 623 230 625 160 628C146 573 74 397 48 330C87 327 126 319 157 309C180 374 197 423 227 482C246 516 264 529 304 529C329 529 354 529 380 529C338 385 288 231 256 146C242 106 222 101 190 101C141 101 104 101 87 104C80 69 66 34 52 0C112 3 464 5 527 0ZM529 669C559 700 657 767 705 800C684 814 650 839 634 855C579 818 526 781 486 747C464 780 434 818 404 854C383 842 346 824 318 814C354 769 396 701 411 669C431 670 456 670 467 670C478 670 510 670 529 669Z" glyph-name="Tcaron" horiz-adv-x="740" unicode="&#356;" /><glyph d="M92 -199C126 -225 186 -243 249 -243C352 -243 397 -193 401 -135C405 -81 377 -55 326 -55C298 -55 275 -64 255 -77C269 -51 285 -21 299 3C398 3 497 2 527 0C534 33 549 69 562 104C540 103 485 101 428 101C381 101 381 125 389 154C412 241 455 376 503 528C533 528 556 529 570 529C603 529 619 521 617 483C612 423 601 366 590 301C625 303 667 304 703 302C708 373 735 562 744 628C629 623 230 625 160 628C146 573 74 397 48 330C87 327 126 319 157 309C180 374 197 423 227 482C246 516 264 529 304 529C329 529 354 529 380 529C338 385 288 231 256 146C242 106 222 101 190 101C141 101 104 101 87 104C80 69 66 34 52 0C77 1 152 2 236 3C221 -27 198 -67 185 -87C200 -92 217 -102 234 -115C249 -107 265 -100 287 -100C309 -100 326 -109 324 -132C322 -159 298 -174 260 -174C214 -174 171 -152 144 -126C131 -149 109 -182 92 -199Z" glyph-name="Tcommaaccent" horiz-adv-x="740" unicode="&#354;" /><glyph d="M407 203C357 203 320 205 274 210C297 287 320 357 341 422C387 424 443 424 482 424C558 424 599 398 599 340C599 248 535 203 407 203ZM121 526C133 528 160 527 184 527C220 527 235 513 225 477C201 396 150 233 118 146C104 108 86 103 55 103C35 103 14 103 -9 104C-16 69 -30 34 -44 0C-12 2 186 3 214 0C225 41 236 81 248 119C294 113 350 107 421 107C624 107 730 204 730 348C730 484 643 528 504 528C484 528 434 527 377 527C390 562 402 596 414 628C324 625 220 625 154 628C146 596 135 561 121 526Z" glyph-name="Thorn" horiz-adv-x="740" unicode="&#222;" /><glyph d="M602 192C628 270 669 407 697 484C709 517 724 527 751 527C765 527 777 527 787 526C796 560 809 595 822 628C781 624 567 626 529 628C521 596 509 561 496 526C506 527 520 527 543 527C572 527 579 511 570 477C549 405 514 284 485 209C456 133 401 95 325 95C242 95 204 135 220 213C230 262 280 408 315 489C326 515 342 527 368 527C381 527 396 527 410 526C420 560 430 595 443 628C397 624 185 626 146 628C138 596 124 561 111 526C118 526 137 527 146 527C186 527 193 514 183 478C165 414 120 289 101 220C63 82 142 -14 307 -14C456 -14 555 46 602 192Z" glyph-name="U" horiz-adv-x="740" unicode="U" /><glyph d="M602 192C628 270 669 407 697 484C709 517 724 527 751 527C765 527 777 527 787 526C796 560 809 595 822 628C781 624 567 626 529 628C521 596 509 561 496 526C506 527 520 527 543 527C572 527 579 511 570 477C549 405 514 284 485 209C456 133 401 95 325 95C242 95 204 135 220 213C230 262 280 408 315 489C326 515 342 527 368 527C381 527 396 527 410 526C420 560 430 595 443 628C397 624 185 626 146 628C138 596 124 561 111 526C118 526 137 527 146 527C186 527 193 514 183 478C165 414 120 289 101 220C63 82 142 -14 307 -14C456 -14 555 46 602 192ZM388 675C441 692 644 740 714 752C705 776 687 844 680 869C623 845 416 776 362 759C370 740 382 698 388 675Z" glyph-name="Uacute" horiz-adv-x="740" unicode="&#218;" /><glyph d="M602 192C628 270 669 407 697 484C709 517 724 527 751 527C765 527 777 527 787 526C796 560 809 595 822 628C781 624 567 626 529 628C521 596 509 561 496 526C506 527 520 527 543 527C572 527 579 511 570 477C549 405 514 284 485 209C456 133 401 95 325 95C242 95 204 135 220 213C230 262 280 408 315 489C326 515 342 527 368 527C381 527 396 527 410 526C420 560 430 595 443 628C397 624 185 626 146 628C138 596 124 561 111 526C118 526 137 527 146 527C186 527 193 514 183 478C165 414 120 289 101 220C63 82 142 -14 307 -14C456 -14 555 46 602 192ZM499 772C442 772 426 807 424 858C402 852 340 838 313 834C320 739 383 683 487 683C599 683 664 736 711 831C687 836 632 851 612 859C583 799 553 772 499 772Z" glyph-name="Ubreve" horiz-adv-x="740" unicode="&#364;" /><glyph d="M602 192C628 270 669 407 697 484C709 517 724 527 751 527C765 527 777 527 787 526C796 560 809 595 822 628C781 624 567 626 529 628C521 596 509 561 496 526C506 527 520 527 543 527C572 527 579 511 570 477C549 405 514 284 485 209C456 133 401 95 325 95C242 95 204 135 220 213C230 262 280 408 315 489C326 515 342 527 368 527C381 527 396 527 410 526C420 560 430 595 443 628C397 624 185 626 146 628C138 596 124 561 111 526C118 526 137 527 146 527C186 527 193 514 183 478C165 414 120 289 101 220C63 82 142 -14 307 -14C456 -14 555 46 602 192ZM608 665C629 677 666 695 694 705C658 750 616 818 601 850C581 849 556 849 545 849C534 849 502 849 483 850C453 819 355 752 307 719C328 705 362 680 378 664C433 701 486 738 526 772C548 739 578 701 608 665Z" glyph-name="Ucircumflex" horiz-adv-x="740" unicode="&#219;" /><glyph d="M602 192C628 270 669 407 697 484C709 517 724 527 751 527C765 527 777 527 787 526C796 560 809 595 822 628C781 624 567 626 529 628C521 596 509 561 496 526C506 527 520 527 543 527C572 527 579 511 570 477C549 405 514 284 485 209C456 133 401 95 325 95C242 95 204 135 220 213C230 262 280 408 315 489C326 515 342 527 368 527C381 527 396 527 410 526C420 560 430 595 443 628C397 624 185 626 146 628C138 596 124 561 111 526C118 526 137 527 146 527C186 527 193 514 183 478C165 414 120 289 101 220C63 82 142 -14 307 -14C456 -14 555 46 602 192ZM484 769C484 817 451 846 402 846C353 846 320 818 320 769C320 719 353 690 402 690C451 690 484 721 484 769ZM697 769C697 817 664 846 615 846C566 846 533 818 533 769C533 719 566 690 615 690C664 690 697 721 697 769Z" glyph-name="Udieresis" horiz-adv-x="740" unicode="&#220;" /><glyph d="M602 192C628 270 669 407 697 484C709 517 724 527 751 527C765 527 777 527 787 526C796 560 809 595 822 628C781 624 567 626 529 628C521 596 509 561 496 526C506 527 520 527 543 527C572 527 579 511 570 477C549 405 514 284 485 209C456 133 401 95 325 95C242 95 204 135 220 213C230 262 280 408 315 489C326 515 342 527 368 527C381 527 396 527 410 526C420 560 430 595 443 628C397 624 185 626 146 628C138 596 124 561 111 526C118 526 137 527 146 527C186 527 193 514 183 478C165 414 120 289 101 220C63 82 142 -14 307 -14C456 -14 555 46 602 192ZM547 675C554 698 565 740 573 759C519 776 312 845 255 869C248 844 230 776 221 752C291 740 494 692 547 675Z" glyph-name="Ugrave" horiz-adv-x="740" unicode="&#217;" /><glyph d="M602 192C628 270 669 407 697 484C709 517 724 527 751 527C765 527 777 527 787 526C796 560 809 595 822 628C781 624 567 626 529 628C521 596 509 561 496 526C506 527 520 527 543 527C572 527 579 511 570 477C549 405 514 284 485 209C456 133 401 95 325 95C242 95 204 135 220 213C230 262 280 408 315 489C326 515 342 527 368 527C381 527 396 527 410 526C420 560 430 595 443 628C397 624 185 626 146 628C138 596 124 561 111 526C118 526 137 527 146 527C186 527 193 514 183 478C165 414 120 289 101 220C63 82 142 -14 307 -14C456 -14 555 46 602 192ZM423 671C446 697 561 808 591 836C572 846 530 876 509 892C483 858 385 745 360 719C379 707 404 689 423 671ZM588 668C616 692 742 786 773 810C748 827 711 861 695 879C669 850 554 744 527 719C547 706 571 685 588 668Z" glyph-name="Uhungarumlaut" horiz-adv-x="740" unicode="&#368;" /><glyph d="M602 192C628 270 669 407 697 484C709 517 724 527 751 527C765 527 777 527 787 526C796 560 809 595 822 628C781 624 567 626 529 628C521 596 509 561 496 526C506 527 520 527 543 527C572 527 579 511 570 477C549 405 514 284 485 209C456 133 401 95 325 95C242 95 204 135 220 213C230 262 280 408 315 489C326 515 342 527 368 527C381 527 396 527 410 526C420 560 430 595 443 628C397 624 185 626 146 628C138 596 124 561 111 526C118 526 137 527 146 527C186 527 193 514 183 478C165 414 120 289 101 220C63 82 142 -14 307 -14C456 -14 555 46 602 192ZM316 822C307 787 294 749 280 714C330 716 648 716 703 714C712 748 727 789 739 822C682 821 364 821 316 822Z" glyph-name="Umacron" horiz-adv-x="740" unicode="&#362;" /><glyph d="M497 -230C494 -209 495 -151 498 -122C480 -130 465 -132 449 -132C413 -132 396 -120 396 -99C396 -18 551 19 602 192C626 270 669 407 697 484C709 517 724 527 751 527C765 527 777 527 787 526C796 560 809 595 822 628C781 624 567 626 529 628C521 596 509 561 496 526C506 527 520 527 543 527C572 527 579 511 570 477C549 405 514 284 485 209C456 133 401 95 325 95C242 95 204 135 220 213C230 262 280 408 315 489C326 515 342 527 368 527C381 527 396 527 410 526C420 560 430 595 443 628C397 624 185 626 146 628C138 596 124 561 111 526C118 526 137 527 146 527C186 527 193 514 183 478C165 414 120 289 101 220C63 82 142 -14 307 -14C349 -14 387 -9 421 1C347 -52 278 -84 278 -156C278 -208 324 -244 407 -244C434 -244 467 -241 497 -230Z" glyph-name="Uogonek" horiz-adv-x="740" unicode="&#370;" /><glyph d="M602 192C628 270 669 407 697 484C709 517 724 527 751 527C765 527 777 527 787 526C796 560 809 595 822 628C781 624 567 626 529 628C521 596 509 561 496 526C506 527 520 527 543 527C572 527 579 511 570 477C549 405 514 284 485 209C456 133 401 95 325 95C242 95 204 135 220 213C230 262 280 408 315 489C326 515 342 527 368 527C381 527 396 527 410 526C420 560 430 595 443 628C397 624 185 626 146 628C138 596 124 561 111 526C118 526 137 527 146 527C186 527 193 514 183 478C165 414 120 289 101 220C63 82 142 -14 307 -14C456 -14 555 46 602 192ZM506 672C592 672 646 738 646 803C646 857 613 892 550 892C461 892 406 827 406 762C406 707 440 672 506 672ZM515 736C489 735 478 748 478 768C478 797 501 827 538 827C563 827 575 814 575 795C575 764 552 736 515 736Z" glyph-name="Uring" horiz-adv-x="740" unicode="&#366;" /><glyph d="M602 192C628 270 669 407 697 484C709 517 724 527 751 527C765 527 777 527 787 526C796 560 809 595 822 628C781 624 567 626 529 628C521 596 509 561 496 526C506 527 520 527 543 527C572 527 579 511 570 477C549 405 514 284 485 209C456 133 401 95 325 95C242 95 204 135 220 213C230 262 280 408 315 489C326 515 342 527 368 527C381 527 396 527 410 526C420 560 430 595 443 628C397 624 185 626 146 628C138 596 124 561 111 526C118 526 137 527 146 527C186 527 193 514 183 478C165 414 120 289 101 220C63 82 142 -14 307 -14C456 -14 555 46 602 192ZM448 859C359 859 308 803 286 686C311 687 338 687 363 686C374 744 397 772 426 772C447 772 456 758 467 737C488 701 512 673 579 673C666 673 716 729 739 846C709 844 682 844 662 846C653 790 631 762 602 762C577 762 566 777 553 797C530 832 508 859 448 859Z" glyph-name="Utilde" horiz-adv-x="740" unicode="&#360;" /><glyph d="M413 0C509 170 640 391 708 484C733 518 746 528 775 528C782 528 790 527 799 526C809 561 821 594 834 628C797 626 562 625 523 628C517 605 500 553 490 527C503 528 525 528 536 528C563 528 573 521 573 506C573 494 568 484 557 466C507 380 405 219 331 84C318 195 302 374 297 461C295 508 311 528 352 528C374 528 386 527 399 527C409 561 420 594 433 628C397 626 167 625 129 628C125 602 107 552 97 526C106 527 112 527 121 527C150 527 162 514 166 487C180 391 204 133 207 0C248 4 379 3 413 0Z" glyph-name="V" horiz-adv-x="740" unicode="V" /><glyph d="M773 495C788 522 799 526 816 527H826C833 561 848 596 861 630C828 628 609 627 574 630C568 607 552 555 542 526C555 527 571 528 609 528C642 528 653 513 649 495C639 453 603 394 560 300C537 250 510 194 488 141H477C478 186 478 238 478 273C476 339 473 425 474 483C441 481 410 481 378 483C364 442 320 358 268 267C237 215 218 177 202 141H191C197 177 202 220 207 274C213 345 219 408 223 454C229 516 239 528 281 528C299 528 317 527 337 526C346 560 357 594 370 628C338 626 129 625 97 628C93 606 80 555 68 527H77C98 527 107 518 107 487C105 388 80 134 59 0C94 3 156 3 201 0C228 61 270 130 302 183C337 244 363 295 383 338H389C386 295 385 243 384 179C385 120 388 72 387 0C443 3 490 4 529 0C631 232 723 404 773 495Z" glyph-name="W" horiz-adv-x="740" unicode="W" /><glyph d="M773 495C788 522 799 526 816 527H826C833 561 848 596 861 630C828 628 609 627 574 630C568 607 552 555 542 526C555 527 571 528 609 528C642 528 653 513 649 495C639 453 603 394 560 300C537 250 510 194 488 141H477C478 186 478 238 478 273C476 339 473 425 474 483C441 481 410 481 378 483C364 442 320 358 268 267C237 215 218 177 202 141H191C197 177 202 220 207 274C213 345 219 408 223 454C229 516 239 528 281 528C299 528 317 527 337 526C346 560 357 594 370 628C338 626 129 625 97 628C93 606 80 555 68 527H77C98 527 107 518 107 487C105 388 80 134 59 0C94 3 156 3 201 0C228 61 270 130 302 183C337 244 363 295 383 338H389C386 295 385 243 384 179C385 120 388 72 387 0C443 3 490 4 529 0C631 232 723 404 773 495ZM395 675C448 692 651 740 721 752C712 776 694 844 687 869C630 845 423 776 369 759C377 740 389 698 395 675Z" glyph-name="Wacute" horiz-adv-x="740" unicode="&#7810;" /><glyph d="M773 495C788 522 799 526 816 527H826C833 561 848 596 861 630C828 628 609 627 574 630C568 607 552 555 542 526C555 527 571 528 609 528C642 528 653 513 649 495C639 453 603 394 560 300C537 250 510 194 488 141H477C478 186 478 238 478 273C476 339 473 425 474 483C441 481 410 481 378 483C364 442 320 358 268 267C237 215 218 177 202 141H191C197 177 202 220 207 274C213 345 219 408 223 454C229 516 239 528 281 528C299 528 317 527 337 526C346 560 357 594 370 628C338 626 129 625 97 628C93 606 80 555 68 527H77C98 527 107 518 107 487C105 388 80 134 59 0C94 3 156 3 201 0C228 61 270 130 302 183C337 244 363 295 383 338H389C386 295 385 243 384 179C385 120 388 72 387 0C443 3 490 4 529 0C631 232 723 404 773 495ZM589 665C610 677 647 695 675 705C639 750 597 818 582 850C562 849 537 849 526 849C515 849 483 849 464 850C434 819 336 752 288 719C309 705 343 680 359 664C414 701 467 738 507 772C529 739 559 701 589 665Z" glyph-name="Wcircumflex" horiz-adv-x="740" unicode="&#372;" /><glyph glyph-name="Wdieresis" horiz-adv-x="740" unicode="&#7812;" /><glyph d="M773 495C788 522 799 526 816 527H826C833 561 848 596 861 630C828 628 609 627 574 630C568 607 552 555 542 526C555 527 571 528 609 528C642 528 653 513 649 495C639 453 603 394 560 300C537 250 510 194 488 141H477C478 186 478 238 478 273C476 339 473 425 474 483C441 481 410 481 378 483C364 442 320 358 268 267C237 215 218 177 202 141H191C197 177 202 220 207 274C213 345 219 408 223 454C229 516 239 528 281 528C299 528 317 527 337 526C346 560 357 594 370 628C338 626 129 625 97 628C93 606 80 555 68 527H77C98 527 107 518 107 487C105 388 80 134 59 0C94 3 156 3 201 0C228 61 270 130 302 183C337 244 363 295 383 338H389C386 295 385 243 384 179C385 120 388 72 387 0C443 3 490 4 529 0C631 232 723 404 773 495ZM534 675C541 698 552 740 560 759C506 776 299 845 242 869C235 844 217 776 208 752C278 740 481 692 534 675Z" glyph-name="Wgrave" horiz-adv-x="740" unicode="&#7808;" /><glyph d="M629 0C636 29 651 72 662 102C649 101 640 101 632 101C598 102 585 122 572 141C548 177 506 248 470 304C550 369 650 455 703 499C733 523 750 527 771 527C778 527 784 527 791 526C799 560 810 595 826 628C789 627 564 626 526 628C520 605 504 552 493 527H526C555 527 561 509 543 487C515 450 448 398 397 356C351 428 328 463 328 493C328 514 343 527 369 527C381 527 394 527 409 526C417 558 430 595 444 628C407 627 182 626 145 628C140 606 122 551 113 526H135C157 526 169 520 180 503C197 474 250 387 292 323C221 266 130 189 84 150C42 116 18 102 -12 102C-16 102 -22 102 -28 103C-35 68 -48 34 -62 0C-24 2 205 2 244 0C251 23 267 74 277 102H245C217 102 204 122 224 149C252 185 314 235 362 272C408 204 439 161 439 134C439 117 427 102 399 102H359C351 69 340 34 326 0C369 2 583 2 629 0Z" glyph-name="X" horiz-adv-x="740" unicode="X" /><glyph d="M519 0C528 34 538 68 552 103C530 102 475 101 420 101C372 101 373 124 380 152C384 167 389 183 394 202C541 342 644 437 708 494C740 523 755 528 780 528H800C809 562 820 595 834 629C797 627 562 626 523 628C516 606 500 554 491 528C501 529 520 529 541 529C561 529 570 524 570 511C570 502 564 494 554 481C518 437 432 355 361 282C343 343 309 439 307 490C307 516 320 529 351 529C365 529 383 529 400 528C409 562 419 595 433 628C396 627 167 626 129 628C124 603 107 553 97 528C106 529 112 529 121 529C151 529 162 519 173 490C191 440 241 299 269 204C262 181 255 161 249 145C235 106 214 100 181 100C132 100 95 101 79 103C70 70 58 34 45 0C105 3 456 5 519 0Z" glyph-name="Y" horiz-adv-x="740" unicode="Y" /><glyph d="M519 0C528 34 538 68 552 103C530 102 475 101 420 101C372 101 373 124 380 152C384 167 389 183 394 202C541 342 644 437 708 494C740 523 755 528 780 528H800C809 562 820 595 834 629C797 627 562 626 523 628C516 606 500 554 491 528C501 529 520 529 541 529C561 529 570 524 570 511C570 502 564 494 554 481C518 437 432 355 361 282C343 343 309 439 307 490C307 516 320 529 351 529C365 529 383 529 400 528C409 562 419 595 433 628C396 627 167 626 129 628C124 603 107 553 97 528C106 529 112 529 121 529C151 529 162 519 173 490C191 440 241 299 269 204C262 181 255 161 249 145C235 106 214 100 181 100C132 100 95 101 79 103C70 70 58 34 45 0C105 3 456 5 519 0ZM384 675C437 692 640 740 710 752C701 776 683 844 676 869C619 845 412 776 358 759C366 740 378 698 384 675Z" glyph-name="Yacute" horiz-adv-x="740" unicode="&#221;" /><glyph d="M519 0C528 34 538 68 552 103C530 102 475 101 420 101C372 101 373 124 380 152C384 167 389 183 394 202C541 342 644 437 708 494C740 523 755 528 780 528H800C809 562 820 595 834 629C797 627 562 626 523 628C516 606 500 554 491 528C501 529 520 529 541 529C561 529 570 524 570 511C570 502 564 494 554 481C518 437 432 355 361 282C343 343 309 439 307 490C307 516 320 529 351 529C365 529 383 529 400 528C409 562 419 595 433 628C396 627 167 626 129 628C124 603 107 553 97 528C106 529 112 529 121 529C151 529 162 519 173 490C191 440 241 299 269 204C262 181 255 161 249 145C235 106 214 100 181 100C132 100 95 101 79 103C70 70 58 34 45 0C105 3 456 5 519 0ZM602 665C623 677 660 695 688 705C652 750 610 818 595 850C575 849 550 849 539 849C528 849 496 849 477 850C447 819 349 752 301 719C322 705 356 680 372 664C427 701 480 738 520 772C542 739 572 701 602 665Z" glyph-name="Ycircumflex" horiz-adv-x="740" unicode="&#374;" /><glyph d="M519 0C528 34 538 68 552 103C530 102 475 101 420 101C372 101 373 124 380 152C384 167 389 183 394 202C541 342 644 437 708 494C740 523 755 528 780 528H800C809 562 820 595 834 629C797 627 562 626 523 628C516 606 500 554 491 528C501 529 520 529 541 529C561 529 570 524 570 511C570 502 564 494 554 481C518 437 432 355 361 282C343 343 309 439 307 490C307 516 320 529 351 529C365 529 383 529 400 528C409 562 419 595 433 628C396 627 167 626 129 628C124 603 107 553 97 528C106 529 112 529 121 529C151 529 162 519 173 490C191 440 241 299 269 204C262 181 255 161 249 145C235 106 214 100 181 100C132 100 95 101 79 103C70 70 58 34 45 0C105 3 456 5 519 0ZM485 769C485 817 452 846 403 846C354 846 321 818 321 769C321 719 354 690 403 690C452 690 485 721 485 769ZM698 769C698 817 665 846 616 846C567 846 534 818 534 769C534 719 567 690 616 690C665 690 698 721 698 769Z" glyph-name="Ydieresis" horiz-adv-x="740" unicode="&#376;" /><glyph d="M549 0C560 44 610 185 630 233C590 241 552 252 522 261C509 223 494 184 475 146C458 112 440 100 392 100C335 100 254 100 199 98L198 106C235 129 281 160 328 199C463 310 624 456 714 526C722 561 731 597 740 628C585 625 361 625 203 628C193 584 143 444 123 396C160 388 195 376 223 367C237 405 252 442 271 482C287 516 307 529 357 529C420 529 499 529 557 530L559 522C518 494 464 456 408 409C277 299 115 168 26 103C19 72 8 31 -3 0C155 3 387 3 549 0Z" glyph-name="Z" horiz-adv-x="740" unicode="Z" /><glyph d="M549 0C560 44 610 185 630 233C590 241 552 252 522 261C509 223 494 184 475 146C458 112 440 100 392 100C335 100 254 100 199 98L198 106C235 129 281 160 328 199C463 310 624 456 714 526C722 561 731 597 740 628C585 625 361 625 203 628C193 584 143 444 123 396C160 388 195 376 223 367C237 405 252 442 271 482C287 516 307 529 357 529C420 529 499 529 557 530L559 522C518 494 464 456 408 409C277 299 115 168 26 103C19 72 8 31 -3 0C155 3 387 3 549 0ZM446 675C499 692 702 740 772 752C763 776 745 844 738 869C681 845 474 776 420 759C428 740 440 698 446 675Z" glyph-name="Zacute" horiz-adv-x="740" unicode="&#377;" /><glyph d="M549 0C560 44 610 185 630 233C590 241 552 252 522 261C509 223 494 184 475 146C458 112 440 100 392 100C335 100 254 100 199 98L198 106C235 129 281 160 328 199C463 310 624 456 714 526C722 561 731 597 740 628C585 625 361 625 203 628C193 584 143 444 123 396C160 388 195 376 223 367C237 405 252 442 271 482C287 516 307 529 357 529C420 529 499 529 557 530L559 522C518 494 464 456 408 409C277 299 115 168 26 103C19 72 8 31 -3 0C155 3 387 3 549 0ZM543 669C573 700 671 767 719 800C698 814 664 839 648 855C593 818 540 781 500 747C478 780 448 818 418 854C397 842 360 824 332 814C368 769 410 701 425 669C445 670 470 670 481 670C492 670 524 670 543 669Z" glyph-name="Zcaron" horiz-adv-x="740" unicode="&#381;" /><glyph d="M549 0C560 44 610 185 630 233C590 241 552 252 522 261C509 223 494 184 475 146C458 112 440 100 392 100C335 100 254 100 199 98L198 106C235 129 281 160 328 199C463 310 624 456 714 526C722 561 731 597 740 628C585 625 361 625 203 628C193 584 143 444 123 396C160 388 195 376 223 367C237 405 252 442 271 482C287 516 307 529 357 529C420 529 499 529 557 530L559 522C518 494 464 456 408 409C277 299 115 168 26 103C19 72 8 31 -3 0C155 3 387 3 549 0ZM584 769C584 816 551 856 493 856C434 856 402 816 402 769C402 720 429 684 493 684C551 684 584 720 584 769Z" glyph-name="Zdotaccent" horiz-adv-x="740" unicode="&#379;" /><glyph d="M529 503C518 473 507 443 498 415L496 410C471 470 416 506 340 506C175 506 49 316 49 148C49 50 102 -10 189 -10C272 -10 352 40 417 159H426C421 134 419 113 419 97C419 27 463 -6 527 -6C594 -6 650 24 699 62C680 89 663 119 651 154C622 122 600 108 577 108C556 108 547 118 547 140C547 193 594 331 671 491C610 493 568 497 529 503ZM247 108C207 108 186 131 186 177C186 270 267 395 365 395C403 395 436 381 467 341C390 170 316 108 247 108Z" glyph-name="a" horiz-adv-x="740" unicode="a" /><glyph d="M529 503C518 473 507 443 498 415L496 410C471 470 416 506 340 506C175 506 49 316 49 148C49 50 102 -10 189 -10C272 -10 352 40 417 159H426C421 134 419 113 419 97C419 27 463 -6 527 -6C594 -6 650 24 699 62C680 89 663 119 651 154C622 122 600 108 577 108C556 108 547 118 547 140C547 193 594 331 671 491C610 493 568 497 529 503ZM247 108C207 108 186 131 186 177C186 270 267 395 365 395C403 395 436 381 467 341C390 170 316 108 247 108ZM348 557C398 577 607 639 670 656C660 681 641 750 633 775C584 748 371 657 319 638C328 620 343 576 348 557Z" glyph-name="aacute" horiz-adv-x="740" unicode="&#225;" /><glyph d="M529 503C518 473 507 443 498 415L496 410C471 470 416 506 340 506C175 506 49 316 49 148C49 50 102 -10 189 -10C272 -10 352 40 417 159H426C421 134 419 113 419 97C419 27 463 -6 527 -6C594 -6 650 24 699 62C680 89 663 119 651 154C622 122 600 108 577 108C556 108 547 118 547 140C547 193 594 331 671 491C610 493 568 497 529 503ZM247 108C207 108 186 131 186 177C186 270 267 395 365 395C403 395 436 381 467 341C390 170 316 108 247 108ZM458 652C404 652 384 689 385 755C363 748 300 734 273 731C278 622 342 563 446 563C559 563 619 624 671 728C647 733 592 748 572 755C539 686 513 652 458 652Z" glyph-name="abreve" horiz-adv-x="740" unicode="&#259;" /><glyph d="M529 503C518 473 507 443 498 415L496 410C471 470 416 506 340 506C175 506 49 316 49 148C49 50 102 -10 189 -10C272 -10 352 40 417 159H426C421 134 419 113 419 97C419 27 463 -6 527 -6C594 -6 650 24 699 62C680 89 663 119 651 154C622 122 600 108 577 108C556 108 547 118 547 140C547 193 594 331 671 491C610 493 568 497 529 503ZM247 108C207 108 186 131 186 177C186 270 267 395 365 395C403 395 436 381 467 341C390 170 316 108 247 108ZM549 555C570 568 607 585 635 595C598 647 557 723 549 759C529 758 504 758 493 758C482 758 450 758 432 759C400 722 319 661 248 609C269 595 303 571 319 555C377 593 431 636 472 675C490 636 518 592 549 555Z" glyph-name="acircumflex" horiz-adv-x="740" unicode="&#226;" /><glyph d="M29 557C79 577 288 639 351 656C341 681 322 750 314 775C265 748 52 657 0 638C9 620 24 576 29 557Z" glyph-name="acute" horiz-adv-x="351" unicode="&#180;" /><glyph d="M26 675C79 692 282 740 352 752C343 776 325 844 318 869C261 845 54 776 0 759C8 740 20 698 26 675Z" glyph-name="acute.case" horiz-adv-x="352" /><glyph d="M529 503C518 473 507 443 498 415L496 410C471 470 416 506 340 506C175 506 49 316 49 148C49 50 102 -10 189 -10C272 -10 352 40 417 159H426C421 134 419 113 419 97C419 27 463 -6 527 -6C594 -6 650 24 699 62C680 89 663 119 651 154C622 122 600 108 577 108C556 108 547 118 547 140C547 193 594 331 671 491C610 493 568 497 529 503ZM247 108C207 108 186 131 186 177C186 270 267 395 365 395C403 395 436 381 467 341C390 170 316 108 247 108ZM433 661C433 709 400 738 351 738C302 738 269 710 269 661C269 611 302 582 351 582C400 582 433 613 433 661ZM646 661C646 709 613 738 564 738C515 738 482 710 482 661C482 611 515 582 564 582C613 582 646 613 646 661Z" glyph-name="adieresis" horiz-adv-x="740" unicode="&#228;" /><glyph d="M547 399C580 399 596 381 596 350C596 287 546 258 423 251C439 332 485 399 547 399ZM172 92C136 92 116 109 116 139C116 181 157 209 236 209C253 209 273 208 293 207C269 133 224 92 172 92ZM691 93C672 113 647 144 629 173C585 125 535 92 489 92C441 92 417 123 417 190C417 192 417 195 417 197C605 195 715 265 715 380C716 455 663 506 579 506C509 506 449 470 409 403C406 466 365 506 272 505C178 505 80 461 80 381C80 342 101 312 151 312C210 312 241 346 241 392C241 397 240 402 239 407C248 408 257 408 266 408C309 408 330 391 330 349C330 331 324 305 311 264C281 269 247 271 211 271C72 271 -8 203 -8 112C-8 29 41 -9 122 -9C208 -9 271 47 308 117C317 43 373 -10 466 -10C541 -10 612 23 691 93Z" glyph-name="ae" horiz-adv-x="740" unicode="&#230;" /><glyph d="M547 399C580 399 596 381 596 350C596 287 546 258 423 251C439 332 485 399 547 399ZM172 92C136 92 116 109 116 139C116 181 157 209 236 209C253 209 273 208 293 207C269 133 224 92 172 92ZM691 93C672 113 647 144 629 173C585 125 535 92 489 92C441 92 417 123 417 190C417 192 417 195 417 197C605 195 715 265 715 380C716 455 663 506 579 506C509 506 449 470 409 403C406 466 365 506 272 505C178 505 80 461 80 381C80 342 101 312 151 312C210 312 241 346 241 392C241 397 240 402 239 407C248 408 257 408 266 408C309 408 330 391 330 349C330 331 324 305 311 264C281 269 247 271 211 271C72 271 -8 203 -8 112C-8 29 41 -9 122 -9C208 -9 271 47 308 117C317 43 373 -10 466 -10C541 -10 612 23 691 93ZM363 557C413 577 622 639 685 656C675 681 656 750 648 775C599 748 386 657 334 638C343 620 358 576 363 557Z" glyph-name="aeacute" horiz-adv-x="740" unicode="&#509;" /><glyph d="M529 503C518 473 507 443 498 415L496 410C471 470 416 506 340 506C175 506 49 316 49 148C49 50 102 -10 189 -10C272 -10 352 40 417 159H426C421 134 419 113 419 97C419 27 463 -6 527 -6C594 -6 650 24 699 62C680 89 663 119 651 154C622 122 600 108 577 108C556 108 547 118 547 140C547 193 594 331 671 491C610 493 568 497 529 503ZM247 108C207 108 186 131 186 177C186 270 267 395 365 395C403 395 436 381 467 341C390 170 316 108 247 108ZM490 557C496 576 511 620 521 639C468 657 271 744 223 773C213 745 187 680 175 654C240 638 440 577 490 557Z" glyph-name="agrave" horiz-adv-x="740" unicode="&#224;" /><glyph d="M529 503C518 473 507 443 498 415L496 410C471 470 416 506 340 506C175 506 49 316 49 148C49 50 102 -10 189 -10C272 -10 352 40 417 159H426C421 134 419 113 419 97C419 27 463 -6 527 -6C594 -6 650 24 699 62C680 89 663 119 651 154C622 122 600 108 577 108C556 108 547 118 547 140C547 193 594 331 671 491C610 493 568 497 529 503ZM247 108C207 108 186 131 186 177C186 270 267 395 365 395C403 395 436 381 467 341C390 170 316 108 247 108ZM291 713C282 677 269 639 255 603C305 605 625 605 680 603C689 637 704 679 716 713C659 711 339 711 291 713Z" glyph-name="amacron" horiz-adv-x="740" unicode="&#257;" /><glyph d="M306 444C305 504 330 551 386 551C421 551 448 535 448 496C448 456 419 422 313 386C308 406 306 427 306 444ZM275 86C192 86 147 121 147 184C147 234 174 270 231 290C261 219 304 153 370 102C342 92 312 86 275 86ZM645 -8C649 32 659 81 668 109C625 113 592 119 563 127C645 185 700 260 700 324C700 368 676 406 617 406C559 406 533 369 533 333C533 307 547 282 578 270C556 233 521 197 473 160C408 195 361 247 334 313C500 350 558 413 558 501C558 589 498 642 391 642C252 642 195 552 196 445C196 418 200 391 206 363C84 337 22 265 22 168C22 59 101 -14 257 -14C343 -14 415 6 465 47C511 25 566 6 645 -8Z" glyph-name="ampersand" horiz-adv-x="740" unicode="&amp;" /><glyph d="M537 -244C564 -244 597 -241 627 -230C624 -209 625 -151 628 -122C611 -129 595 -132 579 -132C543 -132 526 -118 526 -94C526 -36 615 -5 699 62C680 89 663 119 651 154C622 122 600 108 577 108C556 108 547 118 547 140C547 193 594 331 671 491C610 493 568 497 529 503C518 473 507 443 498 415L496 410C471 470 416 506 340 506C175 506 49 316 49 148C49 50 102 -10 189 -10C272 -10 352 40 417 159H426C421 134 419 113 419 97C419 27 463 -6 527 -6C531 -6 536 -6 540 -6C470 -40 408 -74 408 -144C408 -202 454 -244 537 -244ZM247 108C207 108 186 131 186 177C186 270 267 395 365 395C403 395 436 381 467 341C390 170 316 108 247 108Z" glyph-name="aogonek" horiz-adv-x="740" unicode="&#261;" /><glyph d="M529 503C518 473 507 443 498 415L496 410C471 470 416 506 340 506C175 506 49 316 49 148C49 50 102 -10 189 -10C272 -10 352 40 417 159H426C421 134 419 113 419 97C419 27 463 -6 527 -6C594 -6 650 24 699 62C680 89 663 119 651 154C622 122 600 108 577 108C556 108 547 118 547 140C547 193 594 331 671 491C610 493 568 497 529 503ZM247 108C207 108 186 131 186 177C186 270 267 395 365 395C403 395 436 381 467 341C390 170 316 108 247 108ZM411 557C505 557 562 627 562 696C562 754 529 791 461 791C365 791 307 722 307 653C307 595 341 557 411 557ZM422 622C393 621 380 636 380 659C380 692 406 725 448 725C476 725 490 711 490 688C490 654 464 622 422 622Z" glyph-name="aring" horiz-adv-x="740" unicode="&#229;" /><glyph d="M529 503C518 473 507 443 498 415L496 410C471 470 416 506 340 506C175 506 49 316 49 148C49 50 102 -10 189 -10C272 -10 352 40 417 159H426C421 134 419 113 419 97C419 27 463 -6 527 -6C594 -6 650 24 699 62C680 89 663 119 651 154C622 122 600 108 577 108C556 108 547 118 547 140C547 193 594 331 671 491C610 493 568 497 529 503ZM247 108C207 108 186 131 186 177C186 270 267 395 365 395C403 395 436 381 467 341C390 170 316 108 247 108ZM411 557C505 557 562 627 562 696C562 754 529 791 461 791C365 791 307 722 307 653C307 595 341 557 411 557ZM422 622C393 621 380 636 380 659C380 692 406 725 448 725C476 725 490 711 490 688C490 654 464 622 422 622ZM420 819C473 836 676 884 746 896C737 920 719 988 712 1013C655 989 448 920 394 903C402 884 414 842 420 819Z" glyph-name="aringacute" horiz-adv-x="740" unicode="&#507;" /><glyph d="M0 304C80 227 176 105 226 7C256 41 296 79 331 104C298 148 213 213 141 251L143 264C203 258 285 249 369 249C453 249 535 258 596 264L598 251C525 213 442 148 409 104C443 79 483 41 513 7C563 105 659 227 739 304C659 381 563 503 513 601C483 567 443 529 409 504C442 460 525 395 598 357L596 344C535 350 453 359 369 359C285 359 203 350 143 344L141 357C213 395 298 460 331 504C296 529 256 567 226 601C176 503 80 381 0 304Z" glyph-name="arrowboth" horiz-adv-x="740" unicode="&#8596;" /><glyph d="M427 0C457 80 594 316 679 402C651 416 591 451 559 474C517 414 447 247 410 132L401 134C410 290 434 592 443 658C422 657 392 656 362 656C332 656 302 657 281 658C290 592 314 290 323 134L314 132C277 247 207 414 165 474C133 451 73 416 45 402C130 316 267 80 297 0C312 2 338 3 362 3C386 3 412 2 427 0Z" glyph-name="arrowdown" horiz-adv-x="740" unicode="&#8595;" /><glyph d="M689 304C689 334 690 364 691 385C625 376 323 352 167 343L165 352C280 389 447 459 507 501C484 533 449 593 435 621C349 536 113 399 33 369C35 354 36 328 36 304C36 280 35 254 33 239C113 209 349 72 435 -13C449 15 484 75 507 107C447 149 280 219 165 256L167 265C323 256 625 232 691 223C690 244 689 274 689 304Z" glyph-name="arrowleft" horiz-adv-x="740" unicode="&#8592;" /><glyph d="M42 306C42 276 41 246 40 225C106 234 408 258 564 267L566 258C451 221 284 151 224 109C247 77 282 17 296 -11C382 74 618 211 698 241C696 256 695 282 695 306C695 330 696 356 698 371C618 401 382 538 296 623C282 595 247 535 224 503C284 461 451 391 566 354L564 345C408 354 106 378 40 387C41 366 42 336 42 306Z" glyph-name="arrowright" horiz-adv-x="740" unicode="&#8594;" /><glyph d="M559 184C591 207 651 242 679 256C594 342 457 578 427 658C412 656 386 655 362 655C338 655 312 656 297 658C267 578 130 342 45 256C73 242 133 207 165 184C207 244 277 411 314 526L323 524C314 368 290 66 281 0C302 1 332 2 362 2C392 2 422 1 443 0C434 66 410 368 401 524L410 526C447 411 517 244 559 184Z" glyph-name="arrowup" horiz-adv-x="740" unicode="&#8593;" /><glyph d="M370 674C293 594 171 498 73 448C107 418 145 378 170 343C214 376 279 461 317 533L330 531C324 471 315 389 315 305C315 221 324 139 330 78L317 76C279 149 214 232 170 265C145 231 107 191 73 161C171 111 293 15 370 -65C447 15 569 111 667 161C633 191 595 231 570 265C526 232 461 149 423 76L410 78C416 139 425 221 425 305C425 389 416 471 410 531L423 533C461 461 526 376 570 343C595 378 633 418 667 448C569 498 447 594 370 674Z" glyph-name="arrowupdn" horiz-adv-x="740" unicode="&#8597;" /><glyph d="M500 135C541 162 595 192 641 212C620 246 502 489 489 533C471 532 455 532 438 532C420 532 403 532 386 533C345 489 73 255 28 221C65 201 127 160 161 135C206 188 235 222 289 282C336 333 372 374 400 411H406C414 374 428 332 447 281C470 221 483 188 500 135Z" glyph-name="asciicircum" horiz-adv-x="740" unicode="^" /><glyph d="M480 144C618 144 688 262 722 421C673 420 626 420 590 421C571 336 543 285 491 285C451 285 432 309 410 347C382 394 347 440 259 440C120 440 53 322 18 163C67 164 115 164 151 163C170 248 195 299 247 299C286 299 303 276 323 238C351 191 385 144 480 144Z" glyph-name="asciitilde" horiz-adv-x="740" unicode="~" /><glyph d="M397 172C439 188 482 203 527 216C505 246 451 334 429 379C479 373 578 350 615 339C613 384 613 430 614 478C578 467 477 443 427 435C450 480 503 565 523 597C479 609 436 624 392 640C391 601 382 499 374 450C337 485 271 561 249 591C224 555 197 515 168 478C203 467 298 426 343 403C298 379 209 341 170 327C199 292 226 256 253 216C275 246 341 324 377 359C386 311 396 215 397 172Z" glyph-name="asterisk" horiz-adv-x="740" unicode="*" /><glyph d="M396 89C361 89 343 105 343 138C343 199 413 237 519 235C486 128 449 89 396 89ZM419 443C517 443 546 396 546 345C546 334 545 323 543 311C372 333 233 266 233 123C233 44 274 -10 347 -10C419 -10 461 27 491 95H497C497 92 497 90 497 87C497 21 534 -10 590 -10C618 -10 652 -5 689 14C673 43 664 72 656 102C646 96 638 92 627 92C611 92 603 102 603 121C603 170 658 261 658 362C658 486 564 550 423 550C161 550 27 350 27 138C27 71 38 27 56 -17C91 -2 128 10 164 18C148 59 137 96 137 153C137 300 238 443 419 443Z" glyph-name="at" horiz-adv-x="740" unicode="@" /><glyph d="M396 89C360 89 341 108 341 147C341 235 424 300 552 298C508 167 461 89 396 89ZM434 535C547 535 579 481 579 426C579 410 577 392 573 374C385 399 233 314 233 123C233 44 274 -10 347 -10C419 -10 461 27 491 95H497C497 92 497 90 497 87C497 21 534 -10 590 -10C618 -10 652 -5 689 14C673 43 664 72 656 102C646 96 638 92 627 92C611 92 603 102 603 121C603 192 692 316 692 443C692 574 590 641 438 641C166 641 27 415 27 178C27 92 38 37 60 -17C95 -2 132 9 168 18C148 70 137 118 137 191C137 365 243 535 434 535Z" glyph-name="at.case" horiz-adv-x="740" /><glyph d="M529 503C518 473 507 443 498 415L496 410C471 470 416 506 340 506C175 506 49 316 49 148C49 50 102 -10 189 -10C272 -10 352 40 417 159H426C421 134 419 113 419 97C419 27 463 -6 527 -6C594 -6 650 24 699 62C680 89 663 119 651 154C622 122 600 108 577 108C556 108 547 118 547 140C547 193 594 331 671 491C610 493 568 497 529 503ZM247 108C207 108 186 131 186 177C186 270 267 395 365 395C403 395 436 381 467 341C390 170 316 108 247 108ZM401 757C313 757 263 695 240 566C265 568 292 568 317 566C329 632 351 663 380 663C401 663 409 647 421 624C443 584 469 552 534 552C620 552 669 615 693 744C663 741 636 741 616 744C607 679 585 648 556 648C531 648 521 666 507 689C484 727 460 757 401 757Z" glyph-name="atilde" horiz-adv-x="740" unicode="&#227;" /><glyph d="M356 101C312 101 271 122 236 165C307 330 399 388 474 388C517 388 539 366 539 317C539 226 457 101 356 101ZM227 551C227 477 88 149 22 6C83 4 125 0 170 -6C184 33 197 70 209 103C238 32 295 -10 381 -10C548 -10 677 180 677 349C677 446 621 506 530 506C444 506 360 456 294 337H283C329 461 360 524 360 588C360 656 320 685 255 685C212 685 166 676 112 655C126 629 137 600 148 564C170 575 187 579 200 579C218 579 227 570 227 551Z" glyph-name="b" horiz-adv-x="740" unicode="b" /><glyph d="M499 -102C475 33 416 554 401 679C365 678 285 680 245 684C271 540 328 49 345 -100C388 -97 456 -100 499 -102Z" glyph-name="backslash" horiz-adv-x="740" unicode="\" /><glyph d="M171 -96C225 -94 279 -94 338 -96C392 107 523 508 588 676C529 675 477 675 421 676C374 508 243 105 171 -96Z" glyph-name="bar" horiz-adv-x="740" unicode="|" /><glyph d="M396 8C326 8 307 23 307 51C307 106 419 151 419 226C419 268 403 295 316 302L317 308C421 317 481 353 481 423C481 459 468 494 468 531C468 584 500 608 566 608C591 608 641 604 678 598C687 634 703 681 719 724C681 728 628 730 599 730C434 730 352 679 352 565C352 518 368 483 368 442C368 382 307 360 178 371C170 340 151 281 138 250C270 255 291 231 291 201C291 140 168 102 168 -4C168 -70 218 -116 346 -116C372 -116 410 -114 450 -110C462 -69 476 -20 490 16C451 10 420 8 396 8Z" glyph-name="braceleft" horiz-adv-x="740" unicode="{" /><glyph d="M344 606C414 606 433 591 433 563C433 508 321 463 321 388C321 346 337 319 424 312L423 306C319 297 259 261 259 191C259 155 272 120 272 83C272 30 240 6 174 6C149 6 99 10 62 16C53 -20 37 -67 21 -110C59 -114 112 -116 141 -116C306 -116 388 -65 388 49C388 96 372 131 372 172C372 232 433 254 562 243C570 274 589 333 602 364C470 359 449 383 449 413C449 474 572 512 572 618C572 684 522 730 394 730C368 730 330 728 290 724C278 683 264 634 250 598C289 604 320 606 344 606Z" glyph-name="braceright" horiz-adv-x="740" unicode="}" /><glyph d="M470 17C443 12 360 11 287 10C322 133 433 480 476 602C548 602 631 600 656 595C667 630 682 677 695 720C592 715 478 716 373 717C316 532 174 86 111 -105C216 -104 331 -103 431 -108C444 -65 459 -18 470 17Z" glyph-name="bracketleft" horiz-adv-x="740" unicode="[" /><glyph d="M367 -105C424 80 566 526 629 717C524 716 409 715 309 720C296 677 281 630 270 595C297 600 380 601 453 602C418 479 307 132 264 10C192 10 109 12 84 17C73 -18 58 -65 45 -108C148 -103 262 -104 367 -105Z" glyph-name="bracketright" horiz-adv-x="740" unicode="]" /><glyph d="M185 652C131 652 111 689 112 755C90 748 27 734 0 731C5 622 69 563 173 563C286 563 346 624 398 728C374 733 319 748 299 755C266 686 240 652 185 652Z" glyph-name="breve" horiz-adv-x="398" unicode="&#728;" /><glyph d="M186 772C129 772 113 807 111 858C89 852 27 838 0 834C7 739 70 683 174 683C286 683 351 736 398 831C374 836 319 851 299 859C270 799 240 772 186 772Z" glyph-name="breve.case" horiz-adv-x="398" /><glyph d="M171 -96C225 -94 279 -94 338 -96C361 -9 409 147 439 242C401 241 320 241 286 242C260 151 203 -9 171 -96ZM477 360C508 464 559 603 588 676C529 675 477 675 421 676C400 603 363 471 324 360C366 361 441 361 477 360Z" glyph-name="brokenbar" horiz-adv-x="740" unicode="&#166;" /><glyph d="M353 122C464 122 526 193 526 279C526 350 478 407 385 407C275 407 214 330 214 247C214 172 258 122 353 122Z" glyph-name="bullet" horiz-adv-x="740" unicode="&#8226;" /><glyph d="M629 98C609 119 590 143 564 182C497 127 416 100 345 100C252 100 205 136 205 209C205 311 296 400 432 400C470 400 509 392 532 369C496 365 463 341 463 300C463 265 492 237 539 237C605 237 641 289 641 353C641 431 582 506 432 506C186 506 68 347 68 190C68 63 150 -10 324 -10C432 -10 520 10 629 98Z" glyph-name="c" horiz-adv-x="740" unicode="c" /><glyph d="M629 98C609 119 590 143 564 182C497 127 416 100 345 100C252 100 205 136 205 209C205 311 296 400 432 400C470 400 509 392 532 369C496 365 463 341 463 300C463 265 492 237 539 237C605 237 641 289 641 353C641 431 582 506 432 506C186 506 68 347 68 190C68 63 150 -10 324 -10C432 -10 520 10 629 98ZM370 557C420 577 629 639 692 656C682 681 663 750 655 775C606 748 393 657 341 638C350 620 365 576 370 557Z" glyph-name="cacute" horiz-adv-x="740" unicode="&#263;" /><glyph d="M203 563C235 600 316 661 387 713C366 727 332 751 316 767C258 729 204 686 163 647C145 686 117 730 86 767C65 754 28 737 0 727C37 675 78 599 86 563C106 564 131 564 142 564C153 564 185 564 203 563Z" glyph-name="caron" horiz-adv-x="387" unicode="&#711;" /><glyph d="M163 649C171 568 143 475 79 392C59 404 25 417 0 424C39 484 58 566 41 631C79 636 127 640 163 649Z" glyph-name="caron.alt" horiz-adv-x="165" /><glyph d="M211 669C241 700 339 767 387 800C366 814 332 839 316 855C261 818 208 781 168 747C146 780 116 818 86 854C65 842 28 824 0 814C36 769 78 701 93 669C113 670 138 670 149 670C160 670 192 670 211 669Z" glyph-name="caron.case" horiz-adv-x="387" /><glyph d="M629 98C609 119 590 143 564 182C497 127 416 100 345 100C252 100 205 136 205 209C205 311 296 400 432 400C470 400 509 392 532 369C496 365 463 341 463 300C463 265 492 237 539 237C605 237 641 289 641 353C641 431 582 506 432 506C186 506 68 347 68 190C68 63 150 -10 324 -10C432 -10 520 10 629 98ZM505 563C537 600 618 661 689 713C668 727 634 751 618 767C560 729 506 686 465 647C447 686 419 730 388 767C367 754 330 737 302 727C339 675 380 599 388 563C408 564 433 564 444 564C455 564 487 564 505 563Z" glyph-name="ccaron" horiz-adv-x="740" unicode="&#269;" /><glyph d="M110 -199C144 -225 204 -243 267 -243C370 -243 415 -193 419 -135C423 -81 395 -55 344 -55C316 -55 293 -64 273 -77C284 -55 297 -31 309 -10C314 -10 319 -10 324 -10C432 -10 520 10 629 98C609 119 590 143 564 182C497 127 416 100 345 100C252 100 205 136 205 209C205 311 296 400 432 400C470 400 509 392 532 369C496 365 463 341 463 300C463 265 492 237 539 237C605 237 641 289 641 353C641 431 582 506 432 506C186 506 68 347 68 190C68 83 127 14 250 -5C235 -34 215 -68 203 -87C218 -92 235 -102 252 -115C267 -107 283 -100 305 -100C327 -100 344 -109 342 -132C340 -159 316 -174 278 -174C232 -174 189 -152 162 -126C149 -149 127 -182 110 -199Z" glyph-name="ccedilla" horiz-adv-x="740" unicode="&#231;" /><glyph d="M629 98C609 119 590 143 564 182C497 127 416 100 345 100C252 100 205 136 205 209C205 311 296 400 432 400C470 400 509 392 532 369C496 365 463 341 463 300C463 265 492 237 539 237C605 237 641 289 641 353C641 431 582 506 432 506C186 506 68 347 68 190C68 63 150 -10 324 -10C432 -10 520 10 629 98ZM570 555C591 568 628 585 656 595C619 647 578 723 570 759C550 758 525 758 514 758C503 758 471 758 453 759C421 722 340 661 269 609C290 595 324 571 340 555C398 593 452 636 493 675C511 636 539 592 570 555Z" glyph-name="ccircumflex" horiz-adv-x="740" unicode="&#265;" /><glyph d="M629 98C609 119 590 143 564 182C497 127 416 100 345 100C252 100 205 136 205 209C205 311 296 400 432 400C470 400 509 392 532 369C496 365 463 341 463 300C463 265 492 237 539 237C605 237 641 289 641 353C641 431 582 506 432 506C186 506 68 347 68 190C68 63 150 -10 324 -10C432 -10 520 10 629 98ZM545 663C545 710 512 750 454 750C395 750 363 710 363 663C363 614 390 578 454 578C512 578 545 614 545 663Z" glyph-name="cdotaccent" horiz-adv-x="740" unicode="&#267;" /><glyph d="M0 -199C34 -225 94 -243 157 -243C260 -243 305 -193 309 -135C313 -81 285 -55 234 -55C206 -55 183 -64 163 -77C183 -38 209 9 225 34H159C149 9 112 -58 93 -87C108 -92 125 -102 142 -115C157 -107 173 -100 195 -100C217 -100 234 -109 232 -132C230 -159 206 -174 168 -174C122 -174 79 -152 52 -126C39 -149 17 -182 0 -199Z" glyph-name="cedilla" horiz-adv-x="309" unicode="&#184;" /><glyph d="M222 0C266 2 310 2 356 0C360 13 366 39 375 72C463 76 543 100 635 151C619 174 601 206 585 243C516 202 448 182 373 182C277 182 224 215 224 279C224 365 313 444 446 444C477 444 509 439 531 425C501 417 476 392 476 361C476 328 505 303 553 303C618 303 654 350 654 408C654 462 617 519 529 541C542 580 555 612 561 628C518 625 473 625 427 628C423 613 417 584 407 549C191 534 87 395 87 264C87 168 147 103 253 80C240 44 228 14 222 0Z" glyph-name="cent" horiz-adv-x="740" unicode="&#162;" /><glyph d="M301 555C322 568 359 585 387 595C350 647 309 723 301 759C281 758 256 758 245 758C234 758 202 758 184 759C152 722 71 661 0 609C21 595 55 571 71 555C129 593 183 636 224 675C242 636 270 592 301 555Z" glyph-name="circumflex" horiz-adv-x="387" unicode="&#710;" /><glyph d="M301 665C322 677 359 695 387 705C351 750 309 818 294 850C274 849 249 849 238 849C227 849 195 849 176 850C146 819 48 752 0 719C21 705 55 680 71 664C126 701 179 738 219 772C241 739 271 701 301 665Z" glyph-name="circumflex.case" horiz-adv-x="387" /><glyph d="M430 90C430 145 393 189 325 189C256 189 219 145 219 90C219 34 249 -10 325 -10C393 -10 430 34 430 90ZM529 392C529 447 492 491 424 491C355 491 318 447 318 392C318 336 348 292 424 292C492 292 529 336 529 392Z" glyph-name="colon" horiz-adv-x="740" unicode=":" /><glyph d="M133 -230C334 -226 446 -97 446 38C446 127 405 189 327 189C262 189 221 145 221 89C221 39 250 2 302 2C337 2 363 20 375 47L385 44C379 -74 274 -124 124 -122C129 -151 133 -198 133 -230Z" glyph-name="comma" horiz-adv-x="740" unicode="," /><glyph d="M5 -322C141 -317 220 -234 220 -151C220 -93 192 -53 133 -53C82 -53 49 -84 49 -123C49 -158 72 -182 110 -182C136 -182 155 -172 166 -154L172 -156C166 -213 98 -244 0 -245C3 -266 5 -297 5 -322Z" glyph-name="commaaccent" horiz-adv-x="220" unicode="&#63171;" /><glyph d="M397 404C432 404 452 382 459 341C484 344 514 344 542 341C548 370 573 447 589 483C569 482 538 482 502 483C500 472 490 439 480 406L472 405C469 461 445 491 391 491C297 491 210 397 210 268C210 196 244 136 343 136C424 136 483 183 526 234C505 249 479 271 460 289C438 253 412 227 367 227C328 227 307 245 307 291C307 357 348 404 397 404ZM323 -14C579 -14 725 184 725 387C725 531 643 642 440 642C184 642 38 444 38 241C38 97 120 -14 323 -14ZM437 566C582 566 643 499 643 381C643 214 526 62 326 62C182 62 120 129 120 247C120 414 237 566 437 566Z" glyph-name="copyright" horiz-adv-x="740" unicode="&#169;" /><glyph d="M545 553C545 532 522 471 496 398C471 459 416 495 340 495C175 495 49 311 49 148C49 50 102 -10 189 -10C272 -10 353 40 419 159H426C422 137 420 117 420 98C420 27 464 -6 527 -6C598 -6 656 26 708 65C689 92 672 123 660 158C629 122 603 108 577 108C556 108 547 118 547 140C547 221 688 500 688 585C688 654 642 684 564 684C512 684 459 672 395 648C412 615 423 588 434 552C472 570 496 579 516 579C536 579 545 568 545 553ZM247 108C207 108 186 131 186 177C186 265 267 384 365 384C403 384 434 370 465 331C398 176 314 108 247 108Z" glyph-name="d" horiz-adv-x="740" unicode="d" /><glyph d="M607 263C691 263 747 315 747 388C747 441 718 480 656 480C577 480 552 418 552 378C552 373 552 367 553 363C525 370 508 388 508 428C508 502 567 640 608 725C589 723 545 723 517 723C489 723 444 723 426 725C418 681 377 556 349 397H343C327 454 278 485 216 485C132 485 76 434 76 361C76 307 106 268 167 268C246 268 271 330 271 370C271 379 270 387 268 394C294 387 308 368 308 327C308 245 228 14 190 -92C205 -91 236 -91 256 -91C276 -91 307 -91 322 -92C356 16 416 209 467 357H473C488 296 542 263 607 263Z" glyph-name="dagger" horiz-adv-x="740" unicode="&#8224;" /><glyph d="M534 55C614 55 667 107 667 180C667 233 637 272 576 272C502 272 479 210 479 170C479 161 480 153 482 146C456 153 441 173 441 218C441 275 460 353 486 444H492C507 385 559 353 619 353C703 353 759 405 759 478C759 531 730 570 668 570C594 570 571 508 571 468C571 463 571 457 572 452C543 459 527 478 527 518C527 569 574 664 602 725C584 723 541 723 514 723C487 723 444 723 427 725C421 693 395 603 375 487H369C353 544 303 575 241 575C161 575 108 524 108 451C108 397 138 358 199 358C273 358 296 420 296 460C296 469 295 477 293 484C319 477 334 457 334 411C334 347 310 250 289 183H283C269 244 215 277 149 277C69 277 16 226 16 153C16 99 45 60 107 60C181 60 204 122 204 162C204 167 204 173 203 178C232 171 248 152 248 112C248 62 202 -30 174 -90C193 -88 238 -88 266 -88C291 -88 333 -88 350 -90C355 -58 380 30 400 143L406 144C422 87 472 55 534 55Z" glyph-name="daggerdbl" horiz-adv-x="740" unicode="&#8225;" /><glyph d="M486 553C486 527 465 471 441 404C420 460 379 495 319 495C157 495 33 311 33 148C33 50 86 -10 160 -10C238 -10 303 41 358 151H365C363 132 361 114 361 98C361 27 406 -6 471 -6C555 -6 624 36 685 80C666 107 649 137 637 172C595 128 558 108 521 108C498 108 487 118 487 140C487 221 628 500 628 585C628 654 582 684 504 684C453 684 399 672 335 648C352 617 362 590 372 556C408 571 436 579 457 579C478 579 486 568 486 553ZM231 108C191 108 170 131 170 177C170 266 250 384 339 384C371 384 392 371 412 344C348 183 287 108 231 108ZM808 689C772 680 724 676 686 671C703 606 684 524 645 464C670 457 704 444 724 432C788 515 816 608 808 689Z" glyph-name="dcaron" horiz-adv-x="740" unicode="&#271;" /><glyph d="M247 108C207 108 186 131 186 177C186 261 261 374 362 374C400 374 434 362 464 323C400 172 314 108 247 108ZM582 675C578 654 572 630 565 604C473 604 388 606 366 608C360 583 345 545 335 519C359 521 446 522 539 522C525 481 509 437 494 393C460 433 411 459 335 459C173 459 49 294 49 148C49 50 102 -10 189 -10C272 -10 353 40 419 159H426C422 137 420 116 420 98C420 27 464 -6 527 -6C598 -6 656 26 708 65C689 92 672 123 660 158C629 122 603 108 577 108C556 108 547 118 547 140C547 193 617 377 675 522C730 522 775 521 793 519C799 544 814 581 824 608C807 606 763 605 708 605C719 633 728 657 735 675C683 673 631 673 582 675Z" glyph-name="dcroat" horiz-adv-x="740" unicode="&#273;" /><glyph d="M382 265C531 265 623 376 623 487C623 579 570 638 462 638C309 638 215 528 215 418C215 325 269 265 382 265ZM399 365C352 364 331 388 331 427C331 481 372 536 441 536C486 536 508 513 508 474C508 418 467 366 399 365Z" glyph-name="degree" horiz-adv-x="740" unicode="&#176;" /><glyph d="M164 661C164 709 131 738 82 738C33 738 0 710 0 661C0 611 33 582 82 582C131 582 164 613 164 661ZM377 661C377 709 344 738 295 738C246 738 213 710 213 661C213 611 246 582 295 582C344 582 377 613 377 661Z" glyph-name="dieresis" horiz-adv-x="377" unicode="&#168;" /><glyph d="M164 769C164 817 131 846 82 846C33 846 0 818 0 769C0 719 33 690 82 690C131 690 164 721 164 769ZM377 769C377 817 344 846 295 846C246 846 213 818 213 769C213 719 246 690 295 690C344 690 377 721 377 769Z" glyph-name="dieresis.case" horiz-adv-x="377" /><glyph d="M403 139C403 181 373 205 320 205C266 205 236 181 236 139C236 96 261 72 320 72C373 72 403 96 403 139ZM513 510C513 552 483 576 430 576C376 576 346 552 346 510C346 467 371 444 430 444C483 444 513 467 513 510ZM656 387C596 385 213 384 147 387C138 352 123 304 106 264C173 266 555 266 617 264C623 298 638 347 656 387Z" glyph-name="divide" horiz-adv-x="740" unicode="&#247;" /><glyph d="M191 -73C230 -72 271 -72 312 -73C316 -56 325 -23 338 21C531 21 631 94 631 204C631 307 552 339 391 367C292 385 271 401 271 431C271 468 314 497 431 497C469 497 501 493 527 488C520 479 516 467 516 454C516 420 543 391 594 391C648 391 673 424 673 466C673 521 630 577 521 595C539 644 556 680 564 699C525 697 485 697 444 699C440 681 428 647 412 602C248 595 153 524 153 419C153 336 205 288 376 260C491 240 510 224 510 196C510 158 469 134 359 134C284 134 226 142 185 156C194 164 199 177 199 193C199 227 175 255 125 255C66 255 39 218 39 169C39 98 95 45 228 27C212 -20 199 -55 191 -73Z" glyph-name="dollar" horiz-adv-x="740" unicode="$" /><glyph d="M192 -107C231 -105 272 -105 313 -107C317 -88 329 -50 345 1C533 5 628 74 628 176C628 279 532 305 392 327C306 341 268 352 268 386C268 420 306 448 426 448C464 448 497 445 523 440C517 431 513 420 513 407C513 373 540 344 591 344C645 344 670 377 670 419C670 472 625 526 511 543C532 603 554 648 563 669C523 667 483 667 442 669C438 649 423 605 403 547C245 540 150 473 150 376C150 287 226 247 379 226C471 212 508 199 508 167C508 128 465 107 353 107C276 107 218 118 177 135C187 143 194 156 194 173C194 207 170 235 120 235C61 235 34 198 34 149C34 76 94 22 235 6C216 -47 200 -87 192 -107Z" glyph-name="dollar.osf" horiz-adv-x="740" /><glyph d="M182 663C182 710 149 750 91 750C32 750 0 710 0 663C0 614 27 578 91 578C149 578 182 614 182 663Z" glyph-name="dotaccent" horiz-adv-x="182" unicode="&#729;" /><glyph d="M182 769C182 816 149 856 91 856C32 856 0 816 0 769C0 720 27 684 91 684C149 684 182 720 182 769Z" glyph-name="dotaccent.case" horiz-adv-x="182" /><glyph d="M370 145C370 204 465 335 465 407C465 473 421 505 348 505C258 505 172 461 47 365C66 342 84 316 108 278C193 352 248 382 291 382C311 382 324 373 324 355C324 307 237 200 237 111C237 31 287 -10 386 -10C473 -10 571 31 669 140C646 158 617 187 594 214C531 135 467 104 419 104C385 104 370 117 370 145Z" glyph-name="dotlessi" horiz-adv-x="740" unicode="&#305;" /><glyph d="M422 399C480 399 509 380 509 347C509 288 422 264 211 253C233 336 311 399 422 399ZM354 92C264 92 213 119 205 183C483 179 637 240 637 363C637 444 574 506 435 506C201 506 68 358 68 195C68 70 153 -10 330 -10C430 -10 530 11 629 93C610 113 593 135 567 173C509 115 421 92 354 92Z" glyph-name="e" horiz-adv-x="740" unicode="e" /><glyph d="M422 399C480 399 509 380 509 347C509 288 422 264 211 253C233 336 311 399 422 399ZM354 92C264 92 213 119 205 183C483 179 637 240 637 363C637 444 574 506 435 506C201 506 68 358 68 195C68 70 153 -10 330 -10C430 -10 530 11 629 93C610 113 593 135 567 173C509 115 421 92 354 92ZM358 557C408 577 617 639 680 656C670 681 651 750 643 775C594 748 381 657 329 638C338 620 353 576 358 557Z" glyph-name="eacute" horiz-adv-x="740" unicode="&#233;" /><glyph d="M422 399C480 399 509 380 509 347C509 288 422 264 211 253C233 336 311 399 422 399ZM354 92C264 92 213 119 205 183C483 179 637 240 637 363C637 444 574 506 435 506C201 506 68 358 68 195C68 70 153 -10 330 -10C430 -10 530 11 629 93C610 113 593 135 567 173C509 115 421 92 354 92ZM467 652C413 652 393 689 394 755C372 748 309 734 282 731C287 622 351 563 455 563C568 563 628 624 680 728C656 733 601 748 581 755C548 686 522 652 467 652Z" glyph-name="ebreve" horiz-adv-x="740" unicode="&#277;" /><glyph d="M422 399C480 399 509 380 509 347C509 288 422 264 211 253C233 336 311 399 422 399ZM354 92C264 92 213 119 205 183C483 179 637 240 637 363C637 444 574 506 435 506C201 506 68 358 68 195C68 70 153 -10 330 -10C430 -10 530 11 629 93C610 113 593 135 567 173C509 115 421 92 354 92ZM498 563C530 600 611 661 682 713C661 727 627 751 611 767C553 729 499 686 458 647C440 686 412 730 381 767C360 754 323 737 295 727C332 675 373 599 381 563C401 564 426 564 437 564C448 564 480 564 498 563Z" glyph-name="ecaron" horiz-adv-x="740" unicode="&#283;" /><glyph d="M422 399C480 399 509 380 509 347C509 288 422 264 211 253C233 336 311 399 422 399ZM354 92C264 92 213 119 205 183C483 179 637 240 637 363C637 444 574 506 435 506C201 506 68 358 68 195C68 70 153 -10 330 -10C430 -10 530 11 629 93C610 113 593 135 567 173C509 115 421 92 354 92ZM558 555C579 568 616 585 644 595C607 647 566 723 558 759C538 758 513 758 502 758C491 758 459 758 441 759C409 722 328 661 257 609C278 595 312 571 328 555C386 593 440 636 481 675C499 636 527 592 558 555Z" glyph-name="ecircumflex" horiz-adv-x="740" unicode="&#234;" /><glyph d="M422 399C480 399 509 380 509 347C509 288 422 264 211 253C233 336 311 399 422 399ZM354 92C264 92 213 119 205 183C483 179 637 240 637 363C637 444 574 506 435 506C201 506 68 358 68 195C68 70 153 -10 330 -10C430 -10 530 11 629 93C610 113 593 135 567 173C509 115 421 92 354 92ZM442 661C442 709 409 738 360 738C311 738 278 710 278 661C278 611 311 582 360 582C409 582 442 613 442 661ZM655 661C655 709 622 738 573 738C524 738 491 710 491 661C491 611 524 582 573 582C622 582 655 613 655 661Z" glyph-name="edieresis" horiz-adv-x="740" unicode="&#235;" /><glyph d="M422 399C480 399 509 380 509 347C509 288 422 264 211 253C233 336 311 399 422 399ZM354 92C264 92 213 119 205 183C483 179 637 240 637 363C637 444 574 506 435 506C201 506 68 358 68 195C68 70 153 -10 330 -10C430 -10 530 11 629 93C610 113 593 135 567 173C509 115 421 92 354 92ZM533 663C533 710 500 750 442 750C383 750 351 710 351 663C351 614 378 578 442 578C500 578 533 614 533 663Z" glyph-name="edotaccent" horiz-adv-x="740" unicode="&#279;" /><glyph d="M422 399C480 399 509 380 509 347C509 288 422 264 211 253C233 336 311 399 422 399ZM354 92C264 92 213 119 205 183C483 179 637 240 637 363C637 444 574 506 435 506C201 506 68 358 68 195C68 70 153 -10 330 -10C430 -10 530 11 629 93C610 113 593 135 567 173C509 115 421 92 354 92ZM499 557C505 576 520 620 530 639C477 657 280 744 232 773C222 745 196 680 184 654C249 638 449 577 499 557Z" glyph-name="egrave" horiz-adv-x="740" unicode="&#232;" /><glyph d="M292 -14C504 -14 635 68 635 197C635 266 599 302 528 320L529 328C636 354 696 411 696 494C696 589 620 642 473 642C263 642 157 559 157 450C157 395 185 357 243 334L241 325C100 302 36 241 36 146C36 50 116 -14 292 -14ZM321 91C225 91 179 118 179 170C179 230 235 278 360 278C454 278 497 250 497 199C497 139 443 91 321 91ZM402 369C318 369 282 393 282 441C282 498 333 539 448 539C530 539 567 517 567 470C567 417 515 369 402 369Z" glyph-name="eight" horiz-adv-x="740" unicode="8" /><glyph d="M330 133C400 133 423 127 423 109C423 86 392 68 309 68C236 68 215 81 215 97C215 120 243 133 330 133ZM370 259C431 259 452 249 452 230C452 205 421 190 347 190C285 190 264 198 264 216C264 241 297 259 370 259ZM394 337C242 337 172 284 172 229C172 200 192 178 245 169L243 164C156 152 109 116 109 68C109 23 157 -10 286 -10C444 -10 520 34 520 99C520 138 494 156 436 164L438 169C514 179 556 211 556 257C556 303 515 337 394 337Z" glyph-name="eight.dnom" horiz-adv-x="740" /><glyph d="M415 434C485 434 508 428 508 410C508 387 477 369 394 369C321 369 300 382 300 398C300 421 328 434 415 434ZM455 560C516 560 537 550 537 531C537 506 506 491 432 491C370 491 349 499 349 517C349 542 382 560 455 560ZM479 638C327 638 257 585 257 530C257 501 277 479 330 470L328 465C241 453 194 417 194 369C194 324 242 291 371 291C529 291 605 335 605 400C605 439 579 457 521 465L523 470C599 480 641 512 641 558C641 604 600 638 479 638Z" glyph-name="eight.numr" horiz-adv-x="740" /><glyph d="M292 -14C504 -14 635 68 635 197C635 266 599 302 528 320L529 328C636 354 696 411 696 494C696 589 620 642 473 642C263 642 157 559 157 450C157 395 185 357 243 334L241 325C100 302 36 241 36 146C36 50 116 -14 292 -14ZM321 91C225 91 179 118 179 170C179 230 235 278 360 278C454 278 497 250 497 199C497 139 443 91 321 91ZM402 369C318 369 282 393 282 441C282 498 333 539 448 539C530 539 567 517 567 470C567 417 515 369 402 369Z" glyph-name="eight.osf" horiz-adv-x="740" /><glyph d="M191 77C191 125 159 163 101 163C41 163 9 125 9 77C9 29 35 -9 101 -9C159 -9 191 29 191 77ZM425 77C425 125 393 163 335 163C275 163 243 125 243 77C243 29 269 -9 335 -9C393 -9 425 29 425 77ZM660 77C660 125 628 163 570 163C510 163 478 125 478 77C478 29 504 -9 570 -9C628 -9 660 29 660 77Z" glyph-name="ellipsis" horiz-adv-x="740" unicode="&#8230;" /><glyph d="M422 399C480 399 509 380 509 347C509 288 422 264 211 253C233 336 311 399 422 399ZM354 92C264 92 213 119 205 183C483 179 637 240 637 363C637 444 574 506 435 506C201 506 68 358 68 195C68 70 153 -10 330 -10C430 -10 530 11 629 93C610 113 593 135 567 173C509 115 421 92 354 92ZM300 713C291 677 278 639 264 603C314 605 634 605 689 603C698 637 713 679 725 713C668 711 348 711 300 713Z" glyph-name="emacron" horiz-adv-x="740" unicode="&#275;" /><glyph d="M74 336C62 288 47 244 30 195C104 201 578 200 659 195C670 240 690 297 703 336C621 329 145 331 74 336Z" glyph-name="emdash" horiz-adv-x="740" unicode="&#8212;" /><glyph d="M117 336C106 288 90 244 74 195C136 200 540 199 609 195C620 240 640 296 653 336C583 329 178 331 117 336Z" glyph-name="endash" horiz-adv-x="740" unicode="&#8211;" /><glyph d="M183 374C183 316 122 170 40 7C105 4 147 0 188 -6L190 2C281 268 400 391 477 391C505 391 523 378 523 342C523 280 482 172 441 62C405 -33 378 -81 340 -96C340 -94 340 -93 340 -91C340 -55 314 -30 271 -30C221 -30 193 -67 193 -111C193 -163 233 -200 317 -200C448 -200 519 -100 568 29C626 180 667 301 667 395C667 471 621 506 551 506C470 506 379 463 307 336L297 337C304 364 308 385 308 403C308 473 269 506 206 506C146 506 90 479 32 424C49 403 66 377 80 344C117 388 140 400 160 400C175 400 183 392 183 374ZM254 -82 259 -74 270 -75 257 -84C256 -84 255 -83 254 -82Z" glyph-name="eng" horiz-adv-x="740" unicode="&#331;" /><glyph d="M422 399C480 399 509 380 509 347C509 288 422 264 211 253C233 336 312 399 422 399ZM537 -230C534 -209 535 -151 538 -122C521 -130 506 -132 490 -132C454 -132 437 -119 437 -96C437 -31 578 43 629 93C610 113 593 135 567 173C509 115 421 92 354 92C264 92 213 119 205 183C483 179 637 240 637 363C637 444 574 506 435 506C201 506 68 358 68 195C68 70 153 -10 330 -10C376 -10 423 -6 468 8C389 -36 318 -76 318 -148C318 -203 364 -244 448 -244C474 -244 507 -241 537 -230Z" glyph-name="eogonek" horiz-adv-x="740" unicode="&#281;" /><glyph d="M196 494C186 453 172 413 156 372C215 377 583 375 647 372C658 411 671 452 687 494C621 488 251 489 196 494ZM123 271C112 230 99 189 83 148C142 154 510 152 574 148C586 188 599 229 614 271C548 265 179 265 123 271Z" glyph-name="equal" horiz-adv-x="740" unicode="=" /><glyph d="M387 368C465 368 520 325 519 260C519 184 440 99 321 98C243 98 198 134 198 203C198 281 268 368 387 368ZM317 -10C561 -10 682 181 682 374C682 475 647 554 590 615C633 642 672 666 693 678C678 697 668 715 659 733C641 719 597 689 546 657C501 693 447 721 391 743C371 711 334 660 315 639C363 627 405 611 439 590C397 564 361 541 342 530C358 519 374 501 385 487C402 497 443 522 489 551C541 502 567 435 567 353C567 349 567 344 567 339L558 338C523 425 436 457 350 457C171 457 60 322 60 195C60 71 138 -10 317 -10Z" glyph-name="eth" horiz-adv-x="740" unicode="&#240;" /><glyph d="M401 250C431 373 551 478 551 560C551 607 527 643 465 643C401 643 362 605 359 536C355 479 368 368 331 250C343 251 354 251 366 251C383 251 390 251 401 250ZM412 77C412 125 380 163 321 163C261 163 229 125 229 77C229 28 255 -10 321 -10C380 -10 412 28 412 77Z" glyph-name="exclam" horiz-adv-x="740" unicode="!" /><glyph d="M378 383C348 260 228 155 228 73C228 26 252 -10 314 -10C378 -10 417 28 420 97C424 154 411 265 448 383C436 382 425 382 413 382C396 382 389 382 378 383ZM367 556C367 508 399 470 458 470C518 470 550 508 550 556C550 605 524 643 458 643C399 643 367 605 367 556Z" glyph-name="exclamdown" horiz-adv-x="740" unicode="&#161;" /><glyph d="M124 396C120 359 110 322 100 284C124 286 195 287 279 287C271 204 262 102 255 39C247 -29 223 -68 185 -91C180 -49 152 -20 105 -20C48 -20 21 -58 21 -102C21 -169 72 -203 147 -203C281 -203 354 -132 378 63C383 101 394 204 402 287C509 287 610 286 643 284C647 320 657 358 667 396C632 394 523 392 411 392C419 499 452 559 511 575V571C511 525 537 492 598 492C651 492 685 534 685 581C685 644 626 680 542 680C398 680 314 597 292 413C291 407 290 400 289 392C211 393 146 394 124 396Z" glyph-name="f" horiz-adv-x="740" unicode="f" /><glyph d="M124 396C120 359 110 322 100 284C124 286 195 287 279 287C271 204 262 102 255 39C247 -29 223 -68 185 -91C180 -49 152 -20 105 -20C48 -20 21 -58 21 -102C21 -169 72 -203 147 -203C281 -203 354 -132 378 63C383 101 394 204 402 287C509 287 610 286 643 284C647 320 657 358 667 396C632 394 523 392 411 392C419 499 452 559 511 575V571C511 525 537 492 598 492C651 492 685 534 685 581C685 644 626 680 542 680C398 680 314 597 292 413C291 407 290 400 289 392C211 393 146 394 124 396ZM1311 678C1311 733 1274 777 1206 777C1137 777 1100 733 1100 678C1100 622 1130 578 1206 578C1274 578 1311 622 1311 678ZM1110 145C1110 204 1205 335 1205 407C1205 473 1161 505 1088 505C998 505 912 461 787 365C806 342 824 316 848 278C933 352 988 382 1031 382C1051 382 1064 373 1064 355C1064 307 977 200 977 111C977 31 1027 -10 1126 -10C1213 -10 1311 31 1409 140C1386 158 1357 187 1334 214C1271 135 1207 104 1159 104C1125 104 1110 117 1110 145Z" glyph-name="fi" horiz-adv-x="1480" unicode="&#64257;" /><glyph d="M24 -36C139 -33 255 -34 370 -34C485 -34 601 -33 716 -36C712 79 714 195 714 310C714 425 712 541 716 656C601 652 485 653 370 653C255 653 139 652 24 656C27 541 26 425 26 310C26 195 27 79 24 -36Z" glyph-name="filledbox" horiz-adv-x="740" unicode="&#9632;" /><glyph d="M314 -14C499 -14 652 61 652 224C652 324 584 392 441 392C380 392 310 380 261 348L254 352C272 398 283 433 295 476C306 514 310 517 359 517C431 517 502 517 694 503C705 545 719 598 729 628C595 627 341 625 224 628C208 545 158 394 130 331C154 320 199 300 228 273C274 288 333 299 384 299C476 300 515 270 515 213C515 143 446 101 324 101C273 101 236 108 207 119C219 133 226 153 226 176C226 216 196 250 140 250C77 250 38 213 38 147C38 62 105 -14 314 -14Z" glyph-name="five" horiz-adv-x="740" unicode="5" /><glyph d="M390 198C349 198 308 192 264 182C269 202 275 223 282 244C396 244 484 243 544 239C550 265 562 301 570 327C495 325 308 325 224 327C217 289 189 199 171 154C198 149 224 142 246 130C283 139 315 146 356 146C410 146 428 138 428 115C428 91 399 75 345 75C281 75 223 84 154 113C148 91 130 53 116 31C162 7 239 -12 327 -12C452 -12 523 35 523 110C523 172 484 198 390 198Z" glyph-name="five.dnom" horiz-adv-x="740" /><glyph d="M462 499C421 499 380 493 336 483C341 503 347 524 354 545C468 545 556 544 616 540C622 566 634 602 642 628C567 626 380 626 296 628C289 590 261 500 243 455C270 450 296 443 318 431C355 440 387 447 428 447C482 447 500 439 500 416C500 392 471 376 417 376C353 376 295 385 226 414C220 392 202 354 188 332C234 308 311 289 399 289C524 289 595 336 595 411C595 473 556 499 462 499Z" glyph-name="five.numr" horiz-adv-x="740" /><glyph d="M285 -99C470 -99 623 -24 623 139C623 239 555 307 412 307C351 307 281 295 232 263L225 267C243 313 254 348 266 391C277 429 281 432 330 432C402 432 473 432 665 418C676 460 690 513 700 543C566 542 312 540 195 543C179 460 129 309 101 246C125 235 170 215 199 188C245 203 304 214 355 214C447 215 486 185 486 128C486 58 417 16 295 16C244 16 207 23 178 34C190 48 197 68 197 91C197 131 167 165 111 165C48 165 9 128 9 62C9 -23 76 -99 285 -99Z" glyph-name="five.osf" horiz-adv-x="740" /><glyph d="M124 396C120 359 110 322 100 284C124 286 195 287 279 287C271 204 262 102 255 39C247 -29 223 -68 185 -91C180 -49 152 -20 105 -20C48 -20 21 -58 21 -102C21 -169 72 -203 147 -203C281 -203 354 -132 378 63C383 101 394 204 402 287C509 287 610 286 643 284C647 320 657 358 667 396C632 394 523 392 411 392C419 499 452 559 511 575V571C511 525 537 492 598 492C651 492 685 534 685 581C685 644 626 680 542 680C398 680 314 597 292 413C291 407 290 400 289 392C211 393 146 394 124 396ZM1065 153C1065 243 1222 462 1222 585C1222 651 1181 685 1112 685C1025 685 930 642 817 556C835 534 856 505 875 465C956 530 1003 562 1042 562C1065 562 1073 551 1073 533C1073 453 925 264 925 119C925 31 977 -10 1077 -10C1198 -10 1300 47 1422 192C1397 211 1373 229 1340 264C1257 149 1184 104 1123 104C1082 104 1065 122 1065 153Z" glyph-name="fl" horiz-adv-x="1480" unicode="&#64258;" /><glyph d="M582 0C589 33 602 69 617 104C603 104 570 101 533 101C497 101 496 125 503 153C508 173 515 196 522 221C570 221 620 220 668 220C674 250 685 283 697 314C647 314 598 313 551 313C576 393 611 493 659 622C605 623 495 628 437 633C379 572 133 373 21 313C30 284 33 252 35 213C97 218 236 220 396 221C387 193 378 167 370 146C356 107 335 101 301 101C256 101 221 102 206 104C200 70 186 34 172 0C224 2 527 4 582 0ZM312 397C376 448 444 503 498 550L505 546C482 485 453 396 426 313C391 313 358 313 327 313C276 313 233 312 200 311L198 316C234 340 272 367 312 397Z" glyph-name="four" horiz-adv-x="740" unicode="4" /><glyph d="M511 66C515 85 525 117 533 137C514 137 489 136 460 136C475 186 496 248 524 326C488 326 444 327 406 333C350 291 171 180 104 152C106 128 109 95 107 66C157 67 247 67 333 67C324 41 317 18 310 0C348 1 385 1 423 0C428 19 434 41 441 67C469 66 493 66 511 66ZM200 131V138C263 164 330 207 383 251L391 249C381 216 368 175 355 134C303 133 248 132 200 131Z" glyph-name="four.dnom" horiz-adv-x="740" /><glyph d="M594 367C598 386 608 418 616 438C597 438 572 437 543 437C558 487 579 549 607 627C571 627 527 628 489 634C433 592 254 481 187 453C189 429 192 396 190 367C240 368 330 368 416 368C407 342 400 319 393 301C431 302 468 302 506 301C511 320 517 342 524 368C552 367 576 367 594 367ZM283 432V439C346 465 413 508 466 552L474 550C464 517 451 476 438 435C386 434 331 433 283 432Z" glyph-name="four.numr" horiz-adv-x="740" /><glyph d="M563 -79C570 -46 583 -10 598 25C584 25 551 22 514 22C478 22 477 46 484 74C489 94 496 117 503 142C551 142 601 141 649 141C655 171 666 204 678 235C628 235 579 234 532 234C557 314 592 414 640 543C586 544 476 549 418 554C360 493 114 294 2 234C11 205 14 173 16 134C78 139 217 141 377 142C368 114 359 88 351 67C337 28 316 22 282 22C237 22 202 23 187 25C181 -9 167 -45 153 -79C205 -77 508 -75 563 -79ZM293 318C357 369 425 424 479 471L486 467C463 406 434 317 407 234C372 234 339 234 308 234C257 234 214 233 181 232L179 237C215 261 253 288 293 318Z" glyph-name="four.osf" horiz-adv-x="740" /><glyph d="M-7 69C30 50 107 8 139 -16C183 42 294 190 339 241C330 249 313 267 303 281C243 235 76 122 -7 69ZM775 558C738 577 659 619 626 643C584 585 478 439 431 388C440 380 457 362 467 348C526 393 693 506 775 558Z" glyph-name="fraction" horiz-adv-x="740" unicode="&#8260;" /><glyph d="M258 -100C250 -100 243 -100 237 -99C243 -89 247 -77 247 -62C247 -25 220 2 171 2C114 2 84 -37 84 -86C84 -152 138 -200 263 -200C451 -200 506 -85 536 24C579 177 618 334 690 490C630 492 592 497 554 503C549 490 544 476 539 462C533 445 527 429 520 414C482 470 419 506 341 506C187 506 76 344 76 200C76 109 128 53 218 53C297 53 384 89 447 183H457C445 138 434 96 423 57C392 -57 338 -100 258 -100ZM276 163C227 163 204 187 204 231C204 309 271 403 357 403C405 403 451 390 492 353C425 217 355 163 276 163Z" glyph-name="g" horiz-adv-x="740" unicode="g" /><glyph d="M258 -100C250 -100 243 -100 237 -99C243 -89 247 -77 247 -62C247 -25 220 2 171 2C114 2 84 -37 84 -86C84 -152 138 -200 263 -200C451 -200 506 -85 536 24C579 177 618 334 690 490C630 492 592 497 554 503C549 490 544 476 539 462C533 445 527 429 520 414C482 470 419 506 341 506C187 506 76 344 76 200C76 109 128 53 218 53C297 53 384 89 447 183H457C445 138 434 96 423 57C392 -57 338 -100 258 -100ZM276 163C227 163 204 187 204 231C204 309 271 403 357 403C405 403 451 390 492 353C425 217 355 163 276 163ZM452 652C398 652 378 689 379 755C357 748 294 734 267 731C272 622 336 563 440 563C553 563 613 624 665 728C641 733 586 748 566 755C533 686 507 652 452 652Z" glyph-name="gbreve" horiz-adv-x="740" unicode="&#287;" /><glyph d="M258 -100C250 -100 243 -100 237 -99C243 -89 247 -77 247 -62C247 -25 220 2 171 2C114 2 84 -37 84 -86C84 -152 138 -200 263 -200C451 -200 506 -85 536 24C579 177 618 334 690 490C630 492 592 497 554 503C549 490 544 476 539 462C533 445 527 429 520 414C482 470 419 506 341 506C187 506 76 344 76 200C76 109 128 53 218 53C297 53 384 89 447 183H457C445 138 434 96 423 57C392 -57 338 -100 258 -100ZM276 163C227 163 204 187 204 231C204 309 271 403 357 403C405 403 451 390 492 353C425 217 355 163 276 163ZM544 555C565 568 602 585 630 595C593 647 552 723 544 759C524 758 499 758 488 758C477 758 445 758 427 759C395 722 314 661 243 609C264 595 298 571 314 555C372 593 426 636 467 675C485 636 513 592 544 555Z" glyph-name="gcircumflex" horiz-adv-x="740" unicode="&#285;" /><glyph d="M258 -100C250 -100 243 -100 237 -99C243 -89 247 -77 247 -62C247 -25 220 2 171 2C114 2 84 -37 84 -86C84 -152 138 -200 263 -200C451 -200 506 -85 536 24C579 177 618 334 690 490C630 492 592 497 554 503C549 490 544 476 539 462C533 445 527 429 520 414C482 470 419 506 341 506C187 506 76 344 76 200C76 109 128 53 218 53C297 53 384 89 447 183H457C445 138 434 96 423 57C392 -57 338 -100 258 -100ZM276 163C227 163 204 187 204 231C204 309 271 403 357 403C405 403 451 390 492 353C425 217 355 163 276 163ZM447 555C498 555 531 586 531 625C531 660 508 684 470 684C444 684 425 674 414 656L408 658C414 715 482 746 580 747C577 768 575 799 575 824C439 819 360 736 360 653C360 595 388 555 447 555Z" glyph-name="gcommaaccent" horiz-adv-x="740" unicode="&#291;" /><glyph d="M258 -100C250 -100 243 -100 237 -99C243 -89 247 -77 247 -62C247 -25 220 2 171 2C114 2 84 -37 84 -86C84 -152 138 -200 263 -200C451 -200 506 -85 536 24C579 177 618 334 690 490C630 492 592 497 554 503C549 490 544 476 539 462C533 445 527 429 520 414C482 470 419 506 341 506C187 506 76 344 76 200C76 109 128 53 218 53C297 53 384 89 447 183H457C445 138 434 96 423 57C392 -57 338 -100 258 -100ZM276 163C227 163 204 187 204 231C204 309 271 403 357 403C405 403 451 390 492 353C425 217 355 163 276 163ZM519 663C519 710 486 750 428 750C369 750 337 710 337 663C337 614 364 578 428 578C486 578 519 614 519 663Z" glyph-name="gdotaccent" horiz-adv-x="740" unicode="&#289;" /><glyph d="M98 74C79 -5 64 -59 44 -92C38 -60 13 -34 -34 -34C-91 -34 -119 -71 -119 -115C-119 -174 -73 -203 -4 -203C109 -203 175 -130 221 63C254 199 280 377 304 455C331 543 373 584 459 584C520 584 538 557 538 533C538 501 505 483 469 464C419 439 367 412 367 358C367 303 414 273 468 240C516 212 552 186 552 144C552 97 508 73 443 73C422 73 403 75 387 80C410 88 423 112 423 137C423 173 403 199 360 199C300 199 277 155 277 109C277 29 341 -14 459 -14C610 -14 677 59 677 146C677 224 617 261 560 294C518 318 493 334 493 362C493 389 522 405 561 424C613 449 659 479 659 552C659 632 604 683 463 683C296 683 213 590 177 455C145 336 125 188 98 74Z" glyph-name="germandbls" horiz-adv-x="740" unicode="&#223;" /><glyph d="M316 557C322 576 337 620 347 639C294 657 97 744 49 773C39 745 13 680 1 654C66 638 266 577 316 557Z" glyph-name="grave" horiz-adv-x="347" unicode="`" /><glyph d="M326 675C333 698 344 740 352 759C298 776 91 845 34 869C27 844 9 776 0 752C70 740 273 692 326 675Z" glyph-name="grave.case" horiz-adv-x="352" /><glyph d="M111 42C188 77 575 232 633 250C642 285 654 325 668 356C618 373 307 537 238 569C223 524 198 472 173 432C199 421 286 389 366 359C422 339 469 322 509 310L506 299C456 288 397 272 320 251C224 225 119 191 91 183C98 142 109 79 111 42Z" glyph-name="greater" horiz-adv-x="740" unicode="&gt;" /><glyph d="M268 25C294 47 336 75 367 92C319 159 262 213 209 253C282 287 369 339 438 405C411 427 379 460 362 484C293 418 152 338 71 306C57 253 64 273 45 221C116 187 226 89 268 25ZM516 32C546 52 592 77 626 91C599 144 556 209 515 251C584 290 667 360 725 416C701 431 658 467 637 491C564 409 426 305 332 250C399 201 479 99 516 32Z" glyph-name="guillemotleft" horiz-adv-x="740" unicode="&#171;" /><glyph d="M373 22C442 88 583 168 664 200C678 253 671 233 690 285C619 319 509 417 467 481C441 459 399 431 368 414C416 347 473 293 526 253C453 219 366 167 297 101C324 79 356 46 373 22ZM98 15C171 97 309 201 403 256C336 305 256 407 219 474C189 454 143 429 109 415C136 362 179 297 220 255C151 216 68 146 10 90C34 75 77 39 98 15Z" glyph-name="guillemotright" horiz-adv-x="740" unicode="&#187;" /><glyph d="M482 24C500 60 532 114 552 140C449 190 332 224 234 246V254C349 272 493 303 620 345C611 372 602 444 602 474C467 402 268 339 170 316C162 287 141 216 129 186C213 162 375 91 482 24Z" glyph-name="guilsinglleft" horiz-adv-x="740" unicode="&#8249;" /><glyph d="M143 25C278 97 477 160 575 183C583 212 604 283 616 313C532 337 370 408 263 475C245 439 213 385 193 359C296 309 413 275 511 253V245C396 227 252 196 125 154C134 127 143 55 143 25Z" glyph-name="guilsinglright" horiz-adv-x="740" unicode="&#8250;" /><glyph d="M580 104C559 104 550 114 550 134C550 200 645 298 645 394C645 468 599 502 529 502C447 502 359 460 287 335H276C322 460 353 523 353 590C353 656 313 685 250 685C207 685 163 676 111 656C125 630 136 601 147 565C167 575 180 579 194 579C211 579 220 570 220 551C220 477 81 149 15 6C77 4 119 0 163 -6C256 266 376 387 453 387C480 387 497 375 497 346C497 281 415 190 415 93C415 22 465 -10 529 -10C599 -10 654 22 691 53C673 84 661 114 651 150C626 121 604 104 580 104Z" glyph-name="h" horiz-adv-x="740" unicode="h" /><glyph d="M114 602C108 577 95 539 84 514C101 515 151 516 211 517C157 334 66 118 15 6C77 4 119 0 163 -6C247 240 368 345 443 345C469 345 486 333 486 304C486 252 415 171 415 93C415 22 465 -10 529 -10C599 -10 654 22 691 53C673 84 661 114 651 150C626 121 604 104 580 104C559 104 550 114 550 134C550 187 634 273 634 351C634 426 588 460 516 460C443 460 355 429 290 332H275C297 396 319 460 339 517C436 517 528 516 556 514C562 538 576 576 586 602C559 600 466 598 368 598C380 629 390 655 398 675C349 673 299 673 249 675C245 651 240 626 233 599C176 599 130 600 114 602Z" glyph-name="hbar" horiz-adv-x="740" unicode="&#295;" /><glyph d="M580 104C559 104 550 114 550 134C550 200 645 298 645 394C645 468 599 502 529 502C447 502 359 460 287 335H276C322 460 353 523 353 590C353 656 313 685 250 685C207 685 163 676 111 656C125 630 136 601 147 565C167 575 180 579 194 579C211 579 220 570 220 551C220 477 81 149 15 6C77 4 119 0 163 -6C256 266 376 387 453 387C480 387 497 375 497 346C497 281 415 190 415 93C415 22 465 -10 529 -10C599 -10 654 22 691 53C673 84 661 114 651 150C626 121 604 104 580 104ZM510 712C531 724 568 742 596 752C560 797 518 865 503 897C483 896 458 896 447 896C436 896 404 896 385 897C355 866 257 799 209 766C230 752 264 727 280 711C335 748 388 785 428 819C450 786 480 748 510 712Z" glyph-name="hcircumflex" horiz-adv-x="740" unicode="&#293;" /><glyph d="M64 547C91 578 218 716 251 751C232 760 188 790 167 806C137 764 29 625 0 594C19 583 45 565 64 547ZM231 545C258 576 401 702 432 731C405 746 367 779 348 797C320 760 196 626 167 594C187 582 212 562 231 545Z" glyph-name="hungarumlaut" horiz-adv-x="432" unicode="&#733;" /><glyph d="M63 671C86 697 201 808 231 836C212 846 170 876 149 892C123 858 25 745 0 719C19 707 44 689 63 671ZM228 668C256 692 382 786 413 810C388 827 351 861 335 879C309 850 194 744 167 719C187 706 211 685 228 668Z" glyph-name="hungarumlaut.case" horiz-adv-x="413" /><glyph d="M167 336C156 288 141 244 125 196C176 200 503 199 559 196C570 241 590 297 603 336C545 331 217 332 167 336Z" glyph-name="hyphen" horiz-adv-x="740" unicode="-" /><glyph d="M571 678C571 733 534 777 466 777C397 777 360 733 360 678C360 622 390 578 466 578C534 578 571 622 571 678ZM370 145C370 204 465 335 465 407C465 473 421 505 348 505C258 505 172 461 47 365C66 342 84 316 108 278C193 352 248 382 291 382C311 382 324 373 324 355C324 307 237 200 237 111C237 31 287 -10 386 -10C473 -10 571 31 669 140C646 158 617 187 594 214C531 135 467 104 419 104C385 104 370 117 370 145Z" glyph-name="i" horiz-adv-x="740" unicode="i" /><glyph d="M370 145C370 204 465 335 465 407C465 473 421 505 348 505C258 505 172 461 47 365C66 342 84 316 108 278C193 352 248 382 291 382C311 382 324 373 324 355C324 307 237 200 237 111C237 31 287 -10 386 -10C473 -10 571 31 669 140C646 158 617 187 594 214C531 135 467 104 419 104C385 104 370 117 370 145ZM331 557C381 577 590 639 653 656C643 681 624 750 616 775C567 748 354 657 302 638C311 620 326 576 331 557Z" glyph-name="iacute" horiz-adv-x="740" unicode="&#237;" /><glyph d="M370 145C370 204 465 335 465 407C465 473 421 505 348 505C258 505 172 461 47 365C66 342 84 316 108 278C193 352 248 382 291 382C311 382 324 373 324 355C324 307 237 200 237 111C237 31 287 -10 386 -10C473 -10 571 31 669 140C646 158 617 187 594 214C531 135 467 104 419 104C385 104 370 117 370 145ZM439 652C385 652 365 689 366 755C344 748 281 734 254 731C259 622 323 563 427 563C540 563 600 624 652 728C628 733 573 748 553 755C520 686 494 652 439 652Z" glyph-name="ibreve" horiz-adv-x="740" unicode="&#301;" /><glyph d="M370 145C370 204 465 335 465 407C465 473 421 505 348 505C258 505 172 461 47 365C66 342 84 316 108 278C193 352 248 382 291 382C311 382 324 373 324 355C324 307 237 200 237 111C237 31 287 -10 386 -10C473 -10 571 31 669 140C646 158 617 187 594 214C531 135 467 104 419 104C385 104 370 117 370 145ZM530 555C551 568 588 585 616 595C579 647 538 723 530 759C510 758 485 758 474 758C463 758 431 758 413 759C381 722 300 661 229 609C250 595 284 571 300 555C358 593 412 636 453 675C471 636 499 592 530 555Z" glyph-name="icircumflex" horiz-adv-x="740" unicode="&#238;" /><glyph d="M370 145C370 204 465 335 465 407C465 473 421 505 348 505C258 505 172 461 47 365C66 342 84 316 108 278C193 352 248 382 291 382C311 382 324 373 324 355C324 307 237 200 237 111C237 31 287 -10 386 -10C473 -10 571 31 669 140C646 158 617 187 594 214C531 135 467 104 419 104C385 104 370 117 370 145ZM414 661C414 709 381 738 332 738C283 738 250 710 250 661C250 611 283 582 332 582C381 582 414 613 414 661ZM627 661C627 709 594 738 545 738C496 738 463 710 463 661C463 611 496 582 545 582C594 582 627 613 627 661Z" glyph-name="idieresis" horiz-adv-x="740" unicode="&#239;" /><glyph d="M370 145C370 204 465 335 465 407C465 473 421 505 348 505C258 505 172 461 47 365C66 342 84 316 108 278C193 352 248 382 291 382C311 382 324 373 324 355C324 307 237 200 237 111C237 31 287 -10 386 -10C473 -10 571 31 669 140C646 158 617 187 594 214C531 135 467 104 419 104C385 104 370 117 370 145ZM471 557C477 576 492 620 502 639C449 657 252 744 204 773C194 745 168 680 156 654C221 638 421 577 471 557Z" glyph-name="igrave" horiz-adv-x="740" unicode="&#236;" /><glyph d="M238 167C238 228 314 320 314 402C314 473 272 506 204 506C143 506 88 479 29 424C47 403 63 377 78 344C114 388 137 400 156 400C172 400 180 391 180 373C180 319 103 214 103 125C103 51 152 17 224 17C290 17 347 43 382 77C364 107 350 138 340 174C318 146 298 131 273 131C249 131 238 143 238 167ZM557 373C557 324 520 206 473 106C393 -65 337 -117 272 -124C278 -115 281 -103 281 -90C281 -51 257 -24 210 -24C159 -24 131 -57 131 -104C131 -171 184 -215 282 -215C424 -215 508 -119 609 111C663 233 691 333 691 394C691 470 648 506 579 506C519 506 464 479 406 424C424 403 440 377 455 344C491 388 514 400 533 400C549 400 557 391 557 373ZM176 -105 198 -117C189 -114 182 -110 176 -105ZM428 678C428 733 391 777 323 777C254 777 217 733 217 678C217 622 247 578 323 578C391 578 428 622 428 678ZM781 678C781 733 744 777 676 777C607 777 570 733 570 678C570 622 600 578 676 578C744 578 781 622 781 678Z" glyph-name="ij" horiz-adv-x="740" unicode="&#307;" /><glyph d="M370 145C370 204 465 335 465 407C465 473 421 505 348 505C258 505 172 461 47 365C66 342 84 316 108 278C193 352 248 382 291 382C311 382 324 373 324 355C324 307 237 200 237 111C237 31 287 -10 386 -10C473 -10 571 31 669 140C646 158 617 187 594 214C531 135 467 104 419 104C385 104 370 117 370 145ZM272 713C263 677 250 639 236 603C286 605 606 605 661 603C670 637 685 679 697 713C640 711 320 711 272 713Z" glyph-name="imacron" horiz-adv-x="740" unicode="&#299;" /><glyph d="M463 -244C490 -244 523 -241 553 -230C550 -209 551 -151 554 -122C536 -130 521 -132 505 -132C469 -132 452 -119 452 -96C452 -23 595 40 669 140C646 158 617 187 594 214C531 135 467 104 419 104C385 104 370 117 370 145C370 204 465 335 465 407C465 473 421 505 348 505C258 505 172 461 47 365C66 342 84 316 108 278C193 352 248 382 291 382C311 382 324 373 324 355C324 307 237 200 237 111C237 31 287 -10 386 -10C413 -10 443 -4 474 7C402 -36 334 -81 334 -148C334 -203 380 -244 463 -244ZM571 678C571 733 534 777 466 777C397 777 360 733 360 678C360 622 390 578 466 578C534 578 571 622 571 678Z" glyph-name="iogonek" horiz-adv-x="740" unicode="&#303;" /><glyph d="M370 145C370 204 465 335 465 407C465 473 421 505 348 505C258 505 172 461 47 365C66 342 84 316 108 278C193 352 248 382 291 382C311 382 324 373 324 355C324 307 237 200 237 111C237 31 287 -10 386 -10C473 -10 571 31 669 140C646 158 617 187 594 214C531 135 467 104 419 104C385 104 370 117 370 145ZM382 757C294 757 244 695 221 566C246 568 273 568 298 566C310 632 332 663 361 663C382 663 390 647 402 624C424 584 450 552 515 552C601 552 650 615 674 744C644 741 617 741 597 744C588 679 566 648 537 648C512 648 502 666 488 689C465 727 441 757 382 757Z" glyph-name="itilde" horiz-adv-x="740" unicode="&#297;" /><glyph d="M489 111C542 232 571 331 571 393C571 469 515 505 444 505C354 505 268 460 143 362C163 339 183 312 206 275C293 355 355 392 399 392C426 392 438 377 438 354C438 308 397 200 353 106C266 -82 203 -126 125 -126C110 -126 96 -124 85 -120L86 -113C126 -113 159 -86 159 -38C159 4 132 33 83 33C18 33 -15 -16 -15 -75C-15 -157 43 -215 156 -215C298 -215 387 -120 489 111ZM691 678C691 733 654 777 586 777C517 777 480 733 480 678C480 622 510 578 586 578C654 578 691 622 691 678Z" glyph-name="j" horiz-adv-x="740" unicode="j" /><glyph d="M489 111C542 232 571 331 571 393C571 469 515 505 444 505C354 505 268 460 143 362C163 339 183 312 206 275C293 355 355 392 399 392C426 392 438 377 438 354C438 308 397 200 353 106C266 -82 203 -126 125 -126C110 -126 96 -124 85 -120L86 -113C126 -113 159 -86 159 -38C159 4 132 33 83 33C18 33 -15 -16 -15 -75C-15 -157 43 -215 156 -215C298 -215 387 -120 489 111ZM618 555C639 568 676 585 704 595C667 647 626 723 618 759C598 758 573 758 562 758C551 758 519 758 501 759C469 722 388 661 317 609C338 595 372 571 388 555C446 593 500 636 541 675C559 636 587 592 618 555Z" glyph-name="jcircumflex" horiz-adv-x="740" unicode="&#309;" /><glyph d="M354 586C354 654 313 685 250 685C207 685 163 676 111 656C125 630 136 601 147 565C167 575 180 579 194 579C211 579 220 570 220 551C220 477 81 149 15 6C77 4 119 0 163 -6C184 61 200 116 218 167C245 173 272 179 298 186C367 37 417 -10 509 -10C568 -10 620 13 682 63C655 91 640 113 621 149C589 117 557 100 525 100C476 100 447 138 409 217C549 265 657 331 656 420C657 469 628 503 569 503C505 503 475 465 475 421C475 398 483 379 500 365C446 320 346 284 252 262C308 423 354 512 354 586Z" glyph-name="k" horiz-adv-x="740" unicode="k" /><glyph d="M354 586C354 654 313 685 250 685C207 685 163 676 111 656C125 630 136 601 147 565C167 575 180 579 194 579C211 579 220 570 220 551C220 477 81 149 15 6C77 4 119 0 163 -6C184 61 200 116 218 167C245 173 272 179 298 186C367 37 417 -10 509 -10C568 -10 620 13 682 63C655 91 640 113 621 149C589 117 557 100 525 100C476 100 447 138 409 217C549 265 657 331 656 420C657 469 628 503 569 503C505 503 475 465 475 421C475 398 483 379 500 365C446 320 346 284 252 262C308 423 354 512 354 586ZM130 -322C266 -317 345 -234 345 -151C345 -93 317 -53 258 -53C207 -53 174 -84 174 -123C174 -158 197 -182 235 -182C261 -182 280 -172 291 -154L297 -156C291 -213 223 -244 125 -245C128 -266 130 -297 130 -322Z" glyph-name="kcommaaccent" horiz-adv-x="740" unicode="&#311;" /><glyph d="M531 -10C599 -10 652 22 687 53C670 84 657 114 647 150C618 117 592 102 562 102C466 102 474 188 401 234C490 283 586 340 640 368C674 387 696 390 713 392C720 426 735 462 748 495C712 494 490 493 453 495C446 472 431 422 421 393C429 394 439 395 456 395C476 395 482 389 482 381C482 372 474 365 454 355C410 332 321 287 241 255C252 289 264 323 276 352C289 383 303 394 329 394C338 394 354 394 364 393C373 424 385 463 398 495C357 491 159 493 123 495C115 464 103 425 90 393C97 394 103 394 118 394C148 394 159 380 149 343C135 294 103 195 83 142C73 118 64 103 31 103C18 103 9 103 1 104C-6 69 -20 34 -33 0C3 2 232 3 265 0C271 24 287 76 297 103H254C210 103 203 125 211 153C214 164 217 176 221 189C240 197 254 202 265 202C394 200 338 -10 531 -10Z" glyph-name="kgreenlandic" horiz-adv-x="740" unicode="&#312;" /><glyph d="M325 153C325 243 482 462 482 585C482 651 441 685 372 685C285 685 190 642 77 556C95 534 116 505 135 465C216 530 263 562 302 562C325 562 333 551 333 533C333 453 185 264 185 119C185 31 237 -10 337 -10C458 -10 560 47 682 192C657 211 633 229 600 264C517 149 444 104 383 104C342 104 325 122 325 153Z" glyph-name="l" horiz-adv-x="740" unicode="l" /><glyph d="M325 153C325 243 482 462 482 585C482 651 441 685 372 685C285 685 190 642 77 556C95 534 116 505 135 465C216 530 263 562 302 562C325 562 333 551 333 533C333 453 185 264 185 119C185 31 237 -10 337 -10C458 -10 560 47 682 192C657 211 633 229 600 264C517 149 444 104 383 104C342 104 325 122 325 153ZM361 720C414 737 617 785 687 797C678 821 660 889 653 914C596 890 389 821 335 804C343 785 355 743 361 720Z" glyph-name="lacute" horiz-adv-x="740" unicode="&#314;" /><glyph d="M325 153C325 243 482 462 482 585C482 651 441 685 372 685C285 685 190 642 77 556C95 534 116 505 135 465C216 530 263 562 302 562C325 562 333 551 333 533C333 453 185 264 185 119C185 31 237 -10 337 -10C458 -10 560 47 682 192C657 211 633 229 600 264C517 149 444 104 383 104C342 104 325 122 325 153ZM688 686C696 605 668 512 604 429C584 441 550 454 525 461C564 521 583 603 566 668C604 673 652 677 688 686Z" glyph-name="lcaron" horiz-adv-x="740" unicode="&#318;" /><glyph d="M325 153C325 243 482 462 482 585C482 651 441 685 372 685C285 685 190 642 77 556C95 534 116 505 135 465C216 530 263 562 302 562C325 562 333 551 333 533C333 453 185 264 185 119C185 31 237 -10 337 -10C458 -10 560 47 682 192C657 211 633 229 600 264C517 149 444 104 383 104C342 104 325 122 325 153ZM192 -322C328 -317 407 -234 407 -151C407 -93 379 -53 320 -53C269 -53 236 -84 236 -123C236 -158 259 -182 297 -182C323 -182 342 -172 353 -154L359 -156C353 -213 285 -244 187 -245C190 -266 192 -297 192 -322Z" glyph-name="lcommaaccent" horiz-adv-x="740" unicode="&#316;" /><glyph d="M325 153C325 244 482 462 482 585C482 651 441 685 372 685C285 685 190 642 77 556C95 534 116 505 135 465C216 530 263 562 302 562C325 562 333 551 333 533C333 453 185 264 185 119C185 31 237 -10 337 -10C441 -10 537 22 632 134C607 152 584 171 550 205C494 127 430 104 383 104C342 104 325 122 325 153ZM686 340C686 389 653 428 592 428C530 428 497 389 497 340C497 289 524 250 592 250C653 250 686 289 686 340Z" glyph-name="ldot" horiz-adv-x="740" unicode="&#320;" /><glyph d="M510 41C525 86 550 138 575 178C549 189 462 221 382 251C326 271 279 288 239 300L242 311C292 322 351 338 428 359C524 385 629 419 657 427C650 468 639 531 637 568C560 533 173 378 115 360C106 325 94 285 80 254C130 237 441 73 510 41Z" glyph-name="less" horiz-adv-x="740" unicode="&lt;" /><glyph d="M70 300C76 276 82 250 86 224C104 231 155 246 220 264C200 214 185 165 185 119C185 31 237 -10 337 -10C458 -10 560 47 682 192C657 211 633 229 600 264C517 149 444 104 383 104C342 104 325 122 325 153C325 189 350 245 380 307C482 335 579 359 611 366C603 392 596 419 593 441C568 432 500 412 419 390C453 461 482 532 482 585C482 651 441 685 372 685C285 685 190 642 77 556C95 534 116 505 135 465C216 530 263 562 302 562C325 562 333 551 333 533C333 492 295 424 257 347C170 324 94 305 70 300Z" glyph-name="lslash" horiz-adv-x="740" unicode="&#322;" /><glyph d="M146 389C146 340 86 167 12 6C55 5 91 0 126 -6C134 15 141 35 148 55C263 358 312 400 341 400C355 400 361 392 361 375C361 338 345 276 231 5C274 4 308 -1 342 -6C355 28 366 60 378 91C459 307 512 400 558 400C572 400 583 392 583 372C583 303 479 180 479 76C479 19 513 -10 571 -10C611 -10 652 6 694 47C673 70 658 90 648 111C631 92 617 85 604 85C591 85 583 92 583 106C583 164 696 318 696 412C696 474 665 506 616 506C556 506 514 466 468 361H460C464 381 466 398 466 412C466 478 436 506 397 506C341 506 300 467 253 361H244C247 380 249 396 249 409C249 474 218 505 161 505C125 505 82 491 30 449C47 433 62 409 74 384C97 405 113 416 128 416C141 416 146 406 146 389Z" glyph-name="m" horiz-adv-x="740" unicode="m" /><glyph d="M36 713C27 677 14 639 0 603C50 605 370 605 425 603C434 637 449 679 461 713C404 711 84 711 36 713Z" glyph-name="macron" horiz-adv-x="461" unicode="&#175;" /><glyph d="M36 822C27 787 14 749 0 714C50 716 368 716 423 714C432 748 447 789 459 822C402 821 84 821 36 822Z" glyph-name="macron.case" horiz-adv-x="459" /><glyph d="M642 398C586 395 227 394 166 398C152 348 136 300 119 253C182 254 541 255 595 253C609 302 625 350 642 398Z" glyph-name="minus" horiz-adv-x="740" unicode="&#8722;" /><glyph d="M300 558C265 528 232 503 189 476C205 456 248 396 296 328C210 265 133 209 105 191C134 158 160 121 182 82C205 101 280 160 366 226C411 160 450 102 461 83C501 116 543 138 580 165C565 183 522 241 474 308C559 372 638 429 672 448C644 479 615 520 594 556C567 531 489 471 403 406C354 475 312 536 300 558Z" glyph-name="multiply" horiz-adv-x="740" unicode="&#215;" /><glyph d="M180 374C180 316 119 170 37 7C102 4 145 0 185 -6L187 1C279 268 391 391 465 391C490 391 507 380 507 352C507 286 418 192 418 93C418 22 468 -10 533 -10C602 -10 658 22 694 53C677 84 664 114 654 150C630 121 608 104 583 104C562 104 553 114 553 134C553 202 655 302 655 400C655 473 610 506 541 506C462 506 375 463 304 337H294C301 364 305 385 305 403C305 473 266 506 203 506C143 506 88 479 29 424C47 403 63 377 78 344C114 388 137 400 157 400C172 400 180 392 180 374Z" glyph-name="n" horiz-adv-x="740" unicode="n" /><glyph d="M180 374C180 316 119 170 37 7C102 4 145 0 185 -6L187 1C279 268 391 391 465 391C490 391 507 380 507 352C507 286 418 192 418 93C418 22 468 -10 533 -10C602 -10 658 22 694 53C677 84 664 114 654 150C630 121 608 104 583 104C562 104 553 114 553 134C553 202 655 302 655 400C655 473 610 506 541 506C462 506 375 463 304 337H294C301 364 305 385 305 403C305 473 266 506 203 506C143 506 88 479 29 424C47 403 63 377 78 344C114 388 137 400 157 400C172 400 180 392 180 374ZM390 557C440 577 649 639 712 656C702 681 683 750 675 775C626 748 413 657 361 638C370 620 385 576 390 557Z" glyph-name="nacute" horiz-adv-x="740" unicode="&#324;" /><glyph d="M180 374C180 316 119 170 37 7C102 4 145 0 185 -6L187 1C279 268 391 391 465 391C490 391 507 380 507 352C507 286 418 192 418 93C418 22 468 -10 533 -10C602 -10 658 22 694 53C677 84 664 114 654 150C630 121 608 104 583 104C562 104 553 114 553 134C553 202 655 302 655 400C655 473 610 506 541 506C462 506 375 463 304 337H294C301 364 305 385 305 403C305 473 266 506 203 506C143 506 88 479 29 424C47 403 63 377 78 344C114 388 137 400 157 400C172 400 180 392 180 374ZM127 539C263 544 342 627 342 710C342 768 314 808 255 808C204 808 171 777 171 738C171 703 194 679 232 679C258 679 277 689 288 707L294 705C288 648 220 617 122 616C125 595 127 564 127 539Z" glyph-name="napostrophe" horiz-adv-x="740" unicode="&#329;" /><glyph d="M180 374C180 316 119 170 37 7C102 4 145 0 185 -6L187 1C279 268 391 391 465 391C490 391 507 380 507 352C507 286 418 192 418 93C418 22 468 -10 533 -10C602 -10 658 22 694 53C677 84 664 114 654 150C630 121 608 104 583 104C562 104 553 114 553 134C553 202 655 302 655 400C655 473 610 506 541 506C462 506 375 463 304 337H294C301 364 305 385 305 403C305 473 266 506 203 506C143 506 88 479 29 424C47 403 63 377 78 344C114 388 137 400 157 400C172 400 180 392 180 374ZM504 563C536 600 617 661 688 713C667 727 633 751 617 767C559 729 505 686 464 647C446 686 418 730 387 767C366 754 329 737 301 727C338 675 379 599 387 563C407 564 432 564 443 564C454 564 486 564 504 563Z" glyph-name="ncaron" horiz-adv-x="740" unicode="&#328;" /><glyph d="M180 374C180 316 119 170 37 7C102 4 145 0 185 -6L187 1C279 268 391 391 465 391C490 391 507 380 507 352C507 286 418 192 418 93C418 22 468 -10 533 -10C602 -10 658 22 694 53C677 84 664 114 654 150C630 121 608 104 583 104C562 104 553 114 553 134C553 202 655 302 655 400C655 473 610 506 541 506C462 506 375 463 304 337H294C301 364 305 385 305 403C305 473 266 506 203 506C143 506 88 479 29 424C47 403 63 377 78 344C114 388 137 400 157 400C172 400 180 392 180 374ZM205 -322C341 -317 420 -234 420 -151C420 -93 392 -53 333 -53C282 -53 249 -84 249 -123C249 -158 272 -182 310 -182C336 -182 355 -172 366 -154L372 -156C366 -213 298 -244 200 -245C203 -266 205 -297 205 -322Z" glyph-name="ncommaaccent" horiz-adv-x="740" unicode="&#326;" /><glyph d="M566 432C566 353 475 321 374 321C281 321 242 352 242 403C242 480 328 529 421 529C509 529 566 493 566 432ZM302 -14C571 -14 692 207 692 400C692 561 595 642 432 642C247 642 118 538 118 388C118 297 171 225 333 225C431 225 519 264 570 334L578 331C562 287 544 246 519 211C469 138 401 94 296 94C258 94 226 98 200 107C206 117 209 129 209 142C209 181 180 212 128 212C74 212 41 177 41 126C41 49 126 -14 302 -14Z" glyph-name="nine" horiz-adv-x="740" unicode="9" /><glyph d="M453 220C453 198 409 175 331 175C282 175 262 184 262 204C262 231 292 252 359 252C423 252 453 237 453 220ZM276 -10C425 -10 550 72 550 203C550 283 498 337 363 337C248 337 165 289 165 208C165 154 202 121 293 121C359 121 422 138 464 174L470 172C439 106 369 69 288 69C244 69 209 75 161 96C150 70 134 37 122 16C160 -1 207 -10 276 -10Z" glyph-name="nine.dnom" horiz-adv-x="740" /><glyph d="M550 521C550 499 506 476 428 476C379 476 359 485 359 505C359 532 389 553 456 553C520 553 550 538 550 521ZM373 291C522 291 647 373 647 504C647 584 595 638 460 638C345 638 262 590 262 509C262 455 299 422 390 422C456 422 519 439 561 475L567 473C536 407 466 370 385 370C341 370 306 376 258 397C247 371 231 338 219 317C257 300 304 291 373 291Z" glyph-name="nine.numr" horiz-adv-x="740" /><glyph d="M554 347C554 268 463 236 362 236C269 236 230 267 230 318C230 395 316 444 409 444C497 444 554 408 554 347ZM290 -99C559 -99 680 122 680 315C680 476 583 557 420 557C235 557 106 453 106 303C106 212 159 140 321 140C419 140 507 179 558 249L566 246C550 202 532 161 507 126C457 53 389 9 284 9C246 9 214 13 188 22C194 32 197 44 197 57C197 96 168 127 116 127C62 127 29 92 29 41C29 -36 114 -99 290 -99Z" glyph-name="nine.osf" horiz-adv-x="740" /><glyph d="M180 374C180 316 119 170 37 7C102 4 145 0 185 -6L187 1C279 268 391 391 465 391C490 391 507 380 507 352C507 286 418 192 418 93C418 22 468 -10 533 -10C602 -10 658 22 694 53C677 84 664 114 654 150C630 121 608 104 583 104C562 104 553 114 553 134C553 202 655 302 655 400C655 473 610 506 541 506C462 506 375 463 304 337H294C301 364 305 385 305 403C305 473 266 506 203 506C143 506 88 479 29 424C47 403 63 377 78 344C114 388 137 400 157 400C172 400 180 392 180 374ZM424 757C336 757 286 695 263 566C288 568 315 568 340 566C352 632 374 663 403 663C424 663 432 647 444 624C466 584 492 552 557 552C643 552 692 615 716 744C686 741 659 741 639 744C630 679 608 648 579 648C554 648 544 666 530 689C507 727 483 757 424 757Z" glyph-name="ntilde" horiz-adv-x="740" unicode="&#241;" /><glyph d="M89 0C131 4 174 4 213 0C218 21 236 81 259 154C300 154 343 154 384 154C361 81 340 21 331 0C374 4 417 4 457 0C462 22 480 80 504 153C583 153 647 152 674 151C679 190 688 229 698 270C672 267 613 266 540 265C552 304 565 343 577 382C644 381 698 380 720 379C727 418 734 457 744 498C722 496 674 495 614 494C635 556 651 605 659 627C617 626 576 625 533 627C528 605 513 555 494 493C453 493 411 493 369 493C391 556 408 605 415 627C375 625 333 626 292 627C287 605 272 556 253 494C172 495 107 496 83 498C78 458 70 419 59 379C81 381 141 382 218 382C205 344 193 305 180 266C111 267 57 268 36 270C31 230 24 191 12 151C32 153 81 154 143 154C118 81 98 22 89 0ZM281 256C296 301 311 347 325 392H473C459 347 443 301 429 256C380 255 329 255 281 256Z" glyph-name="numbersign" horiz-adv-x="740" unicode="#" /><glyph d="M426 504C194 505 66 345 66 195C66 73 144 -10 305 -10C537 -10 665 150 665 299C665 424 587 505 426 504ZM405 396C481 397 528 362 527 289C528 203 447 99 325 98C249 98 204 134 204 205C204 294 283 396 405 396Z" glyph-name="o" horiz-adv-x="740" unicode="o" /><glyph d="M426 504C194 505 66 345 66 195C66 73 144 -10 305 -10C537 -10 665 150 665 299C665 424 587 505 426 504ZM405 396C481 397 528 362 527 289C528 203 447 99 325 98C249 98 204 134 204 205C204 294 283 396 405 396ZM366 557C416 577 625 639 688 656C678 681 659 750 651 775C602 748 389 657 337 638C346 620 361 576 366 557Z" glyph-name="oacute" horiz-adv-x="740" unicode="&#243;" /><glyph d="M426 504C194 505 66 345 66 195C66 73 144 -10 305 -10C537 -10 665 150 665 299C665 424 587 505 426 504ZM405 396C481 397 528 362 527 289C528 203 447 99 325 98C249 98 204 134 204 205C204 294 283 396 405 396ZM471 652C417 652 397 689 398 755C376 748 313 734 286 731C291 622 355 563 459 563C572 563 632 624 684 728C660 733 605 748 585 755C552 686 526 652 471 652Z" glyph-name="obreve" horiz-adv-x="740" unicode="&#335;" /><glyph d="M426 504C194 505 66 345 66 195C66 73 144 -10 305 -10C537 -10 665 150 665 299C665 424 587 505 426 504ZM405 396C481 397 528 362 527 289C528 203 447 99 325 98C249 98 204 134 204 205C204 294 283 396 405 396ZM562 555C583 568 620 585 648 595C611 647 570 723 562 759C542 758 517 758 506 758C495 758 463 758 445 759C413 722 332 661 261 609C282 595 316 571 332 555C390 593 444 636 485 675C503 636 531 592 562 555Z" glyph-name="ocircumflex" horiz-adv-x="740" unicode="&#244;" /><glyph d="M426 504C194 505 66 345 66 195C66 73 144 -10 305 -10C537 -10 665 150 665 299C665 424 587 505 426 504ZM405 396C481 397 528 362 527 289C528 203 447 99 325 98C249 98 204 134 204 205C204 294 283 396 405 396ZM446 661C446 709 413 738 364 738C315 738 282 710 282 661C282 611 315 582 364 582C413 582 446 613 446 661ZM659 661C659 709 626 738 577 738C528 738 495 710 495 661C495 611 528 582 577 582C626 582 659 613 659 661Z" glyph-name="odieresis" horiz-adv-x="740" unicode="&#246;" /><glyph d="M324 318C324 229 261 98 184 98C149 98 133 124 133 177C133 266 186 396 266 396C300 396 324 370 324 318ZM700 93C681 113 656 144 638 173C593 125 545 92 498 92C450 92 426 123 426 190C426 192 426 195 426 197C616 196 724 267 724 380C724 455 671 506 588 506C510 506 444 461 403 376C395 455 352 504 266 504C111 504 17 312 17 155C17 60 55 -10 155 -10C230 -10 294 39 330 100C341 34 389 -10 474 -10C550 -10 621 23 700 93ZM556 399C589 399 605 381 605 350C605 289 560 259 432 252C448 332 494 399 556 399Z" glyph-name="oe" horiz-adv-x="740" unicode="&#339;" /><glyph d="M220 -122C202 -130 187 -132 171 -132C135 -132 118 -118 118 -91C118 -36 184 0 254 0V22C141 22 0 -29 0 -139C0 -202 46 -244 129 -244C156 -244 189 -241 219 -230C216 -209 217 -151 220 -122Z" glyph-name="ogonek" horiz-adv-x="254" unicode="&#731;" /><glyph d="M426 504C194 505 66 345 66 195C66 73 144 -10 305 -10C537 -10 665 150 665 299C665 424 587 505 426 504ZM405 396C481 397 528 362 527 289C528 203 447 99 325 98C249 98 204 134 204 205C204 294 283 396 405 396ZM503 557C509 576 524 620 534 639C481 657 284 744 236 773C226 745 200 680 188 654C253 638 453 577 503 557Z" glyph-name="ograve" horiz-adv-x="740" unicode="&#242;" /><glyph d="M426 504C194 505 66 345 66 195C66 73 144 -10 305 -10C537 -10 665 150 665 299C665 424 587 505 426 504ZM405 396C481 397 528 362 527 289C528 203 447 99 325 98C249 98 204 134 204 205C204 294 283 396 405 396ZM358 547C385 578 512 716 545 751C526 760 482 790 461 806C431 764 323 625 294 594C313 583 339 565 358 547ZM525 545C552 576 695 702 726 731C699 746 661 779 642 797C614 760 490 626 461 594C481 582 506 562 525 545Z" glyph-name="ohungarumlaut" horiz-adv-x="740" unicode="&#337;" /><glyph d="M426 504C194 505 66 345 66 195C66 73 144 -10 305 -10C537 -10 665 150 665 299C665 424 587 505 426 504ZM405 396C481 397 528 362 527 289C528 203 447 99 325 98C249 98 204 134 204 205C204 294 283 396 405 396ZM295 713C286 677 273 639 259 603C309 605 629 605 684 603C693 637 708 679 720 713C663 711 343 711 295 713Z" glyph-name="omacron" horiz-adv-x="740" unicode="&#333;" /><glyph d="M586 613C541 618 485 627 449 636C371 612 225 581 146 569C155 533 161 490 166 453C203 463 271 482 335 492C378 498 394 490 385 453C364 374 318 232 286 148C272 110 253 103 223 103C150 103 93 102 69 106C61 72 47 34 33 0C101 3 499 6 571 0C578 33 593 71 607 106C583 105 523 103 462 103C426 103 426 127 432 155C456 249 497 379 586 613Z" glyph-name="one" horiz-adv-x="740" unicode="1" /><glyph d="M483 0C491 26 504 66 515 94C498 93 463 92 424 92C401 92 398 106 404 127C416 166 434 223 474 326C440 325 400 327 373 332C314 312 243 299 189 288C195 266 200 227 203 201C244 214 301 230 340 239C322 184 313 158 302 127C291 99 278 92 256 92C207 92 170 92 153 94C145 67 131 27 120 0C165 2 434 2 483 0Z" glyph-name="one.dnom" horiz-adv-x="740" /><glyph d="M557 301C565 327 578 367 589 395C572 394 537 393 498 393C475 393 472 407 478 428C490 467 508 524 548 627C514 626 474 628 447 633C388 613 317 600 263 589C269 567 274 528 277 502C318 515 375 531 414 540C396 485 387 459 376 428C365 400 352 393 330 393C281 393 244 393 227 395C219 368 205 328 194 301C239 303 508 303 557 301Z" glyph-name="one.numr" horiz-adv-x="740" /><glyph d="M568 539C529 540 476 542 439 547C363 522 227 487 156 475C165 445 173 392 178 361C205 368 282 394 333 403C375 410 386 405 371 353C356 302 325 209 304 153C289 116 271 109 241 109C163 109 103 108 75 111C66 74 53 37 38 0C109 3 522 5 596 0C607 35 619 73 633 111C601 110 539 109 470 109C444 109 440 124 442 144C450 202 490 317 568 539Z" glyph-name="one.osf" horiz-adv-x="740" /><glyph d="M76 360C70 335 55 291 45 265C123 271 614 269 700 265C707 291 721 333 731 360C644 353 150 354 76 360ZM197 89C266 120 331 131 389 131C432 131 448 122 448 104C448 82 420 71 336 61C185 45 133 26 112 -63C108 -80 105 -107 98 -124C193 -123 349 -122 463 -124C470 -97 483 -57 492 -33C390 -42 297 -44 202 -45C213 -16 237 -5 326 2C480 13 542 45 542 120C542 182 501 215 394 215C321 215 253 199 178 176C187 152 193 117 197 89ZM606 412C614 438 627 478 638 506C621 505 586 504 547 504C524 504 521 518 527 539C539 578 557 635 597 738C563 737 523 739 496 744C437 724 366 711 312 700C318 678 323 639 326 613C367 626 424 642 463 651C445 596 436 570 425 539C414 511 401 504 379 504C330 504 293 504 276 506C268 479 254 439 243 412C288 414 557 414 606 412Z" glyph-name="onehalf" horiz-adv-x="740" unicode="&#189;" /><glyph d="M76 360C70 335 55 291 45 265C123 271 614 269 700 265C707 291 721 333 731 360C644 353 150 354 76 360ZM509 -54C513 -35 523 -3 531 17C512 17 487 16 458 16C473 66 494 128 522 206C486 206 442 207 404 213C348 171 169 60 102 32C104 8 107 -25 105 -54C155 -53 245 -53 331 -53C322 -79 315 -102 308 -120C346 -119 383 -119 421 -120C426 -101 432 -79 439 -53C467 -54 491 -54 509 -54ZM606 412C614 438 627 478 638 506C621 505 586 504 547 504C524 504 521 518 527 539C539 578 557 635 597 738C563 737 523 739 496 744C437 724 366 711 312 700C318 678 323 639 326 613C367 626 424 642 463 651C445 596 436 570 425 539C414 511 401 504 379 504C330 504 293 504 276 506C268 479 254 439 243 412C288 414 557 414 606 412ZM198 11V18C261 44 328 87 381 131L389 129C379 96 366 55 353 14C301 13 246 12 198 11Z" glyph-name="onequarter" horiz-adv-x="740" unicode="&#188;" /><glyph d="M557 401C565 427 578 467 589 495C572 494 537 493 498 493C475 493 472 507 478 528C490 567 508 624 548 727C514 726 474 728 447 733C388 713 317 700 263 689C269 667 274 628 277 602C318 615 375 631 414 640C396 585 387 559 376 528C365 500 352 493 330 493C281 493 244 493 227 495C219 468 205 428 194 401C239 403 508 403 557 401Z" glyph-name="onesuperior" horiz-adv-x="740" unicode="&#185;" /><glyph d="M539 292C589 292 624 307 662 331C648 354 636 379 629 407C609 390 589 379 570 379C551 379 545 387 545 402C545 434 593 501 593 556C593 608 557 638 457 638C387 638 324 622 275 605C280 580 279 551 280 519C345 545 396 550 440 550C470 550 483 542 483 520C483 511 480 498 475 484C450 488 425 490 393 490C253 490 183 446 183 369C183 322 208 295 281 295C346 295 409 321 441 372L444 371C450 317 482 292 539 292ZM337 381C296 381 286 393 286 409C286 437 318 448 381 448C406 448 436 447 460 445C460 445 459 444 459 443C438 394 388 381 337 381Z" glyph-name="ordfeminine" horiz-adv-x="740" unicode="&#170;" /><glyph d="M474 637C306 638 214 532 214 428C214 346 270 290 384 290C552 290 645 396 644 500C645 582 589 638 474 637ZM454 549C506 550 534 530 534 487C534 435 484 379 403 379C353 379 323 398 323 439C323 493 375 549 454 549Z" glyph-name="ordmasculine" horiz-adv-x="740" unicode="&#186;" /><glyph d="M15 50C29 31 44 9 56 -12C68 -1 94 18 130 44C170 10 230 -10 311 -10C537 -10 665 150 665 299C665 335 659 367 646 394C684 420 714 439 730 450C713 470 698 492 686 511C672 498 643 476 606 449C566 485 506 504 426 504C194 505 66 345 66 195C66 159 73 126 87 97C54 75 28 59 15 50ZM184 204C184 303 272 408 409 408C450 408 484 399 508 380C409 311 288 230 189 165C186 176 184 190 184 204ZM322 86C282 86 250 94 226 111C323 178 443 259 544 326C546 315 548 303 548 290C548 192 458 86 322 86Z" glyph-name="oslash" horiz-adv-x="740" unicode="&#248;" /><glyph d="M15 50C29 31 44 9 56 -12C68 -1 94 18 130 44C170 10 230 -10 311 -10C537 -10 665 150 665 299C665 335 659 367 646 394C684 420 714 439 730 450C713 470 698 492 686 511C672 498 643 476 606 449C566 485 506 504 426 504C194 505 66 345 66 195C66 159 73 126 87 97C54 75 28 59 15 50ZM184 204C184 303 272 408 409 408C450 408 484 399 508 380C409 311 288 230 189 165C186 176 184 190 184 204ZM322 86C282 86 250 94 226 111C323 178 443 259 544 326C546 315 548 303 548 290C548 192 458 86 322 86ZM366 557C416 577 625 639 688 656C678 681 659 750 651 775C602 748 389 657 337 638C346 620 361 576 366 557Z" glyph-name="oslashacute" horiz-adv-x="740" unicode="&#511;" /><glyph d="M426 504C194 505 66 345 66 195C66 73 144 -10 305 -10C537 -10 665 150 665 299C665 424 587 505 426 504ZM405 396C481 397 528 362 527 289C528 203 447 99 325 98C249 98 204 134 204 205C204 294 283 396 405 396ZM414 757C326 757 276 695 253 566C278 568 305 568 330 566C342 632 364 663 393 663C414 663 422 647 434 624C456 584 482 552 547 552C633 552 682 615 706 744C676 741 649 741 629 744C620 679 598 648 569 648C544 648 534 666 520 689C497 727 473 757 414 757Z" glyph-name="otilde" horiz-adv-x="740" unicode="&#245;" /><glyph d="M213 -13C224 17 234 46 244 74C245 78 247 81 248 85C273 32 330 -3 404 -3C569 -3 695 183 695 349C695 446 642 506 555 506C471 506 395 454 326 333H317C322 362 325 385 325 403C325 473 285 506 222 506C163 506 103 478 42 424C60 403 76 377 92 343C126 380 153 400 181 400C196 400 204 390 204 372C204 317 143 119 71 -36C55 -73 37 -83 4 -83C-22 -83 -42 -80 -51 -80C-58 -116 -72 -153 -88 -190C-31 -187 297 -187 357 -191C364 -155 378 -117 393 -80C367 -81 304 -83 238 -83C207 -83 193 -69 213 -13ZM379 101C341 101 309 116 278 155C356 326 428 388 497 388C537 388 558 366 558 319C558 226 477 101 379 101Z" glyph-name="p" horiz-adv-x="740" unicode="p" /><glyph d="M409 629C208 629 38 505 38 299C38 174 112 114 236 104C211 24 185 -52 161 -118C184 -118 205 -117 228 -117C249 -117 271 -118 293 -118C325 -4 456 408 501 525C527 525 553 525 577 523C536 403 407 -3 362 -118C386 -118 408 -117 431 -117C453 -117 475 -118 498 -118C529 11 635 328 687 473C700 508 714 522 740 522C754 522 779 522 800 521C810 558 822 593 834 628C817 627 748 626 693 626C594 626 487 629 409 629Z" glyph-name="paragraph" horiz-adv-x="740" unicode="&#182;" /><glyph d="M456 -13C391 26 335 92 335 212C335 370 424 553 651 623C632 658 618 707 611 736C332 638 205 430 205 204C205 50 270 -60 386 -117C402 -87 438 -35 456 -13Z" glyph-name="parenleft" horiz-adv-x="740" unicode="(" /><glyph d="M294 633C359 594 415 528 415 408C415 250 326 67 99 -3C118 -38 132 -87 139 -116C418 -18 545 190 545 416C545 570 480 680 364 737C348 707 312 655 294 633Z" glyph-name="parenright" horiz-adv-x="740" unicode=")" /><glyph d="M282 638C138 638 66 525 66 425C66 341 120 292 205 292C335 292 422 405 422 503C422 588 367 638 282 638ZM268 555C302 555 325 538 325 499C327 438 282 374 219 374C185 374 164 392 163 429C162 491 205 555 268 555ZM497 -8C640 -8 713 104 713 204C713 288 659 338 574 338C444 338 357 225 357 126C357 41 412 -8 497 -8ZM511 74C476 74 454 91 453 130C452 191 497 255 560 255C594 255 615 237 616 200C617 139 574 74 511 74ZM-7 69C30 50 107 8 139 -16C183 42 294 190 339 241C330 249 313 267 303 281C243 235 76 122 -7 69ZM775 558C738 577 659 619 626 643C584 585 478 439 431 388C440 380 457 362 467 348C526 393 693 506 775 558Z" glyph-name="percent" horiz-adv-x="740" unicode="%" /><glyph d="M430 90C430 145 393 189 325 189C256 189 219 145 219 90C219 34 249 -10 325 -10C393 -10 430 34 430 90Z" glyph-name="period" horiz-adv-x="740" unicode="." /><glyph d="M482 280C482 335 445 379 377 379C308 379 271 335 271 280C271 224 301 180 377 180C445 180 482 224 482 280Z" glyph-name="periodcentered" horiz-adv-x="740" unicode="&#183;" /><glyph d="M231 569C244 569 252 561 252 543C252 525 246 500 235 466C210 386 192 359 167 359C154 359 147 367 147 385C147 403 153 429 163 463C189 542 206 569 231 569ZM155 291C220 291 274 334 310 464C320 502 325 532 325 556C325 615 297 638 247 638C178 638 125 593 91 469C80 430 75 397 75 373C75 315 103 291 155 291ZM310 59C297 59 290 67 290 85C290 104 296 129 306 163C332 242 349 269 374 269C387 269 395 262 395 243C395 225 389 200 378 166C353 86 335 59 310 59ZM390 338C321 338 268 293 233 166C222 128 217 97 217 73C217 15 244 -9 298 -9C363 -9 417 34 452 160C463 200 468 232 468 256C468 315 438 338 390 338ZM561 163C586 242 603 269 628 269C642 269 649 262 649 243C649 225 644 200 633 166C608 86 590 59 565 59C551 59 544 67 544 85C544 104 550 129 561 163ZM487 166C477 128 472 97 472 73C472 15 499 -9 552 -9C618 -9 672 34 706 160C717 200 722 232 722 256C722 315 693 338 645 338C576 338 522 293 487 166ZM-41 54C-14 36 16 11 37 -12C75 36 182 177 236 239C224 247 208 259 198 270C152 223 21 103 -41 54ZM582 572C555 591 525 615 504 638C466 590 359 449 305 387C317 379 333 367 343 356C389 403 520 524 582 572Z" glyph-name="perthousand" horiz-adv-x="740" unicode="&#8240;" /><glyph d="M150 393C139 349 125 304 108 259C132 261 206 262 292 263C266 183 243 112 234 88C282 90 330 90 378 88C383 112 405 182 430 263C513 262 586 261 611 259C622 303 636 347 653 393C627 390 554 389 470 389C497 471 522 543 530 564C482 561 432 561 386 564C381 543 358 471 332 389C247 389 172 391 150 393Z" glyph-name="plus" horiz-adv-x="740" unicode="+" /><glyph d="M379 -35C364 -75 344 -82 311 -82C269 -82 239 -81 222 -80C214 -116 201 -153 186 -190C237 -187 541 -187 596 -190C604 -155 617 -117 632 -80C615 -81 578 -83 538 -83C502 -83 500 -60 508 -31C538 80 623 337 681 490C641 493 585 498 550 503C545 488 541 474 536 459L534 460C527 442 521 425 514 408C489 469 431 506 351 506C184 506 56 316 56 148C56 54 112 -3 202 -3C287 -3 371 44 436 157H444C425 95 403 31 379 -35ZM259 108C216 108 193 131 193 179C193 270 276 395 376 395C416 395 454 378 484 339C408 175 330 108 259 108Z" glyph-name="q" horiz-adv-x="740" unicode="q" /><glyph d="M418 218C421 266 449 278 544 303C621 322 711 360 711 472C711 558 641 642 456 642C266 642 139 559 139 443C139 390 169 352 229 352C282 352 314 388 314 436C314 464 306 486 285 498C326 525 380 539 439 539C529 539 580 516 580 463C580 421 534 396 456 374C343 344 287 298 283 218C329 221 373 221 418 218ZM415 70C415 116 381 151 320 151C259 151 225 116 225 70C225 25 252 -10 320 -10C381 -10 415 25 415 70Z" glyph-name="question" horiz-adv-x="740" unicode="?" /><glyph d="M336 414C333 366 305 354 210 329C133 310 43 272 43 160C43 74 113 -10 298 -10C488 -10 615 73 615 189C615 242 585 280 525 280C472 280 440 244 440 196C440 168 448 146 469 134C428 107 374 93 315 93C225 93 174 116 174 169C174 211 220 236 298 258C411 288 467 334 471 414C425 411 381 411 336 414ZM339 562C339 516 373 481 434 481C495 481 529 516 529 562C529 607 502 642 434 642C373 642 339 607 339 562Z" glyph-name="questiondown" horiz-adv-x="740" unicode="&#191;" /><glyph d="M450 688C391 686 334 686 277 688C257 579 212 408 178 293C197 294 214 294 234 294C262 294 272 294 290 293C333 408 399 580 450 688ZM710 688C651 686 594 686 537 688C517 579 472 408 438 293C457 294 474 294 494 294C522 294 532 294 550 293C593 408 659 580 710 688Z" glyph-name="quotedbl" horiz-adv-x="740" unicode="&quot;" /><glyph d="M-25 -230C176 -226 288 -97 288 38C288 127 247 189 169 189C104 189 63 145 63 89C63 39 92 2 144 2C179 2 205 20 217 47L227 44C221 -74 116 -124 -34 -122C-29 -151 -25 -198 -25 -230ZM285 -230C486 -226 598 -97 598 38C598 127 557 189 479 189C414 189 373 145 373 89C373 39 402 2 454 2C489 2 515 20 527 47L537 44C531 -74 426 -124 276 -122C281 -151 285 -198 285 -230Z" glyph-name="quotedblbase" horiz-adv-x="740" unicode="&#8222;" /><glyph d="M652 330C652 380 623 417 571 417C536 417 510 399 498 372L488 375C494 493 599 543 749 541C744 570 740 617 740 649C539 645 427 516 427 381C427 292 468 230 546 230C611 230 652 274 652 330ZM339 330C339 380 310 417 258 417C223 417 197 399 185 372L175 375C181 493 286 543 436 541C431 570 427 617 427 649C226 645 114 516 114 381C114 292 155 230 233 230C298 230 339 274 339 330Z" glyph-name="quotedblleft" horiz-adv-x="740" unicode="&#8220;" /><glyph d="M83 204C284 208 396 337 396 472C396 561 355 623 277 623C212 623 171 579 171 523C171 473 200 436 252 436C287 436 313 454 325 481L335 478C329 360 224 310 74 312C79 283 83 236 83 204ZM398 204C599 208 711 337 711 472C711 561 670 623 592 623C527 623 486 579 486 523C486 473 515 436 567 436C602 436 628 454 640 481L650 478C644 360 539 310 389 312C394 283 398 236 398 204Z" glyph-name="quotedblright" horiz-adv-x="740" unicode="&#8221;" /><glyph d="M497 330C497 380 468 417 416 417C381 417 355 399 343 372L333 375C339 493 444 543 594 541C589 570 585 617 585 649C384 645 272 516 272 381C272 292 313 230 391 230C456 230 497 274 497 330Z" glyph-name="quoteleft" horiz-adv-x="740" unicode="&#8216;" /><glyph d="M229 204C430 208 542 337 542 472C542 561 501 623 423 623C358 623 317 579 317 523C317 473 346 436 398 436C433 436 459 454 471 481L481 478C475 360 370 310 220 312C225 283 229 236 229 204Z" glyph-name="quoteright" horiz-adv-x="740" unicode="&#8217;" /><glyph d="M133 -230C334 -226 446 -97 446 38C446 127 405 189 327 189C262 189 221 145 221 89C221 39 250 2 302 2C337 2 363 20 375 47L385 44C379 -74 274 -124 124 -122C129 -151 133 -198 133 -230Z" glyph-name="quotesinglbase" horiz-adv-x="740" unicode="&#8218;" /><glyph d="M580 688C521 686 464 686 407 688C387 579 342 408 308 293C327 294 344 294 364 294C392 294 402 294 420 293C463 408 529 580 580 688Z" glyph-name="quotesingle" horiz-adv-x="740" unicode="'" /><glyph d="M455 0C462 36 479 73 494 110C473 109 422 107 369 107C333 107 329 131 339 159C391 299 476 389 564 389C593 389 617 380 633 359C628 360 622 360 616 360C562 360 533 323 533 280C533 237 560 210 604 210C674 210 709 283 709 366C709 443 673 507 588 507C499 507 428 442 359 297H350C359 340 364 373 364 394C364 469 319 506 247 506C184 506 124 478 58 424C77 403 93 376 111 343C153 381 185 400 216 400C239 400 249 385 249 360C249 325 229 247 191 152C176 115 162 107 134 107C91 107 58 110 42 110C35 74 19 37 4 0C60 3 394 3 455 0Z" glyph-name="r" horiz-adv-x="740" unicode="r" /><glyph d="M455 0C462 36 479 73 494 110C473 109 422 107 369 107C333 107 329 131 339 159C391 299 476 389 564 389C593 389 617 380 633 359C628 360 622 360 616 360C562 360 533 323 533 280C533 237 560 210 604 210C674 210 709 283 709 366C709 443 673 507 588 507C499 507 428 442 359 297H350C359 340 364 373 364 394C364 469 319 506 247 506C184 506 124 478 58 424C77 403 93 376 111 343C153 381 185 400 216 400C239 400 249 385 249 360C249 325 229 247 191 152C176 115 162 107 134 107C91 107 58 110 42 110C35 74 19 37 4 0C60 3 394 3 455 0ZM346 557C396 577 605 639 668 656C658 681 639 750 631 775C582 748 369 657 317 638C326 620 341 576 346 557Z" glyph-name="racute" horiz-adv-x="740" unicode="&#341;" /><glyph d="M455 0C462 36 479 73 494 110C473 109 422 107 369 107C333 107 329 131 339 159C391 299 476 389 564 389C593 389 617 380 633 359C628 360 622 360 616 360C562 360 533 323 533 280C533 237 560 210 604 210C674 210 709 283 709 366C709 443 673 507 588 507C499 507 428 442 359 297H350C359 340 364 373 364 394C364 469 319 506 247 506C184 506 124 478 58 424C77 403 93 376 111 343C153 381 185 400 216 400C239 400 249 385 249 360C249 325 229 247 191 152C176 115 162 107 134 107C91 107 58 110 42 110C35 74 19 37 4 0C60 3 394 3 455 0ZM467 563C499 600 580 661 651 713C630 727 596 751 580 767C522 729 468 686 427 647C409 686 381 730 350 767C329 754 292 737 264 727C301 675 342 599 350 563C370 564 395 564 406 564C417 564 449 564 467 563Z" glyph-name="rcaron" horiz-adv-x="740" unicode="&#345;" /><glyph d="M455 0C462 36 479 73 494 110C473 109 422 107 369 107C333 107 329 131 339 159C391 299 476 389 564 389C593 389 617 380 633 359C628 360 622 360 616 360C562 360 533 323 533 280C533 237 560 210 604 210C674 210 709 283 709 366C709 443 673 507 588 507C499 507 428 442 359 297H350C359 340 364 373 364 394C364 469 319 506 247 506C184 506 124 478 58 424C77 403 93 376 111 343C153 381 185 400 216 400C239 400 249 385 249 360C249 325 229 247 191 152C176 115 162 107 134 107C91 107 58 110 42 110C35 74 19 37 4 0C60 3 394 3 455 0ZM93 -322C229 -317 308 -234 308 -151C308 -93 280 -53 221 -53C170 -53 137 -84 137 -123C137 -158 160 -182 198 -182C224 -182 243 -172 254 -154L260 -156C254 -213 186 -244 88 -245C91 -266 93 -297 93 -322Z" glyph-name="rcommaaccent" horiz-adv-x="740" unicode="&#343;" /><glyph d="M323 -14C579 -14 725 184 725 387C725 531 643 642 440 642C184 642 38 444 38 241C38 97 120 -14 323 -14ZM437 566C582 566 643 499 643 381C643 214 526 62 326 62C182 62 120 129 120 247C120 414 237 566 437 566ZM400 333C379 333 368 334 352 334C360 359 369 386 378 412C396 412 408 412 422 412C450 412 465 403 465 383C465 348 440 333 400 333ZM511 152C512 173 523 225 528 241C511 236 502 233 490 233C467 233 460 245 454 260C449 274 444 285 429 290L431 294C489 296 556 321 556 398C556 456 521 478 451 478C423 478 297 476 275 478C269 454 261 431 252 407C262 408 269 408 278 408C289 408 293 403 290 391C280 353 254 271 239 233C233 217 223 210 209 210C201 210 197 210 190 211C185 190 177 167 170 146C188 147 313 148 333 146C338 167 345 189 353 211C344 210 338 210 333 210C319 210 316 217 321 232C325 247 331 266 338 288C341 287 344 287 348 287C378 286 380 263 381 232C384 192 388 142 473 142C487 142 499 145 511 152Z" glyph-name="registered" horiz-adv-x="740" unicode="&#174;" /><glyph d="M104 557C198 557 255 627 255 696C255 754 222 791 154 791C58 791 0 722 0 653C0 595 34 557 104 557ZM115 622C86 621 73 636 73 659C73 692 99 725 141 725C169 725 183 711 183 688C183 654 157 622 115 622Z" glyph-name="ring" horiz-adv-x="255" unicode="&#730;" /><glyph d="M100 672C186 672 240 738 240 803C240 857 207 892 144 892C55 892 0 827 0 762C0 707 34 672 100 672ZM109 736C83 735 72 748 72 768C72 797 95 827 132 827C157 827 169 814 169 795C169 764 146 736 109 736Z" glyph-name="ring.case" horiz-adv-x="240" /><glyph d="M491 142C491 105 444 84 330 84C266 84 209 94 169 108C185 117 196 132 196 155C196 187 173 215 123 215C65 215 38 177 38 134C38 44 124 -13 328 -13C521 -13 616 52 616 151C616 250 529 275 380 295C284 308 262 323 262 352C262 388 306 411 412 411C450 411 482 407 508 402C500 393 495 380 495 364C494 332 522 302 573 302C626 302 652 336 652 376C652 441 589 506 418 506C243 506 140 444 140 347C140 264 202 223 362 202C469 187 491 171 491 142Z" glyph-name="s" horiz-adv-x="740" unicode="s" /><glyph d="M491 142C491 105 444 84 330 84C266 84 209 94 169 108C185 117 196 132 196 155C196 187 173 215 123 215C65 215 38 177 38 134C38 44 124 -13 328 -13C521 -13 616 52 616 151C616 250 529 275 380 295C284 308 262 323 262 352C262 388 306 411 412 411C450 411 482 407 508 402C500 393 495 380 495 364C494 332 522 302 573 302C626 302 652 336 652 376C652 441 589 506 418 506C243 506 140 444 140 347C140 264 202 223 362 202C469 187 491 171 491 142ZM377 557C427 577 636 639 699 656C689 681 670 750 662 775C613 748 400 657 348 638C357 620 372 576 377 557Z" glyph-name="sacute" horiz-adv-x="740" unicode="&#347;" /><glyph d="M491 142C491 105 444 84 330 84C266 84 209 94 169 108C185 117 196 132 196 155C196 187 173 215 123 215C65 215 38 177 38 134C38 44 124 -13 328 -13C521 -13 616 52 616 151C616 250 529 275 380 295C284 308 262 323 262 352C262 388 306 411 412 411C450 411 482 407 508 402C500 393 495 380 495 364C494 332 522 302 573 302C626 302 652 336 652 376C652 441 589 506 418 506C243 506 140 444 140 347C140 264 202 223 362 202C469 187 491 171 491 142ZM508 563C540 600 621 661 692 713C671 727 637 751 621 767C563 729 509 686 468 647C450 686 422 730 391 767C370 754 333 737 305 727C342 675 383 599 391 563C411 564 436 564 447 564C458 564 490 564 508 563Z" glyph-name="scaron" horiz-adv-x="740" unicode="&#353;" /><glyph d="M491 142C491 105 444 84 330 84C266 84 209 94 169 108C185 117 196 132 196 155C196 187 173 215 123 215C65 215 38 177 38 134C38 58 99 6 239 -9C224 -37 206 -69 194 -87C209 -92 226 -102 243 -115C258 -107 274 -100 296 -100C318 -100 335 -109 333 -132C331 -159 307 -174 269 -174C223 -174 180 -152 153 -126C140 -149 118 -182 101 -199C135 -225 195 -243 258 -243C361 -243 406 -193 410 -135C414 -81 386 -55 335 -55C307 -55 284 -64 264 -77C275 -56 287 -33 299 -13C308 -13 318 -13 328 -13C521 -13 616 52 616 151C616 250 529 275 380 295C284 308 262 323 262 352C262 388 306 411 412 411C450 411 482 407 508 402C500 393 495 380 495 364C494 332 522 302 573 302C626 302 652 336 652 376C652 441 589 506 418 506C243 506 140 444 140 347C140 264 202 223 362 202C469 187 491 171 491 142Z" glyph-name="scedilla" horiz-adv-x="740" unicode="&#351;" /><glyph d="M491 142C491 105 444 84 330 84C266 84 209 94 169 108C185 117 196 132 196 155C196 187 173 215 123 215C65 215 38 177 38 134C38 44 124 -13 328 -13C521 -13 616 52 616 151C616 250 529 275 380 295C284 308 262 323 262 352C262 388 306 411 412 411C450 411 482 407 508 402C500 393 495 380 495 364C494 332 522 302 573 302C626 302 652 336 652 376C652 441 589 506 418 506C243 506 140 444 140 347C140 264 202 223 362 202C469 187 491 171 491 142ZM576 555C597 568 634 585 662 595C625 647 584 723 576 759C556 758 531 758 520 758C509 758 477 758 459 759C427 722 346 661 275 609C296 595 330 571 346 555C404 593 458 636 499 675C517 636 545 592 576 555Z" glyph-name="scircumflex" horiz-adv-x="740" unicode="&#349;" /><glyph d="M491 142C491 105 444 84 330 84C266 84 209 94 169 108C185 117 196 132 196 155C196 187 173 215 123 215C65 215 38 177 38 134C38 44 124 -13 328 -13C521 -13 616 52 616 151C616 250 529 275 380 295C284 308 262 323 262 352C262 388 306 411 412 411C450 411 482 407 508 402C500 393 495 380 495 364C494 332 522 302 573 302C626 302 652 336 652 376C652 441 589 506 418 506C243 506 140 444 140 347C140 264 202 223 362 202C469 187 491 171 491 142ZM150 -322C286 -317 365 -234 365 -151C365 -93 337 -53 278 -53C227 -53 194 -84 194 -123C194 -158 217 -182 255 -182C281 -182 300 -172 311 -154L317 -156C311 -213 243 -244 145 -245C148 -266 150 -297 150 -322Z" glyph-name="scommaaccent" horiz-adv-x="740" unicode="&#537;" /><glyph d="M241 -200C437 -200 545 -110 545 -2C545 47 524 78 485 99L487 104C595 111 670 152 670 241C670 310 619 348 460 381C311 413 292 433 292 461C292 502 332 532 426 532C465 532 515 525 556 514C546 502 539 487 539 470C539 437 563 412 614 412C674 412 706 454 706 498C706 577 617 637 452 637C274 637 160 554 160 438C160 396 174 362 214 337L212 331C85 318 27 263 27 195C27 132 61 88 227 54C370 25 406 10 406 -25C406 -70 358 -97 256 -97C202 -97 157 -90 123 -78C138 -68 148 -51 148 -28C148 9 124 37 74 37C23 37 -13 8 -13 -52C-13 -143 79 -200 241 -200ZM255 299C279 299 306 296 338 290C510 254 534 232 534 198C534 161 498 137 434 137C410 137 383 140 353 146C173 181 147 197 147 238C147 274 185 299 255 299Z" glyph-name="section" horiz-adv-x="740" unicode="&#167;" /><glyph d="M529 392C529 447 492 491 424 491C355 491 318 447 318 392C318 336 348 292 424 292C492 292 529 336 529 392ZM133 -230C334 -226 446 -97 446 38C446 127 405 189 327 189C262 189 221 145 221 89C221 39 250 2 302 2C337 2 363 20 375 47L385 44C379 -74 274 -124 124 -122C129 -151 133 -198 133 -230Z" glyph-name="semicolon" horiz-adv-x="740" unicode=";" /><glyph d="M323 515C405 520 489 516 592 513C543 399 249 301 176 4C230 3 280 -1 329 -6C367 277 742 339 752 628C601 621 272 624 179 628C167 583 116 439 89 384C130 380 172 371 204 358C219 400 229 431 249 471C266 503 285 513 323 515Z" glyph-name="seven" horiz-adv-x="740" unicode="7" /><glyph d="M190 0C226 1 274 1 310 0C361 147 538 177 571 327C485 325 276 325 196 327C188 299 175 261 164 233C226 237 317 237 430 237C355 177 229 123 190 0Z" glyph-name="seven.dnom" horiz-adv-x="740" /><glyph d="M276 301C312 302 360 302 396 301C447 448 624 478 657 628C571 626 362 626 282 628C274 600 261 562 250 534C312 538 403 538 516 538C441 478 315 424 276 301Z" glyph-name="seven.numr" horiz-adv-x="740" /><glyph d="M294 430C376 435 460 431 563 428C514 314 220 216 147 -81C201 -82 251 -86 300 -91C338 192 713 254 723 543C572 536 243 539 150 543C138 498 87 354 60 299C101 295 143 286 175 273C190 315 200 346 220 386C237 418 256 428 294 430Z" glyph-name="seven.osf" horiz-adv-x="740" /><glyph d="M191 196C191 273 284 305 370 305C473 305 515 275 515 225C515 148 429 99 336 99C248 99 191 135 191 196ZM639 240C639 330 587 402 427 402C328 402 239 363 188 293L179 297C195 341 214 382 239 417C291 490 360 534 471 534C508 534 536 529 560 520C552 509 548 496 548 481C548 442 577 411 629 411C683 411 716 446 716 497C716 577 637 642 468 642C190 642 65 424 65 228C65 67 162 -14 325 -14C510 -14 639 90 639 240Z" glyph-name="six" horiz-adv-x="740" unicode="6" /><glyph d="M237 107C237 126 281 145 356 145C408 145 427 135 427 114C427 89 397 75 334 75C268 75 237 90 237 107ZM524 111C524 164 488 199 397 199C331 199 270 183 227 150L221 154C250 219 322 256 404 256C446 256 479 248 520 230C535 256 557 288 574 308C530 328 483 337 418 337C266 337 140 255 140 124C140 44 192 -10 327 -10C441 -10 524 33 524 111Z" glyph-name="six.dnom" horiz-adv-x="740" /><glyph d="M310 408C310 427 354 446 429 446C481 446 500 436 500 415C500 390 470 376 407 376C341 376 310 391 310 408ZM597 412C597 465 561 500 470 500C404 500 343 484 300 451L294 455C323 520 395 557 477 557C519 557 552 549 593 531C608 557 630 589 647 609C603 629 556 638 491 638C339 638 213 556 213 425C213 345 265 291 400 291C514 291 597 334 597 412Z" glyph-name="six.numr" horiz-adv-x="740" /><glyph d="M191 196C191 273 284 305 370 305C473 305 515 275 515 225C515 148 429 99 336 99C248 99 191 135 191 196ZM639 240C639 330 587 402 427 402C328 402 239 363 188 293L179 297C195 341 214 382 239 417C291 490 360 534 471 534C508 534 536 529 560 520C552 509 548 496 548 481C548 442 577 411 629 411C683 411 716 446 716 497C716 577 637 642 468 642C190 642 65 424 65 228C65 67 162 -14 325 -14C510 -14 639 90 639 240Z" glyph-name="six.osf" horiz-adv-x="740" /></font>
</defs>
</svg>
