<svg xmlns="http://www.w3.org/2000/svg">
<defs>
<font horiz-adv-x="0" id="font"><font-face ascent="818" bbox="-251 -322 1405 1086" cap-height="764" descent="-182" font-family="Vulf Mono" font-stretch="normal" font-style="normal" font-weight="400" units-per-em="1000" x-height="640" /><missing-glyph d="M178 338C181 338 182 336 182 334C182 324 172 309 172 295C172 282 179 275 193 275C227 275 258 307 258 334C258 347 251 354 240 354C229 354 222 348 222 339C222 331 227 328 233 328C236 328 239 328 241 330C237 312 215 293 199 293C194 293 192 295 192 299C192 309 202 324 202 338C202 349 196 354 185 354C176 354 168 350 159 341C162 338 164 334 166 329C172 336 175 338 178 338ZM313 338C313 348 306 353 296 353C287 353 278 349 270 341C273 337 275 333 277 328C283 335 286 337 289 337C291 337 292 336 292 333C292 323 276 307 276 292C276 281 283 275 294 275C306 275 319 282 330 301H332C331 298 330 295 330 291C330 280 337 275 347 275C357 275 365 280 372 286C370 289 367 295 365 300C361 296 358 293 354 293C351 293 350 295 350 298C350 306 359 327 371 351C361 352 354 352 348 353C338 320 319 293 305 293C301 293 299 295 299 299C299 309 313 323 313 338ZM429 292C422 292 420 295 420 300C420 314 444 347 444 366C444 376 438 381 427 381C414 381 399 374 382 361C385 358 388 353 391 347C403 357 411 362 416 362C420 362 421 361 421 358C421 346 398 317 398 295C398 281 406 275 422 275C440 275 456 284 474 306C470 309 466 312 462 317C449 299 438 292 429 292ZM513 336C508 336 498 336 488 337C488 331 487 326 485 320H512C511 308 509 292 508 282C507 272 504 266 498 262C497 270 493 274 485 274C476 274 471 269 471 261C471 251 479 245 492 245C512 245 523 256 527 286C528 292 530 308 531 320H568C568 326 569 331 571 337C553 336 541 336 532 336C534 353 539 363 547 365V364C547 357 551 352 561 352C569 352 574 358 574 366C574 375 565 381 552 381C526 381 516 363 513 336ZM369 643C172 643 40 508 40 314C40 119 172 -15 369 -15C566 -15 699 119 699 314C699 508 566 643 369 643ZM369 624C554 624 679 497 679 314C679 130 554 4 369 4C184 4 60 130 60 314C60 497 184 624 369 624Z" horiz-
<glyph d="M715 0C714 17 714 62 715 80C706 79 697 79 691 79C659 79 644 93 632 125C592 224 484 499 444 628C391 623 212 626 149 628C150 601 150 571 149 546C167 547 185 548 225 548C259 548 267 528 256 497C220 396 140 191 111 121C96 88 77 80 54 79C41 79 31 79 24 80C25 57 25 21 24 0C60 3 279 2 316 0C315 27 315 54 316 80C295 79 261 79 246 79C213 79 206 93 206 113C206 128 213 141 219 161C224 175 230 193 237 212C301 214 426 214 497 212C504 195 509 179 514 164C522 142 529 123 529 110C529 92 518 79 496 79C458 79 441 78 417 80C419 52 418 27 417 0C460 2 674 3 715 0ZM309 403C330 459 351 512 366 556H374C388 514 407 460 428 404C444 361 460 317 475 276C410 276 320 276 261 276C276 317 293 361 309 403Z" glyph-name="A" horiz-adv-x="740" unicode="A" /><glyph d="M97 547C112 547 128 548 168 548C200 548 207 531 198 505C160 395 86 195 56 122C43 88 30 79 11 79H1C3 53 3 26 1 0C28 2 180 2 210 0C208 25 208 57 210 79C202 79 186 78 181 78C149 78 144 91 144 107C144 122 149 138 156 161C161 175 167 192 174 213C219 214 295 214 342 213C342 178 340 147 339 122C337 90 328 79 297 79C284 79 276 79 272 80C273 56 273 26 272 0C302 1 356 1 409 1C510 1 624 1 698 0C696 35 708 162 712 201C687 202 653 204 628 208C625 184 623 151 618 124C611 88 592 78 554 78C508 78 465 79 430 81C429 144 429 211 429 276C492 276 581 276 595 275C594 301 594 326 595 352C581 351 494 351 430 351C431 423 433 492 435 550C473 551 507 551 548 551C587 551 601 542 607 505C612 476 614 444 616 415C642 418 673 420 700 419C696 464 686 585 683 628C620 627 484 627 385 627C322 627 144 627 97 628C98 611 98 564 97 547ZM197 278C223 350 258 447 303 565C315 566 330 566 345 566C346 490 346 377 344 278C302 277 241 277 197 278Z" glyph-name="AE" horiz-adv-x="740" unicode="&#198;" /><glyph d="M97 547C112 547 128 548 168 548C200 548 207 531 198 505C160 395 86 195 56 122C43 88 30 79 11 79H1C3 53 3 26 1 0C28 2 180 2 210 0C208 25 208 57 210 79C202 79 186 78 181 78C149 78 144 91 144 107C144 122 149 138 156 161C161 175 167 192 174 213C219 214 295 214 342 213C342 178 340 147 339 122C337 90 328 79 297 79C284 79 276 79 272 80C273 56 273 26 272 0C302 1 356 1 409 1C510 1 624 1 698 0C696 35 708 162 712 201C687 202 653 204 628 208C625 184 623 151 618 124C611 88 592 78 554 78C508 78 465 79 430 81C429 144 429 211 429 276C492 276 581 276 595 275C594 301 594 326 595 352C581 351 494 351 430 351C431 423 433 492 435 550C473 551 507 551 548 551C587 551 601 542 607 505C612 476 614 444 616 415C642 418 673 420 700 419C696 464 686 585 683 628C620 627 484 627 385 627C322 627 144 627 97 628C98 611 98 564 97 547ZM343 682C385 698 587 762 638 773C627 795 611 841 605 862C556 837 365 759 321 742C328 729 340 698 343 682ZM197 278C223 350 258 447 303 565C315 566 330 566 345 566C346 490 346 377 344 278C302 277 241 277 197 278Z" glyph-name="AEacute" horiz-adv-x="740" unicode="&#508;" /><glyph d="M715 0C714 17 714 62 715 80C706 79 697 79 691 79C659 79 644 93 632 125C592 224 484 499 444 628C391 623 212 626 149 628C150 601 150 571 149 546C167 547 185 548 225 548C259 548 267 528 256 497C220 396 140 191 111 121C96 88 77 80 54 79C41 79 31 79 24 80C25 57 25 21 24 0C60 3 279 2 316 0C315 27 315 54 316 80C295 79 261 79 246 79C213 79 206 93 206 113C206 128 213 141 219 161C224 175 230 193 237 212C301 214 426 214 497 212C504 195 509 179 514 164C522 142 529 123 529 110C529 92 518 79 496 79C458 79 441 78 417 80C419 52 418 27 417 0C460 2 674 3 715 0ZM298 682C340 698 542 762 593 773C582 795 566 841 560 862C511 837 320 759 276 742C283 729 295 698 298 682ZM309 403C330 459 351 512 366 556H374C388 514 407 460 428 404C444 361 460 317 475 276C410 276 320 276 261 276C276 317 293 361 309 403Z" glyph-name="Aacute" horiz-adv-x="740" unicode="&#193;" /><glyph d="M715 0C714 17 714 62 715 80C706 79 697 79 691 79C659 79 644 93 632 125C592 224 484 499 444 628C391 623 212 626 149 628C150 601 150 571 149 546C167 547 185 548 225 548C259 548 267 528 256 497C220 396 140 191 111 121C96 88 77 80 54 79C41 79 31 79 24 80C25 57 25 21 24 0C60 3 279 2 316 0C315 27 315 54 316 80C295 79 261 79 246 79C213 79 206 93 206 113C206 128 213 141 219 161C224 175 230 193 237 212C301 214 426 214 497 212C504 195 509 179 514 164C522 142 529 123 529 110C529 92 518 79 496 79C458 79 441 78 417 80C419 52 418 27 417 0C460 2 674 3 715 0ZM363 686C456 686 526 726 554 824C532 829 495 840 476 848C459 783 416 756 363 756C311 756 271 783 252 849C234 841 197 830 173 824C201 726 270 686 363 686ZM309 403C330 459 351 512 366 556H374C388 514 407 460 428 404C444 361 460 317 475 276C410 276 320 276 261 276C276 317 293 361 309 403Z" glyph-name="Abreve" horiz-adv-x="740" unicode="&#258;" /><glyph d="M715 0C714 17 714 62 715 80C706 79 697 79 691 79C659 79 644 93 632 125C592 224 484 499 444 628C391 623 212 626 149 628C150 601 150 571 149 546C167 547 185 548 225 548C259 548 267 528 256 497C220 396 140 191 111 121C96 88 77 80 54 79C41 79 31 79 24 80C25 57 25 21 24 0C60 3 279 2 316 0C315 27 315 54 316 80C295 79 261 79 246 79C213 79 206 93 206 113C206 128 213 141 219 161C224 175 230 193 237 212C301 214 426 214 497 212C504 195 509 179 514 164C522 142 529 123 529 110C529 92 518 79 496 79C458 79 441 78 417 80C419 52 418 27 417 0C460 2 674 3 715 0ZM486 670C501 686 527 704 548 719C507 750 434 818 412 847C396 846 376 846 367 846C358 846 338 846 322 847C299 817 226 750 186 719C207 704 233 686 248 670C291 710 337 752 367 788C396 752 443 709 486 670ZM309 403C330 459 351 512 366 556H374C388 514 407 460 428 404C444 361 460 317 475 276C410 276 320 276 261 276C276 317 293 361 309 403Z" glyph-name="Acircumflex" horiz-adv-x="740" unicode="&#194;" /><glyph d="M715 0C714 17 714 62 715 80C706 79 697 79 691 79C659 79 644 93 632 125C592 224 484 499 444 628C391 623 212 626 149 628C150 601 150 571 149 546C167 547 185 548 225 548C259 548 267 528 256 497C220 396 140 191 111 121C96 88 77 80 54 79C41 79 31 79 24 80C25 57 25 21 24 0C60 3 279 2 316 0C315 27 315 54 316 80C295 79 261 79 246 79C213 79 206 93 206 113C206 128 213 141 219 161C224 175 230 193 237 212C301 214 426 214 497 212C504 195 509 179 514 164C522 142 529 123 529 110C529 92 518 79 496 79C458 79 441 78 417 80C419 52 418 27 417 0C460 2 674 3 715 0ZM333 775C333 818 304 844 260 844C215 844 186 819 186 775C186 731 215 705 260 705C304 705 333 732 333 775ZM549 775C549 818 520 844 476 844C432 844 402 819 402 775C402 731 432 705 476 705C519 705 549 732 549 775ZM309 403C330 459 351 512 366 556H374C388 514 407 460 428 404C444 361 460 317 475 276C410 276 320 276 261 276C276 317 293 361 309 403Z" glyph-name="Adieresis" horiz-adv-x="740" unicode="&#196;" /><glyph d="M715 0C714 17 714 62 715 80C706 79 697 79 691 79C659 79 644 93 632 125C592 224 484 499 444 628C391 623 212 626 149 628C150 601 150 571 149 546C167 547 185 548 225 548C259 548 267 528 256 497C220 396 140 191 111 121C96 88 77 80 54 79C41 79 31 79 24 80C25 57 25 21 24 0C60 3 279 2 316 0C315 27 315 54 316 80C295 79 261 79 246 79C213 79 206 93 206 113C206 128 213 141 219 161C224 175 230 193 237 212C301 214 426 214 497 212C504 195 509 179 514 164C522 142 529 123 529 110C529 92 518 79 496 79C458 79 441 78 417 80C419 52 418 27 417 0C460 2 674 3 715 0ZM441 682C444 698 456 729 463 742C419 759 228 837 179 862C173 841 157 795 146 773C197 762 399 698 441 682ZM309 403C330 459 351 512 366 556H374C388 514 407 460 428 404C444 361 460 317 475 276C410 276 320 276 261 276C276 317 293 361 309 403Z" glyph-name="Agrave" horiz-adv-x="740" unicode="&#192;" /><glyph d="M715 0C714 17 714 62 715 80C706 79 697 79 691 79C659 79 644 93 632 125C592 224 484 499 444 628C391 623 212 626 149 628C150 601 150 571 149 546C167 547 185 548 225 548C259 548 267 528 256 497C220 396 140 191 111 121C96 88 77 80 54 79C41 79 31 79 24 80C25 57 25 21 24 0C60 3 279 2 316 0C315 27 315 54 316 80C295 79 261 79 246 79C213 79 206 93 206 113C206 128 213 141 219 161C224 175 230 193 237 212C301 214 426 214 497 212C504 195 509 179 514 164C522 142 529 123 529 110C529 92 518 79 496 79C458 79 441 78 417 80C419 52 418 27 417 0C460 2 674 3 715 0ZM155 805C158 779 158 751 155 723C204 725 523 725 579 723C576 749 578 777 579 805C523 803 204 803 155 805ZM309 403C330 459 351 512 366 556H374C388 514 407 460 428 404C444 361 460 317 475 276C410 276 320 276 261 276C276 317 293 361 309 403Z" glyph-name="Amacron" horiz-adv-x="740" unicode="&#256;" /><glyph d="M715 -147C693 -158 676 -161 656 -161C609 -161 583 -140 583 -98C583 -38 636 0 715 0C714 17 714 62 715 80C706 79 697 79 691 79C659 79 644 93 632 125C592 224 484 499 444 628C391 623 212 626 149 628C150 601 150 571 149 546C167 547 185 548 225 548C259 548 267 528 256 497C220 396 140 191 111 121C96 88 77 80 54 79C41 79 31 79 24 80C25 57 25 21 24 0C60 3 279 2 316 0C315 27 315 54 316 80C295 79 261 79 246 79C213 79 206 93 206 113C206 128 213 141 219 161C224 175 230 193 237 212C301 214 426 214 497 212C504 195 509 179 514 164C522 142 529 123 529 110C529 92 518 79 496 79C458 79 441 78 417 80C419 52 418 27 417 0C444 1 536 2 612 2C549 -17 503 -58 503 -128C503 -200 557 -244 642 -244C677 -244 709 -237 733 -227C725 -203 718 -171 715 -147ZM309 403C330 459 351 512 366 556H374C388 514 407 460 428 404C444 361 460 317 475 276C410 276 320 276 261 276C276 317 293 361 309 403Z" glyph-name="Aogonek" horiz-adv-x="740" unicode="&#260;" /><glyph d="M715 0C714 17 714 62 715 80C706 79 697 79 691 79C659 79 644 93 632 125C592 224 484 499 444 628C391 623 212 626 149 628C150 601 150 571 149 546C167 547 185 548 225 548C259 548 267 528 256 497C220 396 140 191 111 121C96 88 77 80 54 79C41 79 31 79 24 80C25 57 25 21 24 0C60 3 279 2 316 0C315 27 315 54 316 80C295 79 261 79 246 79C213 79 206 93 206 113C206 128 213 141 219 161C224 175 230 193 237 212C301 214 426 214 497 212C504 195 509 179 514 164C522 142 529 123 529 110C529 92 518 79 496 79C458 79 441 78 417 80C419 52 418 27 417 0C460 2 674 3 715 0ZM261 781C261 717 308 680 366 680C425 680 471 717 471 781C471 844 425 881 366 881C308 881 261 844 261 781ZM320 781C320 812 341 827 366 827C392 827 412 812 412 781C412 750 392 734 366 734C341 734 320 750 320 781ZM309 403C330 459 351 512 366 556H374C388 514 407 460 428 404C444 361 460 317 475 276C410 276 320 276 261 276C276 317 293 361 309 403Z" glyph-name="Aring" horiz-adv-x="740" unicode="&#197;" /><glyph d="M715 0C714 17 714 62 715 80C706 79 697 79 691 79C659 79 644 93 632 125C592 224 484 499 444 628C391 623 212 626 149 628C150 601 150 571 149 546C167 547 185 548 225 548C259 548 267 528 256 497C220 396 140 191 111 121C96 88 77 80 54 79C41 79 31 79 24 80C25 57 25 21 24 0C60 3 279 2 316 0C315 27 315 54 316 80C295 79 261 79 246 79C213 79 206 93 206 113C206 128 213 141 219 161C224 175 230 193 237 212C301 214 426 214 497 212C504 195 509 179 514 164C522 142 529 123 529 110C529 92 518 79 496 79C458 79 441 78 417 80C419 52 418 27 417 0C460 2 674 3 715 0ZM261 781C261 717 308 680 366 680C425 680 471 717 471 781C471 844 425 881 366 881C308 881 261 844 261 781ZM320 781C320 812 341 827 366 827C392 827 412 812 412 781C412 750 392 734 366 734C341 734 320 750 320 781ZM298 906C340 922 542 986 593 997C582 1019 566 1065 560 1086C511 1061 320 983 276 966C283 953 295 922 298 906ZM309 403C330 459 351 512 366 556H374C388 514 407 460 428 404C444 361 460 317 475 276C410 276 320 276 261 276C276 317 293 361 309 403Z" glyph-name="Aringacute" horiz-adv-x="740" unicode="&#506;" /><glyph d="M715 0C714 17 714 62 715 80C706 79 697 79 691 79C659 79 644 93 632 125C592 224 484 499 444 628C391 623 212 626 149 628C150 601 150 571 149 546C167 547 185 548 225 548C259 548 267 528 256 497C220 396 140 191 111 121C96 88 77 80 54 79C41 79 31 79 24 80C25 57 25 21 24 0C60 3 279 2 316 0C315 27 315 54 316 80C295 79 261 79 246 79C213 79 206 93 206 113C206 128 213 141 219 161C224 175 230 193 237 212C301 214 426 214 497 212C504 195 509 179 514 164C522 142 529 123 529 110C529 92 518 79 496 79C458 79 441 78 417 80C419 52 418 27 417 0C460 2 674 3 715 0ZM283 849C191 849 162 781 168 690C193 691 217 691 236 690C232 744 245 779 282 779C308 779 321 763 338 739C359 710 386 677 449 677C541 677 570 745 564 836C539 834 515 834 496 836C501 782 487 747 451 747C424 747 411 764 394 786C373 816 346 849 283 849ZM309 403C330 459 351 512 366 556H374C388 514 407 460 428 404C444 361 460 317 475 276C410 276 320 276 261 276C276 317 293 361 309 403Z" glyph-name="Atilde" horiz-adv-x="740" unicode="&#195;" /><glyph d="M459 630C348 630 197 625 57 628C59 608 59 576 57 547C70 547 91 548 134 548C169 548 182 538 183 499C185 411 184 226 178 124C176 93 167 81 126 81C86 81 71 81 57 82C58 58 58 27 57 0C176 4 343 0 462 0C613 0 666 66 666 161C666 268 601 300 513 310V317C616 327 650 386 650 468C650 582 581 630 459 630ZM438 352C377 352 319 352 274 352C275 427 277 499 279 553C311 553 390 554 446 554C518 554 560 531 560 461C560 404 534 352 438 352ZM442 76C388 76 308 77 273 78C272 136 272 205 273 274C328 275 401 275 439 275C517 275 572 250 572 177C572 112 532 76 442 76Z" glyph-name="B" horiz-adv-x="740" unicode="B" /><glyph d="M360 557C470 557 547 489 572 365C597 368 625 367 652 365C647 418 654 562 662 627C639 626 605 626 568 628C569 608 570 552 571 494L563 493C527 586 461 642 347 642C160 642 63 509 63 315C63 120 160 -14 372 -14C544 -14 626 79 674 197C647 206 608 221 590 230C555 144 496 71 372 71C238 71 159 147 159 314C159 480 235 557 360 557Z" glyph-name="C" horiz-adv-x="740" unicode="C" /><glyph d="M360 557C470 557 547 489 572 365C597 368 625 367 652 365C647 418 654 562 662 627C639 626 605 626 568 628C569 608 570 552 571 494L563 493C527 586 461 642 347 642C160 642 63 509 63 315C63 120 160 -14 372 -14C544 -14 626 79 674 197C647 206 608 221 590 230C555 144 496 71 372 71C238 71 159 147 159 314C159 480 235 557 360 557ZM295 682C337 698 539 762 590 773C579 795 563 841 557 862C508 837 317 759 273 742C280 729 292 698 295 682Z" glyph-name="Cacute" horiz-adv-x="740" unicode="&#262;" /><glyph d="M360 557C470 557 547 489 572 365C597 368 625 367 652 365C647 418 654 562 662 627C639 626 605 626 568 628C569 608 570 552 571 494L563 493C527 586 461 642 347 642C160 642 63 509 63 315C63 120 160 -14 372 -14C544 -14 626 79 674 197C647 206 608 221 590 230C555 144 496 71 372 71C238 71 159 147 159 314C159 480 235 557 360 557ZM416 675C438 704 511 772 552 803C531 818 505 836 490 852C447 813 400 770 371 734C341 770 295 812 252 852C237 836 211 818 190 803C230 772 303 705 326 675C342 676 362 676 371 676C380 676 400 676 416 675Z" glyph-name="Ccaron" horiz-adv-x="740" unicode="&#268;" /><glyph d="M360 557C470 557 547 489 572 365C597 368 625 367 652 365C647 418 654 562 662 627C639 626 605 626 568 628C569 608 570 552 571 494L563 493C527 586 461 642 347 642C160 642 63 509 63 315C63 139 142 13 313 -10C305 -40 295 -80 288 -100C306 -104 320 -109 337 -118C353 -103 368 -97 392 -97C418 -97 442 -108 442 -138C442 -168 415 -183 376 -183C332 -183 293 -166 263 -138C254 -158 238 -181 224 -195C258 -223 314 -243 375 -243C465 -243 508 -199 508 -141C508 -84 471 -56 421 -56C391 -56 367 -66 349 -80C355 -59 361 -35 368 -14H372C544 -14 626 79 674 197C647 206 608 221 590 230C555 144 496 71 372 71C238 71 159 147 159 314C159 480 235 557 360 557Z" glyph-name="Ccedilla" horiz-adv-x="740" unicode="&#199;" /><glyph d="M360 557C470 557 547 489 572 365C597 368 625 367 652 365C647 418 654 562 662 627C639 626 605 626 568 628C569 608 570 552 571 494L563 493C527 586 461 642 347 642C160 642 63 509 63 315C63 120 160 -14 372 -14C544 -14 626 79 674 197C647 206 608 221 590 230C555 144 496 71 372 71C238 71 159 147 159 314C159 480 235 557 360 557ZM490 670C505 686 531 704 552 719C511 750 438 818 416 847C400 846 380 846 371 846C362 846 342 846 326 847C303 817 230 750 190 719C211 704 237 686 252 670C295 710 341 752 371 788C400 752 447 709 490 670Z" glyph-name="Ccircumflex" horiz-adv-x="740" unicode="&#264;" /><glyph d="M360 557C470 557 547 489 572 365C597 368 625 367 652 365C647 418 654 562 662 627C639 626 605 626 568 628C569 608 570 552 571 494L563 493C527 586 461 642 347 642C160 642 63 509 63 315C63 120 160 -14 372 -14C544 -14 626 79 674 197C647 206 608 221 590 230C555 144 496 71 372 71C238 71 159 147 159 314C159 480 235 557 360 557ZM454 773C454 815 425 852 372 852C318 852 289 815 289 773C289 729 313 695 372 695C425 695 454 729 454 773Z" glyph-name="Cdotaccent" horiz-adv-x="740" unicode="&#266;" /><glyph d="M671 315C671 547 571 629 381 629C331 629 274 627 218 627C162 627 107 627 59 628C61 608 61 576 59 547C72 547 86 548 133 548C172 548 185 537 185 499C187 411 186 226 180 125C178 93 167 81 125 81C86 81 73 81 59 82C60 57 60 27 59 0C103 1 155 1 209 1C278 1 348 0 404 0C599 0 671 117 671 315ZM401 81C364 81 304 81 277 82C273 229 276 415 282 545C304 545 354 546 390 546C506 546 575 494 575 317C575 157 521 81 401 81Z" glyph-name="D" horiz-adv-x="740" unicode="D" /><glyph d="M671 315C671 547 571 629 381 629C331 629 274 627 218 627C162 627 107 627 59 628C61 608 61 576 59 547C72 547 86 548 133 548C172 548 185 537 185 499C187 411 186 226 180 125C178 93 167 81 125 81C86 81 73 81 59 82C60 57 60 27 59 0C103 1 155 1 209 1C278 1 348 0 404 0C599 0 671 117 671 315ZM401 81C364 81 304 81 277 82C273 229 276 415 282 545C304 545 354 546 390 546C506 546 575 494 575 317C575 157 521 81 401 81ZM423 672C445 701 518 769 559 800C538 815 512 833 497 849C454 810 407 767 378 731C348 767 302 809 259 849C244 833 218 815 197 800C237 769 310 702 333 672C349 673 369 673 378 673C387 673 407 673 423 672Z" glyph-name="Dcaron" horiz-adv-x="740" unicode="&#270;" /><glyph d="M35 352C36 336 36 299 35 283C54 284 116 285 185 285C184 226 183 168 180 125C178 93 167 81 125 81C86 81 73 81 59 82C60 57 60 27 59 0C103 1 155 1 209 1C278 1 348 0 404 0C599 0 671 117 671 315C671 547 571 629 381 629C331 629 274 627 218 627C162 627 107 627 59 628C61 608 61 576 59 547C72 547 86 548 133 548C172 548 185 537 185 499C186 462 186 407 186 349C115 349 53 350 35 352ZM401 81C364 81 304 81 277 82C275 145 275 215 275 286C344 285 406 285 426 283C425 299 425 337 426 352C406 350 345 349 276 349C277 420 279 488 282 545C304 545 354 546 390 546C506 546 575 494 575 317C575 157 521 81 401 81Z" glyph-name="Dcroat" horiz-adv-x="740" unicode="&#272;" /><glyph d="M650 0C648 36 661 167 665 208C638 209 603 211 576 216C573 189 571 153 565 124C558 88 540 78 501 78C420 78 336 80 275 81C274 145 274 211 275 276C350 277 465 277 490 275C489 301 489 326 490 352C465 351 353 350 276 350C278 423 280 491 283 550C353 551 415 551 493 551C532 551 549 542 555 505C560 473 562 439 565 407C591 410 624 412 652 411C647 458 637 583 634 628C533 627 377 626 253 626C179 626 108 627 52 628C54 608 54 576 52 547C67 547 82 548 133 548C171 548 183 537 185 499C187 411 187 225 180 124C178 93 167 81 126 81C89 81 67 81 52 82C53 57 53 27 52 0C114 1 186 2 261 2C396 2 538 2 650 0Z" glyph-name="E" horiz-adv-x="740" unicode="E" /><glyph d="M650 0C648 36 661 167 665 208C638 209 603 211 576 216C573 189 571 153 565 124C558 88 540 78 501 78C420 78 336 80 275 81C274 145 274 211 275 276C350 277 465 277 490 275C489 301 489 326 490 352C465 351 353 350 276 350C278 423 280 491 283 550C353 551 415 551 493 551C532 551 549 542 555 505C560 473 562 439 565 407C591 410 624 412 652 411C647 458 637 583 634 628C533 627 377 626 253 626C179 626 108 627 52 628C54 608 54 576 52 547C67 547 82 548 133 548C171 548 183 537 185 499C187 411 187 225 180 124C178 93 167 81 126 81C89 81 67 81 52 82C53 57 53 27 52 0C114 1 186 2 261 2C396 2 538 2 650 0ZM314 682C356 698 558 762 609 773C598 795 582 841 576 862C527 837 336 759 292 742C299 729 311 698 314 682Z" glyph-name="Eacute" horiz-adv-x="740" unicode="&#201;" /><glyph d="M650 0C648 36 661 167 665 208C638 209 603 211 576 216C573 189 571 153 565 124C558 88 540 78 501 78C420 78 336 80 275 81C274 145 274 211 275 276C350 277 465 277 490 275C489 301 489 326 490 352C465 351 353 350 276 350C278 423 280 491 283 550C353 551 415 551 493 551C532 551 549 542 555 505C560 473 562 439 565 407C591 410 624 412 652 411C647 458 637 583 634 628C533 627 377 626 253 626C179 626 108 627 52 628C54 608 54 576 52 547C67 547 82 548 133 548C171 548 183 537 185 499C187 411 187 225 180 124C178 93 167 81 126 81C89 81 67 81 52 82C53 57 53 27 52 0C114 1 186 2 261 2C396 2 538 2 650 0ZM372 686C465 686 535 726 563 824C541 829 504 840 485 848C468 783 425 756 372 756C320 756 280 783 261 849C243 841 206 830 182 824C210 726 279 686 372 686Z" glyph-name="Ebreve" horiz-adv-x="740" unicode="&#276;" /><glyph d="M650 0C648 36 661 167 665 208C638 209 603 211 576 216C573 189 571 153 565 124C558 88 540 78 501 78C420 78 336 80 275 81C274 145 274 211 275 276C350 277 465 277 490 275C489 301 489 326 490 352C465 351 353 350 276 350C278 423 280 491 283 550C353 551 415 551 493 551C532 551 549 542 555 505C560 473 562 439 565 407C591 410 624 412 652 411C647 458 637 583 634 628C533 627 377 626 253 626C179 626 108 627 52 628C54 608 54 576 52 547C67 547 82 548 133 548C171 548 183 537 185 499C187 411 187 225 180 124C178 93 167 81 126 81C89 81 67 81 52 82C53 57 53 27 52 0C114 1 186 2 261 2C396 2 538 2 650 0ZM429 672C451 701 524 769 565 800C544 815 518 833 503 849C460 810 413 767 384 731C354 767 308 809 265 849C250 833 224 815 203 800C243 769 316 702 339 672C355 673 375 673 384 673C393 673 413 673 429 672Z" glyph-name="Ecaron" horiz-adv-x="740" unicode="&#282;" /><glyph d="M650 0C648 36 661 167 665 208C638 209 603 211 576 216C573 189 571 153 565 124C558 88 540 78 501 78C420 78 336 80 275 81C274 145 274 211 275 276C350 277 465 277 490 275C489 301 489 326 490 352C465 351 353 350 276 350C278 423 280 491 283 550C353 551 415 551 493 551C532 551 549 542 555 505C560 473 562 439 565 407C591 410 624 412 652 411C647 458 637 583 634 628C533 627 377 626 253 626C179 626 108 627 52 628C54 608 54 576 52 547C67 547 82 548 133 548C171 548 183 537 185 499C187 411 187 225 180 124C178 93 167 81 126 81C89 81 67 81 52 82C53 57 53 27 52 0C114 1 186 2 261 2C396 2 538 2 650 0ZM497 670C512 686 538 704 559 719C518 750 445 818 423 847C407 846 387 846 378 846C369 846 349 846 333 847C310 817 237 750 197 719C218 704 244 686 259 670C302 710 348 752 378 788C407 752 454 709 497 670Z" glyph-name="Ecircumflex" horiz-adv-x="740" unicode="&#202;" /><glyph d="M650 0C648 36 661 167 665 208C638 209 603 211 576 216C573 189 571 153 565 124C558 88 540 78 501 78C420 78 336 80 275 81C274 145 274 211 275 276C350 277 465 277 490 275C489 301 489 326 490 352C465 351 353 350 276 350C278 423 280 491 283 550C353 551 415 551 493 551C532 551 549 542 555 505C560 473 562 439 565 407C591 410 624 412 652 411C647 458 637 583 634 628C533 627 377 626 253 626C179 626 108 627 52 628C54 608 54 576 52 547C67 547 82 548 133 548C171 548 183 537 185 499C187 411 187 225 180 124C178 93 167 81 126 81C89 81 67 81 52 82C53 57 53 27 52 0C114 1 186 2 261 2C396 2 538 2 650 0ZM343 775C343 818 314 844 270 844C225 844 196 819 196 775C196 731 225 705 270 705C314 705 343 732 343 775ZM559 775C559 818 530 844 486 844C442 844 412 819 412 775C412 731 442 705 486 705C529 705 559 732 559 775Z" glyph-name="Edieresis" horiz-adv-x="740" unicode="&#203;" /><glyph d="M650 0C648 36 661 167 665 208C638 209 603 211 576 216C573 189 571 153 565 124C558 88 540 78 501 78C420 78 336 80 275 81C274 145 274 211 275 276C350 277 465 277 490 275C489 301 489 326 490 352C465 351 353 350 276 350C278 423 280 491 283 550C353 551 415 551 493 551C532 551 549 542 555 505C560 473 562 439 565 407C591 410 624 412 652 411C647 458 637 583 634 628C533 627 377 626 253 626C179 626 108 627 52 628C54 608 54 576 52 547C67 547 82 548 133 548C171 548 183 537 185 499C187 411 187 225 180 124C178 93 167 81 126 81C89 81 67 81 52 82C53 57 53 27 52 0C114 1 186 2 261 2C396 2 538 2 650 0ZM460 773C460 815 431 852 378 852C324 852 295 815 295 773C295 729 319 695 378 695C431 695 460 729 460 773Z" glyph-name="Edotaccent" horiz-adv-x="740" unicode="&#278;" /><glyph d="M650 0C648 36 661 167 665 208C638 209 603 211 576 216C573 189 571 153 565 124C558 88 540 78 501 78C420 78 336 80 275 81C274 145 274 211 275 276C350 277 465 277 490 275C489 301 489 326 490 352C465 351 353 350 276 350C278 423 280 491 283 550C353 551 415 551 493 551C532 551 549 542 555 505C560 473 562 439 565 407C591 410 624 412 652 411C647 458 637 583 634 628C533 627 377 626 253 626C179 626 108 627 52 628C54 608 54 576 52 547C67 547 82 548 133 548C171 548 183 537 185 499C187 411 187 225 180 124C178 93 167 81 126 81C89 81 67 81 52 82C53 57 53 27 52 0C114 1 186 2 261 2C396 2 538 2 650 0ZM446 682C449 698 461 729 468 742C424 759 233 837 184 862C178 841 162 795 151 773C202 762 404 698 446 682Z" glyph-name="Egrave" horiz-adv-x="740" unicode="&#200;" /><glyph d="M650 0C648 36 661 167 665 208C638 209 603 211 576 216C573 189 571 153 565 124C558 88 540 78 501 78C420 78 336 80 275 81C274 145 274 211 275 276C350 277 465 277 490 275C489 301 489 326 490 352C465 351 353 350 276 350C278 423 280 491 283 550C353 551 415 551 493 551C532 551 549 542 555 505C560 473 562 439 565 407C591 410 624 412 652 411C647 458 637 583 634 628C533 627 377 626 253 626C179 626 108 627 52 628C54 608 54 576 52 547C67 547 82 548 133 548C171 548 183 537 185 499C187 411 187 225 180 124C178 93 167 81 126 81C89 81 67 81 52 82C53 57 53 27 52 0C114 1 186 2 261 2C396 2 538 2 650 0ZM160 805C163 779 163 751 160 723C209 725 528 725 584 723C581 749 583 777 584 805C528 803 209 803 160 805Z" glyph-name="Emacron" horiz-adv-x="740" unicode="&#274;" /><glyph d="M442 -200C563 -200 613 -124 613 -10C613 60 612 203 613 258C614 349 615 426 615 496C615 585 571 640 463 640C350 640 275 573 238 470H232C230 549 229 613 228 631C180 628 95 626 41 628C43 600 43 563 41 541C52 543 75 544 105 544C133 544 147 539 148 505C152 388 152 239 147 128C146 92 131 84 103 84C73 84 51 85 39 86C41 65 41 28 39 0C73 3 277 3 314 0C313 27 313 57 314 85C301 84 291 84 275 84C244 84 236 102 236 132C235 182 236 272 236 313C237 479 331 554 427 554C495 554 520 522 520 452C520 405 521 329 521 248C521 169 521 85 519 -4C516 -93 497 -125 441 -125C427 -125 415 -124 405 -121C425 -114 440 -97 440 -71C440 -38 417 -15 382 -15C335 -15 312 -50 312 -95C312 -155 352 -200 442 -200Z" glyph-name="Eng" horiz-adv-x="740" unicode="&#330;" /><glyph d="M650 0C648 36 661 167 665 208C638 209 603 211 576 216C573 189 571 153 565 124C558 88 540 78 501 78C420 78 336 80 275 81C274 145 274 211 275 276C350 277 465 277 490 275C489 301 489 326 490 352C465 351 353 350 276 350C278 423 280 491 283 550C353 551 415 551 493 551C532 551 549 542 555 505C560 473 562 439 565 407C591 410 624 412 652 411C647 458 637 583 634 628C533 627 377 626 253 626C179 626 108 627 52 628C54 608 54 576 52 547C67 547 82 548 133 548C171 548 183 537 185 499C187 411 187 225 180 124C178 93 167 81 126 81C89 81 67 81 52 82C53 57 53 27 52 0C114 1 186 2 261 2C356 2 455 2 545 1C483 -18 438 -58 438 -128C438 -200 492 -244 577 -244C612 -244 644 -237 668 -227C660 -203 653 -171 650 -147C628 -158 611 -161 591 -161C544 -161 518 -140 518 -98C518 -38 571 0 650 0Z" glyph-name="Eogonek" horiz-adv-x="740" unicode="&#280;" /><glyph d="M35 352C36 336 36 299 35 283C54 284 116 285 185 285C184 226 183 168 180 125C178 93 167 81 125 81C86 81 73 81 59 82C60 57 60 27 59 0C103 1 155 1 209 1C278 1 348 0 404 0C599 0 671 117 671 315C671 547 571 629 381 629C331 629 274 627 218 627C162 627 107 627 59 628C61 608 61 576 59 547C72 547 86 548 133 548C172 548 185 537 185 499C186 462 186 407 186 349C115 349 53 350 35 352ZM401 81C364 81 304 81 277 82C275 145 275 215 275 286C344 285 406 285 426 283C425 299 425 337 426 352C406 350 345 349 276 349C277 420 279 488 282 545C304 545 354 546 390 546C506 546 575 494 575 317C575 157 521 81 401 81Z" glyph-name="Eth" horiz-adv-x="740" unicode="&#208;" /><glyph d="M386 556C486 556 558 489 582 365C606 367 633 367 659 365C654 418 661 562 669 627C650 626 615 625 576 628C577 609 578 557 579 503L569 502C535 589 475 642 371 642C221 642 132 547 109 400C68 401 37 401 24 402C26 381 26 360 24 340C36 340 65 341 103 341C102 332 102 324 102 315C102 301 102 288 103 275C65 275 36 276 24 277C26 256 26 235 24 215C37 215 69 216 111 216C138 76 226 -14 385 -14C549 -14 625 80 673 197C647 207 608 222 590 231C555 145 502 71 385 71C292 71 230 117 206 216C298 216 395 216 423 215C421 234 421 255 423 277C396 275 293 274 197 274C196 287 196 300 196 314C196 323 196 332 197 341C291 341 394 341 423 340C421 360 421 380 423 402C396 400 297 400 204 400C224 506 288 556 386 556Z" glyph-name="Euro" horiz-adv-x="740" unicode="&#8364;" /><glyph d="M7 303C9 278 9 257 7 231C19 232 48 232 85 233C97 86 193 -10 377 -10C519 -10 594 32 647 76C631 98 617 125 606 149C549 101 479 72 383 72C265 72 194 125 182 233C275 233 374 232 403 231C401 256 401 277 403 303C375 301 275 300 182 300C194 411 266 468 381 468C458 468 513 442 545 407C512 401 484 378 484 342C484 304 513 277 561 277C619 277 649 314 649 359C649 470 539 549 377 549C192 549 97 448 84 301C47 302 19 302 7 303Z" glyph-name="Euro.osf" horiz-adv-x="740" /><glyph d="M451 0C449 22 449 63 451 85C426 83 388 83 333 83C302 83 280 90 279 127C278 167 277 209 277 252C356 253 477 253 504 251C502 275 502 304 504 330C477 328 358 327 278 328C279 408 281 487 284 550C354 551 421 551 503 551C542 551 560 543 566 504C572 464 573 421 576 382C603 384 634 385 661 384C655 437 645 578 641 628C540 627 381 626 255 626C182 626 111 627 56 628C57 608 57 576 56 547C69 547 89 548 137 548C176 548 186 538 187 499C189 411 188 226 182 124C181 93 169 81 129 81C86 81 72 81 56 82C57 57 57 27 56 0C170 2 344 2 451 0Z" glyph-name="F" horiz-adv-x="740" unicode="F" /><glyph d="M556 0C581 2 616 3 639 0C632 76 633 140 635 191C637 220 650 232 673 232C683 232 693 231 705 231C703 254 703 281 704 306C661 302 390 303 343 306C345 281 345 255 343 229C372 230 440 231 513 231C549 231 557 218 557 196C557 115 498 74 378 69C237 69 158 147 158 314C158 481 235 559 360 559C470 559 547 491 572 369C597 371 625 372 652 369C647 421 654 563 662 627C639 626 606 626 568 628C569 607 570 551 571 492H564C528 586 457 642 349 642C157 642 59 509 59 315C59 120 150 -14 342 -14C447 -14 513 23 554 98L561 96C559 65 557 31 556 0Z" glyph-name="G" horiz-adv-x="740" unicode="G" /><glyph d="M556 0C581 2 616 3 639 0C632 76 633 140 635 191C637 220 650 232 673 232C683 232 693 231 705 231C703 254 703 281 704 306C661 302 390 303 343 306C345 281 345 255 343 229C372 230 440 231 513 231C549 231 557 218 557 196C557 115 498 74 378 69C237 69 158 147 158 314C158 481 235 559 360 559C470 559 547 491 572 369C597 371 625 372 652 369C647 421 654 563 662 627C639 626 606 626 568 628C569 607 570 551 571 492H564C528 586 457 642 349 642C157 642 59 509 59 315C59 120 150 -14 342 -14C447 -14 513 23 554 98L561 96C559 65 557 31 556 0ZM377 686C470 686 540 726 568 824C546 829 509 840 490 848C473 783 430 756 377 756C325 756 285 783 266 849C248 841 211 830 187 824C215 726 284 686 377 686Z" glyph-name="Gbreve" horiz-adv-x="740" unicode="&#286;" /><glyph d="M556 0C581 2 616 3 639 0C632 76 633 140 635 191C637 220 650 232 673 232C683 232 693 231 705 231C703 254 703 281 704 306C661 302 390 303 343 306C345 281 345 255 343 229C372 230 440 231 513 231C549 231 557 218 557 196C557 115 498 74 378 69C237 69 158 147 158 314C158 481 235 559 360 559C470 559 547 491 572 369C597 371 625 372 652 369C647 421 654 563 662 627C639 626 606 626 568 628C569 607 570 551 571 492H564C528 586 457 642 349 642C157 642 59 509 59 315C59 120 150 -14 342 -14C447 -14 513 23 554 98L561 96C559 65 557 31 556 0ZM496 670C511 686 537 704 558 719C517 750 444 818 422 847C406 846 386 846 377 846C368 846 348 846 332 847C309 817 236 750 196 719C217 704 243 686 258 670C301 710 347 752 377 788C406 752 453 709 496 670Z" glyph-name="Gcircumflex" horiz-adv-x="740" unicode="&#284;" /><glyph d="M556 0C581 2 616 3 639 0C632 76 633 140 635 191C637 220 650 232 673 232C683 232 693 231 705 231C703 254 703 281 704 306C661 302 390 303 343 306C345 281 345 255 343 229C372 230 440 231 513 231C549 231 557 218 557 196C557 115 498 74 378 69C237 69 158 147 158 314C158 481 235 559 360 559C470 559 547 491 572 369C597 371 625 372 652 369C647 421 654 563 662 627C639 626 606 626 568 628C569 607 570 551 571 492H564C528 586 457 642 349 642C157 642 59 509 59 315C59 120 150 -14 342 -14C447 -14 513 23 554 98L561 96C559 65 557 31 556 0ZM303 -322C402 -286 454 -236 454 -163C454 -105 424 -59 364 -59C317 -59 288 -85 288 -123C288 -154 307 -179 347 -179C370 -179 388 -171 398 -156L404 -158C404 -201 360 -238 276 -254C288 -277 296 -300 303 -322Z" glyph-name="Gcommaaccent" horiz-adv-x="740" unicode="&#290;" /><glyph d="M556 0C581 2 616 3 639 0C632 76 633 140 635 191C637 220 650 232 673 232C683 232 693 231 705 231C703 254 703 281 704 306C661 302 390 303 343 306C345 281 345 255 343 229C372 230 440 231 513 231C549 231 557 218 557 196C557 115 498 74 378 69C237 69 158 147 158 314C158 481 235 559 360 559C470 559 547 491 572 369C597 371 625 372 652 369C647 421 654 563 662 627C639 626 606 626 568 628C569 607 570 551 571 492H564C528 586 457 642 349 642C157 642 59 509 59 315C59 120 150 -14 342 -14C447 -14 513 23 554 98L561 96C559 65 557 31 556 0ZM467 773C467 815 438 852 385 852C331 852 302 815 302 773C302 729 326 695 385 695C438 695 467 729 467 773Z" glyph-name="Gdotaccent" horiz-adv-x="740" unicode="&#288;" /><glyph d="M423 628C425 602 426 576 423 548C439 548 464 549 474 549C508 549 517 535 517 498C517 459 518 403 519 345C433 344 291 344 221 345C222 404 223 459 223 498C223 535 232 549 266 549C277 549 302 548 317 548C314 576 315 602 317 628C273 624 64 626 25 628C27 602 28 576 25 548C48 548 65 549 82 549C116 549 127 537 128 498C130 406 131 223 128 124C127 94 115 81 84 81C64 81 36 82 26 82C29 55 29 27 26 0C60 2 279 3 316 0C313 27 313 55 316 82C297 81 276 81 260 81C233 81 224 96 223 124C221 162 221 213 221 266C298 268 439 268 519 266C519 213 519 162 517 124C516 96 507 81 480 81C464 81 443 81 424 82C427 55 427 27 424 0C461 3 680 2 714 0C711 27 711 55 714 82C704 82 676 81 656 81C625 81 613 94 612 124C609 223 610 406 612 498C613 537 624 549 658 549C675 549 693 548 715 548C712 576 713 602 715 628C676 626 467 624 423 628Z" glyph-name="H" horiz-adv-x="740" unicode="H" /><glyph d="M317 628C273 624 64 626 25 628C27 602 28 576 25 548C48 548 65 549 82 549C116 549 127 537 128 498C128 485 129 470 129 454C71 455 26 456 7 458C8 437 7 410 6 389C25 391 70 392 129 393C130 302 130 193 128 124C127 94 115 81 84 81C64 81 36 82 26 82C29 55 29 27 26 0C60 2 279 3 316 0C313 27 313 55 316 82C297 81 276 81 260 81C233 81 224 96 223 124C222 155 221 196 221 239C298 241 439 241 519 239C519 196 518 156 517 124C516 96 507 81 480 81C464 81 443 81 424 82C427 55 427 27 424 0C461 3 680 2 714 0C711 27 711 55 714 82C704 82 676 81 656 81C625 81 613 94 612 124C610 193 610 301 611 392C667 391 711 390 732 389C731 409 733 442 734 458C713 456 669 455 611 454C611 470 612 485 612 498C613 537 624 549 658 549C675 549 693 548 715 548C712 576 713 602 715 628C676 626 467 624 423 628C425 602 426 576 423 548C439 548 464 549 474 549C508 549 517 535 517 498C517 485 517 469 518 453C424 452 316 452 222 453C223 470 223 485 223 498C223 535 232 549 266 549C277 549 302 548 317 548C314 576 315 602 317 628ZM221 309C221 338 222 366 222 394C316 394 424 394 518 393C519 366 519 337 519 308C433 307 291 308 221 309Z" glyph-name="Hbar" horiz-adv-x="740" unicode="&#294;" /><glyph d="M423 628C425 602 426 576 423 548C439 548 464 549 474 549C508 549 517 535 517 498C517 459 518 403 519 345C433 344 291 344 221 345C222 404 223 459 223 498C223 535 232 549 266 549C277 549 302 548 317 548C314 576 315 602 317 628C273 624 64 626 25 628C27 602 28 576 25 548C48 548 65 549 82 549C116 549 127 537 128 498C130 406 131 223 128 124C127 94 115 81 84 81C64 81 36 82 26 82C29 55 29 27 26 0C60 2 279 3 316 0C313 27 313 55 316 82C297 81 276 81 260 81C233 81 224 96 223 124C221 162 221 213 221 266C298 268 439 268 519 266C519 213 519 162 517 124C516 96 507 81 480 81C464 81 443 81 424 82C427 55 427 27 424 0C461 3 680 2 714 0C711 27 711 55 714 82C704 82 676 81 656 81C625 81 613 94 612 124C609 223 610 406 612 498C613 537 624 549 658 549C675 549 693 548 715 548C712 576 713 602 715 628C676 626 467 624 423 628ZM489 670C504 686 530 704 551 719C510 750 437 818 415 847C399 846 379 846 370 846C361 846 341 846 325 847C302 817 229 750 189 719C210 704 236 686 251 670C294 710 340 752 370 788C399 752 446 709 489 670Z" glyph-name="Hcircumflex" horiz-adv-x="740" unicode="&#292;" /><glyph d="M622 628C559 626 186 625 117 628C119 601 119 574 117 545C147 546 203 549 278 549C314 549 322 528 323 500C326 408 325 225 323 126C322 90 298 81 265 81C195 81 142 80 117 84C119 63 119 21 117 0C180 3 550 4 622 0C620 21 620 63 622 84C597 80 544 81 475 81C441 81 418 90 417 127C414 228 414 408 417 500C418 528 426 549 462 549C536 549 592 546 622 545C620 574 620 601 622 628Z" glyph-name="I" horiz-adv-x="740" unicode="I" /><glyph d="M359 628C318 627 79 627 34 628C36 603 36 576 34 548C49 549 74 549 108 549C144 549 153 537 153 500C154 458 155 378 153 335C152 299 144 290 105 290C63 290 49 289 34 291C36 272 36 230 34 209C75 210 313 212 359 209C357 230 357 271 359 291C342 290 331 290 292 290C256 290 245 299 243 336C242 380 242 458 243 500C244 537 252 549 288 549C321 549 346 549 359 548C357 576 357 602 359 628ZM29 94C88 30 174 -14 331 -14C529 -14 629 66 629 227C629 301 623 432 626 505C628 538 643 548 672 548C688 548 699 548 712 547C710 575 710 603 712 628C653 625 452 627 428 628C431 603 430 576 428 548C444 549 467 549 482 549C522 549 530 536 532 503C537 431 536 294 534 220C530 106 448 67 330 66C196 67 111 118 77 164C63 142 45 113 29 94Z" glyph-name="IJ" horiz-adv-x="740" unicode="&#306;" /><glyph d="M622 628C559 626 186 625 117 628C119 601 119 574 117 545C147 546 203 549 278 549C314 549 322 528 323 500C326 408 325 225 323 126C322 90 298 81 265 81C195 81 142 80 117 84C119 63 119 21 117 0C180 3 550 4 622 0C620 21 620 63 622 84C597 80 544 81 475 81C441 81 418 90 417 127C414 228 414 408 417 500C418 528 426 549 462 549C536 549 592 546 622 545C620 574 620 601 622 628ZM305 682C347 698 549 762 600 773C589 795 573 841 567 862C518 837 327 759 283 742C290 729 302 698 305 682Z" glyph-name="Iacute" horiz-adv-x="740" unicode="&#205;" /><glyph d="M622 628C559 626 186 625 117 628C119 601 119 574 117 545C147 546 203 549 278 549C314 549 322 528 323 500C326 408 325 225 323 126C322 90 298 81 265 81C195 81 142 80 117 84C119 63 119 21 117 0C180 3 550 4 622 0C620 21 620 63 622 84C597 80 544 81 475 81C441 81 418 90 417 127C414 228 414 408 417 500C418 528 426 549 462 549C536 549 592 546 622 545C620 574 620 601 622 628ZM368 686C461 686 531 726 559 824C537 829 500 840 481 848C464 783 421 756 368 756C316 756 276 783 257 849C239 841 202 830 178 824C206 726 275 686 368 686Z" glyph-name="Ibreve" horiz-adv-x="740" unicode="&#300;" /><glyph d="M622 628C559 626 186 625 117 628C119 601 119 574 117 545C147 546 203 549 278 549C314 549 322 528 323 500C326 408 325 225 323 126C322 90 298 81 265 81C195 81 142 80 117 84C119 63 119 21 117 0C180 3 550 4 622 0C620 21 620 63 622 84C597 80 544 81 475 81C441 81 418 90 417 127C414 228 414 408 417 500C418 528 426 549 462 549C536 549 592 546 622 545C620 574 620 601 622 628ZM489 670C504 686 530 704 551 719C510 750 437 818 415 847C399 846 379 846 370 846C361 846 341 846 325 847C302 817 229 750 189 719C210 704 236 686 251 670C294 710 340 752 370 788C399 752 446 709 489 670Z" glyph-name="Icircumflex" horiz-adv-x="740" unicode="&#206;" /><glyph d="M622 628C559 626 186 625 117 628C119 601 119 574 117 545C147 546 203 549 278 549C314 549 322 528 323 500C326 408 325 225 323 126C322 90 298 81 265 81C195 81 142 80 117 84C119 63 119 21 117 0C180 3 550 4 622 0C620 21 620 63 622 84C597 80 544 81 475 81C441 81 418 90 417 127C414 228 414 408 417 500C418 528 426 549 462 549C536 549 592 546 622 545C620 574 620 601 622 628ZM335 775C335 818 306 844 262 844C217 844 188 819 188 775C188 731 217 705 262 705C306 705 335 732 335 775ZM551 775C551 818 522 844 478 844C434 844 404 819 404 775C404 731 434 705 478 705C521 705 551 732 551 775Z" glyph-name="Idieresis" horiz-adv-x="740" unicode="&#207;" /><glyph d="M622 628C559 626 186 625 117 628C119 601 119 574 117 545C147 546 203 549 278 549C314 549 322 528 323 500C326 408 325 225 323 126C322 90 298 81 265 81C195 81 142 80 117 84C119 63 119 21 117 0C180 3 550 4 622 0C620 21 620 63 622 84C597 80 544 81 475 81C441 81 418 90 417 127C414 228 414 408 417 500C418 528 426 549 462 549C536 549 592 546 622 545C620 574 620 601 622 628ZM452 773C452 815 423 852 370 852C316 852 287 815 287 773C287 729 311 695 370 695C423 695 452 729 452 773Z" glyph-name="Idotaccent" horiz-adv-x="740" unicode="&#304;" /><glyph d="M622 628C559 626 186 625 117 628C119 601 119 574 117 545C147 546 203 549 278 549C314 549 322 528 323 500C326 408 325 225 323 126C322 90 298 81 265 81C195 81 142 80 117 84C119 63 119 21 117 0C180 3 550 4 622 0C620 21 620 63 622 84C597 80 544 81 475 81C441 81 418 90 417 127C414 228 414 408 417 500C418 528 426 549 462 549C536 549 592 546 622 545C620 574 620 601 622 628ZM427 682C385 698 183 762 132 773C143 795 159 841 165 862C214 837 405 759 449 742C442 729 430 698 427 682Z" glyph-name="Igrave" horiz-adv-x="740" unicode="&#204;" /><glyph d="M622 628C559 626 186 625 117 628C119 601 119 574 117 545C147 546 203 549 278 549C314 549 322 528 323 500C326 408 325 225 323 126C322 90 298 81 265 81C195 81 142 80 117 84C119 63 119 21 117 0C180 3 550 4 622 0C620 21 620 63 622 84C597 80 544 81 475 81C441 81 418 90 417 127C414 228 414 408 417 500C418 528 426 549 462 549C536 549 592 546 622 545C620 574 620 601 622 628ZM157 805C160 779 160 751 157 723C206 725 525 725 581 723C578 749 580 777 581 805C525 803 206 803 157 805Z" glyph-name="Imacron" horiz-adv-x="740" unicode="&#298;" /><glyph d="M622 628C559 626 186 625 117 628C119 601 119 574 117 545C147 546 203 549 278 549C314 549 322 528 323 500C326 408 325 225 323 126C322 90 298 81 265 81C195 81 142 80 117 84C119 63 119 21 117 0C164 2 382 3 519 2C456 -17 410 -57 410 -128C410 -200 464 -244 549 -244C584 -244 616 -237 640 -227C632 -203 625 -171 622 -147C600 -158 583 -161 563 -161C516 -161 490 -140 490 -98C490 -38 543 0 622 0C620 21 620 63 622 84C597 80 544 81 475 81C441 81 418 90 417 127C414 228 414 408 417 500C418 528 426 549 462 549C536 549 592 546 622 545C620 574 620 601 622 628Z" glyph-name="Iogonek" horiz-adv-x="740" unicode="&#302;" /><glyph d="M622 628C559 626 186 625 117 628C119 601 119 574 117 545C147 546 203 549 278 549C314 549 322 528 323 500C326 408 325 225 323 126C322 90 298 81 265 81C195 81 142 80 117 84C119 63 119 21 117 0C180 3 550 4 622 0C620 21 620 63 622 84C597 80 544 81 475 81C441 81 418 90 417 127C414 228 414 408 417 500C418 528 426 549 462 549C536 549 592 546 622 545C620 574 620 601 622 628ZM287 849C195 849 166 781 172 690C197 691 221 691 240 690C236 744 249 779 286 779C312 779 325 763 342 739C363 710 390 677 453 677C545 677 574 745 568 836C543 834 519 834 500 836C505 782 491 747 455 747C428 747 415 764 398 786C377 816 350 849 287 849Z" glyph-name="Itilde" horiz-adv-x="740" unicode="&#296;" /><glyph d="M571 221C571 297 565 430 569 505C571 538 585 548 614 548C644 548 663 548 687 547C685 575 685 603 687 628C584 622 228 626 186 628C188 602 188 572 186 544C258 547 369 547 420 547C462 547 472 530 473 498C477 427 476 290 476 214C476 105 414 67 331 67C244 67 163 110 163 219V222C172 218 184 215 198 215C243 215 267 242 267 281C267 329 231 353 187 353C126 353 79 311 79 214C79 70 175 -14 333 -14C490 -14 571 64 571 221Z" glyph-name="J" horiz-adv-x="740" unicode="J" /><glyph d="M571 221C571 297 565 430 569 505C571 538 585 548 614 548C644 548 663 548 687 547C685 575 685 603 687 628C584 622 228 626 186 628C188 602 188 572 186 544C258 547 369 547 420 547C462 547 472 530 473 498C477 427 476 290 476 214C476 105 414 67 331 67C244 67 163 110 163 219V222C172 218 184 215 198 215C243 215 267 242 267 281C267 329 231 353 187 353C126 353 79 311 79 214C79 70 175 -14 333 -14C490 -14 571 64 571 221ZM634 670C649 686 675 704 696 719C655 750 582 818 560 847C544 846 524 846 515 846C506 846 486 846 470 847C447 817 374 750 334 719C355 704 381 686 396 670C439 710 485 752 515 788C544 752 591 709 634 670Z" glyph-name="Jcircumflex" horiz-adv-x="740" unicode="&#308;" /><glyph d="M317 628C273 624 64 626 25 628C27 602 28 576 25 548C48 548 65 549 82 549C116 549 127 537 128 498C130 406 131 223 128 124C127 94 115 81 84 81C64 81 36 82 26 82C29 55 29 27 26 0C60 2 279 3 316 0C313 27 313 55 316 82C297 81 276 81 260 81C233 81 224 96 223 124C222 158 221 201 221 248C243 251 262 253 291 253C375 253 404 225 435 141C474 35 498 -10 594 -10C676 -10 735 43 725 178C700 176 675 176 651 178C658 109 646 71 604 71C564 71 553 97 521 172C491 257 452 309 331 296C431 369 552 470 603 512C637 540 657 549 684 549C690 549 694 549 702 548C700 575 701 602 702 629C666 627 439 626 401 629C402 611 402 569 401 547C426 548 438 548 467 548C492 548 499 531 482 508C446 461 334 373 221 302C221 376 222 450 223 498C223 535 232 549 266 549C277 549 302 548 317 548C314 576 315 602 317 628Z" glyph-name="K" horiz-adv-x="740" unicode="K" /><glyph d="M317 628C273 624 64 626 25 628C27 602 28 576 25 548C48 548 65 549 82 549C116 549 127 537 128 498C130 406 131 223 128 124C127 94 115 81 84 81C64 81 36 82 26 82C29 55 29 27 26 0C60 2 279 3 316 0C313 27 313 55 316 82C297 81 276 81 260 81C233 81 224 96 223 124C222 158 221 201 221 248C243 251 262 253 291 253C375 253 404 225 435 141C474 35 498 -10 594 -10C676 -10 735 43 725 178C700 176 675 176 651 178C658 109 646 71 604 71C564 71 553 97 521 172C491 257 452 309 331 296C431 369 552 470 603 512C637 540 657 549 684 549C690 549 694 549 702 548C700 575 701 602 702 629C666 627 439 626 401 629C402 611 402 569 401 547C426 548 438 548 467 548C492 548 499 531 482 508C446 461 334 373 221 302C221 376 222 450 223 498C223 535 232 549 266 549C277 549 302 548 317 548C314 576 315 602 317 628ZM295 -322C394 -286 446 -236 446 -163C446 -105 416 -59 356 -59C309 -59 280 -85 280 -123C280 -154 299 -179 339 -179C362 -179 380 -171 390 -156L396 -158C396 -201 352 -238 268 -254C280 -277 288 -300 295 -322Z" glyph-name="Kcommaaccent" horiz-adv-x="740" unicode="&#310;" /><glyph d="M296 499C298 536 312 549 350 549C429 549 448 549 469 548C467 576 467 603 469 628C417 627 336 627 248 627C170 627 110 627 59 628C61 608 61 576 59 547C76 547 92 548 153 548C187 548 200 537 201 499C203 411 202 224 194 124C191 93 182 81 145 81C98 81 77 81 59 82C60 57 60 27 59 0C113 1 177 2 243 2C385 2 532 2 650 0C647 47 667 218 673 272C646 273 610 276 583 280C578 235 573 175 563 124C556 88 537 78 498 78C426 78 350 80 292 81C289 222 292 407 296 499Z" glyph-name="L" horiz-adv-x="740" unicode="L" /><glyph d="M296 499C298 536 312 549 350 549C429 549 448 549 469 548C467 576 467 603 469 628C417 627 336 627 248 627C170 627 110 627 59 628C61 608 61 576 59 547C76 547 92 548 153 548C187 548 200 537 201 499C203 411 202 224 194 124C191 93 182 81 145 81C98 81 77 81 59 82C60 57 60 27 59 0C113 1 177 2 243 2C385 2 532 2 650 0C647 47 667 218 673 272C646 273 610 276 583 280C578 235 573 175 563 124C556 88 537 78 498 78C426 78 350 80 292 81C289 222 292 407 296 499ZM184 682C226 698 428 762 479 773C468 795 452 841 446 862C397 837 206 759 162 742C169 729 181 698 184 682Z" glyph-name="Lacute" horiz-adv-x="740" unicode="&#313;" /><glyph d="M296 499C298 536 312 549 350 549C429 549 448 549 469 548C467 576 467 603 469 628C417 627 336 627 248 627C170 627 110 627 59 628C61 608 61 576 59 547C76 547 92 548 153 548C187 548 200 537 201 499C203 411 202 224 194 124C191 93 182 81 145 81C98 81 77 81 59 82C60 57 60 27 59 0C113 1 177 2 243 2C385 2 532 2 650 0C647 47 667 218 673 272C646 273 610 276 583 280C578 235 573 175 563 124C556 88 537 78 498 78C426 78 350 80 292 81C289 222 292 407 296 499ZM627 651C600 641 565 631 537 624C570 566 572 470 548 398C570 395 597 389 616 381C654 462 657 579 627 651Z" glyph-name="Lcaron" horiz-adv-x="740" unicode="&#317;" /><glyph d="M296 499C298 536 312 549 350 549C429 549 448 549 469 548C467 576 467 603 469 628C417 627 336 627 248 627C170 627 110 627 59 628C61 608 61 576 59 547C76 547 92 548 153 548C187 548 200 537 201 499C203 411 202 224 194 124C191 93 182 81 145 81C98 81 77 81 59 82C60 57 60 27 59 0C113 1 177 2 243 2C385 2 532 2 650 0C647 47 667 218 673 272C646 273 610 276 583 280C578 235 573 175 563 124C556 88 537 78 498 78C426 78 350 80 292 81C289 222 292 407 296 499ZM303 -322C402 -286 454 -236 454 -163C454 -105 424 -59 364 -59C317 -59 288 -85 288 -123C288 -154 307 -179 347 -179C370 -179 388 -171 398 -156L404 -158C404 -201 360 -238 276 -254C288 -277 296 -300 303 -322Z" glyph-name="Lcommaaccent" horiz-adv-x="740" unicode="&#315;" /><glyph d="M296 499C298 536 312 549 350 549C429 549 448 549 469 548C467 576 467 603 469 628C417 627 336 627 248 627C171 627 110 627 59 628C61 608 61 576 59 547C76 547 93 548 153 548C187 548 200 537 201 499C203 411 202 224 194 124C191 93 182 81 145 81C98 81 77 81 59 82C60 57 60 27 59 0C113 1 177 2 243 2C385 2 532 2 650 0C648 36 661 164 666 204C639 205 603 208 576 212C573 185 569 151 563 122C557 88 540 78 501 78C428 78 350 80 291 81C288 243 292 406 296 499ZM710 351C710 394 680 429 628 429C574 429 544 394 544 351C544 307 569 273 628 273C680 273 710 307 710 351Z" glyph-name="Ldot" horiz-adv-x="740" unicode="&#319;" /><glyph d="M41 302C46 284 56 241 59 221C78 228 133 244 200 263C199 211 197 161 194 124C191 93 182 81 145 81C98 81 77 81 59 82C60 57 60 27 59 0C113 1 177 2 243 2C385 2 532 2 650 0C647 45 666 208 672 258C644 259 609 263 581 267C577 225 573 171 563 124C556 88 537 78 498 78C426 78 350 80 292 81C291 145 291 218 291 288C414 321 546 355 584 363C578 383 567 426 564 443C530 430 410 397 292 366C293 418 295 465 296 499C298 536 312 549 350 549C429 549 448 549 469 548C467 576 467 603 469 628C417 627 336 627 248 627C171 627 110 627 59 628C61 608 61 576 59 547C76 547 93 548 153 548C187 548 200 537 201 499C202 460 202 403 202 342C126 322 62 306 41 302Z" glyph-name="Lslash" horiz-adv-x="740" unicode="&#321;" /><glyph d="M710 0C708 20 708 62 710 83C698 82 684 82 675 82C640 82 628 101 627 131C623 233 625 406 631 504C633 537 646 551 679 551C687 551 704 551 715 550C714 577 714 601 716 628C689 625 535 627 509 628C498 579 416 391 371 299C328 390 254 573 240 628C210 625 53 626 24 628C25 603 26 577 24 550H74C104 550 112 537 113 499C115 407 116 225 112 126C110 94 100 82 70 81C49 81 37 82 29 82C30 55 30 27 29 0C62 2 273 3 309 0C307 23 307 58 308 82C294 82 273 81 242 81C208 81 198 98 198 127C195 180 194 248 194 315C194 380 189 466 184 534L194 536C236 435 320 226 328 196C354 198 379 198 402 196C408 219 499 435 542 536H552C547 469 542 374 541 310C541 242 541 176 539 127C538 99 526 82 493 82C477 82 449 81 428 83C430 55 431 27 429 0C461 2 673 3 710 0Z" glyph-name="M" horiz-adv-x="740" unicode="M" /><glyph d="M628 0C616 86 620 402 626 505C628 542 643 548 678 548C685 548 694 548 701 547C700 573 700 602 702 628C671 624 463 626 425 628C427 602 427 574 425 547C441 548 454 548 492 548C525 548 542 538 543 498C543 449 542 382 541 311C542 265 542 167 550 98L544 97C519 152 480 221 437 296C357 431 280 582 259 628C237 625 78 626 50 628C52 603 52 574 50 548C59 548 71 549 89 549C121 549 133 535 133 499C136 406 135 225 130 125C128 90 119 81 91 81C77 81 62 82 51 82C52 55 52 27 51 0C84 2 288 3 323 0C321 18 321 59 323 82C311 81 285 81 265 81C232 81 217 98 216 129C214 189 214 259 214 334C214 381 209 473 201 539L209 540C233 490 272 418 315 342C394 202 483 43 503 0C527 2 595 2 628 0Z" glyph-name="N" horiz-adv-x="740" unicode="N" /><glyph d="M628 0C616 86 620 402 626 505C628 542 643 548 678 548C685 548 694 548 701 547C700 573 700 602 702 628C671 624 463 626 425 628C427 602 427 574 425 547C441 548 454 548 492 548C525 548 542 538 543 498C543 449 542 382 541 311C542 265 542 167 550 98L544 97C519 152 480 221 437 296C357 431 280 582 259 628C237 625 78 626 50 628C52 603 52 574 50 548C59 548 71 549 89 549C121 549 133 535 133 499C136 406 135 225 130 125C128 90 119 81 91 81C77 81 62 82 51 82C52 55 52 27 51 0C84 2 288 3 323 0C321 18 321 59 323 82C311 81 285 81 265 81C232 81 217 98 216 129C214 189 214 259 214 334C214 381 209 473 201 539L209 540C233 490 272 418 315 342C394 202 483 43 503 0C527 2 595 2 628 0ZM330 682C372 698 574 762 625 773C614 795 598 841 592 862C543 837 352 759 308 742C315 729 327 698 330 682Z" glyph-name="Nacute" horiz-adv-x="740" unicode="&#323;" /><glyph d="M628 0C616 86 620 402 626 505C628 542 643 548 678 548C685 548 694 548 701 547C700 573 700 602 702 628C671 624 463 626 425 628C427 602 427 574 425 547C441 548 454 548 492 548C525 548 542 538 543 498C543 449 542 382 541 311C542 265 542 167 550 98L544 97C519 152 480 221 437 296C357 431 280 582 259 628C237 625 78 626 50 628C52 603 52 574 50 548C59 548 71 549 89 549C121 549 133 535 133 499C136 406 135 225 130 125C128 90 119 81 91 81C77 81 62 82 51 82C52 55 52 27 51 0C84 2 288 3 323 0C321 18 321 59 323 82C311 81 285 81 265 81C232 81 217 98 216 129C214 189 214 259 214 334C214 381 209 473 201 539L209 540C233 490 272 418 315 342C394 202 483 43 503 0C527 2 595 2 628 0ZM421 672C443 701 516 769 557 800C536 815 510 833 495 849C452 810 405 767 376 731C346 767 300 809 257 849C242 833 216 815 195 800C235 769 308 702 331 672C347 673 367 673 376 673C385 673 405 673 421 672Z" glyph-name="Ncaron" horiz-adv-x="740" unicode="&#327;" /><glyph d="M628 0C616 86 620 402 626 505C628 542 643 548 678 548C685 548 694 548 701 547C700 573 700 602 702 628C671 624 463 626 425 628C427 602 427 574 425 547C441 548 454 548 492 548C525 548 542 538 543 498C543 449 542 382 541 311C542 265 542 167 550 98L544 97C519 152 480 221 437 296C357 431 280 582 259 628C237 625 78 626 50 628C52 603 52 574 50 548C59 548 71 549 89 549C121 549 133 535 133 499C136 406 135 225 130 125C128 90 119 81 91 81C77 81 62 82 51 82C52 55 52 27 51 0C84 2 288 3 323 0C321 18 321 59 323 82C311 81 285 81 265 81C232 81 217 98 216 129C214 189 214 259 214 334C214 381 209 473 201 539L209 540C233 490 272 418 315 342C394 202 483 43 503 0C527 2 595 2 628 0ZM286 -322C385 -286 437 -236 437 -163C437 -105 407 -59 347 -59C300 -59 271 -85 271 -123C271 -154 290 -179 330 -179C353 -179 371 -171 381 -156L387 -158C387 -201 343 -238 259 -254C271 -277 279 -300 286 -322Z" glyph-name="Ncommaaccent" horiz-adv-x="740" unicode="&#325;" /><glyph d="M628 0C616 86 620 402 626 505C628 542 643 548 678 548C685 548 694 548 701 547C700 573 700 602 702 628C671 624 463 626 425 628C427 602 427 574 425 547C441 548 454 548 492 548C525 548 542 538 543 498C543 449 542 382 541 311C542 265 542 167 550 98L544 97C519 152 480 221 437 296C357 431 280 582 259 628C237 625 78 626 50 628C52 603 52 574 50 548C59 548 71 549 89 549C121 549 133 535 133 499C136 406 135 225 130 125C128 90 119 81 91 81C77 81 62 82 51 82C52 55 52 27 51 0C84 2 288 3 323 0C321 18 321 59 323 82C311 81 285 81 265 81C232 81 217 98 216 129C214 189 214 259 214 334C214 381 209 473 201 539L209 540C233 490 272 418 315 342C394 202 483 43 503 0C527 2 595 2 628 0ZM293 849C201 849 172 781 178 690C203 691 227 691 246 690C242 744 255 779 292 779C318 779 331 763 348 739C369 710 396 677 459 677C551 677 580 745 574 836C549 834 525 834 506 836C511 782 497 747 461 747C434 747 421 764 404 786C383 816 356 849 293 849Z" glyph-name="Ntilde" horiz-adv-x="740" unicode="&#209;" /><glyph d="M57 315C57 120 155 -14 370 -14C585 -14 683 120 683 314C683 509 585 642 370 642C155 642 57 509 57 315ZM583 314C583 148 505 72 370 72C235 72 157 148 157 314C157 479 235 556 370 556C505 556 583 479 583 314Z" glyph-name="O" horiz-adv-x="740" unicode="O" /><glyph d="M348 628C133 628 35 509 35 315C35 123 134 -1 351 -1C401 -1 453 1 511 1C567 1 643 1 698 0C696 35 708 162 712 201C687 202 653 204 628 208C625 184 623 151 618 124C611 88 592 78 554 78C508 78 465 79 430 81C429 144 429 211 429 276C492 276 581 276 595 275C594 301 594 326 595 352C581 351 494 351 430 351C431 423 433 492 435 550C473 551 507 551 548 551C587 551 601 542 607 505C612 476 614 444 616 415C642 418 673 420 700 419C696 464 686 585 683 628C635 628 563 627 503 627C451 627 392 628 348 628ZM127 314C127 478 199 548 342 549C343 422 342 188 337 80C203 83 127 152 127 314Z" glyph-name="OE" horiz-adv-x="740" unicode="&#338;" /><glyph d="M57 315C57 120 155 -14 370 -14C585 -14 683 120 683 314C683 509 585 642 370 642C155 642 57 509 57 315ZM583 314C583 148 505 72 370 72C235 72 157 148 157 314C157 479 235 556 370 556C505 556 583 479 583 314ZM291 682C333 698 535 762 586 773C575 795 559 841 553 862C504 837 313 759 269 742C276 729 288 698 291 682Z" glyph-name="Oacute" horiz-adv-x="740" unicode="&#211;" /><glyph d="M57 315C57 120 155 -14 370 -14C585 -14 683 120 683 314C683 509 585 642 370 642C155 642 57 509 57 315ZM583 314C583 148 505 72 370 72C235 72 157 148 157 314C157 479 235 556 370 556C505 556 583 479 583 314ZM370 686C463 686 533 726 561 824C539 829 502 840 483 848C466 783 423 756 370 756C318 756 278 783 259 849C241 841 204 830 180 824C208 726 277 686 370 686Z" glyph-name="Obreve" horiz-adv-x="740" unicode="&#334;" /><glyph d="M57 315C57 120 155 -14 370 -14C585 -14 683 120 683 314C683 509 585 642 370 642C155 642 57 509 57 315ZM583 314C583 148 505 72 370 72C235 72 157 148 157 314C157 479 235 556 370 556C505 556 583 479 583 314ZM489 670C504 686 530 704 551 719C510 750 437 818 415 847C399 846 379 846 370 846C361 846 341 846 325 847C302 817 229 750 189 719C210 704 236 686 251 670C294 710 340 752 370 788C399 752 446 709 489 670Z" glyph-name="Ocircumflex" horiz-adv-x="740" unicode="&#212;" /><glyph d="M57 315C57 120 155 -14 370 -14C585 -14 683 120 683 314C683 509 585 642 370 642C155 642 57 509 57 315ZM583 314C583 148 505 72 370 72C235 72 157 148 157 314C157 479 235 556 370 556C505 556 583 479 583 314ZM336 775C336 818 307 844 263 844C218 844 189 819 189 775C189 731 218 705 263 705C307 705 336 732 336 775ZM552 775C552 818 523 844 479 844C435 844 405 819 405 775C405 731 435 705 479 705C522 705 552 732 552 775Z" glyph-name="Odieresis" horiz-adv-x="740" unicode="&#214;" /><glyph d="M57 315C57 120 155 -14 370 -14C585 -14 683 120 683 314C683 509 585 642 370 642C155 642 57 509 57 315ZM583 314C583 148 505 72 370 72C235 72 157 148 157 314C157 479 235 556 370 556C505 556 583 479 583 314ZM444 682C402 698 200 762 149 773C160 795 176 841 182 862C231 837 422 759 466 742C459 729 447 698 444 682Z" glyph-name="Ograve" horiz-adv-x="740" unicode="&#210;" /><glyph d="M57 315C57 120 155 -14 370 -14C585 -14 683 120 683 314C683 509 585 642 370 642C155 642 57 509 57 315ZM583 314C583 148 505 72 370 72C235 72 157 148 157 314C157 479 235 556 370 556C505 556 583 479 583 314ZM445 674C468 698 581 802 607 825C587 840 563 862 548 878C526 851 422 742 398 717C413 705 431 689 445 674ZM294 675C315 701 421 815 446 841C427 853 403 873 387 888C366 860 268 742 246 716C261 706 278 691 294 675Z" glyph-name="Ohungarumlaut" horiz-adv-x="740" unicode="&#336;" /><glyph d="M57 315C57 120 155 -14 370 -14C585 -14 683 120 683 314C683 509 585 642 370 642C155 642 57 509 57 315ZM583 314C583 148 505 72 370 72C235 72 157 148 157 314C157 479 235 556 370 556C505 556 583 479 583 314ZM158 805C161 779 161 751 158 723C207 725 526 725 582 723C579 749 581 777 582 805C526 803 207 803 158 805Z" glyph-name="Omacron" horiz-adv-x="740" unicode="&#332;" /><glyph d="M30 42C43 29 74 -3 87 -18C99 -5 123 21 157 54C207 11 278 -14 370 -14C585 -14 683 120 683 314C683 392 667 460 635 513C670 546 698 571 714 585C698 599 666 631 655 645C642 630 618 604 586 572C535 617 464 642 370 642C155 642 57 509 57 315C57 235 73 166 107 112C72 79 44 54 30 42ZM147 314C147 485 229 565 370 565C436 565 488 548 526 512C422 409 281 273 173 173C156 210 147 257 147 314ZM593 314C593 142 511 63 370 63C306 63 254 79 216 113C319 214 460 349 568 451C585 415 593 369 593 314Z" glyph-name="Oslash" horiz-adv-x="740" unicode="&#216;" /><glyph d="M30 42C43 29 74 -3 87 -18C99 -5 123 21 157 54C207 11 278 -14 370 -14C585 -14 683 120 683 314C683 392 667 460 635 513C670 546 698 571 714 585C698 599 666 631 655 645C642 630 618 604 586 572C535 617 464 642 370 642C155 642 57 509 57 315C57 235 73 166 107 112C72 79 44 54 30 42ZM147 314C147 485 229 565 370 565C436 565 488 548 526 512C422 409 281 273 173 173C156 210 147 257 147 314ZM593 314C593 142 511 63 370 63C306 63 254 79 216 113C319 214 460 349 568 451C585 415 593 369 593 314ZM298 682C340 698 542 762 593 773C582 795 566 841 560 862C511 837 320 759 276 742C283 729 295 698 298 682Z" glyph-name="Oslashacute" horiz-adv-x="740" unicode="&#510;" /><glyph d="M57 315C57 120 155 -14 370 -14C585 -14 683 120 683 314C683 509 585 642 370 642C155 642 57 509 57 315ZM583 314C583 148 505 72 370 72C235 72 157 148 157 314C157 479 235 556 370 556C505 556 583 479 583 314ZM287 849C195 849 166 781 172 690C197 691 221 691 240 690C236 744 249 779 286 779C312 779 325 763 342 739C363 710 390 677 453 677C545 677 574 745 568 836C543 834 519 834 500 836C505 782 491 747 455 747C428 747 415 764 398 786C377 816 350 849 287 849Z" glyph-name="Otilde" horiz-adv-x="740" unicode="&#213;" /><glyph d="M443 300C388 300 345 303 287 308C286 386 287 473 288 551C343 553 405 553 447 553C546 553 603 525 603 430C603 347 572 300 443 300ZM472 0C472 26 471 57 473 83C435 82 390 82 340 82C302 82 291 95 290 130C289 159 288 196 288 239C337 234 401 229 443 229C621 229 697 301 695 435C695 581 603 629 469 629C433 629 348 628 259 627C185 627 94 627 71 628C73 602 72 575 71 548C89 549 117 549 145 549C180 549 193 535 195 499C199 406 200 228 195 125C193 89 183 83 151 82C131 82 90 82 69 83C71 55 71 27 69 0C91 1 164 1 246 2C336 2 446 2 472 0Z" glyph-name="P" horiz-adv-x="740" unicode="P" /><glyph d="M583 314C583 148 504 72 370 72C236 72 157 148 157 314C157 479 236 556 370 556C504 556 583 479 583 314ZM61 315C61 120 158 -14 370 -14C390 -14 410 -13 428 -10C453 -132 511 -200 628 -200C721 -200 765 -139 765 -82C765 -46 746 -5 694 -5C654 -5 622 -31 622 -74C622 -101 633 -120 649 -132C645 -132 641 -132 637 -132C566 -132 526 -77 505 9C624 55 679 167 679 314C679 509 582 642 370 642C158 642 61 509 61 315Z" glyph-name="Q" horiz-adv-x="740" unicode="Q" /><glyph d="M401 341C355 341 303 343 233 348C233 418 233 490 234 552C298 554 363 553 405 553C499 553 558 529 558 451C558 382 526 341 401 341ZM592 -10C671 -10 729 43 715 178C694 176 670 176 646 178C654 108 640 69 598 69C558 69 547 97 515 175C498 222 474 254 434 273L435 278C585 289 653 356 650 458C650 586 558 629 424 629C387 629 277 627 200 627C129 627 47 627 25 628C27 602 27 576 25 548C41 549 64 549 86 549C121 549 139 536 140 499C145 406 145 224 140 125C139 90 126 83 90 83C78 83 51 83 35 84C37 55 37 28 35 0C78 3 349 4 394 0C393 25 392 58 395 83C363 82 322 82 283 82C250 82 237 93 236 130C235 167 234 219 234 278C254 276 278 275 307 273C384 267 396 244 427 152C467 39 492 -10 592 -10Z" glyph-name="R" horiz-adv-x="740" unicode="R" /><glyph d="M401 341C355 341 303 343 233 348C233 418 233 490 234 552C298 554 363 553 405 553C499 553 558 529 558 451C558 382 526 341 401 341ZM592 -10C671 -10 729 43 715 178C694 176 670 176 646 178C654 108 640 69 598 69C558 69 547 97 515 175C498 222 474 254 434 273L435 278C585 289 653 356 650 458C650 586 558 629 424 629C387 629 277 627 200 627C129 627 47 627 25 628C27 602 27 576 25 548C41 549 64 549 86 549C121 549 139 536 140 499C145 406 145 224 140 125C139 90 126 83 90 83C78 83 51 83 35 84C37 55 37 28 35 0C78 3 349 4 394 0C393 25 392 58 395 83C363 82 322 82 283 82C250 82 237 93 236 130C235 167 234 219 234 278C254 276 278 275 307 273C384 267 396 244 427 152C467 39 492 -10 592 -10ZM299 682C341 698 543 762 594 773C583 795 567 841 561 862C512 837 321 759 277 742C284 729 296 698 299 682Z" glyph-name="Racute" horiz-adv-x="740" unicode="&#340;" /><glyph d="M401 341C355 341 303 343 233 348C233 418 233 490 234 552C298 554 363 553 405 553C499 553 558 529 558 451C558 382 526 341 401 341ZM592 -10C671 -10 729 43 715 178C694 176 670 176 646 178C654 108 640 69 598 69C558 69 547 97 515 175C498 222 474 254 434 273L435 278C585 289 653 356 650 458C650 586 558 629 424 629C387 629 277 627 200 627C129 627 47 627 25 628C27 602 27 576 25 548C41 549 64 549 86 549C121 549 139 536 140 499C145 406 145 224 140 125C139 90 126 83 90 83C78 83 51 83 35 84C37 55 37 28 35 0C78 3 349 4 394 0C393 25 392 58 395 83C363 82 322 82 283 82C250 82 237 93 236 130C235 167 234 219 234 278C254 276 278 275 307 273C384 267 396 244 427 152C467 39 492 -10 592 -10ZM411 672C433 701 506 769 547 800C526 815 500 833 485 849C442 810 395 767 366 731C336 767 290 809 247 849C232 833 206 815 185 800C225 769 298 702 321 672C337 673 357 673 366 673C375 673 395 673 411 672Z" glyph-name="Rcaron" horiz-adv-x="740" unicode="&#344;" /><glyph d="M401 341C355 341 303 343 233 348C233 418 233 490 234 552C298 554 363 553 405 553C499 553 558 529 558 451C558 382 526 341 401 341ZM592 -10C671 -10 729 43 715 178C694 176 670 176 646 178C654 108 640 69 598 69C558 69 547 97 515 175C498 222 474 254 434 273L435 278C585 289 653 356 650 458C650 586 558 629 424 629C387 629 277 627 200 627C129 627 47 627 25 628C27 602 27 576 25 548C41 549 64 549 86 549C121 549 139 536 140 499C145 406 145 224 140 125C139 90 126 83 90 83C78 83 51 83 35 84C37 55 37 28 35 0C78 3 349 4 394 0C393 25 392 58 395 83C363 82 322 82 283 82C250 82 237 93 236 130C235 167 234 219 234 278C254 276 278 275 307 273C384 267 396 244 427 152C467 39 492 -10 592 -10ZM290 -322C389 -286 441 -236 441 -163C441 -105 411 -59 351 -59C304 -59 275 -85 275 -123C275 -154 294 -179 334 -179C357 -179 375 -171 385 -156L391 -158C391 -201 347 -238 263 -254C275 -277 283 -300 290 -322Z" glyph-name="Rcommaaccent" horiz-adv-x="740" unicode="&#342;" /><glyph d="M638 628C628 627 611 627 593 627C575 627 558 627 541 628C543 598 546 555 548 508H542C494 592 414 642 307 642C177 642 96 573 96 466C96 338 231 298 360 272C472 251 561 228 561 151C561 102 526 66 436 66C294 66 182 134 157 252C135 251 104 251 82 253C85 203 87 62 82 0C96 1 111 1 126 1C142 1 160 2 178 0C175 32 171 81 169 127L175 128C229 39 320 -14 448 -14C586 -14 659 55 659 157C659 292 511 331 387 355C278 375 195 401 195 469C195 528 245 564 326 564C438 564 542 499 566 377C587 378 615 378 634 377C631 425 629 554 638 628Z" glyph-name="S" horiz-adv-x="740" unicode="S" /><glyph d="M638 628C628 627 611 627 593 627C575 627 558 627 541 628C543 598 546 555 548 508H542C494 592 414 642 307 642C177 642 96 573 96 466C96 338 231 298 360 272C472 251 561 228 561 151C561 102 526 66 436 66C294 66 182 134 157 252C135 251 104 251 82 253C85 203 87 62 82 0C96 1 111 1 126 1C142 1 160 2 178 0C175 32 171 81 169 127L175 128C229 39 320 -14 448 -14C586 -14 659 55 659 157C659 292 511 331 387 355C278 375 195 401 195 469C195 528 245 564 326 564C438 564 542 499 566 377C587 378 615 378 634 377C631 425 629 554 638 628ZM299 682C341 698 543 762 594 773C583 795 567 841 561 862C512 837 321 759 277 742C284 729 296 698 299 682Z" glyph-name="Sacute" horiz-adv-x="740" unicode="&#346;" /><glyph d="M638 628C628 627 611 627 593 627C575 627 558 627 541 628C543 598 546 555 548 508H542C494 592 414 642 307 642C177 642 96 573 96 466C96 338 231 298 360 272C472 251 561 228 561 151C561 102 526 66 436 66C294 66 182 134 157 252C135 251 104 251 82 253C85 203 87 62 82 0C96 1 111 1 126 1C142 1 160 2 178 0C175 32 171 81 169 127L175 128C229 39 320 -14 448 -14C586 -14 659 55 659 157C659 292 511 331 387 355C278 375 195 401 195 469C195 528 245 564 326 564C438 564 542 499 566 377C587 378 615 378 634 377C631 425 629 554 638 628ZM410 672C432 701 505 769 546 800C525 815 499 833 484 849C441 810 394 767 365 731C335 767 289 809 246 849C231 833 205 815 184 800C224 769 297 702 320 672C336 673 356 673 365 673C374 673 394 673 410 672Z" glyph-name="Scaron" horiz-adv-x="740" unicode="&#352;" /><glyph d="M638 628C628 627 611 627 593 627C575 627 558 627 541 628C543 598 546 555 548 508H542C494 592 414 642 307 642C177 642 96 573 96 466C96 338 231 298 360 272C472 251 561 228 561 151C561 102 526 66 436 66C294 66 182 134 157 252C135 251 104 251 82 253C85 203 87 62 82 0C96 1 111 1 126 1C142 1 160 2 178 0C175 32 171 81 169 127L175 128C208 73 255 32 316 9C310 -20 295 -76 287 -100C305 -104 319 -109 336 -118C352 -103 367 -97 391 -97C417 -97 441 -108 441 -138C441 -168 414 -183 375 -183C331 -183 292 -166 262 -138C253 -158 237 -181 223 -195C257 -223 313 -243 374 -243C464 -243 507 -199 507 -141C507 -84 470 -56 420 -56C390 -56 366 -66 348 -80C355 -57 362 -28 369 -6C394 -11 420 -14 448 -14C586 -14 659 55 659 157C659 292 511 331 387 355C278 375 195 401 195 469C195 528 245 564 326 564C438 564 542 499 566 377C587 378 615 378 634 377C631 425 629 554 638 628Z" glyph-name="Scedilla" horiz-adv-x="740" unicode="&#350;" /><glyph d="M638 628C628 627 611 627 593 627C575 627 558 627 541 628C543 598 546 555 548 508H542C494 592 414 642 307 642C177 642 96 573 96 466C96 338 231 298 360 272C472 251 561 228 561 151C561 102 526 66 436 66C294 66 182 134 157 252C135 251 104 251 82 253C85 203 87 62 82 0C96 1 111 1 126 1C142 1 160 2 178 0C175 32 171 81 169 127L175 128C229 39 320 -14 448 -14C586 -14 659 55 659 157C659 292 511 331 387 355C278 375 195 401 195 469C195 528 245 564 326 564C438 564 542 499 566 377C587 378 615 378 634 377C631 425 629 554 638 628ZM484 670C499 686 525 704 546 719C505 750 432 818 410 847C394 846 374 846 365 846C356 846 336 846 320 847C297 817 224 750 184 719C205 704 231 686 246 670C289 710 335 752 365 788C394 752 441 709 484 670Z" glyph-name="Scircumflex" horiz-adv-x="740" unicode="&#348;" /><glyph d="M638 628C628 627 611 627 593 627C575 627 558 627 541 628C543 598 546 555 548 508H542C494 592 414 642 307 642C177 642 96 573 96 466C96 338 231 298 360 272C472 251 561 228 561 151C561 102 526 66 436 66C294 66 182 134 157 252C135 251 104 251 82 253C85 203 87 62 82 0C96 1 111 1 126 1C142 1 160 2 178 0C175 32 171 81 169 127L175 128C229 39 320 -14 448 -14C586 -14 659 55 659 157C659 292 511 331 387 355C278 375 195 401 195 469C195 528 245 564 326 564C438 564 542 499 566 377C587 378 615 378 634 377C631 425 629 554 638 628ZM298 -322C397 -286 449 -236 449 -163C449 -105 419 -59 359 -59C312 -59 283 -85 283 -123C283 -154 302 -179 342 -179C365 -179 383 -171 393 -156L399 -158C399 -201 355 -238 271 -254C283 -277 291 -300 298 -322Z" glyph-name="Scommaaccent" horiz-adv-x="740" unicode="&#536;" /><glyph d="M224 549C244 549 284 549 325 548C330 426 326 229 323 132C322 104 316 80 275 80C214 80 156 82 133 83C135 57 135 27 133 0C192 3 544 5 608 0C606 27 606 57 608 83C585 82 527 80 467 80C424 80 418 104 417 132C414 229 412 426 416 548C458 548 498 549 518 549C552 549 571 541 579 503C593 440 601 366 607 304C637 308 667 313 698 317C683 381 654 562 644 629C538 623 166 624 97 629C88 562 59 381 43 317C75 313 105 308 134 304C141 365 151 440 164 503C173 541 192 549 224 549Z" glyph-name="T" horiz-adv-x="740" unicode="T" /><glyph d="M182 345C183 317 183 292 182 264C200 266 259 267 326 267C325 215 324 167 323 132C322 104 316 80 275 80C214 80 156 82 133 83C135 57 135 27 133 0C192 3 544 5 608 0C606 27 606 57 608 83C585 82 527 80 467 80C424 80 418 104 417 132C416 167 415 215 415 267C480 266 540 265 561 264C560 294 560 316 561 345C541 343 481 342 414 341C414 415 414 490 416 548C458 548 498 549 518 549C552 549 571 542 579 503C586 466 593 421 596 385C626 389 654 394 685 398C674 446 651 580 644 629C538 623 166 624 97 629C90 580 67 447 57 399C87 396 116 391 147 386C149 422 157 467 164 505C172 544 189 549 224 549C244 549 284 549 325 548C327 490 327 415 327 341C260 342 200 343 182 345Z" glyph-name="Tbar" horiz-adv-x="740" unicode="&#358;" /><glyph d="M224 549C244 549 284 549 325 548C330 426 326 229 323 132C322 104 316 80 275 80C214 80 156 82 133 83C135 57 135 27 133 0C192 3 544 5 608 0C606 27 606 57 608 83C585 82 527 80 467 80C424 80 418 104 417 132C414 229 412 426 416 548C458 548 498 549 518 549C552 549 571 541 579 503C593 440 601 366 607 304C637 308 667 313 698 317C683 381 654 562 644 629C538 623 166 624 97 629C88 562 59 381 43 317C75 313 105 308 134 304C141 365 151 440 164 503C173 541 192 549 224 549ZM416 672C438 701 511 769 552 800C531 815 505 833 490 849C447 810 400 767 371 731C341 767 295 809 252 849C237 833 211 815 190 800C230 769 303 702 326 672C342 673 362 673 371 673C380 673 400 673 416 672Z" glyph-name="Tcaron" horiz-adv-x="740" unicode="&#356;" /><glyph d="M224 549C244 549 284 549 325 548C330 426 326 229 323 132C322 104 316 80 275 80C214 80 156 82 133 83C135 57 135 27 133 0C158 1 234 2 319 3C312 -27 299 -77 291 -100C309 -104 323 -109 340 -118C356 -103 371 -97 395 -97C421 -97 445 -108 445 -138C445 -168 418 -183 379 -183C335 -183 296 -166 266 -138C257 -158 241 -181 227 -195C261 -223 317 -243 378 -243C468 -243 511 -199 511 -141C511 -84 474 -56 424 -56C394 -56 370 -66 352 -80C360 -53 368 -20 376 3C477 3 577 2 608 0C606 27 606 57 608 83C585 82 527 80 467 80C424 80 418 104 417 132C414 229 412 426 416 548C458 548 498 549 518 549C552 549 571 541 579 503C593 440 601 366 607 304C637 308 667 313 698 317C683 381 654 562 644 629C538 623 166 624 97 629C88 562 59 381 43 317C75 313 105 308 134 304C141 365 151 440 164 503C173 541 192 549 224 549Z" glyph-name="Tcommaaccent" horiz-adv-x="740" unicode="&#354;" /><glyph d="M290 628C213 627 104 627 71 628C73 602 72 575 71 548C89 549 117 549 145 549C180 549 193 535 195 499C199 406 200 228 195 125C193 89 183 83 151 82C131 82 91 82 70 83C72 55 71 27 70 0C94 1 209 1 290 0C289 39 289 85 288 135C341 130 411 125 455 125C626 125 698 197 695 330C695 477 603 525 469 525C437 525 368 524 288 522C288 559 289 595 290 628ZM443 197C388 197 345 199 287 205C287 283 287 367 287 447C342 449 404 450 447 450C546 450 603 422 603 326C603 244 572 197 443 197Z" glyph-name="Thorn" horiz-adv-x="740" unicode="&#222;" /><glyph d="M371 67C264 67 227 113 221 191C218 247 218 413 222 499C223 536 240 549 275 549C291 549 311 549 330 548C328 572 328 602 330 628C286 626 80 626 41 628C43 601 43 574 41 548C54 549 68 549 81 549C115 549 127 535 127 498C128 421 125 266 127 180C128 66 206 -14 370 -14C530 -14 605 64 607 176C609 263 607 420 608 498C608 532 624 549 657 549C669 549 682 549 699 548C697 574 697 602 699 628C660 626 454 626 410 628C412 602 412 573 410 548C429 549 445 549 464 549C501 549 514 539 516 499C520 402 520 246 516 191C511 113 479 67 371 67Z" glyph-name="U" horiz-adv-x="740" unicode="U" /><glyph d="M371 67C264 67 227 113 221 191C218 247 218 413 222 499C223 536 240 549 275 549C291 549 311 549 330 548C328 572 328 602 330 628C286 626 80 626 41 628C43 601 43 574 41 548C54 549 68 549 81 549C115 549 127 535 127 498C128 421 125 266 127 180C128 66 206 -14 370 -14C530 -14 605 64 607 176C609 263 607 420 608 498C608 532 624 549 657 549C669 549 682 549 699 548C697 574 697 602 699 628C660 626 454 626 410 628C412 602 412 573 410 548C429 549 445 549 464 549C501 549 514 539 516 499C520 402 520 246 516 191C511 113 479 67 371 67ZM291 682C333 698 535 762 586 773C575 795 559 841 553 862C504 837 313 759 269 742C276 729 288 698 291 682Z" glyph-name="Uacute" horiz-adv-x="740" unicode="&#218;" /><glyph d="M371 67C264 67 227 113 221 191C218 247 218 413 222 499C223 536 240 549 275 549C291 549 311 549 330 548C328 572 328 602 330 628C286 626 80 626 41 628C43 601 43 574 41 548C54 549 68 549 81 549C115 549 127 535 127 498C128 421 125 266 127 180C128 66 206 -14 370 -14C530 -14 605 64 607 176C609 263 607 420 608 498C608 532 624 549 657 549C669 549 682 549 699 548C697 574 697 602 699 628C660 626 454 626 410 628C412 602 412 573 410 548C429 549 445 549 464 549C501 549 514 539 516 499C520 402 520 246 516 191C511 113 479 67 371 67ZM369 686C462 686 532 726 560 824C538 829 501 840 482 848C465 783 422 756 369 756C317 756 277 783 258 849C240 841 203 830 179 824C207 726 276 686 369 686Z" glyph-name="Ubreve" horiz-adv-x="740" unicode="&#364;" /><glyph d="M371 67C264 67 227 113 221 191C218 247 218 413 222 499C223 536 240 549 275 549C291 549 311 549 330 548C328 572 328 602 330 628C286 626 80 626 41 628C43 601 43 574 41 548C54 549 68 549 81 549C115 549 127 535 127 498C128 421 125 266 127 180C128 66 206 -14 370 -14C530 -14 605 64 607 176C609 263 607 420 608 498C608 532 624 549 657 549C669 549 682 549 699 548C697 574 697 602 699 628C660 626 454 626 410 628C412 602 412 573 410 548C429 549 445 549 464 549C501 549 514 539 516 499C520 402 520 246 516 191C511 113 479 67 371 67ZM489 670C504 686 530 704 551 719C510 750 437 818 415 847C399 846 379 846 370 846C361 846 341 846 325 847C302 817 229 750 189 719C210 704 236 686 251 670C294 710 340 752 370 788C399 752 446 709 489 670Z" glyph-name="Ucircumflex" horiz-adv-x="740" unicode="&#219;" /><glyph d="M371 67C264 67 227 113 221 191C218 247 218 413 222 499C223 536 240 549 275 549C291 549 311 549 330 548C328 572 328 602 330 628C286 626 80 626 41 628C43 601 43 574 41 548C54 549 68 549 81 549C115 549 127 535 127 498C128 421 125 266 127 180C128 66 206 -14 370 -14C530 -14 605 64 607 176C609 263 607 420 608 498C608 532 624 549 657 549C669 549 682 549 699 548C697 574 697 602 699 628C660 626 454 626 410 628C412 602 412 573 410 548C429 549 445 549 464 549C501 549 514 539 516 499C520 402 520 246 516 191C511 113 479 67 371 67ZM336 761C336 804 307 830 263 830C218 830 189 805 189 761C189 717 218 691 263 691C307 691 336 718 336 761ZM552 761C552 804 523 830 479 830C435 830 405 805 405 761C405 717 435 691 479 691C522 691 552 718 552 761Z" glyph-name="Udieresis" horiz-adv-x="740" unicode="&#220;" /><glyph d="M371 67C264 67 227 113 221 191C218 247 218 413 222 499C223 536 240 549 275 549C291 549 311 549 330 548C328 572 328 602 330 628C286 626 80 626 41 628C43 601 43 574 41 548C54 549 68 549 81 549C115 549 127 535 127 498C128 421 125 266 127 180C128 66 206 -14 370 -14C530 -14 605 64 607 176C609 263 607 420 608 498C608 532 624 549 657 549C669 549 682 549 699 548C697 574 697 602 699 628C660 626 454 626 410 628C412 602 412 573 410 548C429 549 445 549 464 549C501 549 514 539 516 499C520 402 520 246 516 191C511 113 479 67 371 67ZM440 682C398 698 196 762 145 773C156 795 172 841 178 862C227 837 418 759 462 742C455 729 443 698 440 682Z" glyph-name="Ugrave" horiz-adv-x="740" unicode="&#217;" /><glyph d="M371 67C264 67 227 113 221 191C218 247 218 413 222 499C223 536 240 549 275 549C291 549 311 549 330 548C328 572 328 602 330 628C286 626 80 626 41 628C43 601 43 574 41 548C54 549 68 549 81 549C115 549 127 535 127 498C128 421 125 266 127 180C128 66 206 -14 370 -14C530 -14 605 64 607 176C609 263 607 420 608 498C608 532 624 549 657 549C669 549 682 549 699 548C697 574 697 602 699 628C660 626 454 626 410 628C412 602 412 573 410 548C429 549 445 549 464 549C501 549 514 539 516 499C520 402 520 246 516 191C511 113 479 67 371 67ZM445 674C468 698 581 802 607 825C587 840 563 862 548 878C526 851 422 742 398 717C413 705 431 689 445 674ZM294 675C315 701 421 815 446 841C427 853 403 873 387 888C366 860 268 742 246 716C261 706 278 691 294 675Z" glyph-name="Uhungarumlaut" horiz-adv-x="740" unicode="&#368;" /><glyph d="M371 67C264 67 227 113 221 191C218 247 218 413 222 499C223 536 240 549 275 549C291 549 311 549 330 548C328 572 328 602 330 628C286 626 80 626 41 628C43 601 43 574 41 548C54 549 68 549 81 549C115 549 127 535 127 498C128 421 125 266 127 180C128 66 206 -14 370 -14C530 -14 605 64 607 176C609 263 607 420 608 498C608 532 624 549 657 549C669 549 682 549 699 548C697 574 697 602 699 628C660 626 454 626 410 628C412 602 412 573 410 548C429 549 445 549 464 549C501 549 514 539 516 499C520 402 520 246 516 191C511 113 479 67 371 67ZM158 805C161 779 161 751 158 723C207 725 526 725 582 723C579 749 581 777 582 805C526 803 207 803 158 805Z" glyph-name="Umacron" horiz-adv-x="740" unicode="&#362;" /><glyph d="M615 -227C607 -203 600 -171 597 -147C575 -158 558 -161 538 -161C491 -161 465 -140 465 -104C465 -21 607 28 607 176C607 262 607 420 608 498C608 532 624 549 657 549C669 549 682 549 699 548C697 574 697 602 699 628C659 626 454 626 410 628C412 602 412 573 410 548C429 549 445 549 464 549C501 549 514 539 516 499C521 402 519 247 516 191C511 113 479 67 371 67C264 67 227 113 221 191C218 246 219 413 222 499C223 536 240 549 275 549C291 549 311 550 330 548C328 572 328 602 330 628C286 626 81 626 41 628C43 602 43 574 41 548C54 549 68 549 81 549C115 549 127 535 127 498C128 421 126 265 127 180C128 66 206 -14 370 -14C421 -14 463 -6 497 8C444 -32 385 -69 385 -138C385 -202 439 -244 524 -244C559 -244 591 -237 615 -227Z" glyph-name="Uogonek" horiz-adv-x="740" unicode="&#370;" /><glyph d="M371 67C264 67 227 113 221 191C218 247 218 413 222 499C223 536 240 549 275 549C291 549 311 549 330 548C328 572 328 602 330 628C286 626 80 626 41 628C43 601 43 574 41 548C54 549 68 549 81 549C115 549 127 535 127 498C128 421 125 266 127 180C128 66 206 -14 370 -14C530 -14 605 64 607 176C609 263 607 420 608 498C608 532 624 549 657 549C669 549 682 549 699 548C697 574 697 602 699 628C660 626 454 626 410 628C412 602 412 573 410 548C429 549 445 549 464 549C501 549 514 539 516 499C520 402 520 246 516 191C511 113 479 67 371 67ZM264 781C264 717 311 680 369 680C428 680 474 717 474 781C474 844 428 881 369 881C311 881 264 844 264 781ZM323 781C323 812 344 827 369 827C395 827 415 812 415 781C415 750 395 734 369 734C344 734 323 750 323 781Z" glyph-name="Uring" horiz-adv-x="740" unicode="&#366;" /><glyph d="M371 67C264 67 227 113 221 191C218 247 218 413 222 499C223 536 240 549 275 549C291 549 311 549 330 548C328 572 328 602 330 628C286 626 80 626 41 628C43 601 43 574 41 548C54 549 68 549 81 549C115 549 127 535 127 498C128 421 125 266 127 180C128 66 206 -14 370 -14C530 -14 605 64 607 176C609 263 607 420 608 498C608 532 624 549 657 549C669 549 682 549 699 548C697 574 697 602 699 628C660 626 454 626 410 628C412 602 412 573 410 548C429 549 445 549 464 549C501 549 514 539 516 499C520 402 520 246 516 191C511 113 479 67 371 67ZM294 849C202 849 173 781 179 690C204 691 228 691 247 690C243 744 256 779 293 779C319 779 332 763 349 739C370 710 397 677 460 677C552 677 581 745 575 836C550 834 526 834 507 836C512 782 498 747 462 747C435 747 422 764 405 786C384 816 357 849 294 849Z" glyph-name="Utilde" horiz-adv-x="740" unicode="&#360;" /><glyph d="M436 0C493 158 582 412 622 501C639 539 656 547 683 548C697 548 704 548 711 547C710 571 710 607 711 628C675 625 459 626 424 628C425 601 425 574 424 548H481C515 548 524 533 524 512C524 498 518 485 512 465C479 362 412 188 367 69C330 176 261 361 229 461C221 485 214 505 214 519C214 538 226 548 251 548H323C322 576 322 601 323 628C280 626 68 625 27 628C29 604 29 572 27 548H50C83 548 96 536 109 503C148 404 257 114 292 0C322 2 408 2 436 0Z" glyph-name="V" horiz-adv-x="740" unicode="V" /><glyph d="M571 0C596 126 654 402 679 497C690 540 700 547 735 547C733 574 733 602 735 628C705 626 507 627 476 628C477 610 478 570 476 547C492 548 517 548 549 548C584 548 595 531 589 496C580 439 565 371 551 297C539 222 526 156 516 98H505C493 145 479 199 466 247C441 329 413 413 398 470C372 469 349 469 325 470C313 420 291 336 260 248C242 195 230 142 222 97H214C208 152 201 212 189 278C171 368 153 464 152 499C150 538 161 548 193 548H252C250 574 250 602 252 628C225 626 33 625 4 628C5 611 5 573 4 549C36 549 52 538 59 503C85 384 134 104 149 1C178 3 221 2 256 0C269 51 297 137 321 213C337 268 349 320 357 363H363C372 319 386 266 403 209C427 136 453 53 467 0C508 2 541 3 571 0Z" glyph-name="W" horiz-adv-x="740" unicode="W" /><glyph d="M571 0C596 126 654 402 679 497C690 540 700 547 735 547C733 574 733 602 735 628C705 626 507 627 476 628C477 610 478 570 476 547C492 548 517 548 549 548C584 548 595 531 589 496C580 439 565 371 551 297C539 222 526 156 516 98H505C493 145 479 199 466 247C441 329 413 413 398 470C372 469 349 469 325 470C313 420 291 336 260 248C242 195 230 142 222 97H214C208 152 201 212 189 278C171 368 153 464 152 499C150 538 161 548 193 548H252C250 574 250 602 252 628C225 626 33 625 4 628C5 611 5 573 4 549C36 549 52 538 59 503C85 384 134 104 149 1C178 3 221 2 256 0C269 51 297 137 321 213C337 268 349 320 357 363H363C372 319 386 266 403 209C427 136 453 53 467 0C508 2 541 3 571 0ZM291 682C333 698 535 762 586 773C575 795 559 841 553 862C504 837 313 759 269 742C276 729 288 698 291 682Z" glyph-name="Wacute" horiz-adv-x="740" unicode="&#7810;" /><glyph d="M571 0C596 126 654 402 679 497C690 540 700 547 735 547C733 574 733 602 735 628C705 626 507 627 476 628C477 610 478 570 476 547C492 548 517 548 549 548C584 548 595 531 589 496C580 439 565 371 551 297C539 222 526 156 516 98H505C493 145 479 199 466 247C441 329 413 413 398 470C372 469 349 469 325 470C313 420 291 336 260 248C242 195 230 142 222 97H214C208 152 201 212 189 278C171 368 153 464 152 499C150 538 161 548 193 548H252C250 574 250 602 252 628C225 626 33 625 4 628C5 611 5 573 4 549C36 549 52 538 59 503C85 384 134 104 149 1C178 3 221 2 256 0C269 51 297 137 321 213C337 268 349 320 357 363H363C372 319 386 266 403 209C427 136 453 53 467 0C508 2 541 3 571 0ZM484 670C499 686 525 704 546 719C505 750 432 818 410 847C394 846 374 846 365 846C356 846 336 846 320 847C297 817 224 750 184 719C205 704 231 686 246 670C289 710 335 752 365 788C394 752 441 709 484 670Z" glyph-name="Wcircumflex" horiz-adv-x="740" unicode="&#372;" /><glyph d="M571 0C596 126 654 402 679 497C690 540 700 547 735 547C733 574 733 602 735 628C705 626 507 627 476 628C477 610 478 570 476 547C492 548 517 548 549 548C584 548 595 531 589 496C580 439 565 371 551 297C539 222 526 156 516 98H505C493 145 479 199 466 247C441 329 413 413 398 470C372 469 349 469 325 470C313 420 291 336 260 248C242 195 230 142 222 97H214C208 152 201 212 189 278C171 368 153 464 152 499C150 538 161 548 193 548H252C250 574 250 602 252 628C225 626 33 625 4 628C5 611 5 573 4 549C36 549 52 538 59 503C85 384 134 104 149 1C178 3 221 2 256 0C269 51 297 137 321 213C337 268 349 320 357 363H363C372 319 386 266 403 209C427 136 453 53 467 0C508 2 541 3 571 0ZM333 775C333 818 304 844 260 844C215 844 186 819 186 775C186 731 215 705 260 705C304 705 333 732 333 775ZM549 775C549 818 520 844 476 844C432 844 402 819 402 775C402 731 432 705 476 705C519 705 549 732 549 775Z" glyph-name="Wdieresis" horiz-adv-x="740" unicode="&#7812;" /><glyph d="M571 0C596 126 654 402 679 497C690 540 700 547 735 547C733 574 733 602 735 628C705 626 507 627 476 628C477 610 478 570 476 547C492 548 517 548 549 548C584 548 595 531 589 496C580 439 565 371 551 297C539 222 526 156 516 98H505C493 145 479 199 466 247C441 329 413 413 398 470C372 469 349 469 325 470C313 420 291 336 260 248C242 195 230 142 222 97H214C208 152 201 212 189 278C171 368 153 464 152 499C150 538 161 548 193 548H252C250 574 250 602 252 628C225 626 33 625 4 628C5 611 5 573 4 549C36 549 52 538 59 503C85 384 134 104 149 1C178 3 221 2 256 0C269 51 297 137 321 213C337 268 349 320 357 363H363C372 319 386 266 403 209C427 136 453 53 467 0C508 2 541 3 571 0ZM423 682C426 698 438 729 445 742C401 759 210 837 161 862C155 841 139 795 128 773C179 762 381 698 423 682Z" glyph-name="Wgrave" horiz-adv-x="740" unicode="&#7808;" /><glyph d="M714 0C712 19 712 60 714 81C705 80 695 80 688 80C660 80 641 88 614 116C564 170 499 243 442 309C499 377 570 466 612 513C636 540 649 547 683 547H713C711 571 711 603 713 628C679 626 463 626 427 628C428 609 429 569 428 547H479C507 547 519 536 507 515C494 487 460 446 381 350C337 398 276 465 251 504C234 528 246 547 277 547C300 547 332 548 342 547C340 573 341 602 342 628C305 626 72 625 34 628C36 609 36 568 34 547C42 548 53 548 60 548C89 548 103 544 127 517C170 470 245 385 304 316C251 252 181 165 140 119C115 91 100 82 64 81C57 81 45 81 32 82C34 57 34 25 32 0C67 2 282 2 318 0C317 19 317 58 318 82C307 81 285 81 263 81C237 81 229 99 241 119C255 142 286 181 363 276C409 229 470 163 497 122C512 99 497 81 470 81C446 81 415 81 404 82C406 56 406 25 404 0C441 2 677 3 714 0Z" glyph-name="X" horiz-adv-x="740" unicode="X" /><glyph d="M606 0C604 27 605 56 607 83C581 82 531 80 471 80C430 80 417 96 416 125C415 145 413 170 413 198C481 310 583 451 619 506C646 545 657 552 692 552C700 552 710 552 718 551C716 574 715 601 718 628C682 626 453 626 414 628C416 610 416 571 414 551C423 551 450 552 482 552C516 552 526 533 513 506C483 451 415 334 370 262C322 335 248 453 225 507C211 541 225 553 260 553C280 553 302 553 324 552C322 575 322 604 324 628C288 627 59 626 21 628C23 610 22 570 21 551C30 552 39 552 49 552C77 552 90 547 114 510C151 454 260 300 318 199C317 170 316 144 315 125C313 87 293 80 261 80C205 80 165 80 143 83C145 56 144 28 142 0C198 3 540 5 606 0Z" glyph-name="Y" horiz-adv-x="740" unicode="Y" /><glyph d="M606 0C604 27 605 56 607 83C581 82 531 80 471 80C430 80 417 96 416 125C415 145 413 170 413 198C481 310 583 451 619 506C646 545 657 552 692 552C700 552 710 552 718 551C716 574 715 601 718 628C682 626 453 626 414 628C416 610 416 571 414 551C423 551 450 552 482 552C516 552 526 533 513 506C483 451 415 334 370 262C322 335 248 453 225 507C211 541 225 553 260 553C280 553 302 553 324 552C322 575 322 604 324 628C288 627 59 626 21 628C23 610 22 570 21 551C30 552 39 552 49 552C77 552 90 547 114 510C151 454 260 300 318 199C317 170 316 144 315 125C313 87 293 80 261 80C205 80 165 80 143 83C145 56 144 28 142 0C198 3 540 5 606 0ZM304 682C346 698 548 762 599 773C588 795 572 841 566 862C517 837 326 759 282 742C289 729 301 698 304 682Z" glyph-name="Yacute" horiz-adv-x="740" unicode="&#221;" /><glyph d="M606 0C604 27 605 56 607 83C581 82 531 80 471 80C430 80 417 96 416 125C415 145 413 170 413 198C481 310 583 451 619 506C646 545 657 552 692 552C700 552 710 552 718 551C716 574 715 601 718 628C682 626 453 626 414 628C416 610 416 571 414 551C423 551 450 552 482 552C516 552 526 533 513 506C483 451 415 334 370 262C322 335 248 453 225 507C211 541 225 553 260 553C280 553 302 553 324 552C322 575 322 604 324 628C288 627 59 626 21 628C23 610 22 570 21 551C30 552 39 552 49 552C77 552 90 547 114 510C151 454 260 300 318 199C317 170 316 144 315 125C313 87 293 80 261 80C205 80 165 80 143 83C145 56 144 28 142 0C198 3 540 5 606 0ZM488 670C503 686 529 704 550 719C509 750 436 818 414 847C398 846 378 846 369 846C360 846 340 846 324 847C301 817 228 750 188 719C209 704 235 686 250 670C293 710 339 752 369 788C398 752 445 709 488 670Z" glyph-name="Ycircumflex" horiz-adv-x="740" unicode="&#374;" /><glyph d="M606 0C604 27 605 56 607 83C581 82 531 80 471 80C430 80 417 96 416 125C415 145 413 170 413 198C481 310 583 451 619 506C646 545 657 552 692 552C700 552 710 552 718 551C716 574 715 601 718 628C682 626 453 626 414 628C416 610 416 571 414 551C423 551 450 552 482 552C516 552 526 533 513 506C483 451 415 334 370 262C322 335 248 453 225 507C211 541 225 553 260 553C280 553 302 553 324 552C322 575 322 604 324 628C288 627 59 626 21 628C23 610 22 570 21 551C30 552 39 552 49 552C77 552 90 547 114 510C151 454 260 300 318 199C317 170 316 144 315 125C313 87 293 80 261 80C205 80 165 80 143 83C145 56 144 28 142 0C198 3 540 5 606 0ZM335 761C335 804 306 830 262 830C217 830 188 805 188 761C188 717 217 691 262 691C306 691 335 718 335 761ZM551 761C551 804 522 830 478 830C434 830 404 805 404 761C404 717 434 691 478 691C521 691 551 718 551 761Z" glyph-name="Ydieresis" horiz-adv-x="740" unicode="&#376;" /><glyph d="M628 0C631 49 652 188 665 236C633 240 604 245 576 251C570 212 565 168 552 128C542 93 521 81 474 81C396 81 283 82 203 80L200 90C249 135 317 201 388 272C484 367 585 473 646 532C642 553 641 595 642 628C527 625 228 625 115 628C113 580 91 438 80 387C110 385 140 380 170 375C174 414 180 457 191 498C199 535 216 543 255 543C329 543 449 542 532 545L536 534C482 487 412 418 345 348C241 246 137 144 77 91C79 67 82 26 80 0C185 5 508 4 628 0Z" glyph-name="Z" horiz-adv-x="740" unicode="Z" /><glyph d="M628 0C631 49 652 188 665 236C633 240 604 245 576 251C570 212 565 168 552 128C542 93 521 81 474 81C396 81 283 82 203 80L200 90C249 135 317 201 388 272C484 367 585 473 646 532C642 553 641 595 642 628C527 625 228 625 115 628C113 580 91 438 80 387C110 385 140 380 170 375C174 414 180 457 191 498C199 535 216 543 255 543C329 543 449 542 532 545L536 534C482 487 412 418 345 348C241 246 137 144 77 91C79 67 82 26 80 0C185 5 508 4 628 0ZM292 682C334 698 536 762 587 773C576 795 560 841 554 862C505 837 314 759 270 742C277 729 289 698 292 682Z" glyph-name="Zacute" horiz-adv-x="740" unicode="&#377;" /><glyph d="M628 0C631 49 652 188 665 236C633 240 604 245 576 251C570 212 565 168 552 128C542 93 521 81 474 81C396 81 283 82 203 80L200 90C249 135 317 201 388 272C484 367 585 473 646 532C642 553 641 595 642 628C527 625 228 625 115 628C113 580 91 438 80 387C110 385 140 380 170 375C174 414 180 457 191 498C199 535 216 543 255 543C329 543 449 542 532 545L536 534C482 487 412 418 345 348C241 246 137 144 77 91C79 67 82 26 80 0C185 5 508 4 628 0ZM418 672C440 701 513 769 554 800C533 815 507 833 492 849C449 810 402 767 373 731C343 767 297 809 254 849C239 833 213 815 192 800C232 769 305 702 328 672C344 673 364 673 373 673C382 673 402 673 418 672Z" glyph-name="Zcaron" horiz-adv-x="740" unicode="&#381;" /><glyph d="M628 0C631 49 652 188 665 236C633 240 604 245 576 251C570 212 565 168 552 128C542 93 521 81 474 81C396 81 283 82 203 80L200 90C249 135 317 201 388 272C484 367 585 473 646 532C642 553 641 595 642 628C527 625 228 625 115 628C113 580 91 438 80 387C110 385 140 380 170 375C174 414 180 457 191 498C199 535 216 543 255 543C329 543 449 542 532 545L536 534C482 487 412 418 345 348C241 246 137 144 77 91C79 67 82 26 80 0C185 5 508 4 628 0ZM455 773C455 815 426 852 373 852C319 852 290 815 290 773C290 729 314 695 373 695C426 695 455 729 455 773Z" glyph-name="Zdotaccent" horiz-adv-x="740" unicode="&#379;" /><glyph d="M287 67C210 67 173 86 173 139C173 193 217 219 344 219C384 219 435 214 483 208C483 113 417 67 287 67ZM574 136C574 209 577 286 577 349C577 441 523 499 365 499C208 499 101 455 101 378C101 341 125 315 172 315C219 315 248 340 248 375C248 387 244 398 239 407C271 417 311 424 352 424C450 424 484 386 484 320C484 306 484 285 483 260C433 270 380 273 331 273C157 273 77 231 77 128C77 28 147 -10 262 -10C358 -10 446 19 484 97H491C493 73 495 44 498 0C548 2 627 2 687 0C685 28 685 58 687 86C668 84 637 83 623 83C584 83 574 101 574 136Z" glyph-name="a" horiz-adv-x="740" unicode="a" /><glyph d="M287 67C210 67 173 86 173 139C173 193 217 219 344 219C384 219 435 214 483 208C483 113 417 67 287 67ZM574 136C574 209 577 286 577 349C577 441 523 499 365 499C208 499 101 455 101 378C101 341 125 315 172 315C219 315 248 340 248 375C248 387 244 398 239 407C271 417 311 424 352 424C450 424 484 386 484 320C484 306 484 285 483 260C433 270 380 273 331 273C157 273 77 231 77 128C77 28 147 -10 262 -10C358 -10 446 19 484 97H491C493 73 495 44 498 0C548 2 627 2 687 0C685 28 685 58 687 86C668 84 637 83 623 83C584 83 574 101 574 136ZM295 552C335 572 521 652 570 669C558 689 537 734 528 754C482 724 309 631 266 610C274 598 289 567 295 552Z" glyph-name="aacute" horiz-adv-x="740" unicode="&#225;" /><glyph d="M287 67C210 67 173 86 173 139C173 193 217 219 344 219C384 219 435 214 483 208C483 113 417 67 287 67ZM574 136C574 209 577 286 577 349C577 441 523 499 365 499C208 499 101 455 101 378C101 341 125 315 172 315C219 315 248 340 248 375C248 387 244 398 239 407C271 417 311 424 352 424C450 424 484 386 484 320C484 306 484 285 483 260C433 270 380 273 331 273C157 273 77 231 77 128C77 28 147 -10 262 -10C358 -10 446 19 484 97H491C493 73 495 44 498 0C548 2 627 2 687 0C685 28 685 58 687 86C668 84 637 83 623 83C584 83 574 101 574 136ZM357 560C450 560 516 607 548 717C526 722 489 733 470 741C450 664 410 631 357 631C305 631 268 663 246 741C228 733 191 723 167 717C199 607 264 560 357 560Z" glyph-name="abreve" horiz-adv-x="740" unicode="&#259;" /><glyph d="M287 67C210 67 173 86 173 139C173 193 217 219 344 219C384 219 435 214 483 208C483 113 417 67 287 67ZM574 136C574 209 577 286 577 349C577 441 523 499 365 499C208 499 101 455 101 378C101 341 125 315 172 315C219 315 248 340 248 375C248 387 244 398 239 407C271 417 311 424 352 424C450 424 484 386 484 320C484 306 484 285 483 260C433 270 380 273 331 273C157 273 77 231 77 128C77 28 147 -10 262 -10C358 -10 446 19 484 97H491C493 73 495 44 498 0C548 2 627 2 687 0C685 28 685 58 687 86C668 84 637 83 623 83C584 83 574 101 574 136ZM482 547C498 563 525 580 545 595C488 644 430 706 408 744C393 743 373 743 364 743C355 743 335 743 319 744C298 706 240 644 182 595C203 580 230 563 245 547C290 588 336 638 364 679C392 638 437 588 482 547Z" glyph-name="acircumflex" horiz-adv-x="740" unicode="&#226;" /><glyph d="M29 552C69 572 255 652 304 669C292 689 271 734 262 754C216 724 43 631 0 610C8 598 23 567 29 552Z" glyph-name="acute" horiz-adv-x="304" unicode="&#180;" /><glyph d="M22 682C64 698 266 762 317 773C306 795 290 841 284 862C235 837 44 759 0 742C7 729 19 698 22 682Z" glyph-name="acute.case" horiz-adv-x="317" /><glyph d="M287 67C210 67 173 86 173 139C173 193 217 219 344 219C384 219 435 214 483 208C483 113 417 67 287 67ZM574 136C574 209 577 286 577 349C577 441 523 499 365 499C208 499 101 455 101 378C101 341 125 315 172 315C219 315 248 340 248 375C248 387 244 398 239 407C271 417 311 424 352 424C450 424 484 386 484 320C484 306 484 285 483 260C433 270 380 273 331 273C157 273 77 231 77 128C77 28 147 -10 262 -10C358 -10 446 19 484 97H491C493 73 495 44 498 0C548 2 627 2 687 0C685 28 685 58 687 86C668 84 637 83 623 83C584 83 574 101 574 136ZM330 647C330 690 301 716 257 716C212 716 183 691 183 647C183 603 212 577 257 577C301 577 330 604 330 647ZM546 647C546 690 517 716 473 716C429 716 399 691 399 647C399 603 429 577 473 577C516 577 546 604 546 647Z" glyph-name="adieresis" horiz-adv-x="740" unicode="&#228;" /><glyph d="M526 422C579 422 618 391 607 278C541 276 461 276 412 276C419 375 458 422 526 422ZM202 70C147 70 121 93 120 138C120 188 154 217 230 217C259 217 295 213 327 208C327 115 279 70 202 70ZM703 53C687 72 667 103 654 124C630 98 599 71 541 71C457 71 418 120 412 215C484 217 613 216 694 215C697 235 699 260 699 293C699 445 629 499 539 499C455 499 406 461 379 397C363 460 319 499 224 499C120 499 49 455 49 387C49 344 76 318 120 318C164 318 188 344 188 379C188 395 182 409 172 418C187 422 205 424 227 424C305 424 328 394 328 320C328 306 328 285 327 260C294 268 257 273 216 273C92 273 28 219 28 128C28 36 80 -10 174 -10C256 -10 325 36 354 121C372 38 437 -10 542 -10C616 -10 669 21 703 53Z" glyph-name="ae" horiz-adv-x="740" unicode="&#230;" /><glyph d="M526 422C579 422 618 391 607 278C541 276 461 276 412 276C419 375 458 422 526 422ZM202 70C147 70 121 93 120 138C120 188 154 217 230 217C259 217 295 213 327 208C327 115 279 70 202 70ZM703 53C687 72 667 103 654 124C630 98 599 71 541 71C457 71 418 120 412 215C484 217 613 216 694 215C697 235 699 260 699 293C699 445 629 499 539 499C455 499 406 461 379 397C363 460 319 499 224 499C120 499 49 455 49 387C49 344 76 318 120 318C164 318 188 344 188 379C188 395 182 409 172 418C187 422 205 424 227 424C305 424 328 394 328 320C328 306 328 285 327 260C294 268 257 273 216 273C92 273 28 219 28 128C28 36 80 -10 174 -10C256 -10 325 36 354 121C372 38 437 -10 542 -10C616 -10 669 21 703 53ZM323 552C363 572 549 652 598 669C586 689 565 734 556 754C510 724 337 631 294 610C302 598 317 567 323 552Z" glyph-name="aeacute" horiz-adv-x="740" unicode="&#509;" /><glyph d="M287 67C210 67 173 86 173 139C173 193 217 219 344 219C384 219 435 214 483 208C483 113 417 67 287 67ZM574 136C574 209 577 286 577 349C577 441 523 499 365 499C208 499 101 455 101 378C101 341 125 315 172 315C219 315 248 340 248 375C248 387 244 398 239 407C271 417 311 424 352 424C450 424 484 386 484 320C484 306 484 285 483 260C433 270 380 273 331 273C157 273 77 231 77 128C77 28 147 -10 262 -10C358 -10 446 19 484 97H491C493 73 495 44 498 0C548 2 627 2 687 0C685 28 685 58 687 86C668 84 637 83 623 83C584 83 574 101 574 136ZM433 552C439 567 454 598 462 610C419 631 246 724 200 754C191 734 170 689 158 669C207 652 393 572 433 552Z" glyph-name="agrave" horiz-adv-x="740" unicode="&#224;" /><glyph d="M287 67C210 67 173 86 173 139C173 193 217 219 344 219C384 219 435 214 483 208C483 113 417 67 287 67ZM574 136C574 209 577 286 577 349C577 441 523 499 365 499C208 499 101 455 101 378C101 341 125 315 172 315C219 315 248 340 248 375C248 387 244 398 239 407C271 417 311 424 352 424C450 424 484 386 484 320C484 306 484 285 483 260C433 270 380 273 331 273C157 273 77 231 77 128C77 28 147 -10 262 -10C358 -10 446 19 484 97H491C493 73 495 44 498 0C548 2 627 2 687 0C685 28 685 58 687 86C668 84 637 83 623 83C584 83 574 101 574 136ZM152 686C155 659 155 631 152 603C201 605 521 605 577 603C574 629 576 657 577 686C521 684 201 684 152 686Z" glyph-name="amacron" horiz-adv-x="740" unicode="&#257;" /><glyph d="M212 475C212 528 243 570 313 570C368 570 396 541 396 493C396 447 363 405 239 376C221 411 212 445 212 475ZM294 57C181 57 119 106 119 193C119 245 137 282 197 303C242 229 319 144 416 84C382 68 343 57 294 57ZM533 248C533 218 516 173 478 131C389 179 318 249 271 321C410 359 477 409 477 497C477 576 433 641 314 641C185 641 130 570 130 481C130 439 143 401 165 359C72 330 29 271 29 184C29 60 126 -14 296 -14C383 -14 444 11 486 44C544 13 596 -4 650 -4C664 -4 678 -4 699 -1C695 19 694 61 695 83C680 80 665 80 648 80C613 81 579 87 542 100C581 150 602 204 613 243C619 266 627 277 653 277C677 277 694 276 706 275C705 301 705 324 706 347C675 345 483 345 449 347C450 324 450 302 449 277C462 278 476 278 500 278C530 278 533 266 533 248Z" glyph-name="ampersand" horiz-adv-x="740" unicode="&amp;" /><glyph d="M574 136C574 209 577 286 577 349C577 441 523 499 365 499C208 499 101 455 101 378C101 341 125 315 172 315C219 315 248 340 248 375C248 387 244 398 239 407C271 417 311 424 352 424C450 424 484 386 484 320C484 306 484 285 483 260C433 270 380 273 331 273C157 273 77 231 77 128C77 28 147 -10 262 -10C358 -10 446 19 484 97H491C493 73 495 44 498 0C521 1 551 1 582 1C520 -18 475 -58 475 -128C475 -200 529 -244 614 -244C649 -244 681 -237 705 -227C697 -203 690 -171 687 -147C665 -158 648 -161 628 -161C581 -161 555 -140 555 -98C555 -38 608 0 687 0C685 28 685 58 687 86C668 84 637 83 623 83C584 83 574 101 574 136ZM287 67C210 67 173 86 173 139C173 193 217 219 344 219C384 219 435 214 483 208C483 113 417 67 287 67Z" glyph-name="aogonek" horiz-adv-x="740" unicode="&#261;" /><glyph d="M287 67C210 67 173 86 173 139C173 193 217 219 344 219C384 219 435 214 483 208C483 113 417 67 287 67ZM574 136C574 209 577 286 577 349C577 441 523 499 365 499C208 499 101 455 101 378C101 341 125 315 172 315C219 315 248 340 248 375C248 387 244 398 239 407C271 417 311 424 352 424C450 424 484 386 484 320C484 306 484 285 483 260C433 270 380 273 331 273C157 273 77 231 77 128C77 28 147 -10 262 -10C358 -10 446 19 484 97H491C493 73 495 44 498 0C548 2 627 2 687 0C685 28 685 58 687 86C668 84 637 83 623 83C584 83 574 101 574 136ZM245 666C245 595 298 550 364 550C431 550 483 595 483 666C483 737 431 780 364 780C298 780 245 737 245 666ZM307 666C307 708 333 724 364 724C396 724 421 708 421 666C421 624 396 606 364 606C333 606 307 624 307 666Z" glyph-name="aring" horiz-adv-x="740" unicode="&#229;" /><glyph d="M287 67C210 67 173 86 173 139C173 193 217 219 344 219C384 219 435 214 483 208C483 113 417 67 287 67ZM574 136C574 209 577 286 577 349C577 441 523 499 365 499C208 499 101 455 101 378C101 341 125 315 172 315C219 315 248 340 248 375C248 387 244 398 239 407C271 417 311 424 352 424C450 424 484 386 484 320C484 306 484 285 483 260C433 270 380 273 331 273C157 273 77 231 77 128C77 28 147 -10 262 -10C358 -10 446 19 484 97H491C493 73 495 44 498 0C548 2 627 2 687 0C685 28 685 58 687 86C668 84 637 83 623 83C584 83 574 101 574 136ZM245 666C245 595 298 550 364 550C431 550 483 595 483 666C483 737 431 780 364 780C298 780 245 737 245 666ZM307 666C307 708 333 724 364 724C396 724 421 708 421 666C421 624 396 606 364 606C333 606 307 624 307 666ZM303 815C345 831 547 895 598 906C587 928 571 974 565 995C516 970 325 892 281 875C288 862 300 831 303 815Z" glyph-name="aringacute" horiz-adv-x="740" unicode="&#507;" /><glyph d="M0 304C96 226 189 116 242 9C265 30 296 55 323 69C285 137 197 221 113 266L115 277C180 270 273 260 369 260C465 260 559 270 624 277L626 266C542 221 454 137 415 69C443 55 474 30 497 9C550 116 643 226 739 304C643 382 550 492 497 599C474 578 443 553 415 539C454 471 542 387 626 342L624 331C559 338 465 348 369 348C273 348 180 338 115 331L113 342C197 387 285 471 323 539C296 553 265 578 242 599C189 492 96 382 0 304Z" glyph-name="arrowboth" horiz-adv-x="740" unicode="&#8596;" /><glyph d="M411 1C446 96 575 309 679 397C659 409 618 437 596 456C523 383 442 217 401 109L393 110C399 261 414 590 423 658C407 657 385 657 362 657C339 657 317 657 301 658C310 590 325 261 331 110L323 109C282 217 201 383 128 456C106 437 65 409 45 397C149 309 278 96 313 1C325 2 344 2 362 2C380 2 399 2 411 1Z" glyph-name="arrowdown" horiz-adv-x="740" unicode="&#8595;" /><glyph d="M690 304C690 327 690 349 691 365C623 356 294 341 143 335L142 343C250 384 416 465 489 538C470 560 442 601 430 621C342 517 129 388 34 353C35 341 35 322 35 304C35 286 35 267 34 255C129 220 342 91 430 -13C442 7 470 48 489 70C416 143 250 224 142 265L143 273C294 267 623 252 691 243C690 259 690 281 690 304Z" glyph-name="arrowleft" horiz-adv-x="740" unicode="&#8592;" /><glyph d="M41 306C41 283 41 261 40 245C108 254 437 269 588 275L589 267C481 226 315 145 242 72C261 50 289 9 301 -11C389 93 602 222 697 257C696 269 696 288 696 306C696 324 696 343 697 355C602 390 389 519 301 623C289 603 261 562 242 540C315 467 481 386 589 345L588 337C437 343 108 358 40 367C41 351 41 329 41 306Z" glyph-name="arrowright" horiz-adv-x="740" unicode="&#8594;" /><glyph d="M596 202C618 221 659 249 679 261C575 349 446 562 411 657C399 656 380 656 362 656C344 656 325 656 313 657C278 562 149 349 45 261C65 249 106 221 128 202C201 275 282 441 323 549L331 548C325 397 310 68 301 0C317 1 339 1 362 1C385 1 407 1 423 0C414 68 399 397 393 548L401 549C442 441 523 275 596 202Z" glyph-name="arrowup" horiz-adv-x="740" unicode="&#8593;" /><glyph d="M370 674C292 578 182 485 75 432C96 409 121 378 135 351C203 389 287 477 332 561L343 559C336 494 326 401 326 305C326 209 336 115 343 50L332 48C287 132 203 220 135 259C121 231 96 200 75 177C182 124 292 31 370 -65C448 31 558 124 665 177C644 200 619 231 605 259C537 220 453 132 408 48L397 50C404 115 414 209 414 305C414 401 404 494 397 559L408 561C453 477 537 389 605 351C619 378 644 409 665 432C558 485 448 578 370 674Z" glyph-name="arrowupdn" horiz-adv-x="740" unicode="&#8597;" /><glyph d="M576 147C601 167 633 189 663 207C628 242 433 488 406 533C391 532 379 532 366 532C353 532 341 532 326 533C299 488 104 242 69 207C99 189 130 167 156 147C191 200 215 232 258 293C302 353 337 403 362 447H370C395 403 429 353 473 293C516 232 541 200 576 147Z" glyph-name="asciicircum" horiz-adv-x="740" unicode="^" /><glyph d="M508 149C649 149 687 278 681 420C646 419 611 419 585 420C593 314 571 245 504 245C462 245 437 281 405 327C363 386 320 440 234 440C92 440 53 312 59 169C94 170 129 170 155 169C147 276 170 345 238 345C282 345 306 308 337 264C379 204 421 149 508 149Z" glyph-name="asciitilde" horiz-adv-x="740" unicode="~" /><glyph d="M456 191C485 214 516 236 549 259C521 280 438 361 408 396C456 404 566 419 602 421C588 455 577 492 566 530C537 511 437 456 392 437C398 485 420 597 429 628C391 626 352 627 312 629C321 597 343 483 348 435C303 455 204 510 177 528C166 493 155 456 141 419C172 418 287 402 335 393C302 357 221 280 194 258C226 238 257 215 288 190C300 223 347 324 372 367C396 324 443 224 456 191Z" glyph-name="asterisk" horiz-adv-x="740" unicode="*" /><glyph d="M423 68C375 68 356 101 356 145C356 224 412 254 493 254C507 254 522 252 536 251C530 115 488 68 423 68ZM108 -12C141 5 165 18 188 29C157 84 133 143 133 226C133 371 206 469 361 469C473 469 527 418 537 313C515 315 494 317 473 317C349 317 265 264 265 139C265 44 314 -10 397 -10C468 -10 514 27 532 96H540C542 72 544 44 547 0C589 2 654 2 703 0C702 26 702 59 703 86C690 84 679 83 668 83C628 83 618 103 618 140C618 173 622 244 622 285C622 470 529 550 360 550C140 550 46 400 46 223C46 126 73 47 108 -12Z" glyph-name="at" horiz-adv-x="740" unicode="@" /><glyph d="M430 68C375 68 356 108 356 175C356 276 409 312 489 312C506 312 524 311 538 310C538 304 538 297 538 291H537C537 124 494 68 430 68ZM110 -12C134 2 169 19 190 29C153 96 132 180 132 273C132 445 208 559 367 559C486 559 539 506 539 396C539 387 539 379 539 370C518 373 497 374 476 374C350 374 265 313 265 167C265 55 308 -10 404 -10C473 -10 515 27 532 96H540C542 72 544 44 547 0C589 2 654 2 703 0C702 26 702 59 703 86C690 84 679 83 668 83C628 83 618 103 618 142C618 195 622 332 622 407C622 570 528 639 369 639C141 639 45 472 45 274C45 165 71 59 110 -12Z" glyph-name="at.case" horiz-adv-x="740" /><glyph d="M287 67C210 67 173 86 173 139C173 193 217 219 344 219C384 219 435 214 483 208C483 113 417 67 287 67ZM574 136C574 209 577 286 577 349C577 441 523 499 365 499C208 499 101 455 101 378C101 341 125 315 172 315C219 315 248 340 248 375C248 387 244 398 239 407C271 417 311 424 352 424C450 424 484 386 484 320C484 306 484 285 483 260C433 270 380 273 331 273C157 273 77 231 77 128C77 28 147 -10 262 -10C358 -10 446 19 484 97H491C493 73 495 44 498 0C548 2 627 2 687 0C685 28 685 58 687 86C668 84 637 83 623 83C584 83 574 101 574 136ZM391 667C371 701 344 738 281 738C189 738 160 661 166 560C191 562 215 562 234 560C229 625 242 667 282 667C306 667 317 651 337 618C357 584 384 547 447 547C539 547 568 623 562 724C537 723 513 723 494 724C499 660 485 618 449 618C420 618 409 636 391 667Z" glyph-name="atilde" horiz-adv-x="740" unicode="&#227;" /><glyph d="M123 -1C162 1 186 1 218 0C218 14 218 41 217 70L227 72C262 22 327 -10 424 -10C567 -10 655 73 655 246C655 401 595 499 456 499C345 499 267 443 226 355H218C217 514 221 638 221 675C168 672 79 671 21 672C23 644 23 607 21 585C32 587 53 588 81 588C109 588 122 583 124 549C131 422 133 266 123 -1ZM219 201C219 328 298 411 423 411C524 411 558 338 558 245C558 133 512 70 396 70C290 70 219 107 219 201Z" glyph-name="b" horiz-adv-x="740" unicode="b" /><glyph d="M90 675C129 677 180 682 216 688C291 560 635 -4 700 -93C666 -96 604 -101 573 -107C516 -3 179 547 90 675Z" glyph-name="backslash" horiz-adv-x="740" unicode="\" /><glyph d="M312 -94C349 -93 387 -92 427 -94C419 110 419 506 427 675C388 674 352 675 312 675C318 506 319 108 312 -94Z" glyph-name="bar" horiz-adv-x="740" unicode="|" /><glyph d="M474 -25C378 -25 347 2 347 44C347 107 420 146 420 214C420 262 382 294 299 304V310C382 320 420 352 420 400C420 468 347 507 347 570C347 612 378 639 474 639C497 639 532 637 574 629C573 643 573 658 573 674C573 690 573 708 574 724C535 728 499 730 466 730C326 730 251 683 251 595C251 507 331 477 331 411C331 363 292 344 148 351C149 339 150 324 150 307C150 290 149 275 148 263C292 270 331 251 331 203C331 137 251 107 251 19C251 -69 326 -116 466 -116C499 -116 535 -114 574 -110C573 -94 573 -76 573 -60C573 -44 573 -29 574 -15C532 -23 497 -25 474 -25Z" glyph-name="braceleft" horiz-adv-x="740" unicode="{" /><glyph d="M266 -25C243 -25 208 -23 166 -15C167 -29 167 -44 167 -60C167 -76 167 -94 166 -110C205 -114 241 -116 274 -116C414 -116 489 -69 489 19C489 107 409 137 409 203C409 251 448 270 592 263C591 275 590 290 590 307C590 324 591 339 592 351C448 344 409 363 409 411C409 477 489 507 489 595C489 683 414 730 274 730C241 730 205 728 166 724C167 708 167 690 167 674C167 658 167 643 166 629C208 637 243 639 266 639C362 639 393 612 393 570C393 507 320 468 320 400C320 352 358 320 441 310V304C358 294 320 262 320 214C320 146 393 107 393 44C393 2 362 -25 266 -25Z" glyph-name="braceright" horiz-adv-x="740" unicode="}" /><glyph d="M333 306C333 397 334 556 335 631C413 631 507 629 536 624C535 651 535 687 536 720C440 715 333 716 235 717C235 619 238 400 238 306C238 212 235 -7 235 -105C333 -104 440 -103 536 -108C535 -75 535 -39 536 -12C507 -17 413 -19 335 -19C334 56 333 216 333 306Z" glyph-name="bracketleft" horiz-adv-x="740" unicode="[" /><glyph d="M407 306C407 216 406 56 405 -19C327 -19 233 -17 204 -12C205 -39 205 -75 204 -108C300 -103 407 -104 505 -105C505 -7 502 212 502 306C502 400 505 619 505 717C407 716 300 715 204 720C205 687 205 651 204 624C233 629 327 631 405 631C406 556 407 397 407 306Z" glyph-name="bracketright" horiz-adv-x="740" unicode="]" /><glyph d="M190 560C283 560 349 607 381 717C359 722 322 733 303 741C283 664 243 631 190 631C138 631 101 663 79 741C61 733 24 723 0 717C32 607 97 560 190 560Z" glyph-name="breve" horiz-adv-x="381" unicode="&#728;" /><glyph d="M190 686C283 686 353 726 381 824C359 829 322 840 303 848C286 783 243 756 190 756C138 756 98 783 79 849C61 841 24 830 0 824C28 726 97 686 190 686Z" glyph-name="breve.case" horiz-adv-x="381" /><glyph d="M422 361C423 485 424 601 426 675C388 674 353 674 314 675C317 601 318 485 318 361C353 362 387 362 422 361ZM314 -94C350 -92 386 -92 426 -94C422 -6 420 118 422 243C387 242 353 242 318 243C317 118 316 -6 314 -94Z" glyph-name="brokenbar" horiz-adv-x="740" unicode="&#166;" /><glyph d="M491 290C491 351 448 402 371 402C293 402 250 351 250 290C250 227 286 178 371 178C448 178 491 227 491 290Z" glyph-name="bullet" horiz-adv-x="740" unicode="&#8226;" /><glyph d="M647 76C631 98 617 125 606 149C549 101 473 72 376 72C247 72 172 128 172 243C172 358 248 417 377 417C430 417 481 405 520 385C495 375 477 354 477 324C477 287 506 259 555 259C613 259 643 297 643 342C643 434 533 499 372 499C170 499 74 393 74 244C74 92 171 -10 375 -10C518 -10 594 32 647 76Z" glyph-name="c" horiz-adv-x="740" unicode="c" /><glyph d="M647 76C631 98 617 125 606 149C549 101 473 72 376 72C247 72 172 128 172 243C172 358 248 417 377 417C430 417 481 405 520 385C495 375 477 354 477 324C477 287 506 259 555 259C613 259 643 297 643 342C643 434 533 499 372 499C170 499 74 393 74 244C74 92 171 -10 375 -10C518 -10 594 32 647 76ZM307 552C347 572 533 652 582 669C570 689 549 734 540 754C494 724 321 631 278 610C286 598 301 567 307 552Z" glyph-name="cacute" horiz-adv-x="740" unicode="&#263;" /><glyph d="M226 558C247 596 305 658 363 707C342 722 315 739 300 755C255 714 209 664 181 623C153 664 108 714 63 755C47 739 20 722 0 707C57 658 115 596 137 558C152 559 172 559 181 559C190 559 210 559 226 558Z" glyph-name="caron" horiz-adv-x="363" unicode="&#711;" /><glyph d="M90 651C120 579 117 462 79 381C60 389 33 395 11 398C35 470 33 566 0 624C28 631 63 641 90 651Z" glyph-name="caron.alt" horiz-adv-x="111" /><glyph d="M226 672C248 701 321 769 362 800C341 815 315 833 300 849C257 810 210 767 181 731C151 767 105 809 62 849C47 833 21 815 0 800C40 769 113 702 136 672C152 673 172 673 181 673C190 673 210 673 226 672Z" glyph-name="caron.case" horiz-adv-x="362" /><glyph d="M647 76C631 98 617 125 606 149C549 101 473 72 376 72C247 72 172 128 172 243C172 358 248 417 377 417C430 417 481 405 520 385C495 375 477 354 477 324C477 287 506 259 555 259C613 259 643 297 643 342C643 434 533 499 372 499C170 499 74 393 74 244C74 92 171 -10 375 -10C518 -10 594 32 647 76ZM418 558C439 596 497 658 555 707C534 722 507 739 492 755C447 714 401 664 373 623C345 664 300 714 255 755C239 739 212 722 192 707C249 658 307 596 329 558C344 559 364 559 373 559C382 559 402 559 418 558Z" glyph-name="ccaron" horiz-adv-x="740" unicode="&#269;" /><glyph d="M227 -195C261 -223 317 -243 378 -243C468 -243 511 -199 511 -141C511 -84 474 -56 424 -56C394 -56 370 -66 352 -80C358 -58 365 -31 372 -10C373 -10 374 -10 375 -10C518 -10 594 32 647 76C631 98 617 125 606 149C549 101 473 72 376 72C247 72 172 128 172 243C172 358 248 417 377 417C430 417 481 405 520 385C495 375 477 354 477 324C477 287 506 259 555 259C613 259 643 297 643 342C643 434 533 499 372 499C170 499 74 393 74 244C74 107 152 11 317 -7C309 -37 298 -80 291 -100C309 -104 323 -109 340 -118C356 -103 371 -97 395 -97C421 -97 445 -108 445 -138C445 -168 418 -183 379 -183C335 -183 296 -166 266 -138C257 -158 241 -181 227 -195Z" glyph-name="ccedilla" horiz-adv-x="740" unicode="&#231;" /><glyph d="M647 76C631 98 617 125 606 149C549 101 473 72 376 72C247 72 172 128 172 243C172 358 248 417 377 417C430 417 481 405 520 385C495 375 477 354 477 324C477 287 506 259 555 259C613 259 643 297 643 342C643 434 533 499 372 499C170 499 74 393 74 244C74 92 171 -10 375 -10C518 -10 594 32 647 76ZM492 547C508 563 535 580 555 595C498 644 440 706 418 744C403 743 383 743 374 743C365 743 345 743 329 744C308 706 250 644 192 595C213 580 240 563 255 547C300 588 346 638 374 679C402 638 447 588 492 547Z" glyph-name="ccircumflex" horiz-adv-x="740" unicode="&#265;" /><glyph d="M647 76C631 98 617 125 606 149C549 101 473 72 376 72C247 72 172 128 172 243C172 358 248 417 377 417C430 417 481 405 520 385C495 375 477 354 477 324C477 287 506 259 555 259C613 259 643 297 643 342C643 434 533 499 372 499C170 499 74 393 74 244C74 92 171 -10 375 -10C518 -10 594 32 647 76ZM459 646C459 688 430 725 377 725C323 725 294 688 294 646C294 602 318 568 377 568C430 568 459 602 459 646Z" glyph-name="cdotaccent" horiz-adv-x="740" unicode="&#267;" /><glyph d="M0 -195C34 -223 90 -243 151 -243C241 -243 284 -199 284 -141C284 -84 247 -56 197 -56C167 -56 143 -66 125 -80C134 -47 146 -4 154 17H95C90 -8 73 -73 64 -100C82 -104 96 -109 113 -118C129 -103 144 -97 168 -97C194 -97 218 -108 218 -138C218 -168 191 -183 152 -183C108 -183 69 -166 39 -138C30 -158 14 -181 0 -195Z" glyph-name="cedilla" horiz-adv-x="284" unicode="&#184;" /><glyph d="M324 0C356 2 388 2 421 0C420 16 417 43 417 75C526 82 601 116 647 153C631 176 616 204 605 227C550 184 470 155 375 155C249 155 175 207 175 308C175 410 249 468 377 468C429 468 477 459 515 441C493 430 476 409 476 381C476 343 506 316 554 316C613 316 643 355 643 399C643 478 553 535 417 545C418 581 420 611 422 628C391 626 358 626 326 628C327 611 329 581 330 545C161 532 79 438 79 308C79 180 160 90 329 76C328 43 326 16 324 0Z" glyph-name="cent" horiz-adv-x="740" unicode="&#162;" /><glyph d="M300 547C316 563 343 580 363 595C306 644 248 706 226 744C211 743 191 743 182 743C173 743 153 743 137 744C116 706 58 644 0 595C21 580 48 563 63 547C108 588 154 638 182 679C210 638 255 588 300 547Z" glyph-name="circumflex" horiz-adv-x="363" unicode="&#710;" /><glyph d="M300 670C315 686 341 704 362 719C321 750 248 818 226 847C210 846 190 846 181 846C172 846 152 846 136 847C113 817 40 750 0 719C21 704 47 686 62 670C105 710 151 752 181 788C210 752 257 709 300 670Z" glyph-name="circumflex.case" horiz-adv-x="362" /><glyph d="M463 77C463 125 430 164 371 164C311 164 278 125 278 77C278 28 306 -10 371 -10C430 -10 463 28 463 77ZM463 386C463 434 430 473 371 473C311 473 278 434 278 386C278 337 306 299 371 299C430 299 463 337 463 386Z" glyph-name="colon" horiz-adv-x="740" unicode=":" /><glyph d="M279 -226C424 -194 492 -99 492 16C492 102 449 160 373 160C314 160 278 125 278 77C278 37 302 4 350 4C390 4 417 28 422 64H433C435 52 437 40 437 28C436 -65 369 -120 260 -144C269 -168 275 -199 279 -226Z" glyph-name="comma" horiz-adv-x="740" unicode="," /><glyph d="M28 -322C127 -286 179 -236 179 -163C179 -105 149 -59 89 -59C42 -59 13 -85 13 -123C13 -154 32 -179 72 -179C95 -179 113 -171 123 -156L129 -158C129 -201 85 -238 1 -254C13 -277 21 -300 28 -322Z" glyph-name="commaaccent" horiz-adv-x="179" unicode="&#63171;" /><glyph d="M367 423C413 423 446 394 457 341C475 343 499 343 521 341C518 370 519 447 524 483C508 482 483 482 455 483C456 473 456 446 457 417L450 416C432 464 401 491 346 491C256 491 204 419 204 314C204 209 256 136 371 136C465 136 509 187 534 244C516 253 491 266 475 277C460 236 432 205 374 205C312 205 280 240 280 315C280 389 312 423 367 423ZM370 642C153 642 42 513 42 314C42 115 153 -14 370 -14C587 -14 698 115 698 314C698 513 587 642 370 642ZM628 314C628 133 534 49 370 49C207 49 112 133 112 314C112 494 207 579 370 579C534 579 628 494 628 314Z" glyph-name="copyright" horiz-adv-x="740" unicode="&#169;" /><glyph d="M519 285C519 160 436 79 307 79C197 79 162 145 162 236C162 337 209 397 333 397C444 397 519 365 519 285ZM527 0C573 3 655 4 708 0C707 28 707 58 708 88C696 86 681 85 656 85C620 85 610 103 610 137C610 467 616 641 616 680C551 674 437 673 366 675C368 650 368 618 366 598C381 599 422 601 473 601C501 601 514 596 516 562C519 511 521 457 521 401L513 399C475 449 405 481 303 481C157 481 66 400 66 230C66 83 129 -10 276 -10C393 -10 473 46 514 135H523C525 90 526 45 527 0Z" glyph-name="d" horiz-adv-x="740" unicode="d" /><glyph d="M370 -91C383 -91 403 -91 416 -92C415 13 414 200 418 354H424C448 292 503 263 565 263C644 263 683 308 683 373C683 425 653 465 594 465C542 465 519 428 518 393C518 373 524 354 535 341C474 341 423 372 423 489C423 554 429 683 435 725C419 724 390 724 370 724C350 724 321 724 305 725C311 683 317 554 317 489C317 372 266 341 205 341C216 354 222 373 222 393C221 428 198 465 146 465C87 465 57 425 57 373C57 308 96 263 175 263C237 263 292 292 316 354H322C326 200 325 13 324 -92C337 -91 357 -91 370 -91Z" glyph-name="dagger" horiz-adv-x="740" unicode="&#8224;" /><glyph d="M423 50C423 166 474 197 535 197C524 184 518 166 518 146C519 111 542 74 594 74C653 74 683 114 683 165C683 230 644 276 565 276C503 276 449 247 424 185H417C415 226 415 274 415 311C415 350 416 405 417 451H423C448 388 503 360 565 360C644 360 683 405 683 470C683 522 653 561 594 561C542 561 519 524 518 490C518 470 524 451 535 438C474 438 423 469 423 585C423 624 429 700 433 725C417 724 390 724 370 724C350 724 323 724 307 725C311 700 317 624 317 585C317 469 266 438 205 438C216 451 222 470 222 490C221 524 198 561 146 561C87 561 57 522 57 470C57 405 96 360 175 360C237 360 292 388 317 451H323C325 407 325 349 325 310C325 275 325 224 323 185H316C291 247 237 276 175 276C96 276 57 230 57 165C57 114 87 74 146 74C198 74 221 111 222 146C222 166 216 184 205 197C266 197 318 166 317 50C317 12 311 -64 307 -90C323 -88 350 -88 370 -88C390 -88 417 -88 433 -90C429 -64 423 12 423 50Z" glyph-name="daggerdbl" horiz-adv-x="740" unicode="&#8225;" /><glyph d="M422 285C422 159 355 79 250 79C169 79 142 145 142 236C142 337 179 397 275 397C363 397 422 365 422 285ZM425 0C489 3 601 5 674 0C673 28 673 58 674 88C646 84 611 85 555 85C519 85 509 103 509 137C509 467 515 641 515 680C450 674 336 673 265 675C266 650 266 617 265 598C280 599 321 601 371 601C399 601 413 596 414 562C417 509 420 453 421 396L415 395C384 445 328 477 245 477C123 477 47 397 47 230C47 83 99 -10 219 -10C315 -10 379 46 414 135H423C424 90 424 45 425 0ZM680 686C653 676 618 666 590 659C623 601 625 505 601 433C623 430 650 424 669 416C707 497 710 614 680 686Z" glyph-name="dcaron" horiz-adv-x="740" unicode="&#271;" /><glyph d="M519 267C519 153 437 79 307 79C197 79 162 141 162 225C162 319 209 373 328 373C444 373 519 340 519 267ZM517 675C518 648 518 623 519 599C423 599 326 600 302 602C304 581 304 552 302 532C327 534 425 535 520 535C521 476 521 425 521 376L511 374C475 424 405 456 303 456C157 456 66 381 66 223C66 80 130 -10 276 -10C392 -10 472 46 514 135H523C525 90 526 45 527 0C574 3 655 4 708 0C707 28 707 58 708 88C696 86 681 85 656 85C620 85 610 103 610 137C610 313 612 444 613 534C663 534 704 533 720 532C719 552 719 583 720 602C705 601 665 600 615 599C615 640 616 665 616 677C587 675 547 674 517 675Z" glyph-name="dcroat" horiz-adv-x="740" unicode="&#273;" /><glyph d="M550 463C550 561 489 638 370 638C252 638 191 561 191 463C191 368 252 291 370 291C489 291 550 368 550 463ZM468 463C468 404 429 366 370 366C313 366 271 404 271 463C271 521 313 562 370 562C429 562 468 521 468 463Z" glyph-name="degree" horiz-adv-x="740" unicode="&#176;" /><glyph d="M147 647C147 690 118 716 74 716C29 716 0 691 0 647C0 603 29 577 74 577C118 577 147 604 147 647ZM363 647C363 690 334 716 290 716C246 716 216 691 216 647C216 603 246 577 290 577C333 577 363 604 363 647Z" glyph-name="dieresis" horiz-adv-x="363" unicode="&#168;" /><glyph d="M147 775C147 818 118 844 74 844C29 844 0 819 0 775C0 731 29 705 74 705C118 705 147 732 147 775ZM363 775C363 818 334 844 290 844C246 844 216 819 216 775C216 731 246 705 290 705C333 705 363 732 363 775Z" glyph-name="dieresis.case" horiz-adv-x="363" /><glyph d="M443 156C443 191 418 215 373 215C328 215 304 191 304 156C304 121 324 99 373 99C418 99 443 121 443 156ZM443 511C443 546 418 570 373 570C328 570 304 546 304 511C304 476 324 453 373 453C418 453 443 476 443 511ZM608 379C553 377 194 376 132 379C134 348 134 317 132 288C195 289 553 290 608 288C605 318 605 349 608 379Z" glyph-name="divide" horiz-adv-x="740" unicode="&#247;" /><glyph d="M328 -73C357 -71 387 -71 417 -73C416 -54 414 -20 414 22C574 32 639 96 639 183C639 283 561 323 387 351C233 377 203 403 203 444C203 496 249 524 373 524C424 524 462 517 493 507C479 497 472 481 472 461C472 424 498 399 545 399C596 399 618 431 618 469C618 535 554 594 414 603C415 645 417 680 419 699C389 698 359 698 329 699C330 680 332 646 333 603C179 593 118 530 118 443C118 347 191 304 356 276C516 249 551 223 551 182C551 128 495 103 373 103C299 103 248 112 210 126C222 136 229 150 229 168C229 210 202 235 157 235C106 235 82 202 82 160C82 86 155 28 332 22C331 -20 330 -54 328 -73Z" glyph-name="dollar" horiz-adv-x="740" unicode="$" /><glyph d="M322 -93C352 -91 382 -91 412 -93C411 -74 409 -41 408 0C572 6 638 65 638 153C638 252 564 284 385 308C228 328 205 350 205 388C205 428 241 458 372 458C422 458 459 450 488 441C479 431 474 418 474 401C474 367 501 342 544 342C592 342 612 372 612 408C612 471 549 526 409 534C410 581 411 618 413 639C384 638 354 638 324 639C325 618 327 581 328 534C176 523 120 461 120 383C120 298 181 252 359 230C524 210 549 187 549 149C549 103 497 76 381 76C308 76 249 84 203 99C215 110 221 124 221 139C221 178 192 203 151 203C107 203 81 174 81 132C81 58 158 10 327 1C326 -40 324 -74 322 -93Z" glyph-name="dollar.osf" horiz-adv-x="740" /><glyph d="M165 646C165 688 136 725 83 725C29 725 0 688 0 646C0 602 24 568 83 568C136 568 165 602 165 646Z" glyph-name="dotaccent" horiz-adv-x="165" unicode="&#729;" /><glyph d="M165 773C165 815 136 852 83 852C29 852 0 815 0 773C0 729 24 695 83 695C136 695 165 729 165 773Z" glyph-name="dotaccent.case" horiz-adv-x="165" /><glyph d="M417 135C417 352 424 466 424 491C335 486 178 485 79 488C81 460 81 423 79 402C116 404 186 405 282 405C310 405 324 400 326 366C330 289 329 195 324 129C322 92 308 83 280 83C184 83 113 83 77 86C79 65 79 28 77 0C150 4 584 4 665 0C662 28 663 57 665 86C631 84 552 83 463 83C427 83 417 101 417 135Z" glyph-name="dotlessi" horiz-adv-x="740" unicode="&#305;" /><glyph d="M379 422C487 422 559 391 549 279C422 275 265 276 176 276C188 375 259 422 379 422ZM640 52C623 79 608 105 597 129C556 99 495 71 386 71C251 71 185 120 175 215C290 218 506 216 642 215C644 236 647 260 647 293C647 445 537 499 376 499C173 499 76 394 76 243C76 93 166 -10 386 -10C510 -10 580 18 640 52Z" glyph-name="e" horiz-adv-x="740" unicode="e" /><glyph d="M379 422C487 422 559 391 549 279C422 275 265 276 176 276C188 375 259 422 379 422ZM640 52C623 79 608 105 597 129C556 99 495 71 386 71C251 71 185 120 175 215C290 218 506 216 642 215C644 236 647 260 647 293C647 445 537 499 376 499C173 499 76 394 76 243C76 93 166 -10 386 -10C510 -10 580 18 640 52ZM311 552C351 572 537 652 586 669C574 689 553 734 544 754C498 724 325 631 282 610C290 598 305 567 311 552Z" glyph-name="eacute" horiz-adv-x="740" unicode="&#233;" /><glyph d="M379 422C487 422 559 391 549 279C422 275 265 276 176 276C188 375 259 422 379 422ZM640 52C623 79 608 105 597 129C556 99 495 71 386 71C251 71 185 120 175 215C290 218 506 216 642 215C644 236 647 260 647 293C647 445 537 499 376 499C173 499 76 394 76 243C76 93 166 -10 386 -10C510 -10 580 18 640 52ZM375 560C468 560 534 607 566 717C544 722 507 733 488 741C468 664 428 631 375 631C323 631 286 663 264 741C246 733 209 723 185 717C217 607 282 560 375 560Z" glyph-name="ebreve" horiz-adv-x="740" unicode="&#277;" /><glyph d="M379 422C487 422 559 391 549 279C422 275 265 276 176 276C188 375 259 422 379 422ZM640 52C623 79 608 105 597 129C556 99 495 71 386 71C251 71 185 120 175 215C290 218 506 216 642 215C644 236 647 260 647 293C647 445 537 499 376 499C173 499 76 394 76 243C76 93 166 -10 386 -10C510 -10 580 18 640 52ZM419 558C440 596 498 658 556 707C535 722 508 739 493 755C448 714 402 664 374 623C346 664 301 714 256 755C240 739 213 722 193 707C250 658 308 596 330 558C345 559 365 559 374 559C383 559 403 559 419 558Z" glyph-name="ecaron" horiz-adv-x="740" unicode="&#283;" /><glyph d="M379 422C487 422 559 391 549 279C422 275 265 276 176 276C188 375 259 422 379 422ZM640 52C623 79 608 105 597 129C556 99 495 71 386 71C251 71 185 120 175 215C290 218 506 216 642 215C644 236 647 260 647 293C647 445 537 499 376 499C173 499 76 394 76 243C76 93 166 -10 386 -10C510 -10 580 18 640 52ZM498 547C514 563 541 580 561 595C504 644 446 706 424 744C409 743 389 743 380 743C371 743 351 743 335 744C314 706 256 644 198 595C219 580 246 563 261 547C306 588 352 638 380 679C408 638 453 588 498 547Z" glyph-name="ecircumflex" horiz-adv-x="740" unicode="&#234;" /><glyph d="M379 422C487 422 559 391 549 279C422 275 265 276 176 276C188 375 259 422 379 422ZM640 52C623 79 608 105 597 129C556 99 495 71 386 71C251 71 185 120 175 215C290 218 506 216 642 215C644 236 647 260 647 293C647 445 537 499 376 499C173 499 76 394 76 243C76 93 166 -10 386 -10C510 -10 580 18 640 52ZM340 647C340 690 311 716 267 716C222 716 193 691 193 647C193 603 222 577 267 577C311 577 340 604 340 647ZM556 647C556 690 527 716 483 716C439 716 409 691 409 647C409 603 439 577 483 577C526 577 556 604 556 647Z" glyph-name="edieresis" horiz-adv-x="740" unicode="&#235;" /><glyph d="M379 422C487 422 559 391 549 279C422 275 265 276 176 276C188 375 259 422 379 422ZM640 52C623 79 608 105 597 129C556 99 495 71 386 71C251 71 185 120 175 215C290 218 506 216 642 215C644 236 647 260 647 293C647 445 537 499 376 499C173 499 76 394 76 243C76 93 166 -10 386 -10C510 -10 580 18 640 52ZM457 646C457 688 428 725 375 725C321 725 292 688 292 646C292 602 316 568 375 568C428 568 457 602 457 646Z" glyph-name="edotaccent" horiz-adv-x="740" unicode="&#279;" /><glyph d="M379 422C487 422 559 391 549 279C422 275 265 276 176 276C188 375 259 422 379 422ZM640 52C623 79 608 105 597 129C556 99 495 71 386 71C251 71 185 120 175 215C290 218 506 216 642 215C644 236 647 260 647 293C647 445 537 499 376 499C173 499 76 394 76 243C76 93 166 -10 386 -10C510 -10 580 18 640 52ZM442 552C448 567 463 598 471 610C428 631 255 724 209 754C200 734 179 689 167 669C216 652 402 572 442 552Z" glyph-name="egrave" horiz-adv-x="740" unicode="&#232;" /><glyph d="M370 561C487 561 546 528 546 461C546 399 499 361 370 361C241 361 194 399 194 461C194 528 253 561 370 561ZM370 68C236 68 182 111 182 176C182 253 250 289 370 289C490 289 558 253 558 176C558 111 504 68 370 68ZM370 642C178 642 103 577 103 473C103 402 149 350 248 327V322C142 301 83 251 83 161C83 50 166 -14 370 -14C574 -14 657 50 657 161C657 250 599 300 495 322V327C592 350 637 403 637 473C637 577 562 642 370 642Z" glyph-name="eight" horiz-adv-x="740" unicode="8" /><glyph d="M370 137C465 137 493 126 493 100C493 70 465 54 370 54C276 54 246 70 246 100C246 126 276 137 370 137ZM370 273C452 273 480 258 480 230C480 199 452 187 370 187C288 187 259 199 259 230C259 258 288 273 370 273ZM370 337C239 337 185 297 185 242C185 204 212 180 272 169V163C205 152 171 128 171 87C171 27 232 -10 370 -10C509 -10 568 27 568 87C568 128 535 153 467 163V169C527 180 554 203 554 242C554 297 501 337 370 337Z" glyph-name="eight.dnom" horiz-adv-x="740" /><glyph d="M370 438C465 438 493 427 493 401C493 371 465 355 370 355C276 355 246 371 246 401C246 427 276 438 370 438ZM370 574C452 574 480 559 480 531C480 500 452 488 370 488C288 488 259 500 259 531C259 559 288 574 370 574ZM370 638C239 638 185 598 185 543C185 505 212 481 272 470V464C205 453 171 429 171 388C171 328 232 291 370 291C509 291 568 328 568 388C568 429 535 454 467 464V470C527 481 554 504 554 543C554 598 501 638 370 638Z" glyph-name="eight.numr" horiz-adv-x="740" /><glyph d="M370 561C487 561 546 528 546 461C546 399 499 361 370 361C241 361 194 399 194 461C194 528 253 561 370 561ZM370 68C236 68 182 111 182 176C182 253 250 289 370 289C490 289 558 253 558 176C558 111 504 68 370 68ZM370 642C178 642 103 577 103 473C103 402 149 350 248 327V322C142 301 83 251 83 161C83 50 166 -14 370 -14C574 -14 657 50 657 161C657 250 599 300 495 322V327C592 350 637 403 637 473C637 577 562 642 370 642Z" glyph-name="eight.osf" horiz-adv-x="740" /><glyph d="M217 66C217 107 189 141 139 141C89 141 61 107 61 66C61 23 85 -10 139 -10C189 -10 217 23 217 66ZM448 66C448 107 420 141 370 141C320 141 292 107 292 66C292 23 316 -10 370 -10C420 -10 448 23 448 66ZM681 66C681 107 653 141 603 141C553 141 525 107 525 66C525 23 549 -10 603 -10C653 -10 681 23 681 66Z" glyph-name="ellipsis" horiz-adv-x="740" unicode="&#8230;" /><glyph d="M379 422C487 422 559 391 549 279C422 275 265 276 176 276C188 375 259 422 379 422ZM640 52C623 79 608 105 597 129C556 99 495 71 386 71C251 71 185 120 175 215C290 218 506 216 642 215C644 236 647 260 647 293C647 445 537 499 376 499C173 499 76 394 76 243C76 93 166 -10 386 -10C510 -10 580 18 640 52ZM162 686C165 659 165 631 162 603C211 605 531 605 587 603C584 629 586 657 587 686C531 684 211 684 162 686Z" glyph-name="emacron" horiz-adv-x="740" unicode="&#275;" /><glyph d="M43 318C46 287 45 245 43 215C118 221 611 218 698 215C696 244 696 286 698 318C612 310 118 312 43 318Z" glyph-name="emdash" horiz-adv-x="740" unicode="&#8212;" /><glyph d="M103 317C106 287 105 245 103 215C165 220 567 218 638 215C636 244 636 286 638 317C568 311 165 312 103 317Z" glyph-name="endash" horiz-adv-x="740" unicode="&#8211;" /><glyph d="M615 -10V356C615 444 571 500 463 500C350 500 273 433 237 330H232C230 409 229 473 228 491C180 488 95 486 41 488C43 460 43 423 41 401C52 403 75 404 105 404C133 404 146 399 148 365C154 290 153 198 147 128C144 92 131 84 103 84C73 84 51 85 39 86C41 65 41 28 39 0C75 3 291 3 331 0C329 27 329 57 331 86C323 86 302 83 283 83C245 83 235 101 235 135C235 307 307 414 427 414C495 414 519 379 520 312C520 230 521 98 518 -5C516 -93 497 -125 441 -125C426 -125 414 -123 404 -121C425 -114 440 -97 440 -71C440 -38 417 -15 382 -15C335 -15 312 -50 312 -95C312 -155 352 -200 442 -200C563 -200 614 -129 615 -10Z" glyph-name="eng" horiz-adv-x="740" unicode="&#331;" /><glyph d="M379 422C488 422 559 391 549 279C422 275 265 276 176 276C188 375 259 422 379 422ZM657 -227C649 -203 643 -171 640 -147C618 -158 600 -161 581 -161C535 -161 508 -138 508 -96C508 -35 574 10 640 52C623 79 608 105 597 129C556 99 495 71 386 71C251 71 185 120 175 215C290 218 506 216 642 215C645 235 647 260 647 293C647 445 537 499 376 499C173 499 76 394 76 243C76 93 166 -10 386 -10C445 -10 492 -4 531 7C476 -26 428 -63 428 -131C428 -201 482 -244 566 -244C601 -244 634 -237 657 -227Z" glyph-name="eogonek" horiz-adv-x="740" unicode="&#281;" /><glyph d="M128 468C131 439 131 409 128 380C184 384 547 383 612 380C610 409 610 438 612 468C549 464 184 464 128 468ZM128 271C131 242 131 213 128 184C184 187 547 186 612 184C610 212 610 241 612 271C549 267 184 268 128 271Z" glyph-name="equal" horiz-adv-x="740" unicode="=" /><glyph d="M572 235C572 127 497 72 370 72C245 72 172 124 172 225C172 329 245 381 370 381C497 381 572 323 572 235ZM300 531C310 520 322 503 332 487C351 501 401 535 456 571C544 505 588 416 595 332L587 330C540 416 454 454 349 453C170 453 75 360 75 225C75 86 170 -10 370 -10C574 -10 667 97 667 313C667 428 624 537 532 621C577 650 617 675 639 687C627 704 617 720 609 736C590 721 544 689 491 655C443 690 384 720 314 742C306 716 294 685 279 655C329 642 373 623 410 602C362 571 320 544 300 531Z" glyph-name="eth" horiz-adv-x="740" unicode="&#240;" /><glyph d="M446 628C421 627 397 627 372 627C347 627 322 627 296 628C311 557 331 363 338 254C351 255 359 255 371 255C383 255 391 255 404 254C411 363 431 557 446 628ZM455 65C455 106 425 140 371 140C316 140 286 106 286 65C286 23 312 -10 371 -10C425 -10 455 23 455 65Z" glyph-name="exclam" horiz-adv-x="740" unicode="!" /><glyph d="M296 -7C321 -6 345 -6 370 -6C395 -6 420 -6 446 -7C431 64 411 258 404 367C391 366 383 366 371 366C359 366 351 366 338 367C331 258 311 64 296 -7ZM287 556C287 515 317 481 371 481C426 481 456 515 456 556C456 598 430 631 371 631C317 631 287 598 287 556Z" glyph-name="exclamdown" horiz-adv-x="740" unicode="&#161;" /><glyph d="M89 388C92 360 92 329 90 302C114 304 183 305 266 305C265 245 263 181 260 128C258 91 243 83 211 83C162 83 123 84 107 86C109 64 109 28 107 0C169 5 539 5 608 0C606 28 606 57 608 86C578 84 495 83 406 83C365 83 354 101 354 135C354 213 355 266 355 305C485 305 620 304 659 302C658 329 656 359 658 388C619 385 482 384 351 384C307 560 387 609 482 609C498 609 515 608 531 605C521 595 514 580 514 563C514 526 541 500 587 500C642 500 671 532 671 573C671 634 611 683 474 683C322 683 205 592 259 384C179 385 112 386 89 388Z" glyph-name="f" horiz-adv-x="740" unicode="f" /><glyph d="M89 388C92 360 92 329 90 302C114 304 183 305 266 305C265 245 263 181 260 128C258 91 243 83 211 83C162 83 123 84 107 86C109 64 109 28 107 0C169 5 539 5 608 0C606 28 606 57 608 86C578 84 495 83 406 83C365 83 354 101 354 135C354 213 355 266 355 305C485 305 620 304 659 302C658 329 656 359 658 388C619 385 482 384 351 384C307 560 387 609 482 609C498 609 515 608 531 605C521 595 514 580 514 563C514 526 541 500 587 500C642 500 671 532 671 573C671 634 611 683 474 683C322 683 205 592 259 384C179 385 112 386 89 388ZM1204 672C1204 720 1171 759 1112 759C1052 759 1019 720 1019 672C1019 623 1047 585 1112 585C1171 585 1204 623 1204 672ZM1157 135C1157 352 1164 466 1164 491C1075 486 918 485 819 488C821 460 821 423 819 402C856 404 926 405 1022 405C1050 405 1064 400 1066 366C1070 289 1069 195 1064 129C1062 92 1048 83 1020 83C924 83 853 83 817 86C819 65 819 28 817 0C890 4 1324 4 1405 0C1402 28 1403 57 1405 86C1371 84 1292 83 1203 83C1167 83 1157 101 1157 135Z" glyph-name="fi" horiz-adv-x="1480" unicode="&#64257;" /><glyph d="M24 -36C139 -33 255 -34 370 -34C485 -34 601 -33 716 -36C712 79 714 195 714 310C714 425 712 541 716 656C601 652 485 653 370 653C255 653 139 652 24 656C27 541 26 425 26 310C26 195 27 79 24 -36Z" glyph-name="filledbox" horiz-adv-x="740" unicode="&#9632;" /><glyph d="M649 195C649 317 560 382 410 382C339 382 274 367 227 340L222 342C226 398 226 440 227 491C227 536 230 539 288 539C355 539 421 540 601 532C599 562 599 603 601 627C482 625 252 625 139 627C145 565 140 387 135 315C150 311 178 298 209 278C260 298 324 307 382 307C501 307 553 266 553 193C553 123 500 67 369 67C303 67 245 79 206 101C233 110 247 134 247 166C247 210 217 233 171 233C118 233 85 199 85 143C85 41 198 -14 370 -14C562 -14 650 66 649 195Z" glyph-name="five" horiz-adv-x="740" unicode="5" /><glyph d="M401 199C362 199 319 195 266 185C266 210 265 235 266 260C383 260 473 259 535 255C534 276 534 306 535 327C462 325 280 325 197 327C201 289 201 199 197 154C219 151 238 144 259 134C300 143 335 149 380 149C451 149 476 137 476 104C476 76 456 57 384 57C324 57 269 69 197 99C192 79 184 56 174 33C232 7 301 -10 380 -10C499 -10 553 29 553 98C553 164 515 199 401 199Z" glyph-name="five.dnom" horiz-adv-x="740" /><glyph d="M401 500C362 500 319 496 266 486C266 511 265 536 266 561C383 561 473 560 535 556C534 577 534 607 535 628C462 626 280 626 197 628C201 590 201 500 197 455C219 452 238 445 259 435C300 444 335 450 380 450C451 450 476 438 476 405C476 377 456 358 384 358C324 358 269 370 197 400C192 380 184 357 174 334C232 308 301 291 380 291C499 291 553 330 553 399C553 465 515 500 401 500Z" glyph-name="five.numr" horiz-adv-x="740" /><glyph d="M649 103C649 225 560 290 410 290C339 290 274 275 227 248L222 250C226 306 226 348 227 399C227 444 230 447 288 447C355 447 421 448 601 440C599 470 599 511 601 535C482 533 252 533 139 535C145 473 140 295 135 223C150 219 178 206 209 186C260 206 324 215 382 215C501 215 553 174 553 101C553 31 500 -25 369 -25C303 -25 245 -13 206 9C233 18 247 42 247 74C247 118 217 141 171 141C118 141 85 107 85 51C85 -51 198 -106 370 -106C562 -106 650 -26 649 103Z" glyph-name="five.osf" horiz-adv-x="740" /><glyph d="M89 388C92 360 92 329 90 302C114 304 183 305 266 305C265 245 263 181 260 128C258 91 243 83 211 83C162 83 123 84 107 86C109 64 109 28 107 0C169 5 539 5 608 0C606 28 606 57 608 86C578 84 495 83 406 83C365 83 354 101 354 135C354 213 355 266 355 305C485 305 620 304 659 302C658 329 656 359 658 388C619 385 482 384 351 384C307 560 387 609 482 609C498 609 515 608 531 605C521 595 514 580 514 563C514 526 541 500 587 500C642 500 671 532 671 573C671 634 611 683 474 683C322 683 205 592 259 384C179 385 112 386 89 388ZM1153 133C1153 465 1159 641 1159 680C1104 675 1025 673 950 673C901 673 855 674 818 675C819 662 819 645 819 630C819 615 819 600 818 589C846 592 922 592 1015 592C1043 592 1056 587 1058 553C1061 498 1062 438 1062 377C1062 290 1059 203 1057 128C1056 91 1042 83 1014 83C920 83 848 84 817 86C818 76 818 61 818 45C818 30 818 14 817 0C852 3 975 4 1099 4C1227 4 1357 3 1398 0C1398 13 1397 28 1397 42C1397 57 1398 74 1398 86C1365 84 1286 83 1199 83C1163 83 1153 101 1153 133Z" glyph-name="fl" horiz-adv-x="1480" unicode="&#64258;" /><glyph d="M660 0C658 26 658 54 660 82C645 82 605 80 561 80C525 80 516 103 515 132C514 156 514 188 514 224C567 224 622 223 676 223C674 249 674 274 676 300C622 300 567 299 514 299C514 427 518 573 524 624C488 625 410 629 376 633C319 552 119 353 31 292C41 272 52 242 59 216C120 221 260 223 422 224C421 188 421 156 420 131C419 95 403 80 370 80C311 80 266 80 244 82C246 55 246 27 244 0C296 2 600 4 660 0ZM297 429C345 476 389 521 425 561L431 560C426 494 424 392 423 299C381 299 341 299 305 299C243 299 192 297 155 294L154 299C194 331 236 368 297 429Z" glyph-name="four" horiz-adv-x="740" unicode="4" /><glyph d="M570 69C569 88 569 112 570 131C545 131 517 130 488 129C487 181 487 245 491 327C463 326 429 329 400 333C349 285 203 173 139 142C147 122 158 93 163 69C231 71 323 71 409 71C409 45 408 20 407 0C436 1 464 1 493 0C492 20 491 43 490 71C519 70 546 70 570 69ZM225 125 224 131C287 164 353 214 402 267L409 265C409 226 410 176 410 128C349 126 285 125 225 125Z" glyph-name="four.dnom" horiz-adv-x="740" /><glyph d="M570 370C569 389 569 413 570 432C545 432 517 431 488 430C487 482 487 546 491 628C463 627 429 630 400 634C349 586 203 474 139 443C147 423 158 394 163 370C231 372 323 372 409 372C409 346 408 321 407 301C436 302 464 302 493 301C492 321 491 344 490 372C519 371 546 371 570 370ZM225 426 224 432C287 465 353 515 402 568L409 566C409 527 410 477 410 429C349 427 285 426 225 426Z" glyph-name="four.numr" horiz-adv-x="740" /><glyph d="M660 -93C658 -67 658 -39 660 -11C645 -11 605 -13 561 -13C525 -13 516 10 515 39C514 63 514 95 514 131C567 131 622 130 676 130C674 156 674 181 676 207C622 207 567 206 514 206C514 334 518 480 524 531C488 532 410 536 376 540C319 459 119 260 31 199C41 179 52 149 59 123C120 128 260 130 422 131C421 95 421 63 420 38C419 2 403 -13 370 -13C311 -13 266 -13 244 -11C246 -38 246 -66 244 -93C296 -91 600 -89 660 -93ZM297 336C345 383 389 428 425 468L431 467C426 401 424 299 423 206C381 206 341 206 305 206C243 206 192 204 155 201L154 206C194 238 236 275 297 336Z" glyph-name="four.osf" horiz-adv-x="740" /><glyph d="M29 52C62 33 97 9 126 -14C168 39 282 165 339 224C327 234 310 250 297 263C239 213 101 101 29 52ZM711 576C678 595 640 617 605 640C568 589 454 456 401 403C417 391 431 377 444 365C507 419 638 526 711 576Z" glyph-name="fraction" horiz-adv-x="740" unicode="&#8260;" /><glyph d="M643 -80C643 21 576 55 363 59C242 61 214 69 214 98C214 127 242 146 347 146C523 146 598 210 598 296C598 370 559 416 490 442L492 449C565 438 643 419 691 405C690 434 690 464 691 488C557 486 460 499 348 499C171 499 93 423 93 325C93 252 137 197 235 176V169C158 154 128 125 128 84C128 51 150 27 199 14V9C116 -1 60 -35 60 -100C60 -182 125 -225 349 -225C559 -225 643 -184 643 -80ZM556 -81C556 -128 491 -151 351 -151C216 -151 154 -130 154 -83C154 -32 204 -12 350 -12C508 -12 556 -31 556 -81ZM505 316C505 250 447 217 346 217C245 217 186 250 186 316C186 385 245 419 346 419C447 419 505 385 505 316Z" glyph-name="g" horiz-adv-x="740" unicode="g" /><glyph d="M643 -80C643 21 576 55 363 59C242 61 214 69 214 98C214 127 242 146 347 146C523 146 598 210 598 296C598 370 559 416 490 442L492 449C565 438 643 419 691 405C690 434 690 464 691 488C557 486 460 499 348 499C171 499 93 423 93 325C93 252 137 197 235 176V169C158 154 128 125 128 84C128 51 150 27 199 14V9C116 -1 60 -35 60 -100C60 -182 125 -225 349 -225C559 -225 643 -184 643 -80ZM556 -81C556 -128 491 -151 351 -151C216 -151 154 -130 154 -83C154 -32 204 -12 350 -12C508 -12 556 -31 556 -81ZM505 316C505 250 447 217 346 217C245 217 186 250 186 316C186 385 245 419 346 419C447 419 505 385 505 316ZM357 560C450 560 516 607 548 717C526 722 489 733 470 741C450 664 410 631 357 631C305 631 268 663 246 741C228 733 191 723 167 717C199 607 264 560 357 560Z" glyph-name="gbreve" horiz-adv-x="740" unicode="&#287;" /><glyph d="M643 -80C643 21 576 55 363 59C242 61 214 69 214 98C214 127 242 146 347 146C523 146 598 210 598 296C598 370 559 416 490 442L492 449C565 438 643 419 691 405C690 434 690 464 691 488C557 486 460 499 348 499C171 499 93 423 93 325C93 252 137 197 235 176V169C158 154 128 125 128 84C128 51 150 27 199 14V9C116 -1 60 -35 60 -100C60 -182 125 -225 349 -225C559 -225 643 -184 643 -80ZM556 -81C556 -128 491 -151 351 -151C216 -151 154 -130 154 -83C154 -32 204 -12 350 -12C508 -12 556 -31 556 -81ZM505 316C505 250 447 217 346 217C245 217 186 250 186 316C186 385 245 419 346 419C447 419 505 385 505 316ZM472 547C488 563 515 580 535 595C478 644 420 706 398 744C383 743 363 743 354 743C345 743 325 743 309 744C288 706 230 644 172 595C193 580 220 563 235 547C280 588 326 638 354 679C382 638 427 588 472 547Z" glyph-name="gcircumflex" horiz-adv-x="740" unicode="&#285;" /><glyph d="M643 -80C643 21 576 55 363 59C242 61 214 69 214 98C214 127 242 146 347 146C523 146 598 210 598 296C598 370 559 416 490 442L492 449C565 438 643 419 691 405C690 434 690 464 691 488C557 486 460 499 348 499C171 499 93 423 93 325C93 252 137 197 235 176V169C158 154 128 125 128 84C128 51 150 27 199 14V9C116 -1 60 -35 60 -100C60 -182 125 -225 349 -225C559 -225 643 -184 643 -80ZM556 -81C556 -128 491 -151 351 -151C216 -151 154 -130 154 -83C154 -32 204 -12 350 -12C508 -12 556 -31 556 -81ZM505 316C505 250 447 217 346 217C245 217 186 250 186 316C186 385 245 419 346 419C447 419 505 385 505 316ZM355 541C402 541 431 567 431 605C431 636 412 661 372 661C349 661 331 653 321 638L315 640C315 683 359 720 443 736C431 759 423 782 416 804C317 768 265 718 265 645C265 587 295 541 355 541Z" glyph-name="gcommaaccent" horiz-adv-x="740" unicode="&#291;" /><glyph d="M643 -80C643 21 576 55 363 59C242 61 214 69 214 98C214 127 242 146 347 146C523 146 598 210 598 296C598 370 559 416 490 442L492 449C565 438 643 419 691 405C690 434 690 464 691 488C557 486 460 499 348 499C171 499 93 423 93 325C93 252 137 197 235 176V169C158 154 128 125 128 84C128 51 150 27 199 14V9C116 -1 60 -35 60 -100C60 -182 125 -225 349 -225C559 -225 643 -184 643 -80ZM556 -81C556 -128 491 -151 351 -151C216 -151 154 -130 154 -83C154 -32 204 -12 350 -12C508 -12 556 -31 556 -81ZM505 316C505 250 447 217 346 217C245 217 186 250 186 316C186 385 245 419 346 419C447 419 505 385 505 316ZM438 646C438 688 409 725 356 725C302 725 273 688 273 646C273 602 297 568 356 568C409 568 438 602 438 646Z" glyph-name="gdotaccent" horiz-adv-x="740" unicode="&#289;" /><glyph d="M375 364C375 311 423 282 484 253C565 215 602 184 602 136C602 93 573 62 504 62C485 62 468 64 453 67C468 78 477 99 477 120C477 155 451 181 412 181C366 181 338 149 338 100C338 31 389 -13 514 -13C641 -13 696 49 696 130C696 234 617 268 548 302C486 332 463 352 463 375C463 425 598 448 598 546C598 620 536 683 395 683C228 683 155 590 158 455C160 347 161 225 156 130C154 94 143 85 117 85C84 85 58 86 45 88C47 65 47 28 45 0C70 3 214 3 247 0C247 205 249 377 250 455C252 552 287 602 389 602C477 602 504 568 504 533C504 468 375 449 375 364Z" glyph-name="germandbls" horiz-adv-x="740" unicode="&#223;" /><glyph d="M275 552C235 572 49 652 0 669C12 689 33 734 42 754C88 724 261 631 304 610C296 598 281 567 275 552Z" glyph-name="grave" horiz-adv-x="304" unicode="`" /><glyph d="M295 682C253 698 51 762 0 773C11 795 27 841 33 862C82 837 273 759 317 742C310 729 298 698 295 682Z" glyph-name="grave.case" horiz-adv-x="317" /><glyph d="M189 35C255 75 604 238 664 260C662 287 662 314 664 340C603 358 247 535 186 562C177 529 166 493 151 460C194 444 287 405 389 367C459 341 514 321 559 305V292C508 276 446 253 367 223C271 186 182 149 153 139C169 103 179 68 189 35Z" glyph-name="greater" horiz-adv-x="740" unicode="&gt;" /><glyph d="M339 25C355 43 381 67 404 83C344 151 261 208 184 246C261 285 344 342 404 409C381 426 355 449 339 467C277 398 148 312 79 279C80 262 80 254 80 246C80 239 80 231 79 214C148 181 277 95 339 25ZM583 24C602 42 632 64 655 79C606 139 530 207 460 246C530 286 606 354 655 414C632 429 602 451 583 469C522 394 416 303 329 246C416 191 522 98 583 24Z" glyph-name="guillemotleft" horiz-adv-x="740" unicode="&#171;" /><glyph d="M401 19C463 88 592 174 661 207C660 224 660 232 660 240C660 247 660 255 661 272C592 305 463 391 401 461C385 443 359 419 336 403C396 335 479 278 556 240C479 201 396 144 336 77C359 60 385 37 401 19ZM157 17C218 92 324 183 411 240C324 295 218 388 157 462C138 444 108 422 85 407C134 347 210 279 280 240C210 200 134 132 85 72C108 57 138 35 157 17Z" glyph-name="guillemotright" horiz-adv-x="740" unicode="&#187;" /><glyph d="M517 27C529 55 548 96 563 119C446 173 324 215 216 243V250C324 278 446 320 563 374C548 396 529 438 517 465C402 387 248 323 143 292C144 274 144 260 144 247C144 233 144 218 143 200C248 169 402 105 517 27Z" glyph-name="guilsinglleft" horiz-adv-x="740" unicode="&#8249;" /><glyph d="M223 27C338 105 492 169 597 200C596 218 596 233 596 247C596 260 596 274 597 292C492 323 338 387 223 465C211 438 192 396 177 374C294 320 416 278 524 250V243C416 215 294 173 177 119C192 96 211 55 223 27Z" glyph-name="guilsinglright" horiz-adv-x="740" unicode="&#8250;" /><glyph d="M612 136C612 212 615 290 615 356C615 444 569 500 470 500C350 500 276 433 237 329H229C227 488 230 636 231 675C179 672 92 670 37 672C39 644 39 608 37 586C52 587 83 588 104 588C132 588 146 583 147 550C152 424 153 250 146 128C144 92 131 84 103 84C71 84 52 85 35 86C37 65 37 28 35 0C76 3 316 3 361 0C360 27 359 57 361 86C348 85 316 84 283 84C245 84 235 102 235 135C235 307 312 414 426 414C498 414 520 371 520 310C520 259 520 89 515 0C578 3 657 3 715 0C712 28 712 58 715 86C705 85 680 84 658 84C623 84 612 102 612 136Z" glyph-name="h" horiz-adv-x="740" unicode="h" /><glyph d="M148 675C149 650 149 625 150 599C93 600 46 601 30 602C32 579 32 555 30 532C46 533 93 534 151 534C152 380 151 221 146 128C144 92 131 84 103 84C71 84 52 85 35 86C37 65 37 28 35 0C76 3 316 3 361 0C359 27 359 57 361 86C348 85 316 84 283 84C245 84 235 102 235 135C235 289 312 385 426 385C498 385 520 342 520 281C520 235 520 80 515 0C578 3 657 3 715 0C712 28 712 58 715 86C705 84 680 84 658 84C623 84 612 102 612 136C612 200 615 264 615 319C615 408 569 464 470 464C351 464 275 404 236 309H229C228 391 229 470 230 535C324 535 421 534 448 532C447 554 447 581 448 602C422 600 326 599 232 599C233 635 234 661 235 675C209 674 175 674 148 675Z" glyph-name="hbar" horiz-adv-x="740" unicode="&#295;" /><glyph d="M612 136C612 212 615 290 615 356C615 444 569 500 470 500C350 500 276 433 237 329H229C227 488 230 636 231 675C179 672 92 670 37 672C39 644 39 608 37 586C52 587 83 588 104 588C132 588 146 583 147 550C152 424 153 250 146 128C144 92 131 84 103 84C71 84 52 85 35 86C37 65 37 28 35 0C76 3 316 3 361 0C360 27 359 57 361 86C348 85 316 84 283 84C245 84 235 102 235 135C235 307 312 414 426 414C498 414 520 371 520 310C520 259 520 89 515 0C578 3 657 3 715 0C712 28 712 58 715 86C705 85 680 84 658 84C623 84 612 102 612 136ZM422 703C437 719 463 737 484 752C443 783 370 851 348 880C332 879 312 879 303 879C294 879 274 879 258 880C235 850 162 783 122 752C143 737 169 719 184 703C227 743 273 785 303 821C332 785 379 742 422 703Z" glyph-name="hcircumflex" horiz-adv-x="740" unicode="&#293;" /><glyph d="M54 541C72 571 164 701 186 733C167 741 135 760 117 772C99 740 19 604 0 573C15 565 37 553 54 541ZM204 540C222 570 317 701 338 729C316 740 285 759 267 771C250 738 168 604 149 573C165 565 187 552 204 540Z" glyph-name="hungarumlaut" horiz-adv-x="338" unicode="&#733;" /><glyph d="M199 674C222 698 335 802 361 825C341 840 317 862 302 878C280 851 176 742 152 717C167 705 185 689 199 674ZM48 675C69 701 175 815 200 841C181 853 157 873 141 888C120 860 22 742 0 716C15 706 32 691 48 675Z" glyph-name="hungarumlaut.case" horiz-adv-x="361" /><glyph d="M153 316C156 286 156 245 153 215C204 219 530 218 588 215C586 244 586 285 588 316C531 311 204 312 153 316Z" glyph-name="hyphen" horiz-adv-x="740" unicode="-" /><glyph d="M464 672C464 720 431 759 372 759C312 759 279 720 279 672C279 623 307 585 372 585C431 585 464 623 464 672ZM417 135C417 352 424 466 424 491C335 486 178 485 79 488C81 460 81 423 79 402C116 404 186 405 282 405C310 405 324 400 326 366C330 289 329 195 324 129C322 92 308 83 280 83C184 83 113 83 77 86C79 65 79 28 77 0C150 4 584 4 665 0C662 28 663 57 665 86C631 84 552 83 463 83C427 83 417 101 417 135Z" glyph-name="i" horiz-adv-x="740" unicode="i" /><glyph d="M417 135C417 352 424 466 424 491C335 486 178 485 79 488C81 460 81 423 79 402C116 404 186 405 282 405C310 405 324 400 326 366C330 289 329 195 324 129C322 92 308 83 280 83C184 83 113 83 77 86C79 65 79 28 77 0C150 4 584 4 665 0C662 28 663 57 665 86C631 84 552 83 463 83C427 83 417 101 417 135ZM296 552C336 572 522 652 571 669C559 689 538 734 529 754C483 724 310 631 267 610C275 598 290 567 296 552Z" glyph-name="iacute" horiz-adv-x="740" unicode="&#237;" /><glyph d="M417 135C417 352 424 466 424 491C335 486 178 485 79 488C81 460 81 423 79 402C116 404 186 405 282 405C310 405 324 400 326 366C330 289 329 195 324 129C322 92 308 83 280 83C184 83 113 83 77 86C79 65 79 28 77 0C150 4 584 4 665 0C662 28 663 57 665 86C631 84 552 83 463 83C427 83 417 101 417 135ZM367 560C460 560 526 607 558 717C536 722 499 733 480 741C460 664 420 631 367 631C315 631 278 663 256 741C238 733 201 723 177 717C209 607 274 560 367 560Z" glyph-name="ibreve" horiz-adv-x="740" unicode="&#301;" /><glyph d="M417 135C417 352 424 466 424 491C335 486 178 485 79 488C81 460 81 423 79 402C116 404 186 405 282 405C310 405 324 400 326 366C330 289 329 195 324 129C322 92 308 83 280 83C184 83 113 83 77 86C79 65 79 28 77 0C150 4 584 4 665 0C662 28 663 57 665 86C631 84 552 83 463 83C427 83 417 101 417 135ZM488 547C504 563 531 580 551 595C494 644 436 706 414 744C399 743 379 743 370 743C361 743 341 743 325 744C304 706 246 644 188 595C209 580 236 563 251 547C296 588 342 638 370 679C398 638 443 588 488 547Z" glyph-name="icircumflex" horiz-adv-x="740" unicode="&#238;" /><glyph d="M417 135C417 352 424 466 424 491C335 486 178 485 79 488C81 460 81 423 79 402C116 404 186 405 282 405C310 405 324 400 326 366C330 289 329 195 324 129C322 92 308 83 280 83C184 83 113 83 77 86C79 65 79 28 77 0C150 4 584 4 665 0C662 28 663 57 665 86C631 84 552 83 463 83C427 83 417 101 417 135ZM335 647C335 690 306 716 262 716C217 716 188 691 188 647C188 603 217 577 262 577C306 577 335 604 335 647ZM551 647C551 690 522 716 478 716C434 716 404 691 404 647C404 603 434 577 478 577C521 577 551 604 551 647Z" glyph-name="idieresis" horiz-adv-x="740" unicode="&#239;" /><glyph d="M417 135C417 352 424 466 424 491C335 486 178 485 79 488C81 460 81 423 79 402C116 404 186 405 282 405C310 405 324 400 326 366C330 289 329 195 324 129C322 92 308 83 280 83C184 83 113 83 77 86C79 65 79 28 77 0C150 4 584 4 665 0C662 28 663 57 665 86C631 84 552 83 463 83C427 83 417 101 417 135ZM415 552C375 572 189 652 140 669C152 689 173 734 182 754C228 724 401 631 444 610C436 598 421 567 415 552Z" glyph-name="igrave" horiz-adv-x="740" unicode="&#236;" /><glyph d="M92 489C99 380 102 142 96 0C131 1 165 1 199 0C195 142 197 397 199 489C164 487 128 487 92 489ZM566 17C562 -93 526 -131 452 -131C398 -131 359 -113 343 -83C353 -88 364 -90 376 -90C414 -90 446 -66 446 -22C446 19 420 45 375 45C311 45 278 -1 278 -68C278 -143 330 -209 458 -209C599 -209 656 -124 658 23C661 305 660 464 660 489C571 486 414 485 315 489C316 460 316 423 315 400C350 402 424 404 522 404C551 404 564 400 566 366C571 289 572 164 566 17ZM240 671C240 719 207 758 148 758C88 758 55 719 55 671C55 622 83 584 148 584C207 584 240 622 240 671ZM702 671C702 719 669 758 610 758C550 758 517 719 517 671C517 622 545 584 610 584C669 584 702 622 702 671Z" glyph-name="ij" horiz-adv-x="740" unicode="&#307;" /><glyph d="M417 135C417 352 424 466 424 491C335 486 178 485 79 488C81 460 81 423 79 402C116 404 186 405 282 405C310 405 324 400 326 366C330 289 329 195 324 129C322 92 308 83 280 83C184 83 113 83 77 86C79 65 79 28 77 0C150 4 584 4 665 0C662 28 663 57 665 86C631 84 552 83 463 83C427 83 417 101 417 135ZM157 686C160 659 160 631 157 603C206 605 526 605 582 603C579 629 581 657 582 686C526 684 206 684 157 686Z" glyph-name="imacron" horiz-adv-x="740" unicode="&#299;" /><glyph d="M464 672C464 720 431 759 372 759C312 759 279 720 279 672C279 623 307 585 372 585C431 585 464 623 464 672ZM417 135C417 352 424 466 424 491C335 486 178 485 79 488C81 460 81 423 79 402C116 404 186 405 282 405C310 405 324 400 326 366C330 289 329 195 324 129C322 92 308 83 280 83C184 83 113 83 77 86C79 65 79 28 77 0C133 3 404 4 562 2C499 -17 453 -57 453 -128C453 -200 507 -244 592 -244C627 -244 659 -237 683 -227C675 -203 668 -171 665 -147C643 -158 626 -161 606 -161C559 -161 533 -140 533 -98C533 -38 586 0 665 0C662 28 663 57 665 86C631 84 552 83 463 83C427 83 417 101 417 135Z" glyph-name="iogonek" horiz-adv-x="740" unicode="&#303;" /><glyph d="M417 135C417 352 424 466 424 491C335 486 178 485 79 488C81 460 81 423 79 402C116 404 186 405 282 405C310 405 324 400 326 366C330 289 329 195 324 129C322 92 308 83 280 83C184 83 113 83 77 86C79 65 79 28 77 0C150 4 584 4 665 0C662 28 663 57 665 86C631 84 552 83 463 83C427 83 417 101 417 135ZM396 667C376 701 349 738 286 738C194 738 165 661 171 560C196 562 220 562 239 560C234 625 247 667 287 667C311 667 322 651 342 618C362 584 389 547 452 547C544 547 573 623 567 724C542 723 518 723 499 724C504 660 490 618 454 618C425 618 414 636 396 667Z" glyph-name="itilde" horiz-adv-x="740" unicode="&#297;" /><glyph d="M450 64C443 -76 395 -119 295 -119C201 -119 142 -68 138 9C147 6 156 4 166 4C206 4 239 30 239 76C239 118 212 146 164 146C95 146 60 90 60 9C60 -108 134 -200 296 -200C475 -200 540 -103 542 67C545 322 544 466 544 489C433 485 241 485 119 489C121 461 121 424 119 402C168 405 270 404 406 404C434 404 447 400 450 366C455 300 456 212 450 64ZM582 678C582 726 549 765 490 765C430 765 397 726 397 678C397 629 425 591 490 591C549 591 582 629 582 678Z" glyph-name="j" horiz-adv-x="740" unicode="j" /><glyph d="M450 55C443 -84 395 -128 295 -128C201 -128 142 -77 138 0C147 -3 156 -5 166 -5C206 -5 239 21 239 67C239 109 212 137 164 137C95 137 60 82 60 1C60 -116 134 -209 296 -209C475 -209 540 -111 542 58C545 319 544 466 544 489C433 485 241 485 119 489C121 461 121 424 119 402C168 405 270 404 406 404C434 404 447 400 450 366C455 298 457 208 450 55ZM545 547C561 563 588 580 608 595C551 644 493 706 471 744C456 743 436 743 427 743C418 743 398 743 382 744C361 706 303 644 245 595C266 580 293 563 308 547C353 588 399 638 427 679C455 638 500 588 545 547Z" glyph-name="jcircumflex" horiz-adv-x="740" unicode="&#309;" /><glyph d="M229 135C229 145 229 155 229 165C276 199 315 228 348 251C450 39 490 -10 598 -10C644 -10 687 9 731 44C713 67 701 92 687 119C663 91 636 75 602 75C530 75 499 130 415 299C481 344 520 367 572 390C607 407 629 408 667 407C665 428 665 474 667 489C630 487 406 487 371 489C372 467 373 447 371 426C450 432 456 426 456 410C456 386 408 348 229 236C229 454 231 626 234 675C178 671 85 670 33 672C35 644 35 607 33 585C42 586 66 588 94 588C122 588 135 583 137 549C141 416 142 252 135 128C134 91 120 83 92 83C65 83 45 84 35 86C37 64 37 27 35 0C71 3 288 3 330 0C328 28 331 57 333 86C324 84 303 83 281 83C240 83 229 101 229 135Z" glyph-name="k" horiz-adv-x="740" unicode="k" /><glyph d="M229 135C229 145 229 155 229 165C276 199 315 228 348 251C450 39 490 -10 598 -10C644 -10 687 9 731 44C713 67 701 92 687 119C663 91 636 75 602 75C530 75 499 130 415 299C481 344 520 367 572 390C607 407 629 408 667 407C665 428 665 474 667 489C630 487 406 487 371 489C372 467 373 447 371 426C450 432 456 426 456 410C456 386 408 348 229 236C229 454 231 626 234 675C178 671 85 670 33 672C35 644 35 607 33 585C42 586 66 588 94 588C122 588 135 583 137 549C141 416 142 252 135 128C134 91 120 83 92 83C65 83 45 84 35 86C37 64 37 27 35 0C71 3 288 3 330 0C328 28 331 57 333 86C324 84 303 83 281 83C240 83 229 101 229 135ZM295 -322C394 -286 446 -236 446 -163C446 -105 416 -59 356 -59C309 -59 280 -85 280 -123C280 -154 299 -179 339 -179C362 -179 380 -171 390 -156L396 -158C396 -201 352 -238 268 -254C280 -277 288 -300 295 -322Z" glyph-name="kcommaaccent" horiz-adv-x="740" unicode="&#311;" /><glyph d="M317 489C273 485 64 487 25 489C27 462 27 437 25 408C48 409 65 409 82 409C116 409 127 398 128 358C129 301 130 186 128 124C127 94 115 81 84 81C64 81 36 82 26 82C29 55 29 27 26 0C60 2 279 3 316 0C313 27 313 55 316 82C297 81 276 81 260 81C233 81 224 96 223 124C222 144 222 168 221 195C244 198 262 200 291 200C373 200 391 178 421 120C467 40 492 -10 585 -10C670 -10 732 43 718 178C697 176 673 176 649 178C656 108 641 69 592 69C554 69 535 100 493 166C463 216 438 247 325 236V238C430 291 528 348 588 380C628 401 648 410 675 410C681 410 684 410 692 409C691 436 691 462 692 489C659 487 441 486 404 489C406 471 405 429 404 407C424 408 443 408 467 408C487 408 498 400 482 386C438 353 308 285 222 247C222 289 223 330 223 358C223 396 232 409 266 409C277 409 302 409 317 408C314 437 315 462 317 489Z" glyph-name="kgreenlandic" horiz-adv-x="740" unicode="&#312;" /><glyph d="M413 133C413 465 419 641 419 680C364 675 285 673 210 673C161 673 115 674 78 675C79 662 79 645 79 630C79 615 79 600 78 589C106 592 182 592 275 592C303 592 316 587 318 553C321 498 322 438 322 377C322 290 319 203 317 128C316 91 302 83 274 83C180 83 108 84 77 86C78 76 78 61 78 45C78 30 78 14 77 0C112 3 235 4 359 4C487 4 617 3 658 0C658 13 657 28 657 42C657 57 658 74 658 86C625 84 546 83 459 83C423 83 413 101 413 133Z" glyph-name="l" horiz-adv-x="740" unicode="l" /><glyph d="M413 133C413 465 419 641 419 680C364 675 285 673 210 673C161 673 115 674 78 675C79 662 79 645 79 630C79 615 79 600 78 589C106 592 182 592 275 592C303 592 316 587 318 553C321 498 322 438 322 377C322 290 319 203 317 128C316 91 302 83 274 83C180 83 108 84 77 86C78 76 78 61 78 45C78 30 78 14 77 0C112 3 235 4 359 4C487 4 617 3 658 0C658 13 657 28 657 42C657 57 658 74 658 86C625 84 546 83 459 83C423 83 413 101 413 133ZM289 729C331 745 533 809 584 820C573 842 557 888 551 909C502 884 311 806 267 789C274 776 286 745 289 729Z" glyph-name="lacute" horiz-adv-x="740" unicode="&#314;" /><glyph d="M413 133C413 465 419 641 419 680C364 675 285 673 210 673C161 673 115 674 78 675C79 662 79 645 79 630C79 615 79 600 78 589C106 592 182 592 275 592C303 592 316 587 318 553C321 498 322 438 322 377C322 290 319 203 317 128C316 91 302 83 274 83C180 83 108 84 77 86C78 76 78 61 78 45C78 30 78 14 77 0C112 3 235 4 359 4C487 4 617 3 658 0C658 13 657 28 657 42C657 57 658 74 658 86C625 84 546 83 459 83C423 83 413 101 413 133ZM607 710C637 638 634 521 596 440C577 448 550 454 528 457C552 529 550 625 517 683C545 690 580 700 607 710Z" glyph-name="lcaron" horiz-adv-x="740" unicode="&#318;" /><glyph d="M413 133C413 465 419 641 419 680C364 675 285 673 210 673C161 673 115 674 78 675C79 662 79 645 79 630C79 615 79 600 78 589C106 592 182 592 275 592C303 592 316 587 318 553C321 498 322 438 322 377C322 290 319 203 317 128C316 91 302 83 274 83C180 83 108 84 77 86C78 76 78 61 78 45C78 30 78 14 77 0C112 3 235 4 359 4C487 4 617 3 658 0C658 13 657 28 657 42C657 57 658 74 658 86C625 84 546 83 459 83C423 83 413 101 413 133ZM301 -322C400 -286 452 -236 452 -163C452 -105 422 -59 362 -59C315 -59 286 -85 286 -123C286 -154 305 -179 345 -179C368 -179 386 -171 396 -156L402 -158C402 -201 358 -238 274 -254C286 -277 294 -300 301 -322Z" glyph-name="lcommaaccent" horiz-adv-x="740" unicode="&#316;" /><glyph d="M713 328C713 371 683 406 631 406C577 406 547 371 547 328C547 284 572 250 631 250C683 250 713 284 713 328ZM413 133C413 465 419 641 419 680C364 675 285 673 210 673C161 673 115 674 78 675C79 662 79 645 79 630C79 615 79 600 78 589C106 592 182 592 275 592C303 592 316 587 318 553C321 498 322 438 322 377C322 290 319 203 317 128C316 91 302 83 274 83C180 83 108 84 77 86C78 76 78 61 78 45C78 30 78 14 77 0C112 3 235 4 359 4C487 4 617 3 658 0C658 13 657 28 657 42C657 57 658 74 658 86C625 84 546 83 459 83C423 83 413 101 413 133Z" glyph-name="ldot" horiz-adv-x="740" unicode="&#320;" /><glyph d="M554 37C563 70 574 106 589 139C546 155 453 194 351 232C281 258 226 278 181 294V307C232 323 294 346 373 376C469 413 558 450 587 460C571 496 561 531 551 564C485 524 136 361 76 339C78 312 78 285 76 259C137 241 493 64 554 37Z" glyph-name="less" horiz-adv-x="740" unicode="&lt;" /><glyph d="M90 302C95 284 106 241 109 221C134 231 223 256 321 282C320 228 318 176 317 128C316 91 302 83 274 83C180 83 108 84 77 86C78 76 78 61 78 45C78 30 78 14 77 0C112 3 235 4 359 4C487 4 617 3 658 0C658 13 657 28 657 42C657 57 658 74 658 86C625 84 546 83 459 83C423 83 413 101 413 133C413 197 413 255 414 307C512 333 603 357 634 363C628 383 616 426 613 443C586 433 505 410 414 385C416 556 419 652 419 680C364 675 285 673 210 673C161 673 115 674 78 675C79 662 79 645 79 630C79 615 79 600 78 589C106 592 182 592 275 592C303 592 316 587 318 553C321 498 322 438 322 377C322 371 322 366 322 360C217 333 118 308 90 302Z" glyph-name="lslash" horiz-adv-x="740" unicode="&#322;" /><glyph d="M182 0C180 167 180 262 189 313C201 385 231 421 275 421C314 421 330 394 330 344C330 290 329 81 325 0C356 2 388 2 418 0C415 138 414 257 418 316C425 400 461 421 502 421C542 421 557 393 559 342C562 288 562 92 557 0C610 3 667 3 719 0C717 26 717 54 719 81C660 81 646 84 646 130C646 270 647 322 647 370C647 450 615 501 542 501C472 501 437 459 414 394H407C399 460 368 501 306 501C241 501 203 457 180 383H175C171 439 172 472 172 491C131 488 64 485 22 488C24 462 24 427 23 406C82 410 98 406 99 365C101 294 101 197 98 126C96 85 72 83 22 83C23 64 23 28 21 0C39 2 162 2 182 0Z" glyph-name="m" horiz-adv-x="740" unicode="m" /><glyph d="M0 686C3 659 3 631 0 603C49 605 369 605 425 603C422 629 424 657 425 686C369 684 49 684 0 686Z" glyph-name="macron" horiz-adv-x="425" unicode="&#175;" /><glyph d="M0 805C3 779 3 751 0 723C49 725 368 725 424 723C421 749 423 777 424 805C368 803 49 803 0 805Z" glyph-name="macron.case" horiz-adv-x="424" /><glyph d="M608 385C553 383 194 382 132 385C134 351 134 318 132 286C195 287 553 288 608 286C605 319 605 352 608 385Z" glyph-name="minus" horiz-adv-x="740" unicode="&#8722;" /><glyph d="M213 547C194 525 172 503 150 484C169 467 237 400 311 326C236 252 167 185 148 169C172 150 193 129 212 106C228 125 296 193 370 267C443 194 510 125 529 105C548 128 570 148 592 168C572 185 503 253 429 326C502 398 570 465 590 484C569 503 548 524 527 547C510 526 443 458 370 385C297 459 230 528 213 547Z" glyph-name="multiply" horiz-adv-x="740" unicode="&#215;" /><glyph d="M612 136C612 212 615 290 615 356C615 444 571 500 463 500C350 500 273 433 237 330H232C230 409 229 473 228 491C180 488 95 486 41 488C43 460 43 423 41 401C52 403 75 404 105 404C133 404 146 399 148 365C154 290 153 198 147 128C144 92 131 84 103 84C73 84 51 85 39 86C41 65 41 28 39 0C78 3 311 3 353 0C352 27 352 57 353 86C342 85 312 83 283 83C245 83 235 101 235 135C235 307 307 414 427 414C495 414 520 379 520 312C520 246 520 83 515 0C579 3 656 3 715 0C712 28 712 58 715 86C707 85 686 84 660 84C623 84 612 102 612 136Z" glyph-name="n" horiz-adv-x="740" unicode="n" /><glyph d="M612 136C612 212 615 290 615 356C615 444 571 500 463 500C350 500 273 433 237 330H232C230 409 229 473 228 491C180 488 95 486 41 488C43 460 43 423 41 401C52 403 75 404 105 404C133 404 146 399 148 365C154 290 153 198 147 128C144 92 131 84 103 84C73 84 51 85 39 86C41 65 41 28 39 0C78 3 311 3 353 0C352 27 352 57 353 86C342 85 312 83 283 83C245 83 235 101 235 135C235 307 307 414 427 414C495 414 520 379 520 312C520 246 520 83 515 0C579 3 656 3 715 0C712 28 712 58 715 86C707 85 686 84 660 84C623 84 612 102 612 136ZM340 552C380 572 566 652 615 669C603 689 582 734 573 754C527 724 354 631 311 610C319 598 334 567 340 552Z" glyph-name="nacute" horiz-adv-x="740" unicode="&#324;" /><glyph d="M612 136C612 212 615 290 615 356C615 444 571 500 463 500C350 500 273 433 237 330H232C230 409 229 473 228 491C180 488 95 486 41 488C43 460 43 423 41 401C52 403 75 404 105 404C133 404 146 399 148 365C154 290 153 198 147 128C144 92 131 84 103 84C73 84 51 85 39 86C41 65 41 28 39 0C78 3 311 3 353 0C352 27 352 57 353 86C342 85 312 83 283 83C245 83 235 101 235 135C235 307 307 414 427 414C495 414 520 379 520 312C520 246 520 83 515 0C579 3 656 3 715 0C712 28 712 58 715 86C707 85 686 84 660 84C623 84 612 102 612 136ZM-224 515C-125 551 -73 601 -73 674C-73 732 -103 778 -163 778C-210 778 -239 752 -239 714C-239 683 -220 658 -180 658C-157 658 -139 666 -129 681L-123 679C-123 636 -167 599 -251 583C-239 560 -231 537 -224 515Z" glyph-name="napostrophe" horiz-adv-x="740" unicode="&#329;" /><glyph d="M612 136C612 212 615 290 615 356C615 444 571 500 463 500C350 500 273 433 237 330H232C230 409 229 473 228 491C180 488 95 486 41 488C43 460 43 423 41 401C52 403 75 404 105 404C133 404 146 399 148 365C154 290 153 198 147 128C144 92 131 84 103 84C73 84 51 85 39 86C41 65 41 28 39 0C78 3 311 3 353 0C352 27 352 57 353 86C342 85 312 83 283 83C245 83 235 101 235 135C235 307 307 414 427 414C495 414 520 379 520 312C520 246 520 83 515 0C579 3 656 3 715 0C712 28 712 58 715 86C707 85 686 84 660 84C623 84 612 102 612 136ZM421 558C442 596 500 658 558 707C537 722 510 739 495 755C450 714 404 664 376 623C348 664 303 714 258 755C242 739 215 722 195 707C252 658 310 596 332 558C347 559 367 559 376 559C385 559 405 559 421 558Z" glyph-name="ncaron" horiz-adv-x="740" unicode="&#328;" /><glyph d="M612 136C612 212 615 290 615 356C615 444 571 500 463 500C350 500 273 433 237 330H232C230 409 229 473 228 491C180 488 95 486 41 488C43 460 43 423 41 401C52 403 75 404 105 404C133 404 146 399 148 365C154 290 153 198 147 128C144 92 131 84 103 84C73 84 51 85 39 86C41 65 41 28 39 0C78 3 311 3 353 0C352 27 352 57 353 86C342 85 312 83 283 83C245 83 235 101 235 135C235 307 307 414 427 414C495 414 520 379 520 312C520 246 520 83 515 0C579 3 656 3 715 0C712 28 712 58 715 86C707 85 686 84 660 84C623 84 612 102 612 136ZM295 -322C394 -286 446 -236 446 -163C446 -105 416 -59 356 -59C309 -59 280 -85 280 -123C280 -154 299 -179 339 -179C362 -179 380 -171 390 -156L396 -158C396 -201 352 -238 268 -254C280 -277 288 -300 295 -322Z" glyph-name="ncommaaccent" horiz-adv-x="740" unicode="&#326;" /><glyph d="M538 425C538 345 454 306 340 306C223 306 178 349 178 422C178 505 232 556 355 556C462 556 538 504 538 425ZM324 66C279 66 243 73 214 86C231 97 241 116 241 138C241 177 211 205 167 205C119 205 91 173 91 127C91 46 175 -14 331 -14C555 -14 647 143 647 319C647 518 561 642 351 642C177 642 85 554 85 424C85 307 162 240 321 240C428 240 520 277 554 345L561 344C560 296 554 252 538 210C511 119 438 66 324 66Z" glyph-name="nine" horiz-adv-x="740" unicode="9" /><glyph d="M464 221C464 196 433 168 343 168C271 168 247 185 247 219C247 246 272 270 349 270C427 270 464 246 464 221ZM343 -10C490 -10 556 61 556 162C556 267 493 337 349 337C228 337 171 290 171 222C171 162 207 120 325 120C398 120 452 140 485 183L491 180C487 91 422 55 338 55C285 55 240 65 193 86C189 64 180 41 172 21C221 1 278 -10 343 -10Z" glyph-name="nine.dnom" horiz-adv-x="740" /><glyph d="M464 522C464 497 433 469 343 469C271 469 247 486 247 520C247 547 272 571 349 571C427 571 464 547 464 522ZM343 291C490 291 556 362 556 463C556 568 493 638 349 638C228 638 171 591 171 523C171 463 207 421 325 421C398 421 452 441 485 484L491 481C487 392 422 356 338 356C285 356 240 366 193 387C189 365 180 342 172 322C221 302 278 291 343 291Z" glyph-name="nine.numr" horiz-adv-x="740" /><glyph d="M538 332C538 252 454 213 340 213C223 213 178 256 178 329C178 412 232 463 355 463C462 463 538 411 538 332ZM324 -27C279 -27 243 -20 214 -7C231 4 241 23 241 45C241 84 211 112 167 112C119 112 91 80 91 34C91 -47 175 -107 331 -107C555 -107 647 50 647 226C647 425 561 549 351 549C177 549 85 461 85 331C85 214 162 147 321 147C428 147 520 184 554 252L561 251C560 203 554 159 538 117C511 26 438 -27 324 -27Z" glyph-name="nine.osf" horiz-adv-x="740" /><glyph d="M612 136C612 212 615 290 615 356C615 444 571 500 463 500C350 500 273 433 237 330H232C230 409 229 473 228 491C180 488 95 486 41 488C43 460 43 423 41 401C52 403 75 404 105 404C133 404 146 399 148 365C154 290 153 198 147 128C144 92 131 84 103 84C73 84 51 85 39 86C41 65 41 28 39 0C78 3 311 3 353 0C352 27 352 57 353 86C342 85 312 83 283 83C245 83 235 101 235 135C235 307 307 414 427 414C495 414 520 379 520 312C520 246 520 83 515 0C579 3 656 3 715 0C712 28 712 58 715 86C707 85 686 84 660 84C623 84 612 102 612 136ZM404 667C384 701 357 738 294 738C202 738 173 661 179 560C204 562 228 562 247 560C242 625 255 667 295 667C319 667 330 651 350 618C370 584 397 547 460 547C552 547 581 623 575 724C550 723 526 723 507 724C512 660 498 618 462 618C433 618 422 636 404 667Z" glyph-name="ntilde" horiz-adv-x="740" unicode="&#241;" /><glyph d="M166 0C196 3 227 3 257 0C258 23 264 88 273 167C318 167 366 167 412 167C403 88 394 23 388 0C419 3 450 3 480 0C481 23 488 87 497 167C585 166 658 165 687 164C685 193 685 223 687 254C660 251 590 250 506 249C512 298 519 349 525 398C600 397 662 396 687 395C685 424 685 455 687 485C663 483 606 481 535 480C544 549 551 603 555 627C525 625 494 625 463 627C462 604 457 549 450 480C405 480 357 480 311 480C320 548 327 603 332 627C302 625 271 625 241 627C240 604 235 549 227 480C137 481 63 483 38 485C41 455 41 425 38 395C63 397 132 398 218 398C212 350 206 299 200 250C123 251 62 252 38 254C41 224 41 194 38 164C60 166 117 167 190 167C180 88 170 23 166 0ZM274 240C281 295 287 353 294 408H449C443 353 436 295 430 240C378 239 325 239 274 240Z" glyph-name="numbersign" horiz-adv-x="740" unicode="#" /><glyph d="M665 243C665 394 570 499 370 499C170 499 75 394 75 243C75 93 170 -10 370 -10C570 -10 665 93 665 243ZM568 243C568 130 495 72 370 72C245 72 172 130 172 243C172 359 245 416 370 416C495 416 568 359 568 243Z" glyph-name="o" horiz-adv-x="740" unicode="o" /><glyph d="M665 243C665 394 570 499 370 499C170 499 75 394 75 243C75 93 170 -10 370 -10C570 -10 665 93 665 243ZM568 243C568 130 495 72 370 72C245 72 172 130 172 243C172 359 245 416 370 416C495 416 568 359 568 243ZM299 552C339 572 525 652 574 669C562 689 541 734 532 754C486 724 313 631 270 610C278 598 293 567 299 552Z" glyph-name="oacute" horiz-adv-x="740" unicode="&#243;" /><glyph d="M665 243C665 394 570 499 370 499C170 499 75 394 75 243C75 93 170 -10 370 -10C570 -10 665 93 665 243ZM568 243C568 130 495 72 370 72C245 72 172 130 172 243C172 359 245 416 370 416C495 416 568 359 568 243ZM370 560C463 560 529 607 561 717C539 722 502 733 483 741C463 664 423 631 370 631C318 631 281 663 259 741C241 733 204 723 180 717C212 607 277 560 370 560Z" glyph-name="obreve" horiz-adv-x="740" unicode="&#335;" /><glyph d="M665 243C665 394 570 499 370 499C170 499 75 394 75 243C75 93 170 -10 370 -10C570 -10 665 93 665 243ZM568 243C568 130 495 72 370 72C245 72 172 130 172 243C172 359 245 416 370 416C495 416 568 359 568 243ZM488 547C504 563 531 580 551 595C494 644 436 706 414 744C399 743 379 743 370 743C361 743 341 743 325 744C304 706 246 644 188 595C209 580 236 563 251 547C296 588 342 638 370 679C398 638 443 588 488 547Z" glyph-name="ocircumflex" horiz-adv-x="740" unicode="&#244;" /><glyph d="M665 243C665 394 570 499 370 499C170 499 75 394 75 243C75 93 170 -10 370 -10C570 -10 665 93 665 243ZM568 243C568 130 495 72 370 72C245 72 172 130 172 243C172 359 245 416 370 416C495 416 568 359 568 243ZM336 647C336 690 307 716 263 716C218 716 189 691 189 647C189 603 218 577 263 577C307 577 336 604 336 647ZM552 647C552 690 523 716 479 716C435 716 405 691 405 647C405 603 435 577 479 577C522 577 552 604 552 647Z" glyph-name="odieresis" horiz-adv-x="740" unicode="&#246;" /><glyph d="M326 243C326 130 289 72 227 72C166 72 131 130 131 243C131 359 168 416 229 416C291 416 326 359 326 243ZM526 422C579 422 621 391 611 278C544 276 462 276 413 276C420 375 457 422 526 422ZM703 53C688 71 670 102 657 124C633 98 601 71 545 71C461 71 419 116 413 216C489 217 614 216 697 215C700 235 702 260 702 293C702 445 632 499 539 499C451 499 394 455 372 365C355 446 306 499 221 499C99 499 39 394 39 243C39 93 97 -10 219 -10C295 -10 345 35 367 111C390 37 450 -10 547 -10C616 -10 667 20 703 53Z" glyph-name="oe" horiz-adv-x="740" unicode="&#339;" /><glyph d="M212 -147C190 -158 173 -161 153 -161C106 -161 80 -140 80 -98C80 -38 133 0 212 0L210 15C103 16 0 -23 0 -128C0 -200 54 -244 139 -244C174 -244 206 -237 230 -227C222 -203 215 -171 212 -147Z" glyph-name="ogonek" horiz-adv-x="230" unicode="&#731;" /><glyph d="M665 243C665 394 570 499 370 499C170 499 75 394 75 243C75 93 170 -10 370 -10C570 -10 665 93 665 243ZM568 243C568 130 495 72 370 72C245 72 172 130 172 243C172 359 245 416 370 416C495 416 568 359 568 243ZM433 552C393 572 207 652 158 669C170 689 191 734 200 754C246 724 419 631 462 610C454 598 439 567 433 552Z" glyph-name="ograve" horiz-adv-x="740" unicode="&#242;" /><glyph d="M665 243C665 394 570 499 370 499C170 499 75 394 75 243C75 93 170 -10 370 -10C570 -10 665 93 665 243ZM568 243C568 130 495 72 370 72C245 72 172 130 172 243C172 359 245 416 370 416C495 416 568 359 568 243ZM303 541C321 571 413 701 435 733C416 741 384 760 366 772C348 740 268 604 249 573C264 565 286 553 303 541ZM453 540C471 570 566 701 587 729C565 740 534 759 516 771C499 738 417 604 398 573C414 565 436 552 453 540Z" glyph-name="ohungarumlaut" horiz-adv-x="740" unicode="&#337;" /><glyph d="M665 243C665 394 570 499 370 499C170 499 75 394 75 243C75 93 170 -10 370 -10C570 -10 665 93 665 243ZM568 243C568 130 495 72 370 72C245 72 172 130 172 243C172 359 245 416 370 416C495 416 568 359 568 243ZM158 686C161 659 161 631 158 603C207 605 527 605 583 603C580 629 582 657 583 686C527 684 207 684 158 686Z" glyph-name="omacron" horiz-adv-x="740" unicode="&#333;" /><glyph d="M438 622C407 624 366 629 338 635C264 609 148 577 91 566C101 539 110 504 118 475C154 487 236 519 293 530C326 536 337 530 338 494C342 401 339 227 336 125C334 88 320 81 291 81C202 81 133 79 103 83C104 56 104 27 102 0C171 3 581 5 657 0C655 27 655 55 657 83C625 82 556 81 481 81C446 81 437 105 436 132C432 231 429 386 438 622Z" glyph-name="one" horiz-adv-x="740" unicode="1" /><glyph d="M550 0C549 20 549 52 550 74C532 73 493 72 450 72C430 72 422 82 421 104C420 147 418 212 423 327C397 326 365 328 342 333C294 316 226 299 180 289C188 269 195 242 201 219C241 233 301 252 342 262C344 181 344 142 342 103C341 77 331 72 311 72C256 72 215 72 195 74C196 53 196 21 195 0C238 2 502 2 550 0Z" glyph-name="one.dnom" horiz-adv-x="740" /><glyph d="M550 301C549 321 549 353 550 375C532 374 493 373 450 373C430 373 422 383 421 405C420 448 418 513 423 628C397 627 365 629 342 634C294 617 226 600 180 590C188 570 195 543 201 520C241 534 301 553 342 563C344 482 344 443 342 404C341 378 331 373 311 373C256 373 215 373 195 375C196 354 196 322 195 301C238 303 502 303 550 301Z" glyph-name="one.numr" horiz-adv-x="740" /><glyph d="M438 529C407 531 366 536 338 542C264 516 148 484 91 473C101 446 110 411 118 382C154 394 236 426 293 437C326 443 337 437 338 401C341 332 338 201 336 125C334 88 320 81 291 81C202 81 133 80 103 83C104 56 104 27 102 0C171 3 581 5 657 0C655 27 655 55 657 83C625 82 556 81 481 81C446 81 437 105 436 132C433 213 431 338 438 529Z" glyph-name="one.osf" horiz-adv-x="740" /><glyph d="M43 351C45 330 44 295 43 274C119 280 611 278 698 274C697 295 696 329 698 351C613 344 119 345 43 351ZM212 106C278 137 333 148 391 148C457 148 478 132 478 106C478 80 459 65 363 52C242 36 185 17 187 -70C187 -84 187 -108 186 -124C279 -123 435 -122 548 -124C547 -102 547 -69 548 -49C447 -58 351 -59 254 -59C255 -23 274 -10 379 2C518 17 551 52 551 109C551 178 495 216 384 216C307 216 244 199 188 176C198 153 205 131 212 106ZM550 412C549 432 549 464 550 486C532 485 493 484 450 484C430 484 422 494 421 516C420 559 418 624 423 739C397 738 365 740 342 745C294 728 226 711 180 701C188 681 195 654 201 631C241 645 301 664 342 674C344 593 344 554 342 515C341 489 331 484 311 484C256 484 215 484 195 486C196 465 196 433 195 412C238 414 502 414 550 412Z" glyph-name="onehalf" horiz-adv-x="740" unicode="&#189;" /><glyph d="M43 351C45 330 44 295 43 274C119 280 611 278 698 274C697 295 696 329 698 351C613 344 119 345 43 351ZM565 -51C564 -32 564 -8 565 11C540 11 512 10 483 9C482 61 482 125 486 207C458 206 424 209 395 213C344 165 198 53 134 22C142 2 153 -27 158 -51C226 -49 318 -49 404 -49C404 -75 403 -100 402 -120C431 -119 459 -119 488 -120C487 -100 486 -77 485 -49C514 -50 541 -50 565 -51ZM550 412C549 432 549 464 550 486C532 485 493 484 450 484C430 484 422 494 421 516C420 559 418 624 423 739C397 738 365 740 342 745C294 728 226 711 180 701C188 681 195 654 201 631C241 645 301 664 342 674C344 593 344 554 342 515C341 489 331 484 311 484C256 484 215 484 195 486C196 465 196 433 195 412C238 414 502 414 550 412ZM220 5 219 11C282 44 348 94 397 147L404 145C404 106 405 56 405 8C344 6 280 5 220 5Z" glyph-name="onequarter" horiz-adv-x="740" unicode="&#188;" /><glyph d="M550 401C549 421 549 453 550 475C532 474 493 473 450 473C430 473 422 483 421 505C420 548 418 613 423 728C397 727 365 729 342 734C294 717 226 700 180 690C188 670 195 643 201 620C241 634 301 653 342 663C344 582 344 543 342 504C341 478 331 473 311 473C256 473 215 473 195 475C196 454 196 422 195 401C238 403 502 403 550 401Z" glyph-name="onesuperior" horiz-adv-x="740" unicode="&#185;" /><glyph d="M297 363C249 363 225 376 225 404C225 438 255 454 327 454C358 454 394 451 427 448V447C427 389 384 363 297 363ZM502 397C502 444 504 491 504 530C504 597 463 638 346 638C274 638 214 622 170 605C179 585 185 565 192 539C250 563 301 570 347 570C406 570 427 551 427 518V488C395 494 361 495 328 495C206 495 150 460 150 391C150 322 198 295 273 295C343 295 402 316 428 372C429 355 433 331 435 302C471 303 526 303 569 301C567 324 570 347 573 371C566 370 550 369 535 369C509 369 502 377 502 397Z" glyph-name="ordfeminine" horiz-adv-x="740" unicode="&#170;" /><glyph d="M576 463C576 566 510 637 370 637C230 637 164 566 164 463C164 361 230 291 370 291C510 291 576 361 576 463ZM494 463C494 396 448 362 370 362C292 362 245 396 245 463C245 531 292 566 370 566C448 566 494 531 494 463Z" glyph-name="ordmasculine" horiz-adv-x="740" unicode="&#186;" /><glyph d="M162 243C162 365 239 425 370 425C422 425 465 416 499 397C404 320 281 222 184 147C170 173 162 205 162 243ZM578 243C578 124 501 63 370 63C314 63 268 74 234 96C330 173 455 271 552 346C569 319 578 285 578 243ZM665 243C665 303 650 356 619 398C651 422 677 441 691 452C674 468 645 498 635 513C622 500 597 478 564 450C516 481 452 499 370 499C170 499 75 394 75 243C75 186 89 135 117 95C81 68 54 47 41 37C54 23 80 -7 92 -23C104 -11 131 12 169 43C217 9 284 -10 370 -10C570 -10 665 93 665 243Z" glyph-name="oslash" horiz-adv-x="740" unicode="&#248;" /><glyph d="M162 243C162 365 239 425 370 425C422 425 465 416 499 397C404 320 281 222 184 147C170 173 162 205 162 243ZM578 243C578 124 501 63 370 63C314 63 268 74 234 96C330 173 455 271 552 346C569 319 578 285 578 243ZM665 243C665 303 650 356 619 398C651 422 677 441 691 452C674 468 645 498 635 513C622 500 597 478 564 450C516 481 452 499 370 499C170 499 75 394 75 243C75 186 89 135 117 95C81 68 54 47 41 37C54 23 80 -7 92 -23C104 -11 131 12 169 43C217 9 284 -10 370 -10C570 -10 665 93 665 243ZM299 552C339 572 525 652 574 669C562 689 541 734 532 754C486 724 313 631 270 610C278 598 293 567 299 552Z" glyph-name="oslashacute" horiz-adv-x="740" unicode="&#511;" /><glyph d="M665 243C665 394 570 499 370 499C170 499 75 394 75 243C75 93 170 -10 370 -10C570 -10 665 93 665 243ZM568 243C568 130 495 72 370 72C245 72 172 130 172 243C172 359 245 416 370 416C495 416 568 359 568 243ZM397 667C377 701 350 738 287 738C195 738 166 661 172 560C197 562 221 562 240 560C235 625 248 667 288 667C312 667 323 651 343 618C363 584 390 547 453 547C545 547 574 623 568 724C543 723 519 723 500 724C505 660 491 618 455 618C426 618 415 636 397 667Z" glyph-name="otilde" horiz-adv-x="740" unicode="&#245;" /><glyph d="M230 212C230 332 307 409 426 409C536 409 571 343 571 252C571 146 525 85 405 85C301 85 230 122 230 212ZM137 365C137 289 140 51 136 -58C136 -87 128 -110 93 -110C68 -110 49 -109 38 -107C40 -135 40 -164 38 -190C90 -187 372 -187 415 -190C414 -163 414 -134 415 -107C372 -108 343 -109 282 -109C249 -109 229 -102 228 -62C227 -43 226 8 226 75L236 78C271 30 337 3 426 3C579 3 668 85 668 255C668 404 606 499 462 499C348 499 267 444 229 356H219C214 440 216 473 215 492C168 488 86 486 34 488C36 460 36 424 34 402C46 404 66 404 94 404C122 404 137 399 137 365Z" glyph-name="p" horiz-adv-x="740" unicode="p" /><glyph d="M541 626C467 626 357 629 332 629C138 629 29 538 29 369C29 206 131 127 317 122C318 36 316 -47 313 -118C345 -117 377 -117 410 -118C406 0 403 429 410 550C440 550 468 550 494 549C492 423 491 1 483 -118C517 -117 551 -117 584 -118C574 17 577 347 584 498C586 536 596 549 632 549H704C703 577 703 602 704 628C684 627 596 625 541 626Z" glyph-name="paragraph" horiz-adv-x="740" unicode="&#182;" /><glyph d="M302 307C302 459 365 591 527 655C511 680 494 709 483 736C287 661 204 492 204 307C204 124 287 -43 483 -118C495 -89 510 -64 527 -37C365 27 302 158 302 307Z" glyph-name="parenleft" horiz-adv-x="740" unicode="(" /><glyph d="M426 313C426 161 363 29 201 -35C217 -60 234 -89 245 -116C441 -41 524 128 524 313C524 496 441 663 245 738C233 709 218 684 201 657C363 593 426 462 426 313Z" glyph-name="parenright" horiz-adv-x="740" unicode=")" /><glyph d="M22 466C22 361 75 291 193 291C309 291 361 361 361 464C361 567 309 638 193 638C75 638 22 567 22 466ZM285 464C285 391 250 358 193 358C134 358 99 391 99 464C99 538 134 571 193 571C250 571 285 538 285 464ZM719 164C719 267 667 338 549 338C433 338 381 267 381 166C381 61 433 -9 549 -9C667 -9 719 61 719 164ZM457 164C457 238 492 271 549 271C608 271 643 238 643 164C643 91 608 58 549 58C492 58 457 91 457 164ZM29 52C62 33 97 9 126 -14C168 39 282 165 339 224C327 234 310 250 297 263C239 213 101 101 29 52ZM711 576C678 595 640 617 605 640C568 589 454 456 401 403C417 391 431 377 444 365C507 419 638 526 711 576Z" glyph-name="percent" horiz-adv-x="740" unicode="%" /><glyph d="M463 77C463 125 430 164 371 164C311 164 278 125 278 77C278 28 306 -10 371 -10C430 -10 463 28 463 77Z" glyph-name="period" horiz-adv-x="740" unicode="." /><glyph d="M463 282C463 330 430 369 371 369C311 369 278 330 278 282C278 233 306 195 371 195C430 195 463 233 463 282Z" glyph-name="periodcentered" horiz-adv-x="740" unicode="&#183;" /><glyph d="M17 33C42 20 68 5 91 -9C115 40 193 189 231 249C217 257 206 264 195 273C155 212 63 86 17 33ZM79 464C79 554 96 581 125 581C155 581 172 554 172 464C172 374 155 348 125 348C96 348 79 375 79 464ZM17 466C17 339 51 291 126 291C199 291 233 335 233 464C233 593 199 638 126 638C51 638 17 593 17 466ZM318 164C318 254 334 281 364 281C394 281 410 254 410 164C410 74 394 48 364 48C334 48 318 75 318 164ZM256 166C256 39 290 -9 364 -9C438 -9 472 35 472 164C472 293 438 338 364 338C290 338 256 293 256 166ZM471 595C446 608 421 623 397 637C374 588 295 439 259 378C271 371 283 364 295 354C334 416 425 542 471 595ZM569 164C569 254 585 281 615 281C644 281 661 254 661 164C661 74 644 48 615 48C585 48 569 75 569 164ZM507 166C507 39 540 -9 615 -9C689 -9 722 35 722 164C722 293 689 338 615 338C540 338 507 293 507 166Z" glyph-name="perthousand" horiz-adv-x="740" unicode="&#8240;" /><glyph d="M125 383C128 351 128 320 125 289C150 291 232 292 324 292C324 204 323 123 322 97C354 99 386 99 420 97C418 123 417 203 417 292C506 291 588 290 615 289C613 319 613 351 615 383C588 380 506 379 417 379C417 469 418 550 420 573C388 570 355 570 322 573C323 550 324 469 324 379C233 380 150 381 125 383Z" glyph-name="plus" horiz-adv-x="740" unicode="+" /><glyph d="M617 488C577 488 552 487 519 488C518 472 518 439 517 405L510 403C471 463 399 498 309 498C157 498 67 416 67 247C67 94 140 -2 281 -2C386 -2 468 50 510 133H517C518 39 517 -32 516 -58C515 -98 491 -105 452 -105C394 -105 367 -105 327 -103C328 -131 328 -161 327 -189C373 -187 670 -187 724 -190C721 -162 723 -133 725 -103C712 -105 683 -106 652 -106C616 -106 607 -83 607 -54C604 59 607 326 617 488ZM516 287C516 165 439 85 320 85C204 85 165 156 165 249C165 358 211 419 332 419C436 419 516 367 516 287Z" glyph-name="q" horiz-adv-x="740" unicode="q" /><glyph d="M427 211C419 269 443 282 524 313C607 346 663 373 663 468C662 575 566 642 388 642C201 642 96 562 96 455C96 392 130 350 193 350C245 350 276 379 276 421C276 461 248 490 200 490C197 490 194 490 190 489C220 535 289 562 387 562C487 562 561 535 561 468C561 420 536 398 463 372C357 335 308 302 317 211C355 213 391 214 427 211ZM465 67C465 113 431 144 371 144C310 144 276 113 276 67C276 20 304 -10 371 -10C431 -10 465 20 465 67Z" glyph-name="question" horiz-adv-x="740" unicode="?" /><glyph d="M331 421C339 363 315 350 234 319C151 286 95 259 95 164C96 57 192 -10 370 -10C557 -10 662 70 662 177C662 240 628 282 565 282C513 282 482 253 482 211C482 171 510 142 558 142C561 142 564 142 568 143C538 97 469 70 371 70C271 70 197 97 197 164C197 212 222 234 295 260C401 297 450 330 441 421C403 419 367 418 331 421ZM293 565C293 519 327 488 387 488C448 488 482 519 482 565C482 612 454 642 387 642C327 642 293 612 293 565Z" glyph-name="questiondown" horiz-adv-x="740" unicode="&#191;" /><glyph d="M321 688C310 580 304 408 300 292C287 293 280 294 260 294C246 294 234 294 221 293C218 409 210 580 200 688C240 686 281 686 321 688ZM541 688C530 580 524 408 520 292C507 293 500 294 480 294C466 294 454 294 441 293C438 409 430 580 420 688C460 686 501 686 541 688Z" glyph-name="quotedbl" horiz-adv-x="740" unicode="&quot;" /><glyph d="M154 -226C299 -194 367 -99 367 16C367 102 324 160 248 160C189 160 153 125 153 77C153 37 177 4 225 4C265 4 292 28 297 64H308C310 52 312 40 312 28C311 -65 244 -120 135 -144C144 -168 150 -199 154 -226ZM431 -226C576 -194 644 -99 644 16C644 102 601 160 525 160C466 160 430 125 430 77C430 37 454 4 502 4C542 4 569 28 574 64H585C587 52 589 40 589 28C588 -65 521 -120 412 -144C421 -168 427 -199 431 -226Z" glyph-name="quotedblbase" horiz-adv-x="740" unicode="&#8222;" /><glyph d="M504 259C563 259 599 294 599 342C599 382 575 415 527 415C487 415 460 391 455 355H444C442 367 440 379 440 391C441 484 508 539 617 563C608 587 602 618 598 645C453 613 385 518 385 403C385 317 428 259 504 259ZM228 259C287 259 323 294 323 342C323 382 299 415 251 415C211 415 184 391 179 355H168C166 367 164 379 164 391C165 484 232 539 341 563C332 587 326 618 322 645C177 613 109 518 109 403C109 317 152 259 228 259Z" glyph-name="quotedblleft" horiz-adv-x="740" unicode="&#8220;" /><glyph d="M140 218C285 250 353 345 353 460C353 546 310 604 234 604C175 604 139 569 139 521C139 481 163 448 211 448C251 448 278 472 283 508H294C296 496 298 484 298 472C297 379 230 324 121 300C130 276 136 245 140 218ZM416 218C561 250 629 345 629 460C629 546 586 604 510 604C451 604 415 569 415 521C415 481 439 448 487 448C527 448 554 472 559 508H570C572 496 574 484 574 472C573 379 506 324 397 300C406 276 412 245 416 218Z" glyph-name="quotedblright" horiz-adv-x="740" unicode="&#8221;" /><glyph d="M345 259C404 259 440 294 440 342C440 382 416 415 368 415C328 415 301 391 296 355H285C283 367 281 379 281 391C282 484 349 539 458 563C449 587 443 618 439 645C294 613 226 518 226 403C226 317 269 259 345 259Z" glyph-name="quoteleft" horiz-adv-x="740" unicode="&#8216;" /><glyph d="M295 232C440 264 508 359 508 474C508 560 465 618 389 618C330 618 294 583 294 535C294 495 318 462 366 462C406 462 433 486 438 522H449C451 510 453 498 453 486C452 393 385 338 276 314C285 290 291 259 295 232Z" glyph-name="quoteright" horiz-adv-x="740" unicode="&#8217;" /><glyph d="M279 -226C424 -194 492 -99 492 16C492 102 449 160 373 160C314 160 278 125 278 77C278 37 302 4 350 4C390 4 417 28 422 64H433C435 52 437 40 437 28C436 -65 369 -120 260 -144C269 -168 275 -199 279 -226Z" glyph-name="quotesinglbase" horiz-adv-x="740" unicode="&#8218;" /><glyph d="M431 688C420 580 414 408 410 292C397 293 390 294 370 294C356 294 344 294 331 293C328 409 320 580 310 688C350 686 391 686 431 688Z" glyph-name="quotesingle" horiz-adv-x="740" unicode="'" /><glyph d="M499 0C496 27 497 60 499 86C471 83 401 83 327 83C296 83 287 101 287 133C287 260 416 417 557 417C566 417 576 416 585 415V406C542 398 521 371 521 336C521 295 551 274 591 274C647 274 672 317 672 374C672 444 635 502 545 502C452 502 353 442 290 288H284C281 373 282 464 282 491C225 487 120 486 56 488C58 460 58 423 56 401C85 403 128 404 159 404C187 404 200 399 202 365C206 291 206 199 200 128C197 91 185 83 157 83C109 83 68 84 54 86C56 64 56 28 54 0C109 4 438 3 499 0Z" glyph-name="r" horiz-adv-x="740" unicode="r" /><glyph d="M499 0C496 27 497 60 499 86C471 83 401 83 327 83C296 83 287 101 287 133C287 260 416 417 557 417C566 417 576 416 585 415V406C542 398 521 371 521 336C521 295 551 274 591 274C647 274 672 317 672 374C672 444 635 502 545 502C452 502 353 442 290 288H284C281 373 282 464 282 491C225 487 120 486 56 488C58 460 58 423 56 401C85 403 128 404 159 404C187 404 200 399 202 365C206 291 206 199 200 128C197 91 185 83 157 83C109 83 68 84 54 86C56 64 56 28 54 0C109 4 438 3 499 0ZM283 552C323 572 509 652 558 669C546 689 525 734 516 754C470 724 297 631 254 610C262 598 277 567 283 552Z" glyph-name="racute" horiz-adv-x="740" unicode="&#341;" /><glyph d="M499 0C496 27 497 60 499 86C471 83 401 83 327 83C296 83 287 101 287 133C287 260 416 417 557 417C566 417 576 416 585 415V406C542 398 521 371 521 336C521 295 551 274 591 274C647 274 672 317 672 374C672 444 635 502 545 502C452 502 353 442 290 288H284C281 373 282 464 282 491C225 487 120 486 56 488C58 460 58 423 56 401C85 403 128 404 159 404C187 404 200 399 202 365C206 291 206 199 200 128C197 91 185 83 157 83C109 83 68 84 54 86C56 64 56 28 54 0C109 4 438 3 499 0ZM392 558C413 596 471 658 529 707C508 722 481 739 466 755C421 714 375 664 347 623C319 664 274 714 229 755C213 739 186 722 166 707C223 658 281 596 303 558C318 559 338 559 347 559C356 559 376 559 392 558Z" glyph-name="rcaron" horiz-adv-x="740" unicode="&#345;" /><glyph d="M499 0C496 27 497 60 499 86C471 83 401 83 327 83C296 83 287 101 287 133C287 260 416 417 557 417C566 417 576 416 585 415V406C542 398 521 371 521 336C521 295 551 274 591 274C647 274 672 317 672 374C672 444 635 502 545 502C452 502 353 442 290 288H284C281 373 282 464 282 491C225 487 120 486 56 488C58 460 58 423 56 401C85 403 128 404 159 404C187 404 200 399 202 365C206 291 206 199 200 128C197 91 185 83 157 83C109 83 68 84 54 86C56 64 56 28 54 0C109 4 438 3 499 0ZM180 -322C279 -286 331 -236 331 -163C331 -105 301 -59 241 -59C194 -59 165 -85 165 -123C165 -154 184 -179 224 -179C247 -179 265 -171 275 -156L281 -158C281 -201 237 -238 153 -254C165 -277 173 -300 180 -322Z" glyph-name="rcommaaccent" horiz-adv-x="740" unicode="&#343;" /><glyph d="M376 329C351 329 337 330 316 331C316 359 317 390 317 421C344 421 368 422 387 422C429 422 441 407 441 377C441 341 422 329 376 329ZM479 141C527 141 554 175 548 247C535 246 520 246 506 247C507 212 501 202 488 202C472 202 469 213 464 240C458 270 443 283 412 290V293C470 296 513 321 513 387C513 455 470 478 399 478C365 478 228 476 203 478C204 458 204 439 203 419C212 419 219 420 230 420C245 420 249 415 250 403C252 359 252 269 250 225C249 209 243 202 229 202C220 202 213 202 204 203C205 184 205 165 204 146C222 147 344 148 364 146C363 165 363 183 364 203C352 202 344 202 337 202C322 202 318 210 318 224C317 241 317 263 317 288C323 288 330 287 337 287C378 285 389 282 399 225C410 165 426 141 479 141ZM628 314C628 133 534 49 370 49C207 49 112 133 112 314C112 494 207 579 370 579C534 579 628 494 628 314ZM370 642C153 642 42 513 42 314C42 115 153 -14 370 -14C587 -14 698 115 698 314C698 513 587 642 370 642Z" glyph-name="registered" horiz-adv-x="740" unicode="&#174;" /><glyph d="M0 666C0 595 53 550 119 550C186 550 238 595 238 666C238 737 186 780 119 780C53 780 0 737 0 666ZM62 666C62 708 88 724 119 724C151 724 176 708 176 666C176 624 151 606 119 606C88 606 62 624 62 666Z" glyph-name="ring" horiz-adv-x="238" unicode="&#730;" /><glyph d="M0 781C0 717 47 680 105 680C164 680 210 717 210 781C210 844 164 881 105 881C47 881 0 844 0 781ZM59 781C59 812 80 827 105 827C131 827 151 812 151 781C151 750 131 734 105 734C80 734 59 750 59 781Z" glyph-name="ring.case" horiz-adv-x="210" /><glyph d="M549 135C549 91 499 64 381 64C308 64 250 72 204 86C217 97 223 112 223 127C223 165 194 188 153 188C107 188 80 159 80 118C80 36 174 -13 387 -13C565 -13 638 46 638 136C638 229 564 259 385 282C228 302 205 321 205 356C205 396 241 425 375 425C424 425 460 418 490 410C478 401 471 387 471 369C471 336 499 310 542 310C592 310 612 339 612 373C612 439 538 500 377 500C187 500 120 436 120 353C120 273 181 233 359 209C523 186 549 168 549 135Z" glyph-name="s" horiz-adv-x="740" unicode="s" /><glyph d="M549 135C549 91 499 64 381 64C308 64 250 72 204 86C217 97 223 112 223 127C223 165 194 188 153 188C107 188 80 159 80 118C80 36 174 -13 387 -13C565 -13 638 46 638 136C638 229 564 259 385 282C228 302 205 321 205 356C205 396 241 425 375 425C424 425 460 418 490 410C478 401 471 387 471 369C471 336 499 310 542 310C592 310 612 339 612 373C612 439 538 500 377 500C187 500 120 436 120 353C120 273 181 233 359 209C523 186 549 168 549 135ZM302 552C342 572 528 652 577 669C565 689 544 734 535 754C489 724 316 631 273 610C281 598 296 567 302 552Z" glyph-name="sacute" horiz-adv-x="740" unicode="&#347;" /><glyph d="M549 135C549 91 499 64 381 64C308 64 250 72 204 86C217 97 223 112 223 127C223 165 194 188 153 188C107 188 80 159 80 118C80 36 174 -13 387 -13C565 -13 638 46 638 136C638 229 564 259 385 282C228 302 205 321 205 356C205 396 241 425 375 425C424 425 460 418 490 410C478 401 471 387 471 369C471 336 499 310 542 310C592 310 612 339 612 373C612 439 538 500 377 500C187 500 120 436 120 353C120 273 181 233 359 209C523 186 549 168 549 135ZM409 558C430 596 488 658 546 707C525 722 498 739 483 755C438 714 392 664 364 623C336 664 291 714 246 755C230 739 203 722 183 707C240 658 298 596 320 558C335 559 355 559 364 559C373 559 393 559 409 558Z" glyph-name="scaron" horiz-adv-x="740" unicode="&#353;" /><glyph d="M549 135C549 91 499 64 381 64C308 64 250 72 204 86C217 97 223 112 223 127C223 165 194 188 153 188C107 188 80 159 80 118C80 48 148 2 301 -10C294 -40 283 -80 276 -100C294 -104 308 -109 325 -118C341 -103 356 -97 380 -97C406 -97 430 -108 430 -138C430 -168 403 -183 364 -183C320 -183 281 -166 251 -138C242 -158 226 -181 212 -195C246 -223 302 -243 363 -243C453 -243 496 -199 496 -141C496 -84 459 -56 409 -56C379 -56 355 -66 337 -80C343 -59 350 -34 356 -13C366 -13 376 -13 387 -13C565 -13 638 46 638 136C638 229 564 259 385 282C228 302 205 321 205 356C205 396 241 425 375 425C424 425 460 418 490 410C478 401 471 387 471 369C471 336 499 310 542 310C592 310 612 339 612 373C612 439 538 500 377 500C187 500 120 436 120 353C120 273 181 233 359 209C523 186 549 168 549 135Z" glyph-name="scedilla" horiz-adv-x="740" unicode="&#351;" /><glyph d="M549 135C549 91 499 64 381 64C308 64 250 72 204 86C217 97 223 112 223 127C223 165 194 188 153 188C107 188 80 159 80 118C80 36 174 -13 387 -13C565 -13 638 46 638 136C638 229 564 259 385 282C228 302 205 321 205 356C205 396 241 425 375 425C424 425 460 418 490 410C478 401 471 387 471 369C471 336 499 310 542 310C592 310 612 339 612 373C612 439 538 500 377 500C187 500 120 436 120 353C120 273 181 233 359 209C523 186 549 168 549 135ZM485 547C501 563 528 580 548 595C491 644 433 706 411 744C396 743 376 743 367 743C358 743 338 743 322 744C301 706 243 644 185 595C206 580 233 563 248 547C293 588 339 638 367 679C395 638 440 588 485 547Z" glyph-name="scircumflex" horiz-adv-x="740" unicode="&#349;" /><glyph d="M549 135C549 91 499 64 381 64C308 64 250 72 204 86C217 97 223 112 223 127C223 165 194 188 153 188C107 188 80 159 80 118C80 36 174 -13 387 -13C565 -13 638 46 638 136C638 229 564 259 385 282C228 302 205 321 205 356C205 396 241 425 375 425C424 425 460 418 490 410C478 401 471 387 471 369C471 336 499 310 542 310C592 310 612 339 612 373C612 439 538 500 377 500C187 500 120 436 120 353C120 273 181 233 359 209C523 186 549 168 549 135ZM300 -322C399 -286 451 -236 451 -163C451 -105 421 -59 361 -59C314 -59 285 -85 285 -123C285 -154 304 -179 344 -179C367 -179 385 -171 395 -156L401 -158C401 -201 357 -238 273 -254C285 -277 293 -300 300 -322Z" glyph-name="scommaaccent" horiz-adv-x="740" unicode="&#537;" /></font>
</defs>
</svg>
