<svg xmlns="http://www.w3.org/2000/svg">
<defs>
<font horiz-adv-x="0" id="font"><font-face ascent="818" bbox="-136 -322 1422 1133" cap-height="764" descent="-182" font-family="Vulf Mono" font-stretch="normal" font-style="normal" font-weight="800" units-per-em="1000" x-height="640" /><missing-glyph d="M178 338C181 338 182 336 182 334C182 324 172 309 172 295C172 282 179 275 193 275C227 275 258 307 258 334C258 347 251 354 240 354C229 354 222 348 222 339C222 331 227 328 233 328C236 328 239 328 241 330C237 312 215 293 199 293C194 293 192 295 192 299C192 309 202 324 202 338C202 349 196 354 185 354C176 354 168 350 159 341C162 338 164 334 166 329C172 336 175 338 178 338ZM313 338C313 348 306 353 296 353C287 353 278 349 270 341C273 337 275 333 277 328C283 335 286 337 289 337C291 337 292 336 292 333C292 323 276 307 276 292C276 281 283 275 294 275C306 275 319 282 330 301H332C331 298 330 295 330 291C330 280 337 275 347 275C357 275 365 280 372 286C370 289 367 295 365 300C361 296 358 293 354 293C351 293 350 295 350 298C350 306 359 327 371 351C361 352 354 352 348 353C338 320 319 293 305 293C301 293 299 295 299 299C299 309 313 323 313 338ZM429 292C422 292 420 295 420 300C420 314 444 347 444 366C444 376 438 381 427 381C414 381 399 374 382 361C385 358 388 353 391 347C403 357 411 362 416 362C420 362 421 361 421 358C421 346 398 317 398 295C398 281 406 275 422 275C440 275 456 284 474 306C470 309 466 312 462 317C449 299 438 292 429 292ZM513 336C508 336 498 336 488 337C488 331 487 326 485 320H512C511 308 509 292 508 282C507 272 504 266 498 262C497 270 493 274 485 274C476 274 471 269 471 261C471 251 479 245 492 245C512 245 523 256 527 286C528 292 530 308 531 320H568C568 326 569 331 571 337C553 336 541 336 532 336C534 353 539 363 547 365V364C547 357 551 352 561 352C569 352 574 358 574 366C574 375 565 381 552 381C526 381 516 363 513 336ZM369 643C172 643 40 508 40 314C40 119 172 -15 369 -15C566 -15 699 119 699 314C699 508 566 643 369 643ZM369 624C554 624 679 497 679 314C679 130 554 4 369 4C184 4 60 130 60 314C60 497 184 624 369 624Z" horiz-
<glyph d="M631 0C636 28 660 98 673 129C664 128 661 128 651 128C630 128 620 142 614 169C595 253 590 495 591 628C541 624 304 624 250 628C240 588 225 543 208 500C220 502 237 501 244 501C264 501 283 496 254 449C214 387 140 272 66 172C37 131 24 128 3 128C-3 128 -6 128 -13 129C-23 86 -38 43 -55 0C-19 2 206 3 243 0C251 30 271 96 285 130C269 129 243 129 232 129C217 129 205 133 205 146C205 157 210 164 221 181C226 190 232 199 238 209C303 209 396 209 458 209C458 197 459 187 459 178V167C459 137 441 130 409 130C391 130 390 130 376 131C366 88 351 43 334 0C370 2 594 3 631 0ZM306 317C339 368 380 428 430 502C438 451 445 381 450 317C406 317 353 317 306 317Z" glyph-name="A" horiz-adv-x="740" unicode="A" /><glyph d="M800 628C703 625 283 624 180 628C170 588 155 543 138 500C149 500 160 501 173 501C206 501 209 486 195 459C162 395 96 276 31 172C6 131 -6 128 -27 128C-33 128 -36 128 -43 129C-53 86 -68 43 -85 0C-21 1 97 1 161 0C167 35 187 97 203 129H181C166 129 157 133 157 144C157 148 158 154 162 161C171 178 180 196 190 214C227 215 275 215 315 214C308 194 301 175 294 158C284 139 278 129 256 129H239C230 87 213 42 196 0C331 3 521 3 654 0C662 36 703 153 722 192C672 202 625 215 588 228C583 209 575 188 568 169C554 132 542 123 506 123C483 123 448 124 429 125C444 183 457 229 468 269C521 266 580 263 596 262C601 296 609 332 620 370C604 368 549 367 497 366C512 411 528 453 548 506H583C621 506 633 499 633 472C633 448 630 426 627 403C671 406 724 408 770 407C774 453 794 585 800 628ZM245 313C284 379 323 445 356 501C370 501 385 501 405 501C391 450 370 381 348 313C317 313 279 312 245 313Z" glyph-name="AE" horiz-adv-x="740" unicode="&#198;" /><glyph d="M800 628C703 625 283 624 180 628C170 588 155 543 138 500C149 500 160 501 173 501C206 501 209 486 195 459C162 395 96 276 31 172C6 131 -6 128 -27 128C-33 128 -36 128 -43 129C-53 86 -68 43 -85 0C-21 1 97 1 161 0C167 35 187 97 203 129H181C166 129 157 133 157 144C157 148 158 154 162 161C171 178 180 196 190 214C227 215 275 215 315 214C308 194 301 175 294 158C284 139 278 129 256 129H239C230 87 213 42 196 0C331 3 521 3 654 0C662 36 703 153 722 192C672 202 625 215 588 228C583 209 575 188 568 169C554 132 542 123 506 123C483 123 448 124 429 125C444 183 457 229 468 269C521 266 580 263 596 262C601 296 609 332 620 370C604 368 549 367 497 366C512 411 528 453 548 506H583C621 506 633 499 633 472C633 448 630 426 627 403C671 406 724 408 770 407C774 453 794 585 800 628ZM464 669C520 686 725 725 801 736C792 763 768 853 761 881C701 858 489 792 433 773C442 752 457 697 464 669ZM245 313C284 379 323 445 356 501C370 501 385 501 405 501C391 450 370 381 348 313C317 313 279 312 245 313Z" glyph-name="AEacute" horiz-adv-x="740" unicode="&#508;" /><glyph d="M631 0C636 28 660 98 673 129C664 128 661 128 651 128C630 128 620 142 614 169C595 253 590 495 591 628C541 624 304 624 250 628C240 588 225 543 208 500C220 502 237 501 244 501C264 501 283 496 254 449C214 387 140 272 66 172C37 131 24 128 3 128C-3 128 -6 128 -13 129C-23 86 -38 43 -55 0C-19 2 206 3 243 0C251 30 271 96 285 130C269 129 243 129 232 129C217 129 205 133 205 146C205 157 210 164 221 181C226 190 232 199 238 209C303 209 396 209 458 209C458 197 459 187 459 178V167C459 137 441 130 409 130C391 130 390 130 376 131C366 88 351 43 334 0C370 2 594 3 631 0ZM377 669C433 686 638 725 714 736C705 763 681 853 674 881C614 858 402 792 346 773C355 752 370 697 377 669ZM306 317C339 368 380 428 430 502C438 451 445 381 450 317C406 317 353 317 306 317Z" glyph-name="Aacute" horiz-adv-x="740" unicode="&#193;" /><glyph d="M631 0C636 28 660 98 673 129C664 128 661 128 651 128C630 128 620 142 614 169C595 253 590 495 591 628C541 624 304 624 250 628C240 588 225 543 208 500C220 502 237 501 244 501C264 501 283 496 254 449C214 387 140 272 66 172C37 131 24 128 3 128C-3 128 -6 128 -13 129C-23 86 -38 43 -55 0C-19 2 206 3 243 0C251 30 271 96 285 130C269 129 243 129 232 129C217 129 205 133 205 146C205 157 210 164 221 181C226 190 232 199 238 209C303 209 396 209 458 209C458 197 459 187 459 178V167C459 137 441 130 409 130C391 130 390 130 376 131C366 88 351 43 334 0C370 2 594 3 631 0ZM495 792C444 792 435 828 434 871C410 863 325 843 295 838C301 737 377 681 479 681C598 681 661 741 709 838C681 843 608 863 588 871C565 822 544 792 495 792ZM306 317C339 368 380 428 430 502C438 451 445 381 450 317C406 317 353 317 306 317Z" glyph-name="Abreve" horiz-adv-x="740" unicode="&#258;" /><glyph d="M631 0C636 28 660 98 673 129C664 128 661 128 651 128C630 128 620 142 614 169C595 253 590 495 591 628C541 624 304 624 250 628C240 588 225 543 208 500C220 502 237 501 244 501C264 501 283 496 254 449C214 387 140 272 66 172C37 131 24 128 3 128C-3 128 -6 128 -13 129C-23 86 -38 43 -55 0C-19 2 206 3 243 0C251 30 271 96 285 130C269 129 243 129 232 129C217 129 205 133 205 146C205 157 210 164 221 181C226 190 232 199 238 209C303 209 396 209 458 209C458 197 459 187 459 178V167C459 137 441 130 409 130C391 130 390 130 376 131C366 88 351 43 334 0C370 2 594 3 631 0ZM558 659C581 670 630 690 665 700C635 745 593 820 579 853C555 852 522 852 509 852C496 852 452 852 430 853C401 823 306 752 260 716C286 702 330 675 350 659C402 692 448 724 485 755C505 724 531 691 558 659ZM306 317C339 368 380 428 430 502C438 451 445 381 450 317C406 317 353 317 306 317Z" glyph-name="Acircumflex" horiz-adv-x="740" unicode="&#194;" /><glyph d="M631 0C636 28 660 98 673 129C664 128 661 128 651 128C630 128 620 142 614 169C595 253 590 495 591 628C541 624 304 624 250 628C240 588 225 543 208 500C220 502 237 501 244 501C264 501 283 496 254 449C214 387 140 272 66 172C37 131 24 128 3 128C-3 128 -6 128 -13 129C-23 86 -38 43 -55 0C-19 2 206 3 243 0C251 30 271 96 285 130C269 129 243 129 232 129C217 129 205 133 205 146C205 157 210 164 221 181C226 190 232 199 238 209C303 209 396 209 458 209C458 197 459 187 459 178V167C459 137 441 130 409 130C391 130 390 130 376 131C366 88 351 43 334 0C370 2 594 3 631 0ZM458 773C458 826 422 858 368 858C313 858 277 827 277 773C277 718 313 686 368 686C422 686 458 720 458 773ZM668 773C668 826 632 858 578 858C523 858 487 827 487 773C487 718 523 686 578 686C632 686 668 720 668 773ZM306 317C339 368 380 428 430 502C438 451 445 381 450 317C406 317 353 317 306 317Z" glyph-name="Adieresis" horiz-adv-x="740" unicode="&#196;" /><glyph d="M631 0C636 28 660 98 673 129C664 128 661 128 651 128C630 128 620 142 614 169C595 253 590 495 591 628C541 624 304 624 250 628C240 588 225 543 208 500C220 502 237 501 244 501C264 501 283 496 254 449C214 387 140 272 66 172C37 131 24 128 3 128C-3 128 -6 128 -13 129C-23 86 -38 43 -55 0C-19 2 206 3 243 0C251 30 271 96 285 130C269 129 243 129 232 129C217 129 205 133 205 146C205 157 210 164 221 181C226 190 232 199 238 209C303 209 396 209 458 209C458 197 459 187 459 178V167C459 137 441 130 409 130C391 130 390 130 376 131C366 88 351 43 334 0C370 2 594 3 631 0ZM541 669C549 696 563 752 572 773C516 792 304 858 244 881C237 853 213 763 204 736C280 725 485 686 541 669ZM306 317C339 368 380 428 430 502C438 451 445 381 450 317C406 317 353 317 306 317Z" glyph-name="Agrave" horiz-adv-x="740" unicode="&#192;" /><glyph d="M631 0C636 28 660 98 673 129C664 128 661 128 651 128C630 128 620 142 614 169C595 253 590 495 591 628C541 624 304 624 250 628C240 588 225 543 208 500C220 502 237 501 244 501C264 501 283 496 254 449C214 387 140 272 66 172C37 131 24 128 3 128C-3 128 -6 128 -13 129C-23 86 -38 43 -55 0C-19 2 206 3 243 0C251 30 271 96 285 130C269 129 243 129 232 129C217 129 205 133 205 146C205 157 210 164 221 181C226 190 232 199 238 209C303 209 396 209 458 209C458 197 459 187 459 178V167C459 137 441 130 409 130C391 130 390 130 376 131C366 88 351 43 334 0C370 2 594 3 631 0ZM317 837C305 794 289 748 272 704C322 706 639 706 694 704C706 745 725 798 739 837C682 835 364 835 317 837ZM306 317C339 368 380 428 430 502C438 451 445 381 450 317C406 317 353 317 306 317Z" glyph-name="Amacron" horiz-adv-x="740" unicode="&#256;" /><glyph d="M611 -96C595 -103 582 -104 568 -104C539 -104 523 -93 523 -69C523 -25 571 0 631 0C636 28 660 98 673 129C664 128 661 128 651 128C630 128 620 142 614 169C595 253 590 495 591 628C541 624 304 624 250 628C240 588 225 543 208 500C220 502 237 501 244 501C264 501 283 496 254 449C214 387 140 272 66 172C37 131 24 128 3 128C-3 128 -6 128 -13 129C-23 86 -38 43 -55 0C-19 2 206 3 243 0C251 30 271 96 285 130C269 129 243 129 232 129C217 129 205 133 205 146C205 157 210 164 221 181C226 190 232 199 238 209C303 209 396 209 458 209C458 197 459 187 459 178V167C459 137 441 130 409 130C391 130 390 130 376 131C366 88 351 43 334 0C354 1 430 2 501 2C430 -22 375 -67 375 -135C375 -203 425 -244 511 -244C536 -244 571 -241 602 -230C601 -208 605 -130 611 -96ZM306 317C339 368 380 428 430 502C438 451 445 381 450 317C406 317 353 317 306 317Z" glyph-name="Aogonek" horiz-adv-x="740" unicode="&#260;" /><glyph d="M631 0C636 28 660 98 673 129C664 128 661 128 651 128C630 128 620 142 614 169C595 253 590 495 591 628C541 624 304 624 250 628C240 588 225 543 208 500C220 502 237 501 244 501C264 501 283 496 254 449C214 387 140 272 66 172C37 131 24 128 3 128C-3 128 -6 128 -13 129C-23 86 -38 43 -55 0C-19 2 206 3 243 0C251 30 271 96 285 130C269 129 243 129 232 129C217 129 205 133 205 146C205 157 210 164 221 181C226 190 232 199 238 209C303 209 396 209 458 209C458 197 459 187 459 178V167C459 137 441 130 409 130C391 130 390 130 376 131C366 88 351 43 334 0C370 2 594 3 631 0ZM478 664C574 664 635 735 635 805C635 865 601 903 530 903C431 903 368 833 368 763C368 702 404 664 478 664ZM490 739C464 738 455 752 455 769C455 796 477 826 514 826C539 826 549 813 549 796C549 767 527 739 490 739ZM306 317C339 368 380 428 430 502C438 451 445 381 450 317C406 317 353 317 306 317Z" glyph-name="Aring" horiz-adv-x="740" unicode="&#197;" /><glyph d="M631 0C636 28 660 98 673 129C664 128 661 128 651 128C630 128 620 142 614 169C595 253 590 495 591 628C541 624 304 624 250 628C240 588 225 543 208 500C220 502 237 501 244 501C264 501 283 496 254 449C214 387 140 272 66 172C37 131 24 128 3 128C-3 128 -6 128 -13 129C-23 86 -38 43 -55 0C-19 2 206 3 243 0C251 30 271 96 285 130C269 129 243 129 232 129C217 129 205 133 205 146C205 157 210 164 221 181C226 190 232 199 238 209C303 209 396 209 458 209C458 197 459 187 459 178V167C459 137 441 130 409 130C391 130 390 130 376 131C366 88 351 43 334 0C370 2 594 3 631 0ZM478 664C574 664 635 735 635 805C635 865 601 903 530 903C431 903 368 833 368 763C368 702 404 664 478 664ZM490 739C464 738 455 752 455 769C455 796 477 826 514 826C539 826 549 813 549 796C549 767 527 739 490 739ZM481 921C537 938 742 977 818 988C809 1015 785 1105 778 1133C718 1110 506 1044 450 1025C459 1004 474 949 481 921ZM306 317C339 368 380 428 430 502C438 451 445 381 450 317C406 317 353 317 306 317Z" glyph-name="Aringacute" horiz-adv-x="740" unicode="&#506;" /><glyph d="M631 0C636 28 660 98 673 129C664 128 661 128 651 128C630 128 620 142 614 169C595 253 590 495 591 628C541 624 304 624 250 628C240 588 225 543 208 500C220 502 237 501 244 501C264 501 283 496 254 449C214 387 140 272 66 172C37 131 24 128 3 128C-3 128 -6 128 -13 129C-23 86 -38 43 -55 0C-19 2 206 3 243 0C251 30 271 96 285 130C269 129 243 129 232 129C217 129 205 133 205 146C205 157 210 164 221 181C226 190 232 199 238 209C303 209 396 209 458 209C458 197 459 187 459 178V167C459 137 441 130 409 130C391 130 390 130 376 131C366 88 351 43 334 0C370 2 594 3 631 0ZM406 869C312 869 259 814 236 681C262 683 293 683 322 681C331 730 349 760 374 760C390 760 397 748 406 732C428 694 453 669 522 669C616 669 667 727 692 857C659 854 628 854 606 857C597 810 583 779 555 779C536 779 527 792 515 809C489 845 467 869 406 869ZM306 317C339 368 380 428 430 502C438 451 445 381 450 317C406 317 353 317 306 317Z" glyph-name="Atilde" horiz-adv-x="740" unicode="&#195;" /><glyph d="M457 374C400 374 363 375 328 376C344 421 359 464 374 502C413 503 437 504 482 503C535 504 561 493 561 454C561 416 532 374 457 374ZM414 125C363 125 295 127 252 128C263 169 275 210 287 250C341 251 385 252 410 252C461 252 493 236 493 194C493 145 464 125 414 125ZM415 -1C568 -1 641 76 641 188C641 266 600 291 516 298V305C657 309 713 366 713 488C713 585 659 627 513 627C449 627 400 626 335 626C278 626 211 627 166 628C156 587 143 544 125 501C131 502 140 502 151 502C190 502 214 489 202 452C183 381 140 245 111 171C98 140 83 128 40 128C25 128 13 128 5 129C-5 87 -21 42 -38 0C28 1 104 2 183 2C263 3 337 -1 415 -1Z" glyph-name="B" horiz-adv-x="740" unicode="B" /><glyph d="M643 216C594 237 544 263 501 287C458 182 404 126 324 126C259 126 215 165 215 248C215 360 294 498 419 498C478 498 528 468 528 397C528 387 528 378 527 368C567 367 620 361 657 353C673 393 726 559 757 628C714 626 648 626 588 628C587 620 571 562 557 501H552C536 589 482 642 386 642C187 642 41 420 41 231C41 85 127 -14 307 -14C478 -14 586 89 643 216Z" glyph-name="C" horiz-adv-x="740" unicode="C" /><glyph d="M643 216C594 237 544 263 501 287C458 182 404 126 324 126C259 126 215 165 215 248C215 360 294 498 419 498C478 498 528 468 528 397C528 387 528 378 527 368C567 367 620 361 657 353C673 393 726 559 757 628C714 626 648 626 588 628C587 620 571 562 557 501H552C536 589 482 642 386 642C187 642 41 420 41 231C41 85 127 -14 307 -14C478 -14 586 89 643 216ZM370 669C426 686 631 725 707 736C698 763 674 853 667 881C607 858 395 792 339 773C348 752 363 697 370 669Z" glyph-name="Cacute" horiz-adv-x="740" unicode="&#262;" /><glyph d="M643 216C594 237 544 263 501 287C458 182 404 126 324 126C259 126 215 165 215 248C215 360 294 498 419 498C478 498 528 468 528 397C528 387 528 378 527 368C567 367 620 361 657 353C673 393 726 559 757 628C714 626 648 626 588 628C587 620 571 562 557 501H552C536 589 482 642 386 642C187 642 41 420 41 231C41 85 127 -14 307 -14C478 -14 586 89 643 216ZM526 666C555 696 650 767 696 803C670 817 626 844 606 860C554 827 508 795 471 764C451 795 425 828 398 860C375 849 326 829 291 819C321 774 363 699 377 666C401 667 434 667 447 667C460 667 504 667 526 666Z" glyph-name="Ccaron" horiz-adv-x="740" unicode="&#268;" /><glyph d="M92 -200C129 -228 195 -243 255 -243C369 -243 408 -190 414 -138C421 -81 391 -53 340 -53C313 -53 288 -62 269 -75C278 -55 289 -34 300 -14C302 -14 305 -14 307 -14C478 -14 586 89 643 216C594 237 544 263 501 287C458 182 404 126 324 126C259 126 215 165 215 248C215 360 294 498 419 498C478 498 528 468 528 397C528 387 528 378 527 368C567 367 620 361 657 353C673 393 726 559 757 628C714 626 648 626 588 628C587 620 571 562 557 501H552C536 589 482 642 386 642C187 642 41 420 41 231C41 107 103 17 232 -8C219 -34 203 -62 193 -77C209 -84 229 -97 249 -113C261 -108 274 -103 293 -103C312 -103 328 -111 326 -131C323 -153 302 -164 271 -164C225 -164 179 -139 152 -113C138 -140 112 -181 92 -200Z" glyph-name="Ccedilla" horiz-adv-x="740" unicode="&#199;" /><glyph d="M643 216C594 237 544 263 501 287C458 182 404 126 324 126C259 126 215 165 215 248C215 360 294 498 419 498C478 498 528 468 528 397C528 387 528 378 527 368C567 367 620 361 657 353C673 393 726 559 757 628C714 626 648 626 588 628C587 620 571 562 557 501H552C536 589 482 642 386 642C187 642 41 420 41 231C41 85 127 -14 307 -14C478 -14 586 89 643 216ZM564 659C587 670 636 690 671 700C641 745 599 820 585 853C561 852 528 852 515 852C502 852 458 852 436 853C407 823 312 752 266 716C292 702 336 675 356 659C408 692 454 724 491 755C511 724 537 691 564 659Z" glyph-name="Ccircumflex" horiz-adv-x="740" unicode="&#264;" /><glyph d="M643 216C594 237 544 263 501 287C458 182 404 126 324 126C259 126 215 165 215 248C215 360 294 498 419 498C478 498 528 468 528 397C528 387 528 378 527 368C567 367 620 361 657 353C673 393 726 559 757 628C714 626 648 626 588 628C587 620 571 562 557 501H552C536 589 482 642 386 642C187 642 41 420 41 231C41 85 127 -14 307 -14C478 -14 586 89 643 216ZM563 773C563 824 527 868 464 868C399 868 364 824 364 773C364 720 393 680 464 680C527 680 563 720 563 773Z" glyph-name="Cdotaccent" horiz-adv-x="740" unicode="&#266;" /><glyph d="M363 0C594 0 720 195 720 399C720 573 618 628 485 628C431 628 389 626 335 626C278 626 211 627 166 628C156 587 143 544 125 501C136 502 143 502 151 502C190 502 214 489 202 452C183 381 140 245 111 171C98 140 83 128 40 128C25 128 13 128 5 129C-5 87 -21 42 -38 0C28 1 104 2 183 2C240 3 293 0 363 0ZM347 129C321 129 289 131 263 132C299 263 345 402 384 503C406 503 423 503 445 503C537 503 559 471 559 401C559 258 489 129 347 129Z" glyph-name="D" horiz-adv-x="740" unicode="D" /><glyph d="M363 0C594 0 720 195 720 399C720 573 618 628 485 628C431 628 389 626 335 626C278 626 211 627 166 628C156 587 143 544 125 501C136 502 143 502 151 502C190 502 214 489 202 452C183 381 140 245 111 171C98 140 83 128 40 128C25 128 13 128 5 129C-5 87 -21 42 -38 0C28 1 104 2 183 2C240 3 293 0 363 0ZM347 129C321 129 289 131 263 132C299 263 345 402 384 503C406 503 423 503 445 503C537 503 559 471 559 401C559 258 489 129 347 129ZM536 666C565 696 660 767 706 803C680 817 636 844 616 860C564 827 518 795 481 764C461 795 435 828 408 860C385 849 336 829 301 819C331 774 373 699 387 666C411 667 444 667 457 667C470 667 514 667 536 666Z" glyph-name="Dcaron" horiz-adv-x="740" unicode="&#270;" /><glyph d="M363 0C594 0 720 195 720 399C720 573 618 628 485 628C431 628 389 626 335 626C278 626 211 627 166 628C156 587 143 544 125 501C136 502 143 502 151 502C190 502 214 489 202 452C196 430 188 401 178 369C122 370 76 371 61 372C52 336 40 299 25 262C41 263 88 264 144 264C133 229 121 196 111 171C98 140 83 128 40 128C25 128 13 128 5 129C-5 87 -21 42 -38 0C28 1 104 2 183 2C240 3 293 0 363 0ZM347 129C321 129 289 131 263 132C275 176 288 220 302 264C355 264 400 263 416 262C425 298 438 334 452 372C436 371 390 370 336 369C353 418 369 463 384 503C406 503 423 503 445 503C537 503 559 471 559 401C559 258 489 129 347 129Z" glyph-name="Dcroat" horiz-adv-x="740" unicode="&#272;" /><glyph d="M-38 0C149 3 410 3 594 0C602 36 643 153 662 192C613 203 566 216 528 228C523 209 515 188 508 169C494 132 482 123 446 123C393 123 311 124 279 125C293 177 304 220 315 257C388 254 479 250 502 249C508 290 519 333 532 378C509 376 422 374 349 373C364 415 379 456 398 506H523C561 506 573 499 573 472C573 448 570 426 567 403C611 406 664 408 710 407C714 453 734 585 740 628C577 626 327 625 167 628C158 588 143 544 125 500C133 501 138 501 175 501C215 501 237 487 226 450C207 381 167 251 137 175C123 145 105 128 65 128C65 128 40 127 5 129C-4 87 -21 42 -38 0Z" glyph-name="E" horiz-adv-x="740" unicode="E" /><glyph d="M-38 0C149 3 410 3 594 0C602 36 643 153 662 192C613 203 566 216 528 228C523 209 515 188 508 169C494 132 482 123 446 123C393 123 311 124 279 125C293 177 304 220 315 257C388 254 479 250 502 249C508 290 519 333 532 378C509 376 422 374 349 373C364 415 379 456 398 506H523C561 506 573 499 573 472C573 448 570 426 567 403C611 406 664 408 710 407C714 453 734 585 740 628C577 626 327 625 167 628C158 588 143 544 125 500C133 501 138 501 175 501C215 501 237 487 226 450C207 381 167 251 137 175C123 145 105 128 65 128C65 128 40 127 5 129C-4 87 -21 42 -38 0ZM408 669C464 686 669 725 745 736C736 763 712 853 705 881C645 858 433 792 377 773C386 752 401 697 408 669Z" glyph-name="Eacute" horiz-adv-x="740" unicode="&#201;" /><glyph d="M-38 0C149 3 410 3 594 0C602 36 643 153 662 192C613 203 566 216 528 228C523 209 515 188 508 169C494 132 482 123 446 123C393 123 311 124 279 125C293 177 304 220 315 257C388 254 479 250 502 249C508 290 519 333 532 378C509 376 422 374 349 373C364 415 379 456 398 506H523C561 506 573 499 573 472C573 448 570 426 567 403C611 406 664 408 710 407C714 453 734 585 740 628C577 626 327 625 167 628C158 588 143 544 125 500C133 501 138 501 175 501C215 501 237 487 226 450C207 381 167 251 137 175C123 145 105 128 65 128C65 128 40 127 5 129C-4 87 -21 42 -38 0ZM508 792C457 792 448 828 447 871C423 863 338 843 308 838C314 737 390 681 492 681C611 681 674 741 722 838C694 843 621 863 601 871C578 822 557 792 508 792Z" glyph-name="Ebreve" horiz-adv-x="740" unicode="&#276;" /><glyph d="M-38 0C149 3 410 3 594 0C602 36 643 153 662 192C613 203 566 216 528 228C523 209 515 188 508 169C494 132 482 123 446 123C393 123 311 124 279 125C293 177 304 220 315 257C388 254 479 250 502 249C508 290 519 333 532 378C509 376 422 374 349 373C364 415 379 456 398 506H523C561 506 573 499 573 472C573 448 570 426 567 403C611 406 664 408 710 407C714 453 734 585 740 628C577 626 327 625 167 628C158 588 143 544 125 500C133 501 138 501 175 501C215 501 237 487 226 450C207 381 167 251 137 175C123 145 105 128 65 128C65 128 40 127 5 129C-4 87 -21 42 -38 0ZM543 666C572 696 667 767 713 803C687 817 643 844 623 860C571 827 525 795 488 764C468 795 442 828 415 860C392 849 343 829 308 819C338 774 380 699 394 666C418 667 451 667 464 667C477 667 521 667 543 666Z" glyph-name="Ecaron" horiz-adv-x="740" unicode="&#282;" /><glyph d="M-38 0C149 3 410 3 594 0C602 36 643 153 662 192C613 203 566 216 528 228C523 209 515 188 508 169C494 132 482 123 446 123C393 123 311 124 279 125C293 177 304 220 315 257C388 254 479 250 502 249C508 290 519 333 532 378C509 376 422 374 349 373C364 415 379 456 398 506H523C561 506 573 499 573 472C573 448 570 426 567 403C611 406 664 408 710 407C714 453 734 585 740 628C577 626 327 625 167 628C158 588 143 544 125 500C133 501 138 501 175 501C215 501 237 487 226 450C207 381 167 251 137 175C123 145 105 128 65 128C65 128 40 127 5 129C-4 87 -21 42 -38 0ZM572 659C595 670 644 690 679 700C649 745 607 820 593 853C569 852 536 852 523 852C510 852 466 852 444 853C415 823 320 752 274 716C300 702 344 675 364 659C416 692 462 724 499 755C519 724 545 691 572 659Z" glyph-name="Ecircumflex" horiz-adv-x="740" unicode="&#202;" /><glyph d="M-38 0C149 3 410 3 594 0C602 36 643 153 662 192C613 203 566 216 528 228C523 209 515 188 508 169C494 132 482 123 446 123C393 123 311 124 279 125C293 177 304 220 315 257C388 254 479 250 502 249C508 290 519 333 532 378C509 376 422 374 349 373C364 415 379 456 398 506H523C561 506 573 499 573 472C573 448 570 426 567 403C611 406 664 408 710 407C714 453 734 585 740 628C577 626 327 625 167 628C158 588 143 544 125 500C133 501 138 501 175 501C215 501 237 487 226 450C207 381 167 251 137 175C123 145 105 128 65 128C65 128 40 127 5 129C-4 87 -21 42 -38 0ZM486 773C486 826 450 858 396 858C341 858 305 827 305 773C305 718 341 686 396 686C450 686 486 720 486 773ZM696 773C696 826 660 858 606 858C551 858 515 827 515 773C515 718 551 686 606 686C660 686 696 720 696 773Z" glyph-name="Edieresis" horiz-adv-x="740" unicode="&#203;" /><glyph d="M-38 0C149 3 410 3 594 0C602 36 643 153 662 192C613 203 566 216 528 228C523 209 515 188 508 169C494 132 482 123 446 123C393 123 311 124 279 125C293 177 304 220 315 257C388 254 479 250 502 249C508 290 519 333 532 378C509 376 422 374 349 373C364 415 379 456 398 506H523C561 506 573 499 573 472C573 448 570 426 567 403C611 406 664 408 710 407C714 453 734 585 740 628C577 626 327 625 167 628C158 588 143 544 125 500C133 501 138 501 175 501C215 501 237 487 226 450C207 381 167 251 137 175C123 145 105 128 65 128C65 128 40 127 5 129C-4 87 -21 42 -38 0ZM603 773C603 824 567 868 504 868C439 868 404 824 404 773C404 720 433 680 504 680C567 680 603 720 603 773Z" glyph-name="Edotaccent" horiz-adv-x="740" unicode="&#278;" /><glyph d="M-38 0C149 3 410 3 594 0C602 36 643 153 662 192C613 203 566 216 528 228C523 209 515 188 508 169C494 132 482 123 446 123C393 123 311 124 279 125C293 177 304 220 315 257C388 254 479 250 502 249C508 290 519 333 532 378C509 376 422 374 349 373C364 415 379 456 398 506H523C561 506 573 499 573 472C573 448 570 426 567 403C611 406 664 408 710 407C714 453 734 585 740 628C577 626 327 625 167 628C158 588 143 544 125 500C133 501 138 501 175 501C215 501 237 487 226 450C207 381 167 251 137 175C123 145 105 128 65 128C65 128 40 127 5 129C-4 87 -21 42 -38 0ZM532 669C540 696 554 752 563 773C507 792 295 858 235 881C228 853 204 763 195 736C271 725 476 686 532 669Z" glyph-name="Egrave" horiz-adv-x="740" unicode="&#200;" /><glyph d="M-38 0C149 3 410 3 594 0C602 36 643 153 662 192C613 203 566 216 528 228C523 209 515 188 508 169C494 132 482 123 446 123C393 123 311 124 279 125C293 177 304 220 315 257C388 254 479 250 502 249C508 290 519 333 532 378C509 376 422 374 349 373C364 415 379 456 398 506H523C561 506 573 499 573 472C573 448 570 426 567 403C611 406 664 408 710 407C714 453 734 585 740 628C577 626 327 625 167 628C158 588 143 544 125 500C133 501 138 501 175 501C215 501 237 487 226 450C207 381 167 251 137 175C123 145 105 128 65 128C65 128 40 127 5 129C-4 87 -21 42 -38 0ZM308 837C296 794 280 748 263 704C313 706 630 706 685 704C697 745 716 798 730 837C673 835 355 835 308 837Z" glyph-name="Emacron" horiz-adv-x="740" unicode="&#274;" /><glyph d="M733 460C737 481 739 501 739 518C739 602 687 643 609 643C522 643 432 597 369 479L358 480C376 533 394 596 403 628C342 627 213 626 173 628C163 589 148 541 132 501C143 503 150 502 163 502C195 502 209 488 199 450C181 380 138 238 107 166C98 144 90 128 51 128C37 128 23 127 12 129C3 86 -13 42 -30 0C10 2 280 3 315 0C322 28 344 94 357 128H315C269 128 258 151 266 178C326 366 415 495 500 495C540 495 555 474 555 444C555 427 552 409 547 389C527 308 491 204 441 67C415 -6 395 -47 372 -65C362 -41 338 -26 307 -26C245 -26 219 -65 219 -109C219 -168 264 -201 344 -201C485 -201 554 -83 593 24C657 201 712 360 733 460Z" glyph-name="Eng" horiz-adv-x="740" unicode="&#330;" /><glyph d="M-38 0C108 2 299 3 463 2C393 -22 338 -67 338 -135C338 -203 388 -244 474 -244C499 -244 534 -241 565 -230C564 -208 568 -130 574 -96C558 -103 545 -104 531 -104C502 -104 486 -93 486 -69C486 -25 534 0 594 0C602 36 643 153 662 192C613 203 566 216 528 228C523 209 515 188 508 169C494 132 482 123 446 123C393 123 311 124 279 125C293 177 304 220 315 257C388 254 479 250 502 249C508 290 519 333 532 378C509 376 422 374 349 373C364 415 379 456 398 506H523C561 506 573 499 573 472C573 448 570 426 567 403C611 406 664 408 710 407C714 453 734 585 740 628C577 626 327 625 167 628C158 588 143 544 125 500C133 501 138 501 175 501C215 501 237 487 226 450C207 381 167 251 137 175C123 145 105 128 65 128C65 128 40 127 5 129C-4 87 -21 42 -38 0Z" glyph-name="Eogonek" horiz-adv-x="740" unicode="&#280;" /><glyph d="M363 0C594 0 720 195 720 399C720 573 618 628 485 628C431 628 389 626 335 626C278 626 211 627 166 628C156 587 143 544 125 501C136 502 143 502 151 502C190 502 214 489 202 452C196 430 188 401 178 369C122 370 76 371 61 372C52 336 40 299 25 262C41 263 88 264 144 264C133 229 121 196 111 171C98 140 83 128 40 128C25 128 13 128 5 129C-5 87 -21 42 -38 0C28 1 104 2 183 2C240 3 293 0 363 0ZM347 129C321 129 289 131 263 132C275 176 288 220 302 264C355 264 400 263 416 262C425 298 438 334 452 372C436 371 390 370 336 369C353 418 369 463 384 503C406 503 423 503 445 503C537 503 559 471 559 401C559 258 489 129 347 129Z" glyph-name="Eth" horiz-adv-x="740" unicode="&#208;" /><glyph d="M3 288C-4 260 -13 232 -24 204C-10 205 27 205 74 205C78 75 155 -14 321 -14C481 -14 580 80 643 216C594 237 544 263 501 287C458 182 404 126 339 126C287 126 257 151 250 206C313 206 368 205 388 204C395 231 404 259 415 288C394 286 326 285 252 285C254 301 258 316 262 332C338 331 406 331 428 329C435 357 444 385 455 414C434 412 369 411 297 411C329 462 375 498 436 498C478 498 528 468 528 397C528 387 528 378 527 368C567 367 620 361 657 353C673 393 726 559 757 628C714 626 648 626 588 628C587 620 571 562 557 501H552C535 589 480 642 407 642C272 642 169 539 115 412C80 412 54 413 43 414C36 386 27 357 16 329C27 330 54 330 88 331C85 316 82 301 79 286C43 286 14 287 3 288Z" glyph-name="Euro" horiz-adv-x="740" unicode="&#8364;" /><glyph d="M3 330C-6 296 -17 263 -29 230C-15 231 19 232 63 233C62 226 62 218 62 211C62 72 145 -10 323 -10C422 -10 512 0 634 92C612 117 591 146 558 198C488 149 406 131 351 131C277 131 240 164 240 231V233C307 233 365 232 386 230C395 262 406 296 418 330C397 327 335 326 265 325C302 388 373 431 459 431C487 431 517 427 540 414C510 405 485 381 485 345C485 308 515 279 565 279C635 279 674 336 674 406C674 490 611 564 455 564C242 564 124 454 81 326C43 327 14 328 3 330Z" glyph-name="Euro.osf" horiz-adv-x="740" /><glyph d="M431 0C442 46 454 83 474 131C456 129 407 128 332 128C287 128 284 158 291 181C295 194 298 206 302 217C386 217 507 215 536 213C542 254 554 297 566 342C538 339 421 338 337 338C355 399 370 445 393 506H533C575 506 592 498 589 460C587 435 587 411 582 383C626 387 679 388 725 387C730 438 744 582 750 629C584 627 330 627 167 630C158 589 143 545 125 500C150 501 167 501 179 501C213 501 234 486 223 450C204 381 164 251 134 175C119 138 106 128 62 128C40 128 24 128 5 129C-7 86 -20 42 -37 0C18 2 374 2 431 0Z" glyph-name="F" horiz-adv-x="740" unicode="F" /><glyph d="M419 498C478 498 528 468 528 397C528 389 529 381 528 373C571 376 621 376 667 373C680 415 728 564 757 628C714 626 648 626 588 628C587 620 571 562 557 501H552C536 589 482 642 386 642C186 642 41 420 41 231C41 85 127 -13 263 -13C326 -13 394 34 442 95L449 94C438 54 421 23 412 0C472 3 530 1 561 0C577 61 594 117 610 163C622 198 629 211 652 211H685C693 248 709 288 724 326C676 321 393 322 342 324C333 287 321 248 306 210C327 211 379 213 432 213C462 213 471 208 471 192C471 154 416 127 347 127C258 127 215 166 215 248C215 360 290 498 419 498Z" glyph-name="G" horiz-adv-x="740" unicode="G" /><glyph d="M419 498C478 498 528 468 528 397C528 389 529 381 528 373C571 376 621 376 667 373C680 415 728 564 757 628C714 626 648 626 588 628C587 620 571 562 557 501H552C536 589 482 642 386 642C186 642 41 420 41 231C41 85 127 -13 263 -13C326 -13 394 34 442 95L449 94C438 54 421 23 412 0C472 3 530 1 561 0C577 61 594 117 610 163C622 198 629 211 652 211H685C693 248 709 288 724 326C676 321 393 322 342 324C333 287 321 248 306 210C327 211 379 213 432 213C462 213 471 208 471 192C471 154 416 127 347 127C258 127 215 166 215 248C215 360 290 498 419 498ZM466 792C415 792 406 828 405 871C381 863 296 843 266 838C272 737 348 681 450 681C569 681 632 741 680 838C652 843 579 863 559 871C536 822 515 792 466 792Z" glyph-name="Gbreve" horiz-adv-x="740" unicode="&#286;" /><glyph d="M419 498C478 498 528 468 528 397C528 389 529 381 528 373C571 376 621 376 667 373C680 415 728 564 757 628C714 626 648 626 588 628C587 620 571 562 557 501H552C536 589 482 642 386 642C186 642 41 420 41 231C41 85 127 -13 263 -13C326 -13 394 34 442 95L449 94C438 54 421 23 412 0C472 3 530 1 561 0C577 61 594 117 610 163C622 198 629 211 652 211H685C693 248 709 288 724 326C676 321 393 322 342 324C333 287 321 248 306 210C327 211 379 213 432 213C462 213 471 208 471 192C471 154 416 127 347 127C258 127 215 166 215 248C215 360 290 498 419 498ZM552 659C575 670 624 690 659 700C629 745 587 820 573 853C549 852 516 852 503 852C490 852 446 852 424 853C395 823 300 752 254 716C280 702 324 675 344 659C396 692 442 724 479 755C499 724 525 691 552 659Z" glyph-name="Gcircumflex" horiz-adv-x="740" unicode="&#284;" /><glyph d="M419 498C478 498 528 468 528 397C528 389 529 381 528 373C571 376 621 376 667 373C680 415 728 564 757 628C714 626 648 626 588 628C587 620 571 562 557 501H552C536 589 482 642 386 642C186 642 41 420 41 231C41 85 127 -13 263 -13C326 -13 394 34 442 95L449 94C438 54 421 23 412 0C472 3 530 1 561 0C577 61 594 117 610 163C622 198 629 211 652 211H685C693 248 709 288 724 326C676 321 393 322 342 324C333 287 321 248 306 210C327 211 379 213 432 213C462 213 471 208 471 192C471 154 416 127 347 127C258 127 215 166 215 248C215 360 290 498 419 498ZM163 -322C303 -321 383 -238 383 -152C383 -91 353 -46 288 -46C233 -46 199 -79 199 -120C199 -158 223 -186 267 -186C296 -186 318 -173 328 -153L335 -156C328 -216 253 -239 158 -235C161 -257 163 -295 163 -322Z" glyph-name="Gcommaaccent" horiz-adv-x="740" unicode="&#290;" /><glyph d="M419 498C478 498 528 468 528 397C528 389 529 381 528 373C571 376 621 376 667 373C680 415 728 564 757 628C714 626 648 626 588 628C587 620 571 562 557 501H552C536 589 482 642 386 642C186 642 41 420 41 231C41 85 127 -13 263 -13C326 -13 394 34 442 95L449 94C438 54 421 23 412 0C472 3 530 1 561 0C577 61 594 117 610 163C622 198 629 211 652 211H685C693 248 709 288 724 326C676 321 393 322 342 324C333 287 321 248 306 210C327 211 379 213 432 213C462 213 471 208 471 192C471 154 416 127 347 127C258 127 215 166 215 248C215 360 290 498 419 498ZM551 773C551 824 515 868 452 868C387 868 352 824 352 773C352 720 381 680 452 680C515 680 551 720 551 773Z" glyph-name="Gdotaccent" horiz-adv-x="740" unicode="&#288;" /><glyph d="M293 128H278C232 128 222 151 229 178C235 201 242 226 249 253C317 253 406 253 478 253C467 221 457 191 447 166C438 143 415 128 386 128H362C353 86 337 42 320 0C357 2 581 3 618 0C629 39 646 95 659 127C654 126 648 126 645 126C611 126 601 148 608 178C630 262 672 385 700 460C713 495 740 501 765 503C772 503 775 503 781 502C793 542 807 586 822 628C781 624 559 626 520 628C509 590 495 544 479 501C490 502 497 502 507 502C546 502 547 486 539 450C533 428 525 399 515 368C445 367 356 367 286 368C297 400 308 431 320 460C333 491 350 502 380 502C386 502 395 503 407 501C417 539 433 588 449 628C405 624 192 626 153 628C143 589 128 541 112 501C117 502 120 502 126 502C158 502 172 488 162 450C144 380 101 238 70 166C61 144 53 128 14 128C6 128 -2 128 -8 129C-17 86 -33 42 -50 0C-12 2 218 3 251 0C258 28 280 94 293 128Z" glyph-name="H" horiz-adv-x="740" unicode="H" /><glyph d="M293 128H278C232 128 222 151 229 178C233 193 237 210 242 227C311 227 399 227 469 227C462 205 454 184 447 166C438 143 415 128 386 128H362C353 86 337 42 320 0C357 2 581 3 618 0C629 39 646 95 659 127C654 126 648 126 645 126C611 126 601 148 608 178C622 233 646 306 668 370C713 369 748 368 766 367C773 394 785 429 793 451C775 449 740 448 695 447C697 452 698 456 700 460C713 495 740 501 765 503C772 503 775 503 781 502C793 542 807 586 822 628C781 624 559 626 520 628C509 590 495 544 479 501C490 502 497 502 507 502C546 502 547 486 539 450C539 449 538 447 538 446C465 445 386 445 314 446C316 451 318 455 320 460C333 491 350 502 380 502C386 502 395 503 407 501C417 539 433 588 449 628C405 624 192 626 153 628C143 589 128 541 112 501C117 502 120 502 126 502C158 502 172 488 162 450L161 448C116 448 82 450 66 451C59 422 50 396 40 367C57 368 93 369 140 370C119 300 92 216 70 166C61 144 53 128 14 128C6 128 -2 128 -8 129C-17 86 -33 42 -50 0C-12 2 218 3 251 0C258 28 280 94 293 128ZM272 327C277 342 282 357 287 372C361 372 442 372 516 371C512 357 507 342 502 327C432 326 343 326 272 327Z" glyph-name="Hbar" horiz-adv-x="740" unicode="&#294;" /><glyph d="M293 128H278C232 128 222 151 229 178C235 201 242 226 249 253C317 253 406 253 478 253C467 221 457 191 447 166C438 143 415 128 386 128H362C353 86 337 42 320 0C357 2 581 3 618 0C629 39 646 95 659 127C654 126 648 126 645 126C611 126 601 148 608 178C630 262 672 385 700 460C713 495 740 501 765 503C772 503 775 503 781 502C793 542 807 586 822 628C781 624 559 626 520 628C509 590 495 544 479 501C490 502 497 502 507 502C546 502 547 486 539 450C533 428 525 399 515 368C445 367 356 367 286 368C297 400 308 431 320 460C333 491 350 502 380 502C386 502 395 503 407 501C417 539 433 588 449 628C405 624 192 626 153 628C143 589 128 541 112 501C117 502 120 502 126 502C158 502 172 488 162 450C144 380 101 238 70 166C61 144 53 128 14 128C6 128 -2 128 -8 129C-17 86 -33 42 -50 0C-12 2 218 3 251 0C258 28 280 94 293 128ZM592 659C615 670 664 690 699 700C669 745 627 820 613 853C589 852 556 852 543 852C530 852 486 852 464 853C435 823 340 752 294 716C320 702 364 675 384 659C436 692 482 724 519 755C539 724 565 691 592 659Z" glyph-name="Hcircumflex" horiz-adv-x="740" unicode="&#292;" /><glyph d="M429 178C449 258 488 378 522 460C537 495 552 504 581 504C638 504 670 503 703 501C714 544 727 586 744 628C679 623 288 625 220 628C210 587 196 545 179 501C200 502 249 504 304 504C340 504 342 481 334 452C314 383 271 240 243 169C229 131 211 124 181 124C123 124 97 123 57 127C47 86 33 42 16 0C82 3 471 5 541 0C550 41 565 84 582 127C548 125 511 124 458 124C423 124 422 149 429 178Z" glyph-name="I" horiz-adv-x="740" unicode="I" /><glyph d="M482 628C438 626 182 626 136 628C125 586 111 542 93 495C103 496 121 496 145 496C181 496 185 481 175 451C170 436 161 405 155 389C143 356 128 343 82 343C64 343 52 343 43 344C36 311 14 243 0 209C43 211 298 213 346 209C354 244 376 312 390 346C384 345 368 343 349 343C309 343 297 356 307 391C311 407 321 436 326 451C336 482 350 496 386 496C410 496 428 496 439 495C450 541 465 585 482 628ZM-57 47C13 6 141 -14 283 -14C479 -14 596 72 650 241C669 299 695 401 718 458C731 493 753 497 777 497C788 497 797 497 805 496C818 544 830 589 846 628C777 624 545 627 518 628C509 588 492 541 475 495C486 496 500 496 518 496C555 496 558 477 548 443C535 395 508 303 485 251C444 158 393 127 286 127C173 127 76 155 28 185C9 147 -29 80 -57 47Z" glyph-name="IJ" horiz-adv-x="740" unicode="&#306;" /><glyph d="M429 178C449 258 488 378 522 460C537 495 552 504 581 504C638 504 670 503 703 501C714 544 727 586 744 628C679 623 288 625 220 628C210 587 196 545 179 501C200 502 249 504 304 504C340 504 342 481 334 452C314 383 271 240 243 169C229 131 211 124 181 124C123 124 97 123 57 127C47 86 33 42 16 0C82 3 471 5 541 0C550 41 565 84 582 127C548 125 511 124 458 124C423 124 422 149 429 178ZM395 669C451 686 656 725 732 736C723 763 699 853 692 881C632 858 420 792 364 773C373 752 388 697 395 669Z" glyph-name="Iacute" horiz-adv-x="740" unicode="&#205;" /><glyph d="M429 178C449 258 488 378 522 460C537 495 552 504 581 504C638 504 670 503 703 501C714 544 727 586 744 628C679 623 288 625 220 628C210 587 196 545 179 501C200 502 249 504 304 504C340 504 342 481 334 452C314 383 271 240 243 169C229 131 211 124 181 124C123 124 97 123 57 127C47 86 33 42 16 0C82 3 471 5 541 0C550 41 565 84 582 127C548 125 511 124 458 124C423 124 422 149 429 178ZM513 792C462 792 453 828 452 871C428 863 343 843 313 838C319 737 395 681 497 681C616 681 679 741 727 838C699 843 626 863 606 871C583 822 562 792 513 792Z" glyph-name="Ibreve" horiz-adv-x="740" unicode="&#300;" /><glyph d="M429 178C449 258 488 378 522 460C537 495 552 504 581 504C638 504 670 503 703 501C714 544 727 586 744 628C679 623 288 625 220 628C210 587 196 545 179 501C200 502 249 504 304 504C340 504 342 481 334 452C314 383 271 240 243 169C229 131 211 124 181 124C123 124 97 123 57 127C47 86 33 42 16 0C82 3 471 5 541 0C550 41 565 84 582 127C548 125 511 124 458 124C423 124 422 149 429 178ZM599 659C622 670 671 690 706 700C676 745 634 820 620 853C596 852 563 852 550 852C537 852 493 852 471 853C442 823 347 752 301 716C327 702 371 675 391 659C443 692 489 724 526 755C546 724 572 691 599 659Z" glyph-name="Icircumflex" horiz-adv-x="740" unicode="&#206;" /><glyph d="M429 178C449 258 488 378 522 460C537 495 552 504 581 504C638 504 670 503 703 501C714 544 727 586 744 628C679 623 288 625 220 628C210 587 196 545 179 501C200 502 249 504 304 504C340 504 342 481 334 452C314 383 271 240 243 169C229 131 211 124 181 124C123 124 97 123 57 127C47 86 33 42 16 0C82 3 471 5 541 0C550 41 565 84 582 127C548 125 511 124 458 124C423 124 422 149 429 178ZM513 773C513 826 477 858 423 858C368 858 332 827 332 773C332 718 368 686 423 686C477 686 513 720 513 773ZM723 773C723 826 687 858 633 858C578 858 542 827 542 773C542 718 578 686 633 686C687 686 723 720 723 773Z" glyph-name="Idieresis" horiz-adv-x="740" unicode="&#207;" /><glyph d="M429 178C449 258 488 378 522 460C537 495 552 504 581 504C638 504 670 503 703 501C714 544 727 586 744 628C679 623 288 625 220 628C210 587 196 545 179 501C200 502 249 504 304 504C340 504 342 481 334 452C314 383 271 240 243 169C229 131 211 124 181 124C123 124 97 123 57 127C47 86 33 42 16 0C82 3 471 5 541 0C550 41 565 84 582 127C548 125 511 124 458 124C423 124 422 149 429 178ZM598 773C598 824 562 868 499 868C434 868 399 824 399 773C399 720 428 680 499 680C562 680 598 720 598 773Z" glyph-name="Idotaccent" horiz-adv-x="740" unicode="&#304;" /><glyph d="M429 178C449 258 488 378 522 460C537 495 552 504 581 504C638 504 670 503 703 501C714 544 727 586 744 628C679 623 288 625 220 628C210 587 196 545 179 501C200 502 249 504 304 504C340 504 342 481 334 452C314 383 271 240 243 169C229 131 211 124 181 124C123 124 97 123 57 127C47 86 33 42 16 0C82 3 471 5 541 0C550 41 565 84 582 127C548 125 511 124 458 124C423 124 422 149 429 178ZM559 669C567 696 581 752 590 773C534 792 322 858 262 881C255 853 231 763 222 736C298 725 503 686 559 669Z" glyph-name="Igrave" horiz-adv-x="740" unicode="&#204;" /><glyph d="M429 178C449 258 488 378 522 460C537 495 552 504 581 504C638 504 670 503 703 501C714 544 727 586 744 628C679 623 288 625 220 628C210 587 196 545 179 501C200 502 249 504 304 504C340 504 342 481 334 452C314 383 271 240 243 169C229 131 211 124 181 124C123 124 97 123 57 127C47 86 33 42 16 0C82 3 471 5 541 0C550 41 565 84 582 127C548 125 511 124 458 124C423 124 422 149 429 178ZM335 837C323 794 307 748 290 704C340 706 657 706 712 704C724 745 743 798 757 837C700 835 382 835 335 837Z" glyph-name="Imacron" horiz-adv-x="740" unicode="&#298;" /><glyph d="M429 178C449 258 488 378 522 460C537 495 552 504 581 504C638 504 670 503 703 501C714 544 727 586 744 628C679 623 288 625 220 628C210 587 196 545 179 501C200 502 249 504 304 504C340 504 342 481 334 452C314 383 271 240 243 169C229 131 211 124 181 124C123 124 97 123 57 127C47 86 33 42 16 0C63 2 271 4 414 3C342 -21 285 -66 285 -135C285 -203 335 -244 421 -244C446 -244 481 -241 512 -230C511 -208 515 -130 521 -96C505 -103 492 -104 478 -104C449 -104 433 -93 433 -69C433 -25 481 0 541 0C550 41 565 84 582 127C548 125 511 124 458 124C423 124 422 149 429 178Z" glyph-name="Iogonek" horiz-adv-x="740" unicode="&#302;" /><glyph d="M429 178C449 258 488 378 522 460C537 495 552 504 581 504C638 504 670 503 703 501C714 544 727 586 744 628C679 623 288 625 220 628C210 587 196 545 179 501C200 502 249 504 304 504C340 504 342 481 334 452C314 383 271 240 243 169C229 131 211 124 181 124C123 124 97 123 57 127C47 86 33 42 16 0C82 3 471 5 541 0C550 41 565 84 582 127C548 125 511 124 458 124C423 124 422 149 429 178ZM451 869C357 869 304 814 281 681C307 683 338 683 367 681C376 730 394 760 419 760C435 760 442 748 451 732C473 694 498 669 567 669C661 669 712 727 737 857C704 854 673 854 651 857C642 810 628 779 600 779C581 779 572 792 560 809C534 845 512 869 451 869Z" glyph-name="Itilde" horiz-adv-x="740" unicode="&#296;" /><glyph d="M571 192C594 263 631 389 657 459C667 487 685 501 720 501C735 501 750 500 767 500C779 538 796 588 812 630C703 624 334 628 291 630C282 589 264 543 247 497C287 500 354 501 433 501C486 501 489 484 480 452C462 386 423 249 407 212C379 149 329 127 282 127C222 127 190 157 190 198C190 201 190 204 191 206C193 206 196 206 199 206C248 206 282 245 282 298C282 352 250 385 189 385C95 385 48 310 48 205C48 81 114 -14 284 -14C423 -14 524 45 571 192Z" glyph-name="J" horiz-adv-x="740" unicode="J" /><glyph d="M571 192C594 263 631 389 657 459C667 487 685 501 720 501C735 501 750 500 767 500C779 538 796 588 812 630C703 624 334 628 291 630C282 589 264 543 247 497C287 500 354 501 433 501C486 501 489 484 480 452C462 386 423 249 407 212C379 149 329 127 282 127C222 127 190 157 190 198C190 201 190 204 191 206C193 206 196 206 199 206C248 206 282 245 282 298C282 352 250 385 189 385C95 385 48 310 48 205C48 81 114 -14 284 -14C423 -14 524 45 571 192ZM709 659C732 670 781 690 816 700C786 745 744 820 730 853C706 852 673 852 660 852C647 852 603 852 581 853C552 823 457 752 411 716C437 702 481 675 501 659C553 692 599 724 636 755C656 724 682 691 709 659Z" glyph-name="Jcircumflex" horiz-adv-x="740" unicode="&#308;" /><glyph d="M532 -10C601 -10 660 19 688 32C671 73 657 114 649 161C623 141 598 134 575 134C494 134 507 242 431 294C516 349 603 409 652 440C707 474 734 495 771 499C780 542 798 587 815 628C778 628 545 627 507 628C499 600 480 541 468 507C474 508 482 508 487 508C507 508 511 500 511 493C511 482 505 476 492 465C454 432 370 381 276 340C290 382 305 423 320 460C333 491 350 502 380 502C386 502 395 503 407 501C417 539 433 588 449 628C405 624 192 626 153 628C143 589 128 541 112 501C117 502 120 502 126 502C158 502 172 488 162 450C144 380 101 238 70 166C61 144 53 128 14 128C6 128 -2 128 -8 129C-17 86 -33 42 -50 0C-10 2 236 3 271 0C278 28 300 94 313 128H278C232 128 222 151 229 178C234 198 240 220 247 243C247 243 248 243 249 243C406 240 330 -10 532 -10Z" glyph-name="K" horiz-adv-x="740" unicode="K" /><glyph d="M532 -10C601 -10 660 19 688 32C671 73 657 114 649 161C623 141 598 134 575 134C494 134 507 242 431 294C516 349 603 409 652 440C707 474 734 495 771 499C780 542 798 587 815 628C778 628 545 627 507 628C499 600 480 541 468 507C474 508 482 508 487 508C507 508 511 500 511 493C511 482 505 476 492 465C454 432 370 381 276 340C290 382 305 423 320 460C333 491 350 502 380 502C386 502 395 503 407 501C417 539 433 588 449 628C405 624 192 626 153 628C143 589 128 541 112 501C117 502 120 502 126 502C158 502 172 488 162 450C144 380 101 238 70 166C61 144 53 128 14 128C6 128 -2 128 -8 129C-17 86 -33 42 -50 0C-10 2 236 3 271 0C278 28 300 94 313 128H278C232 128 222 151 229 178C234 198 240 220 247 243C247 243 248 243 249 243C406 240 330 -10 532 -10ZM120 -322C260 -321 340 -238 340 -152C340 -91 310 -46 245 -46C190 -46 156 -79 156 -120C156 -158 180 -186 224 -186C253 -186 275 -173 285 -153L292 -156C285 -216 210 -239 115 -235C118 -257 120 -295 120 -322Z" glyph-name="Kcommaaccent" horiz-adv-x="740" unicode="&#310;" /><glyph d="M426 125C390 125 335 126 304 126C334 242 365 361 402 455C417 493 431 505 494 505C530 505 550 505 573 504C585 544 599 589 615 628C492 627 304 628 183 630C174 590 157 547 140 504C149 504 172 505 194 505C236 505 252 491 241 455C221 385 179 247 150 173C138 142 122 130 83 130C56 130 35 130 19 131C7 87 -6 43 -23 0C163 3 421 3 602 0C614 47 669 199 690 249C641 262 594 275 551 287C541 248 526 206 507 169C491 137 473 125 426 125Z" glyph-name="L" horiz-adv-x="740" unicode="L" /><glyph d="M426 125C390 125 335 126 304 126C334 242 365 361 402 455C417 493 431 505 494 505C530 505 550 505 573 504C585 544 599 589 615 628C492 627 304 628 183 630C174 590 157 547 140 504C149 504 172 505 194 505C236 505 252 491 241 455C221 385 179 247 150 173C138 142 122 130 83 130C56 130 35 130 19 131C7 87 -6 43 -23 0C163 3 421 3 602 0C614 47 669 199 690 249C641 262 594 275 551 287C541 248 526 206 507 169C491 137 473 125 426 125ZM316 669C372 686 577 725 653 736C644 763 620 853 613 881C553 858 341 792 285 773C294 752 309 697 316 669Z" glyph-name="Lacute" horiz-adv-x="740" unicode="&#313;" /><glyph d="M426 125C390 125 335 126 304 126C334 242 365 361 402 455C417 493 431 505 494 505C530 505 550 505 573 504C585 544 599 589 615 628C492 627 304 628 183 630C174 590 157 547 140 504C149 504 172 505 194 505C236 505 252 491 241 455C221 385 179 247 150 173C138 142 122 130 83 130C56 130 35 130 19 131C7 87 -6 43 -23 0C163 3 421 3 602 0C614 47 669 199 690 249C641 262 594 275 551 287C541 248 526 206 507 169C491 137 473 125 426 125ZM802 652C760 640 702 635 658 628C677 571 654 480 621 424C652 417 697 401 722 388C788 478 814 575 802 652Z" glyph-name="Lcaron" horiz-adv-x="740" unicode="&#317;" /><glyph d="M426 125C390 125 335 126 304 126C334 242 365 361 402 455C417 493 431 505 494 505C530 505 550 505 573 504C585 544 599 589 615 628C492 627 304 628 183 630C174 590 157 547 140 504C149 504 172 505 194 505C236 505 252 491 241 455C221 385 179 247 150 173C138 142 122 130 83 130C56 130 35 130 19 131C7 87 -6 43 -23 0C163 3 421 3 602 0C614 47 669 199 690 249C641 262 594 275 551 287C541 248 526 206 507 169C491 137 473 125 426 125ZM169 -322C309 -321 389 -238 389 -152C389 -91 359 -46 294 -46C239 -46 205 -79 205 -120C205 -158 229 -186 273 -186C302 -186 324 -173 334 -153L341 -156C334 -216 259 -239 164 -235C167 -257 169 -295 169 -322Z" glyph-name="Lcommaaccent" horiz-adv-x="740" unicode="&#315;" /><glyph d="M445 125C403 125 338 126 305 126C334 242 365 361 402 455C417 493 431 505 494 505C530 505 550 505 573 504C585 544 599 589 615 628C492 627 304 628 183 630C174 590 157 547 140 504C149 504 172 505 194 505C236 505 252 491 241 455C221 385 179 247 150 173C138 142 122 130 83 130C56 130 35 130 19 131C7 87 -6 43 -23 0C163 3 421 3 602 0C610 32 646 136 661 170C612 183 565 196 522 208C517 190 511 169 502 152C492 131 478 125 445 125ZM706 353C706 410 668 454 598 454C527 454 488 410 488 353C488 296 520 250 598 250C668 250 706 296 706 353Z" glyph-name="Ldot" horiz-adv-x="740" unicode="&#319;" /><glyph d="M47 305C54 279 61 249 65 221C81 227 124 240 179 255C169 224 159 196 150 173C138 142 122 130 83 130C56 130 35 130 19 131C7 87 -6 43 -23 0C163 3 421 3 602 0C614 47 669 199 690 249C641 262 594 275 551 287C541 248 526 206 507 169C491 137 473 125 426 125C390 125 335 126 304 126C320 185 335 245 351 302C457 330 557 356 590 363C581 391 574 422 570 446C544 436 466 414 379 390C386 413 394 434 402 455C417 493 431 505 494 505C530 505 550 505 573 504C585 544 599 589 615 628C492 627 304 628 183 630C174 590 157 547 140 504C149 504 172 505 194 505C236 505 252 491 241 455C233 427 221 387 208 345C132 325 68 309 47 305Z" glyph-name="Lslash" horiz-adv-x="740" unicode="&#321;" /><glyph d="M601 0C606 28 630 99 642 129C628 128 626 128 612 128C578 128 573 147 583 178C604 255 645 388 673 463C684 492 702 502 733 502C746 502 750 502 763 500C773 543 787 587 804 628C770 626 588 627 557 628C539 594 458 477 401 403C386 473 377 593 376 628C344 625 189 626 160 628C151 587 136 544 119 501C128 502 130 502 140 502C175 502 181 486 172 451C152 382 111 245 84 172C72 143 59 129 24 129C19 129 9 129 -1 130C-10 87 -28 43 -44 0C-11 2 199 3 234 0C239 28 263 96 276 130C268 129 263 129 255 129C213 129 210 153 218 184C228 220 237 262 248 310C260 360 269 414 275 461L281 462L308 203C327 205 347 205 366 203L538 462L544 460C525 410 503 349 486 304C467 253 450 206 437 171C423 137 407 128 388 128C379 128 374 128 366 129C355 86 341 43 323 0C357 2 565 3 601 0Z" glyph-name="M" horiz-adv-x="740" unicode="M" /><glyph d="M568 0C586 79 676 364 711 459C726 500 735 502 761 502C773 502 773 502 776 501C788 540 801 585 818 628C786 624 581 626 544 628C535 587 518 541 502 501C511 502 514 502 518 502C567 502 577 488 569 453C563 428 557 391 540 333C527 289 514 232 504 154H497C493 219 482 285 466 347C434 471 415 583 414 628C386 624 187 626 154 628C145 586 131 546 113 501C117 501 126 502 135 502C160 502 169 486 158 452C139 384 95 245 67 171C54 137 35 128 15 128C8 128 5 127 -8 129C-19 87 -33 43 -50 0C-14 2 207 3 244 0C249 28 271 95 287 130C272 126 258 129 240 129C199 132 206 159 209 178C212 211 227 246 237 290C251 334 268 415 280 495H285C299 411 321 322 339 237C361 128 384 31 384 0C395 1 529 1 568 0Z" glyph-name="N" horiz-adv-x="740" unicode="N" /><glyph d="M568 0C586 79 676 364 711 459C726 500 735 502 761 502C773 502 773 502 776 501C788 540 801 585 818 628C786 624 581 626 544 628C535 587 518 541 502 501C511 502 514 502 518 502C567 502 577 488 569 453C563 428 557 391 540 333C527 289 514 232 504 154H497C493 219 482 285 466 347C434 471 415 583 414 628C386 624 187 626 154 628C145 586 131 546 113 501C117 501 126 502 135 502C160 502 169 486 158 452C139 384 95 245 67 171C54 137 35 128 15 128C8 128 5 127 -8 129C-19 87 -33 43 -50 0C-14 2 207 3 244 0C249 28 271 95 287 130C272 126 258 129 240 129C199 132 206 159 209 178C212 211 227 246 237 290C251 334 268 415 280 495H285C299 411 321 322 339 237C361 128 384 31 384 0C395 1 529 1 568 0ZM395 669C451 686 656 725 732 736C723 763 699 853 692 881C632 858 420 792 364 773C373 752 388 697 395 669Z" glyph-name="Nacute" horiz-adv-x="740" unicode="&#323;" /><glyph d="M568 0C586 79 676 364 711 459C726 500 735 502 761 502C773 502 773 502 776 501C788 540 801 585 818 628C786 624 581 626 544 628C535 587 518 541 502 501C511 502 514 502 518 502C567 502 577 488 569 453C563 428 557 391 540 333C527 289 514 232 504 154H497C493 219 482 285 466 347C434 471 415 583 414 628C386 624 187 626 154 628C145 586 131 546 113 501C117 501 126 502 135 502C160 502 169 486 158 452C139 384 95 245 67 171C54 137 35 128 15 128C8 128 5 127 -8 129C-19 87 -33 43 -50 0C-14 2 207 3 244 0C249 28 271 95 287 130C272 126 258 129 240 129C199 132 206 159 209 178C212 211 227 246 237 290C251 334 268 415 280 495H285C299 411 321 322 339 237C361 128 384 31 384 0C395 1 529 1 568 0ZM561 666C590 696 685 767 731 803C705 817 661 844 641 860C589 827 543 795 506 764C486 795 460 828 433 860C410 849 361 829 326 819C356 774 398 699 412 666C436 667 469 667 482 667C495 667 539 667 561 666Z" glyph-name="Ncaron" horiz-adv-x="740" unicode="&#327;" /><glyph d="M568 0C586 79 676 364 711 459C726 500 735 502 761 502C773 502 773 502 776 501C788 540 801 585 818 628C786 624 581 626 544 628C535 587 518 541 502 501C511 502 514 502 518 502C567 502 577 488 569 453C563 428 557 391 540 333C527 289 514 232 504 154H497C493 219 482 285 466 347C434 471 415 583 414 628C386 624 187 626 154 628C145 586 131 546 113 501C117 501 126 502 135 502C160 502 169 486 158 452C139 384 95 245 67 171C54 137 35 128 15 128C8 128 5 127 -8 129C-19 87 -33 43 -50 0C-14 2 207 3 244 0C249 28 271 95 287 130C272 126 258 129 240 129C199 132 206 159 209 178C212 211 227 246 237 290C251 334 268 415 280 495H285C299 411 321 322 339 237C361 128 384 31 384 0C395 1 529 1 568 0ZM115 -322C255 -321 335 -238 335 -152C335 -91 305 -46 240 -46C185 -46 151 -79 151 -120C151 -158 175 -186 219 -186C248 -186 270 -173 280 -153L287 -156C280 -216 205 -239 110 -235C113 -257 115 -295 115 -322Z" glyph-name="Ncommaaccent" horiz-adv-x="740" unicode="&#325;" /><glyph d="M568 0C586 79 676 364 711 459C726 500 735 502 761 502C773 502 773 502 776 501C788 540 801 585 818 628C786 624 581 626 544 628C535 587 518 541 502 501C511 502 514 502 518 502C567 502 577 488 569 453C563 428 557 391 540 333C527 289 514 232 504 154H497C493 219 482 285 466 347C434 471 415 583 414 628C386 624 187 626 154 628C145 586 131 546 113 501C117 501 126 502 135 502C160 502 169 486 158 452C139 384 95 245 67 171C54 137 35 128 15 128C8 128 5 127 -8 129C-19 87 -33 43 -50 0C-14 2 207 3 244 0C249 28 271 95 287 130C272 126 258 129 240 129C199 132 206 159 209 178C212 211 227 246 237 290C251 334 268 415 280 495H285C299 411 321 322 339 237C361 128 384 31 384 0C395 1 529 1 568 0ZM451 869C357 869 304 814 281 681C307 683 338 683 367 681C376 730 394 760 419 760C435 760 442 748 451 732C473 694 498 669 567 669C661 669 712 727 737 857C704 854 673 854 651 857C642 810 628 779 600 779C581 779 572 792 560 809C534 845 512 869 451 869Z" glyph-name="Ntilde" horiz-adv-x="740" unicode="&#209;" /><glyph d="M440 642C174 642 38 440 38 238C38 88 127 -14 323 -14C589 -14 725 188 725 390C725 540 636 642 440 642ZM339 128C262 128 218 172 218 260C218 387 300 500 421 500C500 500 545 455 545 367C545 241 462 128 339 128Z" glyph-name="O" horiz-adv-x="740" unicode="O" /><glyph d="M324 0C383 1 455 2 525 2C571 2 616 1 654 0C662 36 703 153 722 192C672 202 625 215 588 228C583 209 575 188 568 169C554 132 542 123 506 123C483 123 448 124 429 125C444 183 457 229 468 269C521 266 580 263 596 262C601 296 609 332 620 370C604 368 549 367 497 366C512 411 528 453 548 506H583C621 506 633 499 633 472C633 448 630 426 627 403C671 406 724 408 770 407C774 453 794 585 800 628C771 627 695 626 616 626C537 626 458 628 413 628C139 628 12 430 13 245C12 95 110 0 324 0ZM173 258C173 377 252 504 395 509C371 422 325 269 276 130C213 138 173 174 173 258Z" glyph-name="OE" horiz-adv-x="740" unicode="&#338;" /><glyph d="M440 642C174 642 38 440 38 238C38 88 127 -14 323 -14C589 -14 725 188 725 390C725 540 636 642 440 642ZM339 128C262 128 218 172 218 260C218 387 300 500 421 500C500 500 545 455 545 367C545 241 462 128 339 128ZM386 669C442 686 647 725 723 736C714 763 690 853 683 881C623 858 411 792 355 773C364 752 379 697 386 669Z" glyph-name="Oacute" horiz-adv-x="740" unicode="&#211;" /><glyph d="M440 642C174 642 38 440 38 238C38 88 127 -14 323 -14C589 -14 725 188 725 390C725 540 636 642 440 642ZM339 128C262 128 218 172 218 260C218 387 300 500 421 500C500 500 545 455 545 367C545 241 462 128 339 128ZM474 792C423 792 414 828 413 871C389 863 304 843 274 838C280 737 356 681 458 681C577 681 640 741 688 838C660 843 587 863 567 871C544 822 523 792 474 792Z" glyph-name="Obreve" horiz-adv-x="740" unicode="&#334;" /><glyph d="M440 642C174 642 38 440 38 238C38 88 127 -14 323 -14C589 -14 725 188 725 390C725 540 636 642 440 642ZM339 128C262 128 218 172 218 260C218 387 300 500 421 500C500 500 545 455 545 367C545 241 462 128 339 128ZM560 659C583 670 632 690 667 700C637 745 595 820 581 853C557 852 524 852 511 852C498 852 454 852 432 853C403 823 308 752 262 716C288 702 332 675 352 659C404 692 450 724 487 755C507 724 533 691 560 659Z" glyph-name="Ocircumflex" horiz-adv-x="740" unicode="&#212;" /><glyph d="M440 642C174 642 38 440 38 238C38 88 127 -14 323 -14C589 -14 725 188 725 390C725 540 636 642 440 642ZM339 128C262 128 218 172 218 260C218 387 300 500 421 500C500 500 545 455 545 367C545 241 462 128 339 128ZM474 773C474 826 438 858 384 858C329 858 293 827 293 773C293 718 329 686 384 686C438 686 474 720 474 773ZM684 773C684 826 648 858 594 858C539 858 503 827 503 773C503 718 539 686 594 686C648 686 684 720 684 773Z" glyph-name="Odieresis" horiz-adv-x="740" unicode="&#214;" /><glyph d="M440 642C174 642 38 440 38 238C38 88 127 -14 323 -14C589 -14 725 188 725 390C725 540 636 642 440 642ZM339 128C262 128 218 172 218 260C218 387 300 500 421 500C500 500 545 455 545 367C545 241 462 128 339 128ZM520 669C528 696 542 752 551 773C495 792 283 858 223 881C216 853 192 763 183 736C259 725 464 686 520 669Z" glyph-name="Ograve" horiz-adv-x="740" unicode="&#210;" /><glyph d="M440 642C174 642 38 440 38 238C38 88 127 -14 323 -14C589 -14 725 188 725 390C725 540 636 642 440 642ZM339 128C262 128 218 172 218 260C218 387 300 500 421 500C500 500 545 455 545 367C545 241 462 128 339 128ZM399 665C418 691 519 801 547 831C526 840 468 877 443 895C419 858 339 747 318 721C342 709 375 686 399 665ZM578 661C603 685 718 775 747 800C715 819 666 860 645 880C622 850 522 747 497 722C523 707 555 682 578 661Z" glyph-name="Ohungarumlaut" horiz-adv-x="740" unicode="&#336;" /><glyph d="M440 642C174 642 38 440 38 238C38 88 127 -14 323 -14C589 -14 725 188 725 390C725 540 636 642 440 642ZM339 128C262 128 218 172 218 260C218 387 300 500 421 500C500 500 545 455 545 367C545 241 462 128 339 128ZM296 837C284 794 268 748 251 704C301 706 618 706 673 704C685 745 704 798 718 837C661 835 343 835 296 837Z" glyph-name="Omacron" horiz-adv-x="740" unicode="&#332;" /><glyph d="M-5 55C11 34 30 11 45 -13C57 -1 82 21 115 49C162 9 230 -14 323 -14C589 -14 725 188 725 390C725 440 715 485 695 522C725 546 749 564 764 575C743 597 725 621 711 642C698 629 675 608 645 582C598 620 530 642 440 642C174 642 38 440 38 238C38 190 47 146 66 110C34 84 9 65 -5 55ZM208 263C208 398 288 511 422 511C464 511 497 499 519 476C424 397 309 303 211 224C209 236 208 249 208 263ZM336 117C294 117 262 129 240 154C337 234 452 328 551 408C554 395 555 380 555 364C555 230 471 117 336 117Z" glyph-name="Oslash" horiz-adv-x="740" unicode="&#216;" /><glyph d="M-5 55C11 34 30 11 45 -13C57 -1 82 21 115 49C162 9 230 -14 323 -14C589 -14 725 188 725 390C725 440 715 485 695 522C725 546 749 564 764 575C743 597 725 621 711 642C698 629 675 608 645 582C598 620 530 642 440 642C174 642 38 440 38 238C38 190 47 146 66 110C34 84 9 65 -5 55ZM208 263C208 398 288 511 422 511C464 511 497 499 519 476C424 397 309 303 211 224C209 236 208 249 208 263ZM336 117C294 117 262 129 240 154C337 234 452 328 551 408C554 395 555 380 555 364C555 230 471 117 336 117ZM386 669C442 686 647 725 723 736C714 763 690 853 683 881C623 858 411 792 355 773C364 752 379 697 386 669Z" glyph-name="Oslashacute" horiz-adv-x="740" unicode="&#510;" /><glyph d="M440 642C174 642 38 440 38 238C38 88 127 -14 323 -14C589 -14 725 188 725 390C725 540 636 642 440 642ZM339 128C262 128 218 172 218 260C218 387 300 500 421 500C500 500 545 455 545 367C545 241 462 128 339 128ZM412 869C318 869 265 814 242 681C268 683 299 683 328 681C337 730 355 760 380 760C396 760 403 748 412 732C434 694 459 669 528 669C622 669 673 727 698 857C665 854 634 854 612 857C603 810 589 779 561 779C542 779 533 792 521 809C495 845 473 869 412 869Z" glyph-name="Otilde" horiz-adv-x="740" unicode="&#213;" /><glyph d="M424 324C386 324 356 326 325 328C339 375 358 431 383 500C424 501 472 501 505 501C558 501 589 481 589 436C589 362 535 324 424 324ZM374 0C378 26 398 95 409 129C382 128 351 128 323 128C276 128 272 138 282 178C285 190 289 204 293 218C331 213 377 208 438 208C643 208 750 305 750 448C750 584 659 627 525 627H324C248 627 183 627 159 628C150 588 135 544 118 501C127 503 150 502 170 502C206 502 222 489 212 452C192 384 149 245 121 171C107 132 85 127 58 127C36 127 24 127 -1 128C-10 86 -27 42 -44 0C7 3 322 4 374 0Z" glyph-name="P" horiz-adv-x="740" unicode="P" /><glyph d="M329 112C295 112 264 134 264 206C264 243 278 276 310 276C341 276 360 249 347 113C341 112 335 112 329 112ZM171 258C171 387 272 507 422 507C524 507 583 459 583 362C583 275 537 192 461 147C461 149 462 152 462 154C469 302 437 365 341 365C253 365 208 292 208 212C208 189 214 166 224 146L220 141C188 165 171 204 171 258ZM440 642C174 642 38 440 38 238C38 88 127 -14 323 -14C331 -14 339 -14 347 -13C360 -129 404 -208 556 -208C632 -208 702 -165 702 -89C702 -53 682 0 613 0C568 0 523 -32 523 -83V-86C478 -76 459 -41 453 4C633 58 725 224 725 390C725 540 636 642 440 642Z" glyph-name="Q" horiz-adv-x="740" unicode="Q" /><glyph d="M422 344C359 344 322 346 281 350C296 396 315 450 337 511C375 512 422 513 453 513C539 513 567 494 567 447C567 379 508 344 422 344ZM532 -10C601 -10 660 19 688 32C671 73 657 114 649 161C623 141 598 134 575 134C529 134 512 164 493 199C484 216 474 233 460 249C461 249 462 249 464 249C647 249 733 359 733 468C733 588 644 628 492 628C458 628 361 626 269 626C205 626 173 627 153 628C143 589 128 541 112 501C117 502 120 502 126 502C158 502 172 488 162 450C144 380 101 238 70 166C61 144 53 128 14 128C6 128 -2 128 -8 129C-17 86 -33 42 -50 0C-11 2 228 3 262 0C269 28 291 94 304 128H278C232 128 222 151 229 178C234 198 240 219 247 243C321 233 344 180 368 123C396 57 423 -10 532 -10Z" glyph-name="R" horiz-adv-x="740" unicode="R" /><glyph d="M422 344C359 344 322 346 281 350C296 396 315 450 337 511C375 512 422 513 453 513C539 513 567 494 567 447C567 379 508 344 422 344ZM532 -10C601 -10 660 19 688 32C671 73 657 114 649 161C623 141 598 134 575 134C529 134 512 164 493 199C484 216 474 233 460 249C461 249 462 249 464 249C647 249 733 359 733 468C733 588 644 628 492 628C458 628 361 626 269 626C205 626 173 627 153 628C143 589 128 541 112 501C117 502 120 502 126 502C158 502 172 488 162 450C144 380 101 238 70 166C61 144 53 128 14 128C6 128 -2 128 -8 129C-17 86 -33 42 -50 0C-11 2 228 3 262 0C269 28 291 94 304 128H278C232 128 222 151 229 178C234 198 240 219 247 243C321 233 344 180 368 123C396 57 423 -10 532 -10ZM369 669C425 686 630 725 706 736C697 763 673 853 666 881C606 858 394 792 338 773C347 752 362 697 369 669Z" glyph-name="Racute" horiz-adv-x="740" unicode="&#340;" /><glyph d="M422 344C359 344 322 346 281 350C296 396 315 450 337 511C375 512 422 513 453 513C539 513 567 494 567 447C567 379 508 344 422 344ZM532 -10C601 -10 660 19 688 32C671 73 657 114 649 161C623 141 598 134 575 134C529 134 512 164 493 199C484 216 474 233 460 249C461 249 462 249 464 249C647 249 733 359 733 468C733 588 644 628 492 628C458 628 361 626 269 626C205 626 173 627 153 628C143 589 128 541 112 501C117 502 120 502 126 502C158 502 172 488 162 450C144 380 101 238 70 166C61 144 53 128 14 128C6 128 -2 128 -8 129C-17 86 -33 42 -50 0C-11 2 228 3 262 0C269 28 291 94 304 128H278C232 128 222 151 229 178C234 198 240 219 247 243C321 233 344 180 368 123C396 57 423 -10 532 -10ZM530 666C559 696 654 767 700 803C674 817 630 844 610 860C558 827 512 795 475 764C455 795 429 828 402 860C379 849 330 829 295 819C325 774 367 699 381 666C405 667 438 667 451 667C464 667 508 667 530 666Z" glyph-name="Rcaron" horiz-adv-x="740" unicode="&#344;" /><glyph d="M422 344C359 344 322 346 281 350C296 396 315 450 337 511C375 512 422 513 453 513C539 513 567 494 567 447C567 379 508 344 422 344ZM532 -10C601 -10 660 19 688 32C671 73 657 114 649 161C623 141 598 134 575 134C529 134 512 164 493 199C484 216 474 233 460 249C461 249 462 249 464 249C647 249 733 359 733 468C733 588 644 628 492 628C458 628 361 626 269 626C205 626 173 627 153 628C143 589 128 541 112 501C117 502 120 502 126 502C158 502 172 488 162 450C144 380 101 238 70 166C61 144 53 128 14 128C6 128 -2 128 -8 129C-17 86 -33 42 -50 0C-11 2 228 3 262 0C269 28 291 94 304 128H278C232 128 222 151 229 178C234 198 240 219 247 243C321 233 344 180 368 123C396 57 423 -10 532 -10ZM195 -322C335 -321 415 -238 415 -152C415 -91 385 -46 320 -46C265 -46 231 -79 231 -120C231 -158 255 -186 299 -186C328 -186 350 -173 360 -153L367 -156C360 -216 285 -239 190 -235C193 -257 195 -295 195 -322Z" glyph-name="Rcommaaccent" horiz-adv-x="740" unicode="&#342;" /><glyph d="M146 442C146 334 229 296 388 241C455 218 481 201 481 176C481 146 453 125 380 125C266 125 218 167 218 235C218 244 218 251 219 260C175 261 114 266 73 275C61 222 12 68 -17 0C33 3 92 3 155 0C160 30 169 79 180 126H189C207 37 271 -14 413 -14C555 -14 642 61 642 175C642 279 573 328 462 362C321 405 307 421 307 453C307 485 343 504 398 504C488 504 549 478 549 397C549 387 549 378 548 368C589 369 645 365 682 361C696 413 742 561 771 628C735 625 654 625 602 628C596 596 587 554 576 508H567C546 593 481 642 378 642C236 642 146 550 146 442Z" glyph-name="S" horiz-adv-x="740" unicode="S" /><glyph d="M146 442C146 334 229 296 388 241C455 218 481 201 481 176C481 146 453 125 380 125C266 125 218 167 218 235C218 244 218 251 219 260C175 261 114 266 73 275C61 222 12 68 -17 0C33 3 92 3 155 0C160 30 169 79 180 126H189C207 37 271 -14 413 -14C555 -14 642 61 642 175C642 279 573 328 462 362C321 405 307 421 307 453C307 485 343 504 398 504C488 504 549 478 549 397C549 387 549 378 548 368C589 369 645 365 682 361C696 413 742 561 771 628C735 625 654 625 602 628C596 596 587 554 576 508H567C546 593 481 642 378 642C236 642 146 550 146 442ZM387 669C443 686 648 725 724 736C715 763 691 853 684 881C624 858 412 792 356 773C365 752 380 697 387 669Z" glyph-name="Sacute" horiz-adv-x="740" unicode="&#346;" /><glyph d="M146 442C146 334 229 296 388 241C455 218 481 201 481 176C481 146 453 125 380 125C266 125 218 167 218 235C218 244 218 251 219 260C175 261 114 266 73 275C61 222 12 68 -17 0C33 3 92 3 155 0C160 30 169 79 180 126H189C207 37 271 -14 413 -14C555 -14 642 61 642 175C642 279 573 328 462 362C321 405 307 421 307 453C307 485 343 504 398 504C488 504 549 478 549 397C549 387 549 378 548 368C589 369 645 365 682 361C696 413 742 561 771 628C735 625 654 625 602 628C596 596 587 554 576 508H567C546 593 481 642 378 642C236 642 146 550 146 442ZM553 666C582 696 677 767 723 803C697 817 653 844 633 860C581 827 535 795 498 764C478 795 452 828 425 860C402 849 353 829 318 819C348 774 390 699 404 666C428 667 461 667 474 667C487 667 531 667 553 666Z" glyph-name="Scaron" horiz-adv-x="740" unicode="&#352;" /><glyph d="M146 442C146 334 229 296 388 241C455 218 481 201 481 176C481 146 453 125 380 125C266 125 218 167 218 235C218 244 218 251 219 260C175 261 114 266 73 275C61 222 12 68 -17 0C33 3 92 3 155 0C160 30 169 79 180 126H189C199 73 226 34 276 11C261 -19 239 -58 227 -77C243 -84 263 -97 283 -113C295 -108 308 -103 327 -103C346 -103 362 -111 360 -131C357 -153 336 -164 305 -164C259 -164 213 -139 186 -113C172 -140 146 -181 126 -200C163 -228 229 -243 289 -243C403 -243 442 -190 448 -138C455 -81 425 -53 374 -53C347 -53 322 -62 303 -75C313 -53 325 -29 337 -8C359 -12 385 -14 413 -14C555 -14 642 61 642 175C642 279 573 328 462 362C321 405 307 421 307 453C307 485 343 504 398 504C488 504 549 478 549 397C549 387 549 378 548 368C589 369 645 365 682 361C696 413 742 561 771 628C735 625 654 625 602 628C596 596 587 554 576 508H567C546 593 481 642 378 642C236 642 146 550 146 442Z" glyph-name="Scedilla" horiz-adv-x="740" unicode="&#350;" /><glyph d="M146 442C146 334 229 296 388 241C455 218 481 201 481 176C481 146 453 125 380 125C266 125 218 167 218 235C218 244 218 251 219 260C175 261 114 266 73 275C61 222 12 68 -17 0C33 3 92 3 155 0C160 30 169 79 180 126H189C207 37 271 -14 413 -14C555 -14 642 61 642 175C642 279 573 328 462 362C321 405 307 421 307 453C307 485 343 504 398 504C488 504 549 478 549 397C549 387 549 378 548 368C589 369 645 365 682 361C696 413 742 561 771 628C735 625 654 625 602 628C596 596 587 554 576 508H567C546 593 481 642 378 642C236 642 146 550 146 442ZM591 659C614 670 663 690 698 700C668 745 626 820 612 853C588 852 555 852 542 852C529 852 485 852 463 853C434 823 339 752 293 716C319 702 363 675 383 659C435 692 481 724 518 755C538 724 564 691 591 659Z" glyph-name="Scircumflex" horiz-adv-x="740" unicode="&#348;" /><glyph d="M146 442C146 334 229 296 388 241C455 218 481 201 481 176C481 146 453 125 380 125C266 125 218 167 218 235C218 244 218 251 219 260C175 261 114 266 73 275C61 222 12 68 -17 0C33 3 92 3 155 0C160 30 169 79 180 126H189C207 37 271 -14 413 -14C555 -14 642 61 642 175C642 279 573 328 462 362C321 405 307 421 307 453C307 485 343 504 398 504C488 504 549 478 549 397C549 387 549 378 548 368C589 369 645 365 682 361C696 413 742 561 771 628C735 625 654 625 602 628C596 596 587 554 576 508H567C546 593 481 642 378 642C236 642 146 550 146 442ZM175 -322C315 -321 395 -238 395 -152C395 -91 365 -46 300 -46C245 -46 211 -79 211 -120C211 -158 235 -186 279 -186C308 -186 330 -173 340 -153L347 -156C340 -216 265 -239 170 -235C173 -257 175 -295 175 -322Z" glyph-name="Scommaaccent" horiz-adv-x="740" unicode="&#536;" /><glyph d="M531 0C540 41 558 85 575 129C556 128 507 126 457 126C410 126 410 152 418 183C438 258 472 368 515 502C532 502 543 502 552 502C584 502 602 494 600 456C597 398 588 358 580 299C626 302 677 302 719 300C723 372 747 560 755 628C632 623 221 625 148 628C134 573 64 398 38 331C87 328 135 318 173 306C193 362 208 403 236 455C255 490 273 502 313 502C328 502 344 502 360 502C323 377 280 244 252 171C238 131 218 126 186 126C145 126 114 126 100 129C91 86 73 42 56 0C116 3 468 5 531 0Z" glyph-name="T" horiz-adv-x="740" unicode="T" /><glyph d="M163 355C154 319 142 282 127 245C147 246 208 248 280 248C269 218 260 192 252 171C238 131 218 126 186 126C145 126 114 126 100 129C91 86 73 42 56 0C116 3 468 5 531 0C540 41 558 85 575 129C556 128 507 126 457 126C410 126 410 152 418 183C423 202 429 224 436 248C510 248 573 247 594 245C603 281 616 317 630 355C609 353 543 352 468 351C482 397 498 447 515 502C532 502 543 502 552 502C584 502 602 494 600 456C599 438 597 426 595 408C641 411 692 411 734 409C737 457 750 583 755 628C632 623 221 625 148 628C139 591 97 473 80 428C129 425 177 415 215 403C222 422 226 437 236 455C255 490 273 502 313 502C328 502 344 502 360 502C345 452 329 400 314 352C242 352 181 353 163 355Z" glyph-name="Tbar" horiz-adv-x="740" unicode="&#358;" /><glyph d="M531 0C540 41 558 85 575 129C556 128 507 126 457 126C410 126 410 152 418 183C438 258 472 368 515 502C532 502 543 502 552 502C584 502 602 494 600 456C597 398 588 358 580 299C626 302 677 302 719 300C723 372 747 560 755 628C632 623 221 625 148 628C134 573 64 398 38 331C87 328 135 318 173 306C193 362 208 403 236 455C255 490 273 502 313 502C328 502 344 502 360 502C323 377 280 244 252 171C238 131 218 126 186 126C145 126 114 126 100 129C91 86 73 42 56 0C116 3 468 5 531 0ZM544 666C573 696 668 767 714 803C688 817 644 844 624 860C572 827 526 795 489 764C469 795 443 828 416 860C393 849 344 829 309 819C339 774 381 699 395 666C419 667 452 667 465 667C478 667 522 667 544 666Z" glyph-name="Tcaron" horiz-adv-x="740" unicode="&#356;" /><glyph d="M99 -200C136 -228 202 -243 262 -243C376 -243 415 -190 421 -138C428 -81 398 -53 347 -53C320 -53 295 -62 276 -75C288 -49 303 -21 316 3C411 3 502 2 531 0C540 41 558 85 575 129C556 128 507 126 457 126C410 126 410 152 418 183C438 258 472 368 515 502C532 502 543 502 552 502C584 502 602 494 600 456C597 398 588 358 580 299C626 302 677 302 719 300C723 372 747 560 755 628C632 623 221 625 148 628C134 573 64 398 38 331C87 328 135 318 173 306C193 362 208 403 236 455C255 490 273 502 313 502C328 502 344 502 360 502C323 377 280 244 252 171C238 131 218 126 186 126C145 126 114 126 100 129C91 86 73 42 56 0C81 1 159 2 245 3C230 -26 211 -60 200 -77C216 -84 236 -97 256 -113C268 -108 281 -103 300 -103C319 -103 335 -111 333 -131C330 -153 309 -164 278 -164C232 -164 186 -139 159 -113C145 -140 119 -181 99 -200Z" glyph-name="Tcommaaccent" horiz-adv-x="740" unicode="&#354;" /><glyph d="M416 220C377 220 346 222 312 226C330 288 348 342 366 395C408 397 462 397 497 397C550 397 581 377 581 332C581 258 527 220 416 220ZM118 501C127 503 150 502 170 502C206 502 222 489 212 452C192 384 149 245 121 171C107 132 85 127 58 127C36 127 24 127 -1 128C-10 86 -27 42 -44 0C-7 2 219 3 250 0C260 40 270 76 279 110C320 104 370 98 438 98C643 98 750 197 750 344C750 485 659 530 525 530H414C425 561 437 593 450 628C354 625 246 625 159 628C150 588 135 544 118 501Z" glyph-name="Thorn" horiz-adv-x="740" unicode="&#222;" /><glyph d="M621 192C644 263 681 389 707 459C718 491 731 502 760 502C770 502 779 502 788 501C800 544 816 587 832 628C791 624 574 626 536 628C526 588 511 544 495 501C503 502 513 502 523 502C549 502 556 486 548 452C529 387 500 289 475 223C452 164 405 125 336 125C258 125 232 161 244 224C252 267 296 395 329 466C340 490 357 502 382 502C393 502 396 502 406 501C419 543 432 587 447 628C401 624 186 626 146 628C136 588 119 544 102 501C108 501 124 502 124 502C165 502 172 490 163 454C147 399 109 289 92 229C52 86 135 -14 312 -14C466 -14 574 45 621 192Z" glyph-name="U" horiz-adv-x="740" unicode="U" /><glyph d="M621 192C644 263 681 389 707 459C718 491 731 502 760 502C770 502 779 502 788 501C800 544 816 587 832 628C791 624 574 626 536 628C526 588 511 544 495 501C503 502 513 502 523 502C549 502 556 486 548 452C529 387 500 289 475 223C452 164 405 125 336 125C258 125 232 161 244 224C252 267 296 395 329 466C340 490 357 502 382 502C393 502 396 502 406 501C419 543 432 587 447 628C401 624 186 626 146 628C136 588 119 544 102 501C108 501 124 502 124 502C165 502 172 490 163 454C147 399 109 289 92 229C52 86 135 -14 312 -14C466 -14 574 45 621 192ZM384 669C440 686 645 725 721 736C712 763 688 853 681 881C621 858 409 792 353 773C362 752 377 697 384 669Z" glyph-name="Uacute" horiz-adv-x="740" unicode="&#218;" /><glyph d="M621 192C644 263 681 389 707 459C718 491 731 502 760 502C770 502 779 502 788 501C800 544 816 587 832 628C791 624 574 626 536 628C526 588 511 544 495 501C503 502 513 502 523 502C549 502 556 486 548 452C529 387 500 289 475 223C452 164 405 125 336 125C258 125 232 161 244 224C252 267 296 395 329 466C340 490 357 502 382 502C393 502 396 502 406 501C419 543 432 587 447 628C401 624 186 626 146 628C136 588 119 544 102 501C108 501 124 502 124 502C165 502 172 490 163 454C147 399 109 289 92 229C52 86 135 -14 312 -14C466 -14 574 45 621 192ZM502 792C451 792 442 828 441 871C417 863 332 843 302 838C308 737 384 681 486 681C605 681 668 741 716 838C688 843 615 863 595 871C572 822 551 792 502 792Z" glyph-name="Ubreve" horiz-adv-x="740" unicode="&#364;" /><glyph d="M621 192C644 263 681 389 707 459C718 491 731 502 760 502C770 502 779 502 788 501C800 544 816 587 832 628C791 624 574 626 536 628C526 588 511 544 495 501C503 502 513 502 523 502C549 502 556 486 548 452C529 387 500 289 475 223C452 164 405 125 336 125C258 125 232 161 244 224C252 267 296 395 329 466C340 490 357 502 382 502C393 502 396 502 406 501C419 543 432 587 447 628C401 624 186 626 146 628C136 588 119 544 102 501C108 501 124 502 124 502C165 502 172 490 163 454C147 399 109 289 92 229C52 86 135 -14 312 -14C466 -14 574 45 621 192ZM598 659C621 670 670 690 705 700C675 745 633 820 619 853C595 852 562 852 549 852C536 852 492 852 470 853C441 823 346 752 300 716C326 702 370 675 390 659C442 692 488 724 525 755C545 724 571 691 598 659Z" glyph-name="Ucircumflex" horiz-adv-x="740" unicode="&#219;" /><glyph d="M621 192C644 263 681 389 707 459C718 491 731 502 760 502C770 502 779 502 788 501C800 544 816 587 832 628C791 624 574 626 536 628C526 588 511 544 495 501C503 502 513 502 523 502C549 502 556 486 548 452C529 387 500 289 475 223C452 164 405 125 336 125C258 125 232 161 244 224C252 267 296 395 329 466C340 490 357 502 382 502C393 502 396 502 406 501C419 543 432 587 447 628C401 624 186 626 146 628C136 588 119 544 102 501C108 501 124 502 124 502C165 502 172 490 163 454C147 399 109 289 92 229C52 86 135 -14 312 -14C466 -14 574 45 621 192ZM502 773C502 826 466 858 412 858C357 858 321 827 321 773C321 718 357 686 412 686C466 686 502 720 502 773ZM712 773C712 826 676 858 622 858C567 858 531 827 531 773C531 718 567 686 622 686C676 686 712 720 712 773Z" glyph-name="Udieresis" horiz-adv-x="740" unicode="&#220;" /><glyph d="M621 192C644 263 681 389 707 459C718 491 731 502 760 502C770 502 779 502 788 501C800 544 816 587 832 628C791 624 574 626 536 628C526 588 511 544 495 501C503 502 513 502 523 502C549 502 556 486 548 452C529 387 500 289 475 223C452 164 405 125 336 125C258 125 232 161 244 224C252 267 296 395 329 466C340 490 357 502 382 502C393 502 396 502 406 501C419 543 432 587 447 628C401 624 186 626 146 628C136 588 119 544 102 501C108 501 124 502 124 502C165 502 172 490 163 454C147 399 109 289 92 229C52 86 135 -14 312 -14C466 -14 574 45 621 192ZM548 669C556 696 570 752 579 773C523 792 311 858 251 881C244 853 220 763 211 736C287 725 492 686 548 669Z" glyph-name="Ugrave" horiz-adv-x="740" unicode="&#217;" /><glyph d="M621 192C644 263 681 389 707 459C718 491 731 502 760 502C770 502 779 502 788 501C800 544 816 587 832 628C791 624 574 626 536 628C526 588 511 544 495 501C503 502 513 502 523 502C549 502 556 486 548 452C529 387 500 289 475 223C452 164 405 125 336 125C258 125 232 161 244 224C252 267 296 395 329 466C340 490 357 502 382 502C393 502 396 502 406 501C419 543 432 587 447 628C401 624 186 626 146 628C136 588 119 544 102 501C108 501 124 502 124 502C165 502 172 490 163 454C147 399 109 289 92 229C52 86 135 -14 312 -14C466 -14 574 45 621 192ZM427 665C446 691 547 801 575 831C554 840 496 877 471 895C447 858 367 747 346 721C370 709 403 686 427 665ZM606 661C631 685 746 775 775 800C743 819 694 860 673 880C650 850 550 747 525 722C551 707 583 682 606 661Z" glyph-name="Uhungarumlaut" horiz-adv-x="740" unicode="&#368;" /><glyph d="M621 192C644 263 681 389 707 459C718 491 731 502 760 502C770 502 779 502 788 501C800 544 816 587 832 628C791 624 574 626 536 628C526 588 511 544 495 501C503 502 513 502 523 502C549 502 556 486 548 452C529 387 500 289 475 223C452 164 405 125 336 125C258 125 232 161 244 224C252 267 296 395 329 466C340 490 357 502 382 502C393 502 396 502 406 501C419 543 432 587 447 628C401 624 186 626 146 628C136 588 119 544 102 501C108 501 124 502 124 502C165 502 172 490 163 454C147 399 109 289 92 229C52 86 135 -14 312 -14C466 -14 574 45 621 192ZM324 837C312 794 296 748 279 704C329 706 646 706 701 704C713 745 732 798 746 837C689 835 371 835 324 837Z" glyph-name="Umacron" horiz-adv-x="740" unicode="&#362;" /><glyph d="M513 -230C512 -208 516 -130 522 -96C506 -103 493 -104 479 -104C450 -104 434 -93 434 -76C434 -2 573 32 621 192C643 263 681 389 707 459C718 491 731 502 760 502C770 502 779 502 788 501C800 544 816 587 832 628C791 624 574 626 536 628C526 588 511 544 495 501C503 502 513 502 523 502C549 502 556 486 548 452C529 387 500 289 475 223C452 164 405 125 336 125C258 125 232 161 244 224C252 267 296 395 329 466C340 490 357 502 382 502C393 502 396 502 406 501C419 543 432 587 447 628C401 624 186 626 146 628C136 588 119 544 102 501C108 501 124 502 124 502C165 502 172 490 163 454C147 399 109 289 92 229C52 86 135 -14 312 -14C354 -14 392 -10 427 0C354 -51 286 -84 286 -155C286 -209 336 -244 422 -244C447 -244 482 -241 513 -230Z" glyph-name="Uogonek" horiz-adv-x="740" unicode="&#370;" /><glyph d="M621 192C644 263 681 389 707 459C718 491 731 502 760 502C770 502 779 502 788 501C800 544 816 587 832 628C791 624 574 626 536 628C526 588 511 544 495 501C503 502 513 502 523 502C549 502 556 486 548 452C529 387 500 289 475 223C452 164 405 125 336 125C258 125 232 161 244 224C252 267 296 395 329 466C340 490 357 502 382 502C393 502 396 502 406 501C419 543 432 587 447 628C401 624 186 626 146 628C136 588 119 544 102 501C108 501 124 502 124 502C165 502 172 490 163 454C147 399 109 289 92 229C52 86 135 -14 312 -14C466 -14 574 45 621 192ZM511 664C607 664 668 735 668 805C668 865 634 903 563 903C464 903 401 833 401 763C401 702 437 664 511 664ZM523 739C497 738 488 752 488 769C488 796 510 826 547 826C572 826 582 813 582 796C582 767 560 739 523 739Z" glyph-name="Uring" horiz-adv-x="740" unicode="&#366;" /><glyph d="M621 192C644 263 681 389 707 459C718 491 731 502 760 502C770 502 779 502 788 501C800 544 816 587 832 628C791 624 574 626 536 628C526 588 511 544 495 501C503 502 513 502 523 502C549 502 556 486 548 452C529 387 500 289 475 223C452 164 405 125 336 125C258 125 232 161 244 224C252 267 296 395 329 466C340 490 357 502 382 502C393 502 396 502 406 501C419 543 432 587 447 628C401 624 186 626 146 628C136 588 119 544 102 501C108 501 124 502 124 502C165 502 172 490 163 454C147 399 109 289 92 229C52 86 135 -14 312 -14C466 -14 574 45 621 192ZM460 869C366 869 313 814 290 681C316 683 347 683 376 681C385 730 403 760 428 760C444 760 451 748 460 732C482 694 507 669 576 669C670 669 721 727 746 857C713 854 682 854 660 857C651 810 637 779 609 779C590 779 581 792 569 809C543 845 521 869 460 869Z" glyph-name="Utilde" horiz-adv-x="740" unicode="&#360;" /><glyph d="M449 0C555 197 638 358 712 459C737 493 752 502 777 502C783 502 791 501 801 500C813 544 827 586 844 628C806 626 566 625 526 628C518 599 497 534 485 501C496 502 506 502 517 502C536 502 545 498 545 484C545 476 542 469 536 458C497 388 405 236 337 99C327 195 320 335 313 426C310 482 326 502 364 502C372 502 383 502 395 501C407 544 420 586 437 628C400 626 167 625 129 628C123 595 100 533 88 501C94 502 98 502 106 502C130 502 143 491 147 467C160 378 179 137 178 0C223 4 410 4 449 0Z" glyph-name="V" horiz-adv-x="740" unicode="V" /><glyph d="M785 468C801 499 811 500 824 501H829C838 545 856 589 873 631C839 629 616 628 581 631C573 602 553 538 541 500C548 501 556 502 591 502C625 502 637 490 637 475C637 445 602 395 561 301C543 261 521 216 503 172H492C495 218 496 267 497 299C498 353 498 442 501 498C459 495 419 495 379 498C369 458 332 380 285 290C256 239 239 205 226 172H216C220 200 225 233 229 275C234 323 237 354 240 412C244 490 253 502 285 502C305 502 320 501 340 500C351 543 364 585 381 628C348 626 132 625 99 628C94 600 78 537 63 501H67C84 501 95 494 95 462C95 375 69 145 44 0C86 4 171 4 229 0C256 69 289 127 309 163C344 228 368 279 386 324H393C388 278 386 227 382 160C379 112 380 85 377 0C450 4 511 5 562 0C655 219 742 382 785 468Z" glyph-name="W" horiz-adv-x="740" unicode="W" /><glyph d="M785 468C801 499 811 500 824 501H829C838 545 856 589 873 631C839 629 616 628 581 631C573 602 553 538 541 500C548 501 556 502 591 502C625 502 637 490 637 475C637 445 602 395 561 301C543 261 521 216 503 172H492C495 218 496 267 497 299C498 353 498 442 501 498C459 495 419 495 379 498C369 458 332 380 285 290C256 239 239 205 226 172H216C220 200 225 233 229 275C234 323 237 354 240 412C244 490 253 502 285 502C305 502 320 501 340 500C351 543 364 585 381 628C348 626 132 625 99 628C94 600 78 537 63 501H67C84 501 95 494 95 462C95 375 69 145 44 0C86 4 171 4 229 0C256 69 289 127 309 163C344 228 368 279 386 324H393C388 278 386 227 382 160C379 112 380 85 377 0C450 4 511 5 562 0C655 219 742 382 785 468ZM405 669C461 686 666 725 742 736C733 763 709 853 702 881C642 858 430 792 374 773C383 752 398 697 405 669Z" glyph-name="Wacute" horiz-adv-x="740" unicode="&#7810;" /><glyph d="M785 468C801 499 811 500 824 501H829C838 545 856 589 873 631C839 629 616 628 581 631C573 602 553 538 541 500C548 501 556 502 591 502C625 502 637 490 637 475C637 445 602 395 561 301C543 261 521 216 503 172H492C495 218 496 267 497 299C498 353 498 442 501 498C459 495 419 495 379 498C369 458 332 380 285 290C256 239 239 205 226 172H216C220 200 225 233 229 275C234 323 237 354 240 412C244 490 253 502 285 502C305 502 320 501 340 500C351 543 364 585 381 628C348 626 132 625 99 628C94 600 78 537 63 501H67C84 501 95 494 95 462C95 375 69 145 44 0C86 4 171 4 229 0C256 69 289 127 309 163C344 228 368 279 386 324H393C388 278 386 227 382 160C379 112 380 85 377 0C450 4 511 5 562 0C655 219 742 382 785 468ZM579 659C602 670 651 690 686 700C656 745 614 820 600 853C576 852 543 852 530 852C517 852 473 852 451 853C422 823 327 752 281 716C307 702 351 675 371 659C423 692 469 724 506 755C526 724 552 691 579 659Z" glyph-name="Wcircumflex" horiz-adv-x="740" unicode="&#372;" /><glyph glyph-name="Wdieresis" horiz-adv-x="740" unicode="&#7812;" /><glyph d="M785 468C801 499 811 500 824 501H829C838 545 856 589 873 631C839 629 616 628 581 631C573 602 553 538 541 500C548 501 556 502 591 502C625 502 637 490 637 475C637 445 602 395 561 301C543 261 521 216 503 172H492C495 218 496 267 497 299C498 353 498 442 501 498C459 495 419 495 379 498C369 458 332 380 285 290C256 239 239 205 226 172H216C220 200 225 233 229 275C234 323 237 354 240 412C244 490 253 502 285 502C305 502 320 501 340 500C351 543 364 585 381 628C348 626 132 625 99 628C94 600 78 537 63 501H67C84 501 95 494 95 462C95 375 69 145 44 0C86 4 171 4 229 0C256 69 289 127 309 163C344 228 368 279 386 324H393C388 278 386 227 382 160C379 112 380 85 377 0C450 4 511 5 562 0C655 219 742 382 785 468ZM539 669C547 696 561 752 570 773C514 792 302 858 242 881C235 853 211 763 202 736C278 725 483 686 539 669Z" glyph-name="Wgrave" horiz-adv-x="740" unicode="&#7808;" /><glyph d="M673 126H660C629 126 614 153 602 168C578 198 539 255 503 303C576 362 668 441 708 473C739 498 758 501 774 501H786C796 545 809 586 829 628C792 627 567 626 528 628C521 598 500 530 487 502H500C528 502 535 482 518 460C497 434 442 391 402 358C365 403 343 432 343 463C343 486 359 502 385 502C394 502 398 502 414 501C423 538 439 585 457 628C419 627 186 626 148 628C142 600 117 528 107 501H119C132 501 145 496 154 483C168 463 222 384 269 324C209 275 130 211 100 186C52 146 23 128 -7 128H-14C-22 83 -38 43 -56 0C-16 2 215 2 255 0C263 29 284 95 296 127H285C258 127 240 151 261 179C280 205 329 243 365 271C404 229 436 190 436 163C436 146 425 127 394 127H366C357 89 343 43 325 0C372 2 581 1 631 0C641 38 660 92 673 126Z" glyph-name="X" horiz-adv-x="740" unicode="X" /><glyph d="M519 0C530 42 543 84 560 127C541 126 492 125 444 125C396 125 397 148 404 175C407 186 410 197 414 210C568 343 659 421 727 476C752 495 769 501 788 501H801C813 544 827 586 844 628C806 626 566 625 526 628C518 599 497 534 485 501C496 502 506 502 517 502C536 502 545 498 545 484C545 474 539 467 527 453C498 419 434 365 368 302C352 353 324 420 324 465C324 488 334 502 364 502C372 502 383 502 395 501C407 544 420 586 437 628C400 626 167 625 129 628C123 595 100 533 88 501C94 502 98 502 106 502C134 502 144 490 154 468C174 422 220 300 253 212C248 196 243 181 238 169C224 130 202 124 169 124C130 124 99 125 86 127C75 86 60 42 44 0C104 3 456 5 519 0Z" glyph-name="Y" horiz-adv-x="740" unicode="Y" /><glyph d="M519 0C530 42 543 84 560 127C541 126 492 125 444 125C396 125 397 148 404 175C407 186 410 197 414 210C568 343 659 421 727 476C752 495 769 501 788 501H801C813 544 827 586 844 628C806 626 566 625 526 628C518 599 497 534 485 501C496 502 506 502 517 502C536 502 545 498 545 484C545 474 539 467 527 453C498 419 434 365 368 302C352 353 324 420 324 465C324 488 334 502 364 502C372 502 383 502 395 501C407 544 420 586 437 628C400 626 167 625 129 628C123 595 100 533 88 501C94 502 98 502 106 502C134 502 144 490 154 468C174 422 220 300 253 212C248 196 243 181 238 169C224 130 202 124 169 124C130 124 99 125 86 127C75 86 60 42 44 0C104 3 456 5 519 0ZM392 669C448 686 653 725 729 736C720 763 696 853 689 881C629 858 417 792 361 773C370 752 385 697 392 669Z" glyph-name="Yacute" horiz-adv-x="740" unicode="&#221;" /><glyph d="M519 0C530 42 543 84 560 127C541 126 492 125 444 125C396 125 397 148 404 175C407 186 410 197 414 210C568 343 659 421 727 476C752 495 769 501 788 501H801C813 544 827 586 844 628C806 626 566 625 526 628C518 599 497 534 485 501C496 502 506 502 517 502C536 502 545 498 545 484C545 474 539 467 527 453C498 419 434 365 368 302C352 353 324 420 324 465C324 488 334 502 364 502C372 502 383 502 395 501C407 544 420 586 437 628C400 626 167 625 129 628C123 595 100 533 88 501C94 502 98 502 106 502C134 502 144 490 154 468C174 422 220 300 253 212C248 196 243 181 238 169C224 130 202 124 169 124C130 124 99 125 86 127C75 86 60 42 44 0C104 3 456 5 519 0ZM596 659C619 670 668 690 703 700C673 745 631 820 617 853C593 852 560 852 547 852C534 852 490 852 468 853C439 823 344 752 298 716C324 702 368 675 388 659C440 692 486 724 523 755C543 724 569 691 596 659Z" glyph-name="Ycircumflex" horiz-adv-x="740" unicode="&#374;" /><glyph d="M519 0C530 42 543 84 560 127C541 126 492 125 444 125C396 125 397 148 404 175C407 186 410 197 414 210C568 343 659 421 727 476C752 495 769 501 788 501H801C813 544 827 586 844 628C806 626 566 625 526 628C518 599 497 534 485 501C496 502 506 502 517 502C536 502 545 498 545 484C545 474 539 467 527 453C498 419 434 365 368 302C352 353 324 420 324 465C324 488 334 502 364 502C372 502 383 502 395 501C407 544 420 586 437 628C400 626 167 625 129 628C123 595 100 533 88 501C94 502 98 502 106 502C134 502 144 490 154 468C174 422 220 300 253 212C248 196 243 181 238 169C224 130 202 124 169 124C130 124 99 125 86 127C75 86 60 42 44 0C104 3 456 5 519 0ZM499 773C499 826 463 858 409 858C354 858 318 827 318 773C318 718 354 686 409 686C463 686 499 720 499 773ZM709 773C709 826 673 858 619 858C564 858 528 827 528 773C528 718 564 686 619 686C673 686 709 720 709 773Z" glyph-name="Ydieresis" horiz-adv-x="740" unicode="&#376;" /><glyph d="M559 0C570 43 620 184 639 231C591 241 540 255 505 266C494 235 480 202 465 171C448 136 431 124 386 124C343 124 289 123 246 120L244 128C278 145 318 167 356 199C481 302 625 440 708 505C719 548 729 591 740 628C583 625 355 625 195 628C185 585 134 447 114 399C161 389 204 375 237 363C251 394 264 421 280 455C296 488 319 505 371 505C420 505 472 505 517 507L519 500C477 473 423 438 370 394C251 293 109 182 28 124C19 87 6 38 -8 0C155 3 393 3 559 0Z" glyph-name="Z" horiz-adv-x="740" unicode="Z" /><glyph d="M559 0C570 43 620 184 639 231C591 241 540 255 505 266C494 235 480 202 465 171C448 136 431 124 386 124C343 124 289 123 246 120L244 128C278 145 318 167 356 199C481 302 625 440 708 505C719 548 729 591 740 628C583 625 355 625 195 628C185 585 134 447 114 399C161 389 204 375 237 363C251 394 264 421 280 455C296 488 319 505 371 505C420 505 472 505 517 507L519 500C477 473 423 438 370 394C251 293 109 182 28 124C19 87 6 38 -8 0C155 3 393 3 559 0ZM443 669C499 686 704 725 780 736C771 763 747 853 740 881C680 858 468 792 412 773C421 752 436 697 443 669Z" glyph-name="Zacute" horiz-adv-x="740" unicode="&#377;" /><glyph d="M559 0C570 43 620 184 639 231C591 241 540 255 505 266C494 235 480 202 465 171C448 136 431 124 386 124C343 124 289 123 246 120L244 128C278 145 318 167 356 199C481 302 625 440 708 505C719 548 729 591 740 628C583 625 355 625 195 628C185 585 134 447 114 399C161 389 204 375 237 363C251 394 264 421 280 455C296 488 319 505 371 505C420 505 472 505 517 507L519 500C477 473 423 438 370 394C251 293 109 182 28 124C19 87 6 38 -8 0C155 3 393 3 559 0ZM559 666C588 696 683 767 729 803C703 817 659 844 639 860C587 827 541 795 504 764C484 795 458 828 431 860C408 849 359 829 324 819C354 774 396 699 410 666C434 667 467 667 480 667C493 667 537 667 559 666Z" glyph-name="Zcaron" horiz-adv-x="740" unicode="&#381;" /><glyph d="M559 0C570 43 620 184 639 231C591 241 540 255 505 266C494 235 480 202 465 171C448 136 431 124 386 124C343 124 289 123 246 120L244 128C278 145 318 167 356 199C481 302 625 440 708 505C719 548 729 591 740 628C583 625 355 625 195 628C185 585 134 447 114 399C161 389 204 375 237 363C251 394 264 421 280 455C296 488 319 505 371 505C420 505 472 505 517 507L519 500C477 473 423 438 370 394C251 293 109 182 28 124C19 87 6 38 -8 0C155 3 393 3 559 0ZM596 773C596 824 560 868 497 868C432 868 397 824 397 773C397 720 426 680 497 680C560 680 596 720 596 773Z" glyph-name="Zdotaccent" horiz-adv-x="740" unicode="&#379;" /><glyph d="M516 510C513 501 509 491 506 482C499 464 492 446 485 428C463 482 405 513 334 513C167 513 43 318 43 147C43 49 98 -10 179 -10C259 -10 342 44 409 166H418C414 141 412 121 412 106C412 30 461 -4 529 -4C598 -4 660 23 705 45C685 80 666 122 654 168C635 153 617 142 600 142C583 142 575 150 575 167C575 215 625 347 697 498C619 499 565 503 516 510ZM261 143C234 143 221 159 221 190C221 265 289 372 372 372C398 372 424 366 449 345C384 207 326 143 261 143Z" glyph-name="a" horiz-adv-x="740" unicode="a" /><glyph d="M516 510C513 501 509 491 506 482C499 464 492 446 485 428C463 482 405 513 334 513C167 513 43 318 43 147C43 49 98 -10 179 -10C259 -10 342 44 409 166H418C414 141 412 121 412 106C412 30 461 -4 529 -4C598 -4 660 23 705 45C685 80 666 122 654 168C635 153 617 142 600 142C583 142 575 150 575 167C575 215 625 347 697 498C619 499 565 503 516 510ZM261 143C234 143 221 159 221 190C221 265 289 372 372 372C398 372 424 366 449 345C384 207 326 143 261 143ZM337 561C389 581 607 632 672 648C663 676 638 768 631 797C582 771 356 681 303 662C312 641 332 583 337 561Z" glyph-name="aacute" horiz-adv-x="740" unicode="&#225;" /><glyph d="M516 510C513 501 509 491 506 482C499 464 492 446 485 428C463 482 405 513 334 513C167 513 43 318 43 147C43 49 98 -10 179 -10C259 -10 342 44 409 166H418C414 141 412 121 412 106C412 30 461 -4 529 -4C598 -4 660 23 705 45C685 80 666 122 654 168C635 153 617 142 600 142C583 142 575 150 575 167C575 215 625 347 697 498C619 499 565 503 516 510ZM261 143C234 143 221 159 221 190C221 265 289 372 372 372C398 372 424 366 449 345C384 207 326 143 261 143ZM456 682C406 682 397 723 396 772C372 764 287 744 257 739C263 631 339 571 440 571C560 571 620 637 671 739C643 744 570 764 550 772C524 717 506 682 456 682Z" glyph-name="abreve" horiz-adv-x="740" unicode="&#259;" /><glyph d="M516 510C513 501 509 491 506 482C499 464 492 446 485 428C463 482 405 513 334 513C167 513 43 318 43 147C43 49 98 -10 179 -10C259 -10 342 44 409 166H418C414 141 412 121 412 106C412 30 461 -4 529 -4C598 -4 660 23 705 45C685 80 666 122 654 168C635 153 617 142 600 142C583 142 575 150 575 167C575 215 625 347 697 498C619 499 565 503 516 510ZM261 143C234 143 221 159 221 190C221 265 289 372 372 372C398 372 424 366 449 345C384 207 326 143 261 143ZM527 562C550 573 599 593 634 603C603 658 560 739 553 774C529 773 496 773 483 773C470 773 426 773 404 774C374 738 295 673 229 619C255 605 299 578 319 562C373 597 419 634 457 669C475 634 499 596 527 562Z" glyph-name="acircumflex" horiz-adv-x="740" unicode="&#226;" /><glyph d="M34 561C86 581 304 632 369 648C360 676 335 768 328 797C279 771 53 681 0 662C9 641 29 583 34 561Z" glyph-name="acute" horiz-adv-x="369" unicode="&#180;" /><glyph d="M31 669C87 686 292 725 368 736C359 763 335 853 328 881C268 858 56 792 0 773C9 752 24 697 31 669Z" glyph-name="acute.case" horiz-adv-x="368" /><glyph d="M516 510C513 501 509 491 506 482C499 464 492 446 485 428C463 482 405 513 334 513C167 513 43 318 43 147C43 49 98 -10 179 -10C259 -10 342 44 409 166H418C414 141 412 121 412 106C412 30 461 -4 529 -4C598 -4 660 23 705 45C685 80 666 122 654 168C635 153 617 142 600 142C583 142 575 150 575 167C575 215 625 347 697 498C619 499 565 503 516 510ZM261 143C234 143 221 159 221 190C221 265 289 372 372 372C398 372 424 366 449 345C384 207 326 143 261 143ZM444 675C444 728 408 760 354 760C299 760 263 729 263 675C263 620 299 588 354 588C408 588 444 622 444 675ZM654 675C654 728 618 760 564 760C509 760 473 729 473 675C473 620 509 588 564 588C618 588 654 622 654 675Z" glyph-name="adieresis" horiz-adv-x="740" unicode="&#228;" /><glyph d="M540 378C564 378 574 364 574 339C574 294 542 271 449 261C461 329 495 378 540 378ZM468 -10C547 -10 618 21 705 93C682 118 652 155 630 191C589 150 542 119 502 119C465 119 446 141 444 199C623 200 727 279 727 384C727 461 671 512 586 512C517 512 458 479 418 418C410 475 364 513 272 512C172 512 71 465 71 382C71 342 91 310 146 310C209 310 240 344 244 390C250 391 256 391 262 391C297 391 319 378 319 336C319 323 315 305 307 278C281 282 249 283 213 283C61 283 -12 203 -12 116C-12 24 41 -9 119 -9C206 -9 267 46 304 107C316 40 374 -10 468 -10ZM191 119C166 119 146 128 146 154C146 186 179 212 250 212C260 212 273 212 286 211C266 149 233 119 191 119Z" glyph-name="ae" horiz-adv-x="740" unicode="&#230;" /><glyph d="M540 378C564 378 574 364 574 339C574 294 542 271 449 261C461 329 495 378 540 378ZM468 -10C547 -10 618 21 705 93C682 118 652 155 630 191C589 150 542 119 502 119C465 119 446 141 444 199C623 200 727 279 727 384C727 461 671 512 586 512C517 512 458 479 418 418C410 475 364 513 272 512C172 512 71 465 71 382C71 342 91 310 146 310C209 310 240 344 244 390C250 391 256 391 262 391C297 391 319 378 319 336C319 323 315 305 307 278C281 282 249 283 213 283C61 283 -12 203 -12 116C-12 24 41 -9 119 -9C206 -9 267 46 304 107C316 40 374 -10 468 -10ZM191 119C166 119 146 128 146 154C146 186 179 212 250 212C260 212 273 212 286 211C266 149 233 119 191 119ZM376 561C428 581 646 632 711 648C702 676 677 768 670 797C621 771 395 681 342 662C351 641 371 583 376 561Z" glyph-name="aeacute" horiz-adv-x="740" unicode="&#509;" /><glyph d="M516 510C513 501 509 491 506 482C499 464 492 446 485 428C463 482 405 513 334 513C167 513 43 318 43 147C43 49 98 -10 179 -10C259 -10 342 44 409 166H418C414 141 412 121 412 106C412 30 461 -4 529 -4C598 -4 660 23 705 45C685 80 666 122 654 168C635 153 617 142 600 142C583 142 575 150 575 167C575 215 625 347 697 498C619 499 565 503 516 510ZM261 143C234 143 221 159 221 190C221 265 289 372 372 372C398 372 424 366 449 345C384 207 326 143 261 143ZM486 561C492 583 512 641 523 663C467 681 266 766 219 794C207 761 173 674 160 644C229 630 434 581 486 561Z" glyph-name="agrave" horiz-adv-x="740" unicode="&#224;" /><glyph d="M516 510C513 501 509 491 506 482C499 464 492 446 485 428C463 482 405 513 334 513C167 513 43 318 43 147C43 49 98 -10 179 -10C259 -10 342 44 409 166H418C414 141 412 121 412 106C412 30 461 -4 529 -4C598 -4 660 23 705 45C685 80 666 122 654 168C635 153 617 142 600 142C583 142 575 150 575 167C575 215 625 347 697 498C619 499 565 503 516 510ZM261 143C234 143 221 159 221 190C221 265 289 372 372 372C398 372 424 366 449 345C384 207 326 143 261 143ZM291 739C279 695 263 648 246 603C296 605 616 605 671 603C683 645 702 699 716 739C659 737 339 737 291 739Z" glyph-name="amacron" horiz-adv-x="740" unicode="&#257;" /><glyph d="M319 443C319 492 340 530 383 530C409 530 427 517 427 488C427 460 413 433 324 394C321 411 319 428 319 443ZM268 111C203 111 167 139 167 193C167 230 185 257 224 274C250 217 286 164 336 121C316 115 294 111 268 111ZM641 -8C646 41 661 107 673 140C637 144 609 147 584 151C669 207 729 280 729 347C729 394 705 429 644 429C579 429 554 389 554 352C554 331 563 310 581 295C557 258 518 224 467 188C417 217 377 255 352 304C517 343 565 409 565 494C565 587 502 642 389 642C240 642 181 550 183 441C183 416 186 391 192 365C67 339 8 267 8 170C8 60 88 -14 246 -14C330 -14 400 2 452 48C500 26 558 7 641 -8Z" glyph-name="ampersand" horiz-adv-x="740" unicode="&amp;" /><glyph d="M545 -244C570 -244 605 -241 636 -230C635 -208 639 -130 645 -96C631 -101 616 -104 602 -104C573 -104 557 -93 557 -69C557 -25 616 4 705 45C685 80 666 122 654 168C635 153 617 142 600 142C583 142 575 150 575 167C575 215 625 347 697 498C619 499 565 503 516 510C513 501 509 491 506 482C499 464 492 446 485 428C463 482 405 513 334 513C167 513 43 318 43 147C43 49 98 -10 179 -10C259 -10 342 44 409 166H418C414 141 412 121 412 106C412 30 461 -4 529 -4C532 -4 534 -4 537 -4C467 -35 409 -71 409 -140C409 -203 459 -244 545 -244ZM261 143C234 143 221 159 221 190C221 265 289 372 372 372C398 372 424 366 449 345C384 207 326 143 261 143Z" glyph-name="aogonek" horiz-adv-x="740" unicode="&#261;" /><glyph d="M516 510C513 501 509 491 506 482C499 464 492 446 485 428C463 482 405 513 334 513C167 513 43 318 43 147C43 49 98 -10 179 -10C259 -10 342 44 409 166H418C414 141 412 121 412 106C412 30 461 -4 529 -4C598 -4 660 23 705 45C685 80 666 122 654 168C635 153 617 142 600 142C583 142 575 150 575 167C575 215 625 347 697 498C619 499 565 503 516 510ZM261 143C234 143 221 159 221 190C221 265 289 372 372 372C398 372 424 366 449 345C384 207 326 143 261 143ZM410 564C506 564 567 635 567 705C567 765 533 803 462 803C363 803 300 733 300 663C300 602 336 564 410 564ZM422 639C396 638 387 652 387 669C387 696 409 726 446 726C471 726 481 713 481 696C481 667 459 639 422 639Z" glyph-name="aring" horiz-adv-x="740" unicode="&#229;" /><glyph d="M516 510C513 501 509 491 506 482C499 464 492 446 485 428C463 482 405 513 334 513C167 513 43 318 43 147C43 49 98 -10 179 -10C259 -10 342 44 409 166H418C414 141 412 121 412 106C412 30 461 -4 529 -4C598 -4 660 23 705 45C685 80 666 122 654 168C635 153 617 142 600 142C583 142 575 150 575 167C575 215 625 347 697 498C619 499 565 503 516 510ZM261 143C234 143 221 159 221 190C221 265 289 372 372 372C398 372 424 366 449 345C384 207 326 143 261 143ZM410 564C506 564 567 635 567 705C567 765 533 803 462 803C363 803 300 733 300 663C300 602 336 564 410 564ZM422 639C396 638 387 652 387 669C387 696 409 726 446 726C471 726 481 713 481 696C481 667 459 639 422 639ZM421 829C477 846 682 885 758 896C749 923 725 1013 718 1041C658 1018 446 952 390 933C399 912 414 857 421 829Z" glyph-name="aringacute" horiz-adv-x="740" unicode="&#507;" /><glyph d="M0 304C65 227 163 93 210 6C247 52 297 104 338 138C311 163 234 209 168 240L171 252C226 245 297 238 369 238C442 238 513 245 569 252L572 240C506 209 429 163 402 138C443 104 493 52 530 6C577 93 675 227 740 304C675 381 577 515 530 602C493 556 443 504 402 470C429 445 506 399 572 368L569 356C513 363 442 370 369 370C297 370 226 363 171 356L168 368C234 399 311 445 338 470C297 504 247 556 210 602C163 515 65 381 0 304Z" glyph-name="arrowboth" horiz-adv-x="740" unicode="&#8596;" /><glyph d="M444 0C469 64 613 323 680 407C644 422 563 465 523 491C510 444 449 277 417 157L410 158C421 317 454 596 462 658C436 657 399 656 362 656C325 656 288 657 262 658C270 596 303 317 314 158L307 157C275 277 214 444 201 491C161 465 80 422 44 407C111 323 255 64 280 0C299 2 332 3 362 3C392 3 425 2 444 0Z" glyph-name="arrowdown" horiz-adv-x="740" unicode="&#8595;" /><glyph d="M689 304C689 341 690 378 691 404C629 396 350 363 191 352L190 359C310 391 477 452 524 465C498 505 455 586 440 622C356 555 97 411 33 386C35 367 36 334 36 304C36 274 35 241 33 222C97 197 356 53 440 -14C455 22 498 103 524 143C477 156 310 217 190 249L191 256C350 245 629 212 691 204C690 230 689 267 689 304Z" glyph-name="arrowleft" horiz-adv-x="740" unicode="&#8592;" /><glyph d="M42 306C42 269 41 232 40 206C102 214 381 247 540 258L541 251C421 219 254 158 207 145C233 105 276 24 291 -12C375 55 634 199 698 224C696 243 695 276 695 306C695 336 696 369 698 388C634 413 375 557 291 624C276 588 233 507 207 467C254 454 421 393 541 361L540 354C381 365 102 398 40 406C41 380 42 343 42 306Z" glyph-name="arrowright" horiz-adv-x="740" unicode="&#8594;" /><glyph d="M523 167C563 193 644 236 680 251C613 335 469 594 444 658C425 656 392 655 362 655C332 655 299 656 280 658C255 594 111 335 44 251C80 236 161 193 201 167C214 214 275 381 307 501L314 500C303 341 270 62 262 0C288 1 325 2 362 2C399 2 436 1 462 0C454 62 421 341 410 500L417 501C449 381 510 214 523 167Z" glyph-name="arrowup" horiz-adv-x="740" unicode="&#8593;" /><glyph d="M370 674C293 609 159 511 72 464C118 427 170 377 204 336C229 363 275 440 306 506L318 503C311 448 304 377 304 305C304 232 311 161 318 105L306 102C275 168 229 245 204 272C170 231 118 181 72 144C159 97 293 -1 370 -66C447 -1 581 97 668 144C622 181 570 231 536 272C511 245 465 168 434 102L422 105C429 161 436 232 436 305C436 377 429 448 422 503L434 506C465 440 511 363 536 336C570 377 622 427 668 464C581 511 447 609 370 674Z" glyph-name="arrowupdn" horiz-adv-x="740" unicode="&#8597;" /><glyph d="M473 124C526 159 599 198 659 224C640 259 515 489 501 533C480 532 458 532 436 532C414 532 392 532 371 533C331 489 64 267 21 232C68 208 152 155 197 124C237 177 263 210 311 270C344 310 369 345 388 375H394C400 345 410 310 423 270C445 210 458 177 473 124Z" glyph-name="asciicircum" horiz-adv-x="740" unicode="^" /><glyph d="M474 138C613 138 687 260 723 422C661 421 600 421 554 422C540 363 521 324 488 324C457 324 439 344 418 367C389 400 353 440 267 440C127 440 53 318 17 156C79 157 140 157 186 156C200 215 219 254 252 254C281 254 296 235 315 213C343 180 378 138 474 138Z" glyph-name="asciitilde" horiz-adv-x="740" unicode="~" /><glyph d="M384 167C435 187 486 205 540 221C515 252 462 328 437 373C488 365 576 338 615 325C613 379 613 435 614 492C577 480 487 451 436 441C461 487 514 559 536 593C483 607 432 625 380 644C380 604 376 512 369 460C333 499 278 571 257 603C227 560 194 511 159 467C197 456 286 424 332 402C286 380 203 351 161 338C196 296 227 253 260 206C283 238 339 312 374 350C381 300 384 213 384 167Z" glyph-name="asterisk" horiz-adv-x="740" unicode="*" /><glyph d="M401 113C378 113 365 122 365 145C365 181 404 209 492 213C471 147 446 113 401 113ZM419 415C504 415 525 369 525 331C525 324 524 316 523 308C361 329 229 265 229 125C229 46 270 -10 335 -10C408 -10 444 27 473 96H479C479 93 479 90 479 87C479 21 519 -10 580 -10C612 -10 652 -5 696 16C676 53 664 88 655 125C647 120 641 117 632 117C620 117 615 127 615 138C615 178 666 261 666 355C666 486 567 550 423 550C161 550 27 350 27 143C27 71 38 30 56 -15C99 3 150 17 195 27C178 69 167 103 167 162C167 286 258 415 419 415Z" glyph-name="at" horiz-adv-x="740" unicode="@" /><glyph d="M401 113C377 113 363 126 363 159C363 221 415 283 531 289C499 210 464 113 401 113ZM427 506C533 506 559 452 559 408C559 400 558 392 557 383C376 407 229 323 229 125C229 46 270 -10 335 -10C408 -10 444 27 473 96H479C479 93 479 90 479 87C479 21 519 -10 580 -10C612 -10 652 -5 696 16C676 53 664 88 655 125C647 120 641 117 632 117C620 117 615 127 615 138C615 200 702 315 702 431C702 572 591 641 431 641C164 641 27 416 27 183C27 93 37 41 59 -15C102 3 153 17 198 27C177 81 167 126 167 202C167 351 261 506 427 506Z" glyph-name="at.case" horiz-adv-x="740" /><glyph d="M516 510C513 501 509 491 506 482C499 464 492 446 485 428C463 482 405 513 334 513C167 513 43 318 43 147C43 49 98 -10 179 -10C259 -10 342 44 409 166H418C414 141 412 121 412 106C412 30 461 -4 529 -4C598 -4 660 23 705 45C685 80 666 122 654 168C635 153 617 142 600 142C583 142 575 150 575 167C575 215 625 347 697 498C619 499 565 503 516 510ZM261 143C234 143 221 159 221 190C221 265 289 372 372 372C398 372 424 366 449 345C384 207 326 143 261 143ZM410 776C316 776 263 716 240 571C266 574 297 574 326 571C335 625 353 657 378 657C394 657 401 644 410 627C432 586 457 558 526 558C620 558 671 621 696 763C663 760 632 760 610 763C601 712 587 678 559 678C540 678 531 692 519 711C493 750 471 776 410 776Z" glyph-name="atilde" horiz-adv-x="740" unicode="&#227;" /><glyph d="M362 131C327 131 287 145 257 169C320 306 399 360 469 360C503 360 519 344 519 310C519 238 448 131 362 131ZM204 533C204 458 37 66 -3 5C78 3 134 -1 192 -7C203 29 215 63 226 94C254 26 316 -10 400 -10C570 -10 697 185 697 356C697 454 638 512 551 512C469 512 382 458 314 337H303C348 469 379 520 379 584C379 655 335 685 268 685C222 685 176 677 119 656C136 625 149 591 163 545C174 551 182 553 188 553C198 553 204 547 204 533Z" glyph-name="b" horiz-adv-x="740" unicode="b" /><glyph d="M496 -111C486 7 451 569 451 675C403 676 296 682 243 689C257 554 287 39 291 -100C346 -99 440 -105 496 -111Z" glyph-name="backslash" horiz-adv-x="740" unicode="\" /><glyph d="M150 -98C221 -95 292 -95 369 -98C422 105 553 509 620 676C544 675 475 675 401 676C355 509 223 101 150 -98Z" glyph-name="bar" horiz-adv-x="740" unicode="|" /><glyph d="M418 43C363 43 351 53 351 75C351 118 443 163 443 226C443 271 429 295 331 300V308C444 317 504 355 504 426C504 454 500 487 500 512C500 557 525 574 556 574C579 574 635 570 672 564C684 611 704 671 724 724C686 728 625 730 599 730C429 730 355 675 355 558C355 524 362 488 362 453C362 397 300 373 187 388C178 349 152 272 137 234C255 240 278 219 278 189C278 138 172 94 172 -3C172 -71 225 -116 351 -116C377 -116 414 -114 454 -110C470 -57 488 3 506 50C469 44 438 43 418 43Z" glyph-name="braceleft" horiz-adv-x="740" unicode="{" /><glyph d="M322 571C377 571 389 561 389 539C389 496 297 451 297 388C297 343 311 319 409 314V306C296 297 236 259 236 188C236 160 240 127 240 102C240 57 215 40 184 40C161 40 105 44 68 50C56 3 36 -57 16 -110C54 -114 115 -116 141 -116C311 -116 385 -61 385 56C385 90 378 126 378 161C378 217 440 241 553 226C562 265 588 342 603 380C485 374 462 395 462 425C462 476 568 520 568 617C568 685 515 730 389 730C363 730 326 728 286 724C270 671 252 611 234 564C271 570 302 571 322 571Z" glyph-name="braceright" horiz-adv-x="740" unicode="}" /><glyph d="M496 48C471 43 397 42 330 41C363 154 460 458 498 571C565 570 637 569 660 564C673 608 692 667 709 720C600 715 478 716 367 717C305 521 169 91 107 -105C218 -104 341 -103 447 -108C463 -55 482 4 496 48Z" glyph-name="bracketleft" horiz-adv-x="740" unicode="[" /><glyph d="M373 -105C435 91 571 521 633 717C522 716 399 715 293 720C277 667 258 608 244 564C269 569 343 570 410 571C377 458 280 154 242 41C175 42 103 43 80 48C67 4 48 -55 31 -108C140 -103 262 -104 373 -105Z" glyph-name="bracketright" horiz-adv-x="740" unicode="]" /><glyph d="M199 682C149 682 140 723 139 772C115 764 30 744 0 739C6 631 82 571 183 571C303 571 363 637 414 739C386 744 313 764 293 772C267 717 249 682 199 682Z" glyph-name="breve" horiz-adv-x="414" unicode="&#728;" /><glyph d="M200 792C149 792 140 828 139 871C115 863 30 843 0 838C6 737 82 681 184 681C303 681 366 741 414 838C386 843 313 863 293 871C270 822 249 792 200 792Z" glyph-name="breve.case" horiz-adv-x="414" /><glyph d="M150 -98C221 -95 292 -95 369 -98C392 -11 445 162 470 241C422 240 308 240 266 241C248 168 182 -12 150 -98ZM508 360C534 454 591 604 620 676C544 675 475 675 401 676C381 604 343 463 305 360C359 361 462 361 508 360Z" glyph-name="brokenbar" horiz-adv-x="740" unicode="&#166;" /><glyph d="M347 110C477 110 551 194 551 294C551 371 499 432 395 432C267 432 195 341 195 246C195 163 245 110 347 110Z" glyph-name="bullet" horiz-adv-x="740" unicode="&#8226;" /><glyph d="M634 92C612 117 591 146 558 198C488 149 406 131 351 131C277 131 240 160 240 218C240 306 325 379 436 379C464 379 494 375 517 362C487 353 462 329 462 293C462 256 492 227 542 227C612 227 651 284 651 354C651 438 588 512 432 512C173 512 62 345 62 191C62 65 145 -10 323 -10C422 -10 512 0 634 92Z" glyph-name="c" horiz-adv-x="740" unicode="c" /><glyph d="M634 92C612 117 591 146 558 198C488 149 406 131 351 131C277 131 240 160 240 218C240 306 325 379 436 379C464 379 494 375 517 362C487 353 462 329 462 293C462 256 492 227 542 227C612 227 651 284 651 354C651 438 588 512 432 512C173 512 62 345 62 191C62 65 145 -10 323 -10C422 -10 512 0 634 92ZM378 561C430 581 648 632 713 648C704 676 679 768 672 797C623 771 397 681 344 662C353 641 373 583 378 561Z" glyph-name="cacute" horiz-adv-x="740" unicode="&#263;" /><glyph d="M230 567C260 603 339 668 405 722C379 736 335 763 315 779C261 744 215 707 177 672C159 707 135 745 107 779C84 768 35 748 0 738C31 683 74 602 81 567C105 568 138 568 151 568C164 568 208 568 230 567Z" glyph-name="caron" horiz-adv-x="405" unicode="&#711;" /><glyph d="M181 652C193 575 167 478 101 388C76 401 31 417 0 424C33 480 56 571 37 628C81 635 139 640 181 652Z" glyph-name="caron.alt" horiz-adv-x="184" /><glyph d="M235 666C264 696 359 767 405 803C379 817 335 844 315 860C263 827 217 795 180 764C160 795 134 828 107 860C84 849 35 829 0 819C30 774 72 699 86 666C110 667 143 667 156 667C169 667 213 667 235 666Z" glyph-name="caron.case" horiz-adv-x="405" /><glyph d="M634 92C612 117 591 146 558 198C488 149 406 131 351 131C277 131 240 160 240 218C240 306 325 379 436 379C464 379 494 375 517 362C487 353 462 329 462 293C462 256 492 227 542 227C612 227 651 284 651 354C651 438 588 512 432 512C173 512 62 345 62 191C62 65 145 -10 323 -10C422 -10 512 0 634 92ZM526 567C556 603 635 668 701 722C675 736 631 763 611 779C557 744 511 707 473 672C455 707 431 745 403 779C380 768 331 748 296 738C327 683 370 602 377 567C401 568 434 568 447 568C460 568 504 568 526 567Z" glyph-name="ccaron" horiz-adv-x="740" unicode="&#269;" /><glyph d="M107 -200C144 -228 210 -243 270 -243C384 -243 423 -190 429 -138C436 -81 406 -53 355 -53C328 -53 303 -62 284 -75C294 -54 306 -31 317 -10C319 -10 321 -10 323 -10C422 -10 512 0 634 92C612 117 591 146 558 198C488 149 406 131 351 131C277 131 240 160 240 218C240 306 325 379 436 379C464 379 494 375 517 362C487 353 462 329 462 293C462 256 492 227 542 227C612 227 651 284 651 354C651 438 588 512 432 512C173 512 62 345 62 191C62 84 122 14 249 -5C235 -32 218 -61 208 -77C224 -84 244 -97 264 -113C276 -108 289 -103 308 -103C327 -103 343 -111 341 -131C338 -153 317 -164 286 -164C240 -164 194 -139 167 -113C153 -140 127 -181 107 -200Z" glyph-name="ccedilla" horiz-adv-x="740" unicode="&#231;" /><glyph d="M634 92C612 117 591 146 558 198C488 149 406 131 351 131C277 131 240 160 240 218C240 306 325 379 436 379C464 379 494 375 517 362C487 353 462 329 462 293C462 256 492 227 542 227C612 227 651 284 651 354C651 438 588 512 432 512C173 512 62 345 62 191C62 65 145 -10 323 -10C422 -10 512 0 634 92ZM566 562C589 573 638 593 673 603C642 658 599 739 592 774C568 773 535 773 522 773C509 773 465 773 443 774C413 738 334 673 268 619C294 605 338 578 358 562C412 597 458 634 496 669C514 634 538 596 566 562Z" glyph-name="ccircumflex" horiz-adv-x="740" unicode="&#265;" /><glyph d="M634 92C612 117 591 146 558 198C488 149 406 131 351 131C277 131 240 160 240 218C240 306 325 379 436 379C464 379 494 375 517 362C487 353 462 329 462 293C462 256 492 227 542 227C612 227 651 284 651 354C651 438 588 512 432 512C173 512 62 345 62 191C62 65 145 -10 323 -10C422 -10 512 0 634 92ZM559 678C559 729 523 773 460 773C395 773 360 729 360 678C360 625 389 585 460 585C523 585 559 625 559 678Z" glyph-name="cdotaccent" horiz-adv-x="740" unicode="&#267;" /><glyph d="M0 -200C37 -228 103 -243 163 -243C277 -243 316 -190 322 -138C329 -81 299 -53 248 -53C221 -53 196 -62 177 -75C197 -32 224 18 240 45H165C158 23 119 -49 101 -77C117 -84 137 -97 157 -113C169 -108 182 -103 201 -103C220 -103 236 -111 234 -131C231 -153 210 -164 179 -164C133 -164 87 -139 60 -113C46 -140 20 -181 0 -200Z" glyph-name="cedilla" horiz-adv-x="323" unicode="&#184;" /><glyph d="M203 0C258 3 315 3 374 0C377 12 382 37 391 70C471 76 549 96 643 145C624 172 602 212 582 260C514 225 443 209 379 209C301 209 254 232 254 284C254 356 340 419 452 419C473 419 495 417 515 410C493 398 478 377 478 353C478 319 508 294 558 294C628 294 667 344 667 405C667 460 631 516 547 540C561 581 574 614 580 628C525 625 468 625 409 628C406 615 400 586 390 549C171 528 76 386 76 264C76 168 135 105 234 80C221 42 209 13 203 0Z" glyph-name="cent" horiz-adv-x="740" unicode="&#162;" /><glyph d="M298 562C321 573 370 593 405 603C374 658 331 739 324 774C300 773 267 773 254 773C241 773 197 773 175 774C145 738 66 673 0 619C26 605 70 578 90 562C144 597 190 634 228 669C246 634 270 596 298 562Z" glyph-name="circumflex" horiz-adv-x="405" unicode="&#710;" /><glyph d="M298 659C321 670 370 690 405 700C375 745 333 820 319 853C295 852 262 852 249 852C236 852 192 852 170 853C141 823 46 752 0 716C26 702 70 675 90 659C142 692 188 724 225 755C245 724 271 691 298 659Z" glyph-name="circumflex.case" horiz-adv-x="405" /><glyph d="M452 105C452 169 409 218 331 218C252 218 209 169 209 105C209 41 244 -10 331 -10C409 -10 452 41 452 105ZM551 407C551 471 508 520 430 520C351 520 308 471 308 407C308 343 343 292 430 292C508 292 551 343 551 407Z" glyph-name="colon" horiz-adv-x="740" unicode=":" /><glyph d="M128 -233C342 -231 465 -90 465 55C465 150 419 218 332 218C257 218 210 168 210 104C210 47 243 3 303 3C341 3 370 23 383 53L393 49C383 -69 265 -110 116 -103C122 -137 127 -193 128 -233Z" glyph-name="comma" horiz-adv-x="740" unicode="," /><glyph d="M5 -322C145 -321 225 -238 225 -152C225 -91 195 -46 130 -46C75 -46 41 -79 41 -120C41 -158 65 -186 109 -186C138 -186 160 -173 170 -153L177 -156C170 -216 95 -239 0 -235C3 -257 5 -295 5 -322Z" glyph-name="commaaccent" horiz-adv-x="225" unicode="&#63171;" /><glyph d="M400 388C425 388 439 371 444 341C473 344 510 345 542 341C548 370 573 447 589 483C566 482 528 482 487 483C485 472 476 443 467 412L459 411C458 465 440 491 392 491C300 491 210 395 210 266C210 196 239 136 341 136C423 136 483 183 526 234C502 252 472 278 450 298C432 267 410 244 373 244C342 244 325 259 325 297C325 352 362 388 400 388ZM323 -14C581 -14 725 188 725 390C725 532 647 642 440 642C182 642 38 440 38 238C38 96 116 -14 323 -14ZM436 553C571 553 629 497 629 383C629 220 518 75 326 75C193 75 134 131 134 245C134 408 246 553 436 553Z" glyph-name="copyright" horiz-adv-x="740" unicode="&#169;" /><glyph d="M524 539C524 528 505 480 483 416C460 467 403 496 334 496C167 496 43 310 43 147C43 49 98 -10 179 -10C259 -10 343 44 410 166H416C414 145 412 125 412 106C412 30 461 -4 529 -4C604 -4 670 26 719 50C699 85 680 127 668 173C645 154 622 142 601 142C583 142 575 150 575 167C575 233 710 517 710 583C710 655 662 685 572 685C519 685 460 673 395 649C418 607 431 575 444 534C474 549 491 555 505 555C517 555 524 548 524 539ZM261 143C234 143 221 159 221 190C221 258 289 355 372 355C396 355 421 350 445 332C388 209 322 143 261 143Z" glyph-name="d" horiz-adv-x="740" unicode="d" /><glyph d="M637 263C720 263 778 314 778 392C778 450 746 496 676 496C596 496 565 438 558 393C547 402 542 418 542 442C542 522 597 635 640 725C620 723 559 723 524 723C489 723 428 723 408 725C400 675 357 552 343 415H336C316 467 267 497 207 497C124 497 66 446 66 368C66 310 98 264 168 264C252 264 282 329 286 374C293 365 296 351 296 331C296 246 214 4 179 -92C196 -91 238 -91 264 -91C290 -91 332 -91 349 -92C385 17 445 216 494 360H500C516 298 570 263 637 263Z" glyph-name="dagger" horiz-adv-x="740" unicode="&#8224;" /><glyph d="M551 51C628 51 682 102 682 180C682 238 650 284 580 284C504 284 476 221 472 175C465 186 462 202 462 225C462 288 484 370 505 443H510C527 384 576 350 637 350C720 350 778 401 778 479C778 537 746 583 676 583C603 583 574 525 568 480C557 490 552 505 552 529C552 584 597 661 627 725C608 723 549 723 516 723C483 723 424 723 405 725C399 689 374 601 363 502H356C336 554 287 584 227 584C150 584 96 533 96 455C96 397 128 351 198 351C274 351 302 414 306 460C313 449 316 432 316 409C316 345 293 253 274 188H268C252 250 198 285 131 285C54 285 0 234 0 156C0 98 32 52 102 52C175 52 204 110 210 155C221 145 226 130 226 106C226 51 181 -26 151 -90C171 -88 232 -88 267 -88C299 -88 355 -88 373 -90C379 -54 404 34 415 133H422C442 81 491 51 551 51Z" glyph-name="daggerdbl" horiz-adv-x="740" unicode="&#8225;" /><glyph d="M450 539C450 521 432 474 411 413C393 465 355 496 302 496C140 496 19 310 19 147C19 49 74 -10 136 -10C214 -10 281 43 333 153H341C339 137 338 121 338 106C338 30 387 -4 455 -4C547 -4 627 42 689 72C669 107 650 149 638 195C599 163 562 142 527 142C509 142 501 150 501 167C501 233 636 517 636 583C636 655 588 685 498 685C445 685 386 673 321 649C343 609 354 579 366 540C393 550 416 555 431 555C446 555 450 548 450 539ZM237 143C210 143 197 159 197 190C197 258 264 355 332 355C352 355 366 350 377 341C327 215 285 143 237 143ZM820 692C778 680 720 675 676 668C695 611 672 520 639 464C670 457 715 441 740 428C806 518 832 615 820 692Z" glyph-name="dcaron" horiz-adv-x="740" unicode="&#271;" /><glyph d="M261 143C234 143 221 159 221 190C221 256 281 350 367 350C393 350 419 344 444 323C391 205 322 143 261 143ZM555 675C552 654 548 633 543 611C458 612 382 613 361 615C354 586 337 537 325 507C348 509 427 510 515 510C504 474 491 438 480 402C445 431 397 452 326 452C163 452 43 289 43 147C43 49 98 -10 179 -10C259 -10 343 44 410 166H417C414 145 412 125 412 106C412 30 461 -4 529 -4C604 -4 670 26 719 50C699 85 680 127 668 173C645 154 622 142 601 142C583 142 575 150 575 167C575 212 636 372 689 510C740 509 780 508 797 507C804 536 822 584 833 615C817 614 778 613 729 612C738 636 747 657 753 675C685 673 618 673 555 675Z" glyph-name="dcroat" horiz-adv-x="740" unicode="&#273;" /><glyph d="M402 238C562 238 664 357 664 475C664 576 607 639 489 639C323 639 217 522 217 405C217 302 277 238 402 238ZM422 364C378 363 363 386 363 415C363 460 399 510 462 510C503 510 520 489 520 459C520 411 484 365 422 364Z" glyph-name="degree" horiz-adv-x="740" unicode="&#176;" /><glyph d="M181 675C181 728 145 760 91 760C36 760 0 729 0 675C0 620 36 588 91 588C145 588 181 622 181 675ZM391 675C391 728 355 760 301 760C246 760 210 729 210 675C210 620 246 588 301 588C355 588 391 622 391 675Z" glyph-name="dieresis" horiz-adv-x="391" unicode="&#168;" /><glyph d="M181 773C181 826 145 858 91 858C36 858 0 827 0 773C0 718 36 686 91 686C145 686 181 720 181 773ZM391 773C391 826 355 858 301 858C246 858 210 827 210 773C210 718 246 686 301 686C355 686 391 720 391 773Z" glyph-name="dieresis.case" horiz-adv-x="391" /><glyph d="M413 121C413 171 378 195 316 195C253 195 218 171 218 121C218 71 247 46 316 46C378 46 413 71 413 121ZM534 509C534 559 499 583 437 583C374 583 339 559 339 509C339 459 368 434 437 434C499 434 534 459 534 509ZM671 395C609 392 214 391 146 395C135 351 115 289 93 237C162 239 556 239 621 237C629 279 648 343 671 395Z" glyph-name="divide" horiz-adv-x="740" unicode="&#247;" /><glyph d="M169 -74C218 -72 268 -72 320 -74C323 -58 332 -25 346 20C547 24 644 103 644 214C644 328 553 359 392 381C309 393 290 403 290 426C290 451 320 468 426 468C455 468 480 466 502 463C501 461 501 458 501 455C501 420 531 388 588 388C647 388 674 423 674 466C674 521 633 574 526 593C546 646 565 682 572 698C523 696 473 696 421 698C418 683 405 648 388 600C230 589 139 518 139 411C139 321 200 270 376 246C478 232 490 222 490 204C490 178 462 165 364 165C292 165 240 172 201 180C202 184 203 189 203 194C203 228 179 259 124 259C57 259 29 219 29 166C29 95 81 46 206 28C189 -22 176 -57 169 -74Z" glyph-name="dollar" horiz-adv-x="740" unicode="$" /><glyph d="M175 -114C224 -112 274 -112 326 -114C330 -96 342 -56 361 1C550 9 641 84 641 188C641 294 551 321 391 343C305 355 286 365 286 387C286 408 308 426 423 426C453 426 479 424 501 422C501 420 501 417 501 415C501 380 531 348 588 348C647 348 674 383 674 426C674 478 630 528 515 545C540 616 566 664 574 684C525 682 475 682 423 684C419 665 401 617 377 548C225 536 137 470 137 373C137 288 197 240 376 218C472 206 487 194 487 175C487 149 459 135 359 135C286 135 235 145 197 156C199 161 200 167 200 174C200 208 176 239 120 239C54 239 26 199 26 146C26 72 83 21 221 5C200 -54 183 -95 175 -114Z" glyph-name="dollar.osf" horiz-adv-x="740" /><glyph d="M199 678C199 729 163 773 100 773C35 773 0 729 0 678C0 625 29 585 100 585C163 585 199 625 199 678Z" glyph-name="dotaccent" horiz-adv-x="199" unicode="&#729;" /><glyph d="M199 773C199 824 163 868 100 868C35 868 0 824 0 773C0 720 29 680 100 680C163 680 199 720 199 773Z" glyph-name="dotaccent.case" horiz-adv-x="199" /><glyph d="M391 168C391 217 474 347 474 414C474 480 433 512 354 512C265 512 178 474 46 385C66 359 87 324 118 274C190 325 237 353 270 353C283 353 292 347 292 335C292 304 223 197 223 119C223 34 276 -10 385 -10C471 -10 570 32 671 130C648 152 611 191 584 224C525 161 468 136 432 136C405 136 391 147 391 168Z" glyph-name="dotlessi" horiz-adv-x="740" unicode="&#305;" /><glyph d="M425 378C465 378 483 365 483 343C483 295 421 280 247 261C270 330 336 378 425 378ZM359 119C290 119 251 136 241 181C493 179 645 240 645 366C645 450 584 512 440 512C200 512 62 367 62 199C62 70 149 -10 330 -10C430 -10 530 11 629 93C606 118 588 141 554 191C505 142 420 119 359 119Z" glyph-name="e" horiz-adv-x="740" unicode="e" /><glyph d="M425 378C465 378 483 365 483 343C483 295 421 280 247 261C270 330 336 378 425 378ZM359 119C290 119 251 136 241 181C493 179 645 240 645 366C645 450 584 512 440 512C200 512 62 367 62 199C62 70 149 -10 330 -10C430 -10 530 11 629 93C606 118 588 141 554 191C505 142 420 119 359 119ZM360 561C412 581 630 632 695 648C686 676 661 768 654 797C605 771 379 681 326 662C335 641 355 583 360 561Z" glyph-name="eacute" horiz-adv-x="740" unicode="&#233;" /><glyph d="M425 378C465 378 483 365 483 343C483 295 421 280 247 261C270 330 336 378 425 378ZM359 119C290 119 251 136 241 181C493 179 645 240 645 366C645 450 584 512 440 512C200 512 62 367 62 199C62 70 149 -10 330 -10C430 -10 530 11 629 93C606 118 588 141 554 191C505 142 420 119 359 119ZM477 682C427 682 418 723 417 772C393 764 308 744 278 739C284 631 360 571 461 571C581 571 641 637 692 739C664 744 591 764 571 772C545 717 527 682 477 682Z" glyph-name="ebreve" horiz-adv-x="740" unicode="&#277;" /><glyph d="M425 378C465 378 483 365 483 343C483 295 421 280 247 261C270 330 336 378 425 378ZM359 119C290 119 251 136 241 181C493 179 645 240 645 366C645 450 584 512 440 512C200 512 62 367 62 199C62 70 149 -10 330 -10C430 -10 530 11 629 93C606 118 588 141 554 191C505 142 420 119 359 119ZM516 567C546 603 625 668 691 722C665 736 621 763 601 779C547 744 501 707 463 672C445 707 421 745 393 779C370 768 321 748 286 738C317 683 360 602 367 567C391 568 424 568 437 568C450 568 494 568 516 567Z" glyph-name="ecaron" horiz-adv-x="740" unicode="&#283;" /><glyph d="M425 378C465 378 483 365 483 343C483 295 421 280 247 261C270 330 336 378 425 378ZM359 119C290 119 251 136 241 181C493 179 645 240 645 366C645 450 584 512 440 512C200 512 62 367 62 199C62 70 149 -10 330 -10C430 -10 530 11 629 93C606 118 588 141 554 191C505 142 420 119 359 119ZM548 562C571 573 620 593 655 603C624 658 581 739 574 774C550 773 517 773 504 773C491 773 447 773 425 774C395 738 316 673 250 619C276 605 320 578 340 562C394 597 440 634 478 669C496 634 520 596 548 562Z" glyph-name="ecircumflex" horiz-adv-x="740" unicode="&#234;" /><glyph d="M425 378C465 378 483 365 483 343C483 295 421 280 247 261C270 330 336 378 425 378ZM359 119C290 119 251 136 241 181C493 179 645 240 645 366C645 450 584 512 440 512C200 512 62 367 62 199C62 70 149 -10 330 -10C430 -10 530 11 629 93C606 118 588 141 554 191C505 142 420 119 359 119ZM465 675C465 728 429 760 375 760C320 760 284 729 284 675C284 620 320 588 375 588C429 588 465 622 465 675ZM675 675C675 728 639 760 585 760C530 760 494 729 494 675C494 620 530 588 585 588C639 588 675 622 675 675Z" glyph-name="edieresis" horiz-adv-x="740" unicode="&#235;" /><glyph d="M425 378C465 378 483 365 483 343C483 295 421 280 247 261C270 330 336 378 425 378ZM359 119C290 119 251 136 241 181C493 179 645 240 645 366C645 450 584 512 440 512C200 512 62 367 62 199C62 70 149 -10 330 -10C430 -10 530 11 629 93C606 118 588 141 554 191C505 142 420 119 359 119ZM541 678C541 729 505 773 442 773C377 773 342 729 342 678C342 625 371 585 442 585C505 585 541 625 541 678Z" glyph-name="edotaccent" horiz-adv-x="740" unicode="&#279;" /><glyph d="M425 378C465 378 483 365 483 343C483 295 421 280 247 261C270 330 336 378 425 378ZM359 119C290 119 251 136 241 181C493 179 645 240 645 366C645 450 584 512 440 512C200 512 62 367 62 199C62 70 149 -10 330 -10C430 -10 530 11 629 93C606 118 588 141 554 191C505 142 420 119 359 119ZM507 561C513 583 533 641 544 663C488 681 287 766 240 794C228 761 194 674 181 644C250 630 455 581 507 561Z" glyph-name="egrave" horiz-adv-x="740" unicode="&#232;" /><glyph d="M292 -14C508 -14 642 68 642 197C642 266 607 302 538 320L539 328C644 354 703 412 703 494C703 589 624 642 473 642C259 642 150 559 150 450C150 396 177 357 235 333L233 324C93 300 29 240 29 148C29 51 111 -14 292 -14ZM326 118C250 118 215 140 215 181C215 225 257 263 353 263C429 263 464 241 464 200C464 156 422 118 326 118ZM405 380C340 380 310 396 310 435C310 480 351 513 442 513C507 513 537 497 537 458C537 413 496 380 405 380Z" glyph-name="eight" horiz-adv-x="740" unicode="8" /><glyph d="M336 129C393 129 412 124 412 112C412 97 391 83 322 83C269 83 246 90 246 103C246 117 261 129 336 129ZM373 244C420 244 441 236 441 223C441 206 417 192 356 192C310 192 289 197 289 212C289 229 312 244 373 244ZM402 337C236 337 175 277 175 227C175 198 200 177 253 171L251 164C157 153 115 111 115 68C115 22 169 -10 292 -10C460 -10 531 37 531 100C531 139 499 158 443 164L445 171C527 179 570 210 570 257C570 303 524 337 402 337Z" glyph-name="eight.dnom" horiz-adv-x="740" /><glyph d="M413 430C470 430 489 425 489 413C489 398 468 384 399 384C346 384 323 391 323 404C323 418 338 430 413 430ZM450 545C497 545 518 537 518 524C518 507 494 493 433 493C387 493 366 498 366 513C366 530 389 545 450 545ZM479 638C313 638 252 578 252 528C252 499 277 478 330 472L328 465C234 454 192 412 192 369C192 323 246 291 369 291C537 291 608 338 608 401C608 440 576 459 520 465L522 472C604 480 647 511 647 558C647 604 601 638 479 638Z" glyph-name="eight.numr" horiz-adv-x="740" /><glyph d="M292 -14C508 -14 642 68 642 197C642 266 607 302 538 320L539 328C644 354 703 412 703 494C703 589 624 642 473 642C259 642 150 559 150 450C150 396 177 357 235 333L233 324C93 300 29 240 29 148C29 51 111 -14 292 -14ZM326 118C250 118 215 140 215 181C215 225 257 263 353 263C429 263 464 241 464 200C464 156 422 118 326 118ZM405 380C340 380 310 396 310 435C310 480 351 513 442 513C507 513 537 497 537 458C537 413 496 380 405 380Z" glyph-name="eight.osf" horiz-adv-x="740" /><glyph d="M199 83C199 134 165 173 103 173C40 173 6 134 6 83C6 32 34 -9 103 -9C165 -9 199 32 199 83ZM432 83C432 134 398 173 336 173C273 173 239 134 239 83C239 32 267 -9 336 -9C398 -9 432 32 432 83ZM666 83C666 134 632 173 570 173C507 173 473 134 473 83C473 32 501 -9 570 -9C632 -9 666 32 666 83Z" glyph-name="ellipsis" horiz-adv-x="740" unicode="&#8230;" /><glyph d="M425 378C465 378 483 365 483 343C483 295 421 280 247 261C270 330 336 378 425 378ZM359 119C290 119 251 136 241 181C493 179 645 240 645 366C645 450 584 512 440 512C200 512 62 367 62 199C62 70 149 -10 330 -10C430 -10 530 11 629 93C606 118 588 141 554 191C505 142 420 119 359 119ZM312 739C300 695 284 648 267 603C317 605 637 605 692 603C704 645 723 699 737 739C680 737 360 737 312 739Z" glyph-name="emacron" horiz-adv-x="740" unicode="&#275;" /><glyph d="M83 355C67 294 47 238 25 176C98 182 571 181 651 176C666 233 693 307 710 355C628 348 154 349 83 355Z" glyph-name="emdash" horiz-adv-x="740" unicode="&#8212;" /><glyph d="M123 355C107 294 87 238 65 176C127 181 533 179 601 176C616 233 643 307 660 355C590 348 184 350 123 355Z" glyph-name="endash" horiz-adv-x="740" unicode="&#8211;" /><glyph d="M167 361C167 316 95 147 16 9C106 5 157 1 210 -6L212 0C280 213 399 364 472 364C488 364 499 356 499 331C499 284 458 174 418 67C391 -4 372 -46 348 -64C338 -41 314 -26 280 -26C226 -26 196 -65 196 -111C196 -168 241 -201 321 -201C467 -201 537 -86 579 20C650 201 689 326 689 406C689 480 644 512 576 512C494 512 397 466 333 347L322 349C327 369 330 386 330 400C330 476 287 512 216 512C153 512 93 490 31 442C50 416 68 382 84 339C115 368 135 378 151 378C162 378 167 373 167 361ZM266 -53 267 -34 282 -48 273 -58C270 -57 268 -55 266 -53Z" glyph-name="eng" horiz-adv-x="740" unicode="&#331;" /><glyph d="M425 378C465 378 483 365 483 343C483 295 421 280 247 261C270 330 336 378 425 378ZM537 -230C536 -208 540 -130 546 -96C530 -103 517 -104 503 -104C474 -104 458 -93 458 -73C458 -19 587 50 629 93C606 118 588 141 554 191C505 142 420 119 359 119C290 119 251 136 241 181C493 179 645 240 645 366C645 450 584 512 440 512C200 512 62 367 62 199C62 70 149 -10 330 -10C373 -10 415 -6 457 5C381 -36 310 -76 310 -145C310 -203 360 -244 446 -244C471 -244 506 -241 537 -230Z" glyph-name="eogonek" horiz-adv-x="740" unicode="&#281;" /><glyph d="M200 520C186 468 169 416 148 363C209 370 582 368 646 363C661 414 678 466 698 520C630 513 255 513 200 520ZM118 270C104 218 87 166 67 113C127 120 501 118 565 113C580 164 597 216 616 270C549 263 174 263 118 270Z" glyph-name="equal" horiz-adv-x="740" unicode="=" /><glyph d="M383 346C445 346 489 312 488 258C488 197 426 129 328 127C264 127 229 155 229 207C229 271 283 346 383 346ZM322 -10C553 -10 692 156 692 374C692 479 654 557 597 616C635 642 669 664 688 675C671 696 660 715 650 735C633 721 593 693 546 661C495 699 435 727 376 747C350 706 301 636 279 611C331 603 376 591 413 573C380 551 351 532 335 522C355 510 373 491 386 476C401 485 434 507 473 533C519 492 542 437 542 365C542 359 542 352 541 346L533 344C498 427 409 454 327 454C160 454 50 324 50 196C50 73 130 -10 322 -10Z" glyph-name="eth" horiz-adv-x="740" unicode="&#240;" /><glyph d="M408 269C428 352 565 441 565 538C565 598 534 643 455 643C372 643 320 595 320 504C320 437 352 346 330 269C344 270 357 270 369 270C388 270 396 270 408 269ZM431 90C431 145 393 188 326 188C257 188 220 145 220 90C220 35 250 -10 326 -10C393 -10 431 35 431 90Z" glyph-name="exclam" horiz-adv-x="740" unicode="!" /><glyph d="M377 364C357 281 220 192 220 95C220 35 251 -10 330 -10C413 -10 465 38 465 129C465 196 433 287 455 364C441 363 428 363 416 363C397 363 389 363 377 364ZM354 543C354 488 392 445 459 445C528 445 565 488 565 543C565 598 535 643 459 643C392 643 354 598 354 543Z" glyph-name="exclamdown" horiz-adv-x="740" unicode="&#161;" /><glyph d="M125 396C119 350 107 305 94 259C117 261 186 262 266 262C261 191 254 109 245 22C241 -16 226 -42 195 -61C186 -24 156 0 112 0C49 0 19 -42 19 -90C19 -165 77 -203 160 -203C315 -203 378 -132 403 63C410 118 417 191 423 262C520 262 607 261 637 259C642 303 655 349 668 396C635 394 537 392 431 392C438 480 456 533 493 551C497 506 526 477 589 477C648 477 686 525 686 579C686 647 621 685 531 685C381 685 302 601 280 413C279 406 278 399 278 392C205 393 146 394 125 396Z" glyph-name="f" horiz-adv-x="740" unicode="f" /><glyph d="M125 396C119 350 107 305 94 259C117 261 186 262 266 262C261 191 254 109 245 22C241 -16 226 -42 195 -61C186 -24 156 0 112 0C49 0 19 -42 19 -90C19 -165 77 -203 160 -203C315 -203 378 -132 403 63C410 118 417 191 423 262C520 262 607 261 637 259C642 303 655 349 668 396C635 394 537 392 431 392C438 480 456 533 493 551C497 506 526 477 589 477C648 477 686 525 686 579C686 647 621 685 531 685C381 685 302 601 280 413C279 406 278 399 278 392C205 393 146 394 125 396ZM1333 693C1333 757 1290 806 1212 806C1133 806 1090 757 1090 693C1090 629 1125 578 1212 578C1290 578 1333 629 1333 693ZM1131 168C1131 217 1214 347 1214 414C1214 480 1173 512 1094 512C1005 512 918 474 786 385C806 359 827 324 858 274C930 325 977 353 1010 353C1023 353 1032 347 1032 335C1032 304 963 197 963 119C963 34 1016 -10 1125 -10C1211 -10 1310 32 1411 130C1388 152 1351 191 1324 224C1265 161 1208 136 1172 136C1145 136 1131 147 1131 168Z" glyph-name="fi" horiz-adv-x="1480" unicode="&#64257;" /><glyph d="M24 -36C139 -33 255 -34 370 -34C485 -34 601 -33 716 -36C712 79 714 195 714 310C714 425 712 541 716 656C601 652 485 653 370 653C255 653 139 652 24 656C27 541 26 425 26 310C26 195 27 79 24 -36Z" glyph-name="filledbox" horiz-adv-x="740" unicode="&#9632;" /><glyph d="M311 -14C502 -14 667 55 667 235C667 332 595 401 459 401C402 401 322 389 270 350L263 354C276 389 286 416 295 450C305 486 309 489 354 489C428 489 500 488 695 474C709 523 728 590 741 628C595 627 323 624 201 628C184 549 136 400 109 339C140 325 203 298 240 263C278 275 333 285 383 285C461 285 490 261 490 217C490 160 429 133 324 133C282 133 251 138 225 146C227 154 228 163 228 173C228 214 196 255 134 255C67 255 25 217 25 150C25 65 91 -14 311 -14Z" glyph-name="five" horiz-adv-x="740" unicode="5" /><glyph d="M400 198C359 198 323 193 276 185C279 199 283 213 287 227C400 227 488 226 547 222C555 253 568 296 578 327C500 325 306 325 219 327C212 289 185 199 168 154C202 148 236 140 261 127C291 134 320 140 358 140C403 140 415 134 415 118C415 103 394 92 350 92C292 92 228 101 155 128C149 103 127 54 112 28C158 4 243 -13 327 -13C469 -13 532 40 532 111C532 174 494 198 400 198Z" glyph-name="five.dnom" horiz-adv-x="740" /><glyph d="M471 499C430 499 394 494 347 486C350 500 354 514 358 528C471 528 559 527 618 523C626 554 639 597 649 628C571 626 377 626 290 628C283 590 256 500 239 455C273 449 307 441 332 428C362 435 391 441 429 441C474 441 486 435 486 419C486 404 465 393 421 393C363 393 299 402 226 429C220 404 198 355 183 329C229 305 314 288 398 288C540 288 603 341 603 412C603 475 565 499 471 499Z" glyph-name="five.numr" horiz-adv-x="740" /><glyph d="M291 -93C482 -93 647 -24 647 156C647 253 575 322 439 322C382 322 302 310 250 271L243 275C256 310 266 337 275 371C285 407 289 410 334 410C408 410 480 409 675 395C689 444 708 511 721 549C575 548 303 545 181 549C164 470 116 321 89 260C120 246 183 219 220 184C258 196 313 206 363 206C441 206 470 182 470 138C470 81 409 54 304 54C262 54 231 59 205 67C207 75 208 84 208 94C208 135 176 176 114 176C47 176 5 138 5 71C5 -14 71 -93 291 -93Z" glyph-name="five.osf" horiz-adv-x="740" /><glyph d="M125 396C119 350 107 305 94 259C117 261 186 262 266 262C261 191 254 109 245 22C241 -16 226 -42 195 -61C186 -24 156 0 112 0C49 0 19 -42 19 -90C19 -165 77 -203 160 -203C315 -203 378 -132 403 63C410 118 417 191 423 262C520 262 607 261 637 259C642 303 655 349 668 396C635 394 537 392 431 392C438 480 456 533 493 551C497 506 526 477 589 477C648 477 686 525 686 579C686 647 621 685 531 685C381 685 302 601 280 413C279 406 278 399 278 392C205 393 146 394 125 396ZM1091 174C1091 252 1237 459 1237 582C1237 650 1197 685 1120 685C1027 685 931 643 817 557C839 530 865 494 889 444C952 496 987 528 1019 528C1038 528 1043 517 1043 504C1043 432 910 274 910 125C910 32 962 -10 1067 -10C1190 -10 1298 45 1422 192C1391 215 1362 239 1321 281C1248 180 1184 136 1133 136C1105 136 1091 149 1091 174Z" glyph-name="fl" horiz-adv-x="1480" unicode="&#64258;" /><glyph d="M332 329C294 329 261 329 235 329L233 337C261 357 291 382 321 406C372 447 427 494 474 536L480 531C460 476 436 401 413 329C385 329 358 329 332 329ZM589 0C598 41 613 85 631 128C619 128 590 125 558 125C522 125 521 149 528 177C531 189 535 201 538 215C584 215 630 214 675 214C683 250 697 292 711 329C664 329 618 329 573 329C598 404 631 499 677 623C604 624 458 627 379 632C340 584 120 389 15 336C26 299 30 257 33 207C93 211 224 214 376 214C371 198 366 183 361 170C347 131 324 125 289 125C257 125 231 127 220 128C212 86 196 42 179 0C231 2 534 4 589 0Z" glyph-name="four" horiz-adv-x="740" unicode="4" /><glyph d="M518 62C523 83 535 122 544 144C531 144 509 143 481 143C495 192 514 251 541 326C497 325 444 326 395 333C350 297 173 188 112 162C115 133 120 97 117 62C152 63 238 63 323 63C315 38 308 16 302 0C349 1 395 1 442 0C447 18 452 39 458 62C485 62 506 62 518 62ZM220 137 221 144C273 164 328 201 369 236L377 234C369 207 359 174 348 140C305 139 260 138 220 137Z" glyph-name="four.dnom" horiz-adv-x="740" /><glyph d="M596 363C601 384 613 423 622 445C609 445 587 444 559 444C573 493 592 552 619 627C575 626 522 627 473 634C428 598 251 489 190 463C193 434 198 398 195 363C230 364 316 364 401 364C393 339 386 317 380 301C427 302 473 302 520 301C525 319 530 340 536 363C563 363 584 363 596 363ZM298 438 299 445C351 465 406 502 447 537L455 535C447 508 437 475 426 441C383 440 338 439 298 438Z" glyph-name="four.numr" horiz-adv-x="740" /><glyph d="M317 256C279 256 246 256 220 256L218 264C246 284 276 309 306 333C357 374 412 421 459 463L465 458C445 403 421 328 398 256C370 256 343 256 317 256ZM574 -73C583 -32 598 12 616 55C604 55 575 52 543 52C507 52 506 76 513 104C516 116 520 128 523 142C569 142 615 141 660 141C668 177 682 219 696 256C649 256 603 256 558 256C583 331 616 426 662 550C589 551 443 554 364 559C325 511 105 316 0 263C11 226 15 184 18 134C78 138 209 141 361 141C356 125 351 110 346 97C332 58 309 52 274 52C242 52 216 54 205 55C197 13 181 -31 164 -73C216 -71 519 -69 574 -73Z" glyph-name="four.osf" horiz-adv-x="740" /><glyph d="M-25 91C22 67 126 12 170 -18C202 35 305 191 342 240C334 248 315 270 306 284C242 244 61 136 -25 91ZM796 535C749 559 641 614 597 644C567 590 470 436 429 386C437 378 456 356 465 342C529 382 710 490 796 535Z" glyph-name="fraction" horiz-adv-x="740" unicode="&#8260;" /><glyph d="M260 -73H258C259 -68 260 -61 260 -55C260 -17 231 10 179 10C118 10 87 -33 87 -85C87 -157 141 -201 267 -201C465 -201 525 -85 555 24C598 179 639 338 712 497C635 498 587 503 537 510C526 481 515 455 504 430C466 480 402 513 333 513C171 513 60 345 60 199C60 109 110 55 185 55C269 55 364 95 431 195H443C431 152 420 109 408 67C379 -38 327 -73 260 -73ZM269 195C240 195 223 210 223 243C223 308 282 384 355 384C393 384 430 376 468 360C401 244 331 195 269 195Z" glyph-name="g" horiz-adv-x="740" unicode="g" /><glyph d="M260 -73H258C259 -68 260 -61 260 -55C260 -17 231 10 179 10C118 10 87 -33 87 -85C87 -157 141 -201 267 -201C465 -201 525 -85 555 24C598 179 639 338 712 497C635 498 587 503 537 510C526 481 515 455 504 430C466 480 402 513 333 513C171 513 60 345 60 199C60 109 110 55 185 55C269 55 364 95 431 195H443C431 152 420 109 408 67C379 -38 327 -73 260 -73ZM269 195C240 195 223 210 223 243C223 308 282 384 355 384C393 384 430 376 468 360C401 244 331 195 269 195ZM461 682C411 682 402 723 401 772C377 764 292 744 262 739C268 631 344 571 445 571C565 571 625 637 676 739C648 744 575 764 555 772C529 717 511 682 461 682Z" glyph-name="gbreve" horiz-adv-x="740" unicode="&#287;" /><glyph d="M260 -73H258C259 -68 260 -61 260 -55C260 -17 231 10 179 10C118 10 87 -33 87 -85C87 -157 141 -201 267 -201C465 -201 525 -85 555 24C598 179 639 338 712 497C635 498 587 503 537 510C526 481 515 455 504 430C466 480 402 513 333 513C171 513 60 345 60 199C60 109 110 55 185 55C269 55 364 95 431 195H443C431 152 420 109 408 67C379 -38 327 -73 260 -73ZM269 195C240 195 223 210 223 243C223 308 282 384 355 384C393 384 430 376 468 360C401 244 331 195 269 195ZM532 562C555 573 604 593 639 603C608 658 565 739 558 774C534 773 501 773 488 773C475 773 431 773 409 774C379 738 300 673 234 619C260 605 304 578 324 562C378 597 424 634 462 669C480 634 504 596 532 562Z" glyph-name="gcircumflex" horiz-adv-x="740" unicode="&#285;" /><glyph d="M260 -73H258C259 -68 260 -61 260 -55C260 -17 231 10 179 10C118 10 87 -33 87 -85C87 -157 141 -201 267 -201C465 -201 525 -85 555 24C598 179 639 338 712 497C635 498 587 503 537 510C526 481 515 455 504 430C466 480 402 513 333 513C171 513 60 345 60 199C60 109 110 55 185 55C269 55 364 95 431 195H443C431 152 420 109 408 67C379 -38 327 -73 260 -73ZM269 195C240 195 223 210 223 243C223 308 282 384 355 384C393 384 430 376 468 360C401 244 331 195 269 195ZM539 622C539 660 515 688 471 688C442 688 420 675 410 655L403 658C410 718 485 741 580 737C577 759 575 797 575 824C435 823 355 740 355 654C355 593 385 548 450 548C505 548 539 581 539 622Z" glyph-name="gcommaaccent" horiz-adv-x="740" unicode="&#291;" /><glyph d="M260 -73H258C259 -68 260 -61 260 -55C260 -17 231 10 179 10C118 10 87 -33 87 -85C87 -157 141 -201 267 -201C465 -201 525 -85 555 24C598 179 639 338 712 497C635 498 587 503 537 510C526 481 515 455 504 430C466 480 402 513 333 513C171 513 60 345 60 199C60 109 110 55 185 55C269 55 364 95 431 195H443C431 152 420 109 408 67C379 -38 327 -73 260 -73ZM269 195C240 195 223 210 223 243C223 308 282 384 355 384C393 384 430 376 468 360C401 244 331 195 269 195ZM525 678C525 729 489 773 426 773C361 773 326 729 326 678C326 625 355 585 426 585C489 585 525 625 525 678Z" glyph-name="gdotaccent" horiz-adv-x="740" unicode="&#289;" /><glyph d="M75 75C62 20 52 -23 41 -54C27 -35 4 -21 -32 -21C-95 -21 -126 -62 -126 -109C-126 -172 -75 -203 -2 -203C121 -203 187 -131 233 63C266 199 292 377 316 455C338 527 374 559 441 559C494 559 509 538 509 518C509 490 478 475 445 458C402 437 354 413 354 359C354 300 406 268 454 237C497 211 538 185 538 145C538 105 498 91 450 91C439 91 429 92 420 93C433 105 440 123 440 144C440 181 418 209 373 209C308 209 284 165 284 118C284 30 357 -15 478 -15C631 -15 696 59 696 147C696 225 636 262 583 293C542 317 515 334 515 363C515 391 540 404 573 419C615 438 663 466 663 545C663 632 604 683 448 683C271 683 189 590 153 455C121 336 102 189 75 75Z" glyph-name="germandbls" horiz-adv-x="740" unicode="&#223;" /><glyph d="M327 561C333 583 353 641 364 663C308 681 107 766 60 794C48 761 14 674 1 644C70 630 275 581 327 561Z" glyph-name="grave" horiz-adv-x="364" unicode="`" /><glyph d="M337 669C345 696 359 752 368 773C312 792 100 858 40 881C33 853 9 763 0 736C76 725 281 686 337 669Z" glyph-name="grave.case" horiz-adv-x="368" /><glyph d="M110 48C187 79 579 228 630 242C641 286 656 336 673 374C628 389 309 542 230 576C211 518 181 450 149 396C164 391 258 366 332 346C381 333 426 322 465 313L464 305C420 298 370 290 314 280C229 265 117 235 94 230C101 179 109 94 110 48Z" glyph-name="greater" horiz-adv-x="740" unicode="&gt;" /><glyph d="M253 21C287 49 339 82 379 103C330 168 284 218 241 258C304 292 381 336 450 402C416 429 377 470 356 499C291 442 136 356 59 326C39 253 52 293 26 222C94 186 214 79 253 21ZM519 32C557 56 618 88 660 103C640 149 609 209 578 253C634 290 710 365 756 418C727 436 671 480 644 509C576 423 433 309 343 253C401 205 485 96 519 32Z" glyph-name="guillemotleft" horiz-adv-x="740" unicode="&#171;" /><glyph d="M384 17C449 74 604 160 681 190C701 263 688 223 714 294C646 330 526 437 487 495C453 467 401 434 361 413C410 348 456 298 499 258C436 224 359 180 290 114C324 87 363 46 384 17ZM96 7C164 93 307 207 397 263C339 311 255 420 221 484C183 460 122 428 80 413C100 367 131 307 162 263C106 226 30 151 -16 98C13 80 69 36 96 7Z" glyph-name="guillemotright" horiz-adv-x="740" unicode="&#187;" /><glyph d="M493 20C514 66 553 138 577 172C469 210 347 235 248 249V255C356 268 493 287 619 315C612 348 604 446 606 483C468 416 254 352 172 337C163 302 134 206 120 169C192 153 379 80 493 20Z" glyph-name="guilsinglleft" horiz-adv-x="740" unicode="&#8249;" /><glyph d="M141 22C279 89 493 153 575 168C584 203 613 299 627 336C555 352 368 425 254 485C233 439 194 367 170 333C278 295 400 270 499 256V250C391 237 254 218 128 190C135 157 143 59 141 22Z" glyph-name="guilsinglright" horiz-adv-x="740" unicode="&#8250;" /><glyph d="M604 136C586 136 578 144 578 161C578 218 662 313 662 400C662 474 617 506 549 506C471 506 379 461 316 345H305C349 471 379 521 379 584C379 655 335 685 268 685C222 685 176 677 119 656C136 625 149 591 163 545C174 551 182 553 188 553C198 553 204 547 204 533C204 458 37 66 -3 5C78 3 134 -1 192 -7C261 209 371 358 441 358C457 358 468 350 468 331C468 278 404 192 404 100C404 24 458 -10 532 -10C605 -10 669 18 698 32C681 73 667 114 659 161C640 146 621 136 604 136Z" glyph-name="h" horiz-adv-x="740" unicode="h" /><glyph d="M116 615C109 586 93 537 81 507C97 508 140 509 194 510C134 296 28 52 -3 5C78 3 134 -1 192 -7C253 184 367 313 435 313C451 313 462 305 462 286C462 243 404 174 404 100C404 24 458 -10 532 -10C605 -10 669 18 698 32C681 73 667 114 659 161C640 146 621 136 604 136C586 136 578 144 578 161C578 207 656 284 656 355C656 429 611 461 543 461C470 461 379 431 320 345H305C325 404 344 460 361 510C449 510 528 509 553 507C560 536 577 584 588 615C564 613 485 612 398 611C408 636 416 658 423 675C359 673 295 673 231 675C228 655 224 634 220 612C170 613 130 614 116 615Z" glyph-name="hbar" horiz-adv-x="740" unicode="&#295;" /><glyph d="M604 136C586 136 578 144 578 161C578 218 662 313 662 400C662 474 617 506 549 506C471 506 379 461 316 345H305C349 471 379 521 379 584C379 655 335 685 268 685C222 685 176 677 119 656C136 625 149 591 163 545C174 551 182 553 188 553C198 553 204 547 204 533C204 458 37 66 -3 5C78 3 134 -1 192 -7C261 209 371 358 441 358C457 358 468 350 468 331C468 278 404 192 404 100C404 24 458 -10 532 -10C605 -10 669 18 698 32C681 73 667 114 659 161C640 146 621 136 604 136ZM502 710C525 721 574 741 609 751C579 796 537 871 523 904C499 903 466 903 453 903C440 903 396 903 374 904C345 874 250 803 204 767C230 753 274 726 294 710C346 743 392 775 429 806C449 775 475 742 502 710Z" glyph-name="hcircumflex" horiz-adv-x="740" unicode="&#293;" /><glyph d="M81 554C107 585 232 730 266 768C245 777 187 814 162 832C131 784 29 642 0 610C24 598 57 575 81 554ZM260 550C287 581 435 707 466 737C434 756 385 797 364 817C335 779 208 643 179 611C205 596 237 571 260 550Z" glyph-name="hungarumlaut" horiz-adv-x="466" unicode="&#733;" /><glyph d="M81 665C100 691 201 801 229 831C208 840 150 877 125 895C101 858 21 747 0 721C24 709 57 686 81 665ZM260 661C285 685 400 775 429 800C397 819 348 860 327 880C304 850 204 747 179 722C205 707 237 682 260 661Z" glyph-name="hungarumlaut.case" horiz-adv-x="429" /><glyph d="M173 355C157 294 137 238 115 176C166 180 495 179 551 176C566 233 593 307 610 355C552 350 223 351 173 355Z" glyph-name="hyphen" horiz-adv-x="740" unicode="-" /><glyph d="M593 693C593 757 550 806 472 806C393 806 350 757 350 693C350 629 385 578 472 578C550 578 593 629 593 693ZM391 168C391 217 474 347 474 414C474 480 433 512 354 512C265 512 178 474 46 385C66 359 87 324 118 274C190 325 237 353 270 353C283 353 292 347 292 335C292 304 223 197 223 119C223 34 276 -10 385 -10C471 -10 570 32 671 130C648 152 611 191 584 224C525 161 468 136 432 136C405 136 391 147 391 168Z" glyph-name="i" horiz-adv-x="740" unicode="i" /><glyph d="M391 168C391 217 474 347 474 414C474 480 433 512 354 512C265 512 178 474 46 385C66 359 87 324 118 274C190 325 237 353 270 353C283 353 292 347 292 335C292 304 223 197 223 119C223 34 276 -10 385 -10C471 -10 570 32 671 130C648 152 611 191 584 224C525 161 468 136 432 136C405 136 391 147 391 168ZM317 561C369 581 587 632 652 648C643 676 618 768 611 797C562 771 336 681 283 662C292 641 312 583 317 561Z" glyph-name="iacute" horiz-adv-x="740" unicode="&#237;" /><glyph d="M391 168C391 217 474 347 474 414C474 480 433 512 354 512C265 512 178 474 46 385C66 359 87 324 118 274C190 325 237 353 270 353C283 353 292 347 292 335C292 304 223 197 223 119C223 34 276 -10 385 -10C471 -10 570 32 671 130C648 152 611 191 584 224C525 161 468 136 432 136C405 136 391 147 391 168ZM434 682C384 682 375 723 374 772C350 764 265 744 235 739C241 631 317 571 418 571C538 571 598 637 649 739C621 744 548 764 528 772C502 717 484 682 434 682Z" glyph-name="ibreve" horiz-adv-x="740" unicode="&#301;" /><glyph d="M391 168C391 217 474 347 474 414C474 480 433 512 354 512C265 512 178 474 46 385C66 359 87 324 118 274C190 325 237 353 270 353C283 353 292 347 292 335C292 304 223 197 223 119C223 34 276 -10 385 -10C471 -10 570 32 671 130C648 152 611 191 584 224C525 161 468 136 432 136C405 136 391 147 391 168ZM505 562C528 573 577 593 612 603C581 658 538 739 531 774C507 773 474 773 461 773C448 773 404 773 382 774C352 738 273 673 207 619C233 605 277 578 297 562C351 597 397 634 435 669C453 634 477 596 505 562Z" glyph-name="icircumflex" horiz-adv-x="740" unicode="&#238;" /><glyph d="M391 168C391 217 474 347 474 414C474 480 433 512 354 512C265 512 178 474 46 385C66 359 87 324 118 274C190 325 237 353 270 353C283 353 292 347 292 335C292 304 223 197 223 119C223 34 276 -10 385 -10C471 -10 570 32 671 130C648 152 611 191 584 224C525 161 468 136 432 136C405 136 391 147 391 168ZM422 675C422 728 386 760 332 760C277 760 241 729 241 675C241 620 277 588 332 588C386 588 422 622 422 675ZM632 675C632 728 596 760 542 760C487 760 451 729 451 675C451 620 487 588 542 588C596 588 632 622 632 675Z" glyph-name="idieresis" horiz-adv-x="740" unicode="&#239;" /><glyph d="M391 168C391 217 474 347 474 414C474 480 433 512 354 512C265 512 178 474 46 385C66 359 87 324 118 274C190 325 237 353 270 353C283 353 292 347 292 335C292 304 223 197 223 119C223 34 276 -10 385 -10C471 -10 570 32 671 130C648 152 611 191 584 224C525 161 468 136 432 136C405 136 391 147 391 168ZM464 561C470 583 490 641 501 663C445 681 244 766 197 794C185 761 151 674 138 644C207 630 412 581 464 561Z" glyph-name="igrave" horiz-adv-x="740" unicode="&#236;" /><glyph d="M271 192C271 240 341 328 341 402C341 477 294 512 216 512C153 512 93 490 31 442C50 416 68 382 84 339C115 368 135 378 150 378C161 378 167 372 167 361C167 320 97 214 97 131C97 55 151 21 225 21C298 21 362 49 391 63C374 104 360 145 352 192C333 177 316 167 297 167C279 167 271 175 271 192ZM527 361C527 312 483 188 443 100C373 -52 320 -98 264 -109C266 -102 268 -93 268 -84C268 -41 241 -11 189 -11C133 -11 101 -44 101 -99C101 -176 164 -223 272 -223C430 -223 517 -120 621 119C675 242 701 337 701 393C701 473 654 512 576 512C513 512 453 490 391 442C410 416 428 382 444 339C475 368 495 378 510 378C521 378 527 372 527 361ZM445 693C445 757 402 806 324 806C245 806 202 757 202 693C202 629 237 578 324 578C402 578 445 629 445 693ZM785 693C785 757 742 806 664 806C585 806 542 757 542 693C542 629 577 578 664 578C742 578 785 629 785 693Z" glyph-name="ij" horiz-adv-x="740" unicode="&#307;" /><glyph d="M391 168C391 217 474 347 474 414C474 480 433 512 354 512C265 512 178 474 46 385C66 359 87 324 118 274C190 325 237 353 270 353C283 353 292 347 292 335C292 304 223 197 223 119C223 34 276 -10 385 -10C471 -10 570 32 671 130C648 152 611 191 584 224C525 161 468 136 432 136C405 136 391 147 391 168ZM269 739C257 695 241 648 224 603C274 605 594 605 649 603C661 645 680 699 694 739C637 737 317 737 269 739Z" glyph-name="imacron" horiz-adv-x="740" unicode="&#299;" /><glyph d="M465 -244C490 -244 525 -241 556 -230C555 -208 559 -130 565 -96C549 -103 536 -104 522 -104C493 -104 477 -93 477 -73C477 -7 601 52 671 130C648 152 611 191 584 224C525 161 468 136 432 136C405 136 391 147 391 168C391 217 474 347 474 414C474 480 433 512 354 512C265 512 178 474 46 385C66 359 87 324 118 274C190 325 237 353 270 353C283 353 292 347 292 335C292 304 223 197 223 119C223 34 276 -10 385 -10C409 -10 434 -7 460 0C390 -39 329 -81 329 -145C329 -203 379 -244 465 -244ZM593 693C593 757 550 806 472 806C393 806 350 757 350 693C350 629 385 578 472 578C550 578 593 629 593 693Z" glyph-name="iogonek" horiz-adv-x="740" unicode="&#303;" /><glyph d="M391 168C391 217 474 347 474 414C474 480 433 512 354 512C265 512 178 474 46 385C66 359 87 324 118 274C190 325 237 353 270 353C283 353 292 347 292 335C292 304 223 197 223 119C223 34 276 -10 385 -10C471 -10 570 32 671 130C648 152 611 191 584 224C525 161 468 136 432 136C405 136 391 147 391 168ZM388 776C294 776 241 716 218 571C244 574 275 574 304 571C313 625 331 657 356 657C372 657 379 644 388 627C410 586 435 558 504 558C598 558 649 621 674 763C641 760 610 760 588 763C579 712 565 678 537 678C518 678 509 692 497 711C471 750 449 776 388 776Z" glyph-name="itilde" horiz-adv-x="740" unicode="&#297;" /><glyph d="M160 -223C313 -223 400 -120 504 119C558 242 584 337 584 393C584 473 524 512 449 512C358 512 275 469 143 369C168 340 193 305 221 260C297 329 348 366 385 366C403 366 411 356 411 341C411 295 364 183 326 100C243 -81 184 -112 114 -112C107 -112 100 -111 94 -110L95 -105C136 -102 169 -74 169 -26C169 19 140 50 87 50C15 50 -21 -4 -21 -71C-21 -165 44 -223 160 -223ZM713 693C713 757 670 806 592 806C513 806 470 757 470 693C470 629 505 578 592 578C670 578 713 629 713 693Z" glyph-name="j" horiz-adv-x="740" unicode="j" /><glyph d="M160 -223C313 -223 400 -120 504 119C558 242 584 337 584 393C584 473 524 512 449 512C358 512 275 469 143 369C168 340 193 305 221 260C297 329 348 366 385 366C403 366 411 356 411 341C411 295 364 183 326 100C243 -81 184 -112 114 -112C107 -112 100 -111 94 -110L95 -105C136 -102 169 -74 169 -26C169 19 140 50 87 50C15 50 -21 -4 -21 -71C-21 -165 44 -223 160 -223ZM598 562C621 573 670 593 705 603C674 658 631 739 624 774C600 773 567 773 554 773C541 773 497 773 475 774C445 738 366 673 300 619C326 605 370 578 390 562C444 597 490 634 528 669C546 634 570 596 598 562Z" glyph-name="jcircumflex" horiz-adv-x="740" unicode="&#309;" /><glyph d="M379 584C379 655 335 685 268 685C222 685 176 677 119 656C136 625 149 591 163 545C174 551 182 553 188 553C198 553 204 547 204 533C204 458 37 66 -3 5C78 3 134 -1 192 -7C213 61 227 113 240 158C259 161 278 165 298 169C364 27 419 -10 510 -10C570 -10 623 11 685 61C653 95 636 122 613 167C593 146 565 129 533 129C490 129 465 156 437 210C563 257 671 329 670 422C671 476 638 513 571 513C500 513 466 473 466 426C466 403 474 383 489 368C441 323 361 292 279 274C337 445 379 505 379 584Z" glyph-name="k" horiz-adv-x="740" unicode="k" /><glyph d="M379 584C379 655 335 685 268 685C222 685 176 677 119 656C136 625 149 591 163 545C174 551 182 553 188 553C198 553 204 547 204 533C204 458 37 66 -3 5C78 3 134 -1 192 -7C213 61 227 113 240 158C259 161 278 165 298 169C364 27 419 -10 510 -10C570 -10 623 11 685 61C653 95 636 122 613 167C593 146 565 129 533 129C490 129 465 156 437 210C563 257 671 329 670 422C671 476 638 513 571 513C500 513 466 473 466 426C466 403 474 383 489 368C441 323 361 292 279 274C337 445 379 505 379 584ZM123 -322C263 -321 343 -238 343 -152C343 -91 313 -46 248 -46C193 -46 159 -79 159 -120C159 -158 183 -186 227 -186C256 -186 278 -173 288 -153L295 -156C288 -216 213 -239 118 -235C121 -257 123 -295 123 -322Z" glyph-name="kcommaaccent" horiz-adv-x="740" unicode="&#311;" /><glyph d="M532 -10C601 -10 660 19 688 32C671 73 657 114 649 161C623 141 598 134 575 134C492 134 497 186 428 225C506 270 591 318 636 343C671 363 699 370 715 372C724 415 742 460 759 501C722 501 489 500 451 501C443 472 423 410 411 375C417 376 425 376 430 376C448 376 454 370 454 363C454 354 450 349 430 339C394 320 333 295 265 270C273 292 281 314 289 334C302 364 314 376 339 376C344 376 351 376 361 375C371 413 387 462 403 502C364 498 170 500 135 502C125 463 110 415 94 375C97 376 99 376 102 376C128 376 141 362 131 324C121 286 96 207 79 166C70 144 64 128 30 128C24 128 18 128 14 129C5 86 -11 42 -28 0C8 2 235 3 266 0C273 28 295 94 308 128H287C241 128 231 151 238 178C239 182 240 186 241 191C244 191 247 191 249 191C406 188 330 -10 532 -10Z" glyph-name="kgreenlandic" horiz-adv-x="740" unicode="&#312;" /><glyph d="M351 174C351 252 497 459 497 582C497 650 457 685 380 685C287 685 191 643 77 557C99 530 125 494 149 444C212 496 247 528 279 528C298 528 303 517 303 504C303 432 170 274 170 125C170 32 222 -10 327 -10C450 -10 558 45 682 192C651 215 622 239 581 281C508 180 444 136 393 136C365 136 351 149 351 174Z" glyph-name="l" horiz-adv-x="740" unicode="l" /><glyph d="M351 174C351 252 497 459 497 582C497 650 457 685 380 685C287 685 191 643 77 557C99 530 125 494 149 444C212 496 247 528 279 528C298 528 303 517 303 504C303 432 170 274 170 125C170 32 222 -10 327 -10C450 -10 558 45 682 192C651 215 622 239 581 281C508 180 444 136 393 136C365 136 351 149 351 174ZM357 717C413 734 618 773 694 784C685 811 661 901 654 929C594 906 382 840 326 821C335 800 350 745 357 717Z" glyph-name="lacute" horiz-adv-x="740" unicode="&#314;" /><glyph d="M351 174C351 252 497 459 497 582C497 650 457 685 380 685C287 685 191 643 77 557C99 530 125 494 149 444C212 496 247 528 279 528C298 528 303 517 303 504C303 432 170 274 170 125C170 32 222 -10 327 -10C450 -10 558 45 682 192C651 215 622 239 581 281C508 180 444 136 393 136C365 136 351 149 351 174ZM710 691C722 614 696 517 630 427C605 440 560 456 529 463C562 519 585 610 566 667C610 674 668 679 710 691Z" glyph-name="lcaron" horiz-adv-x="740" unicode="&#318;" /><glyph d="M351 174C351 252 497 459 497 582C497 650 457 685 380 685C287 685 191 643 77 557C99 530 125 494 149 444C212 496 247 528 279 528C298 528 303 517 303 504C303 432 170 274 170 125C170 32 222 -10 327 -10C450 -10 558 45 682 192C651 215 622 239 581 281C508 180 444 136 393 136C365 136 351 149 351 174ZM178 -322C318 -321 398 -238 398 -152C398 -91 368 -46 303 -46C248 -46 214 -79 214 -120C214 -158 238 -186 282 -186C311 -186 333 -173 343 -153L350 -156C343 -216 268 -239 173 -235C176 -257 178 -295 178 -322Z" glyph-name="lcommaaccent" horiz-adv-x="740" unicode="&#316;" /><glyph d="M351 174C351 252 497 459 497 582C497 650 457 685 380 685C287 685 191 643 77 557C99 530 125 494 149 444C212 496 247 528 279 528C298 528 303 517 303 504C303 432 170 274 170 125C170 32 222 -10 327 -10C433 -10 536 20 633 134C602 157 573 181 532 223C484 157 431 136 393 136C365 136 351 149 351 174ZM706 353C706 410 668 454 598 454C527 454 488 410 488 353C488 296 520 250 598 250C668 250 706 296 706 353Z" glyph-name="ldot" horiz-adv-x="740" unicode="&#320;" /><glyph d="M522 47C541 105 571 173 603 227C588 232 494 257 420 277C371 290 326 301 287 310L288 318C332 325 382 333 438 343C523 358 635 388 658 393C651 444 643 529 642 575C565 544 173 395 122 381C111 337 96 287 79 249C124 234 443 81 522 47Z" glyph-name="less" horiz-adv-x="740" unicode="&lt;" /><glyph d="M69 305C76 279 83 249 87 221C103 227 144 239 197 254C181 212 170 168 170 125C170 32 222 -10 327 -10C450 -10 558 45 682 192C651 215 622 239 581 281C508 180 444 136 393 136C365 136 351 149 351 174C351 204 373 253 399 309C495 334 582 357 612 363C603 391 596 422 592 446C570 438 512 421 443 402C472 466 497 531 497 582C497 650 457 685 380 685C287 685 191 643 77 557C99 530 125 494 149 444C212 496 247 528 279 528C298 528 303 517 303 504C303 469 271 413 238 347C158 326 91 309 69 305Z" glyph-name="lslash" horiz-adv-x="740" unicode="&#322;" /><glyph d="M138 382C138 337 75 166 -3 7C53 5 98 1 141 -6C146 7 151 20 156 33C272 341 314 379 337 379C346 379 351 374 351 362C351 336 340 297 217 5C271 5 314 -1 356 -6C377 51 397 104 414 153C474 309 510 379 542 379C551 379 561 374 561 358C561 295 467 182 467 77C467 20 502 -10 563 -10C605 -10 650 5 696 50C670 78 654 100 642 126C630 113 622 108 613 108C605 108 599 112 599 122C599 170 705 325 705 418C705 479 675 513 623 513C566 513 531 475 490 380H483C486 395 487 408 487 419C487 485 455 513 415 513C362 513 322 477 278 380H269C270 389 271 398 271 405C271 477 231 512 167 512C131 512 83 499 30 459C48 442 66 412 79 382C100 397 111 402 123 402C133 402 138 394 138 382Z" glyph-name="m" horiz-adv-x="740" unicode="m" /><glyph d="M45 739C33 695 17 648 0 603C50 605 370 605 425 603C437 645 456 699 470 739C413 737 93 737 45 739Z" glyph-name="macron" horiz-adv-x="470" unicode="&#175;" /><glyph d="M45 837C33 794 17 748 0 704C50 706 367 706 422 704C434 745 453 798 467 837C410 835 92 835 45 837Z" glyph-name="macron.case" horiz-adv-x="467" /><glyph d="M651 411C595 408 236 407 175 411C156 345 135 282 113 220C176 221 535 222 589 220C607 285 628 348 651 411Z" glyph-name="minus" horiz-adv-x="740" unicode="&#8722;" /><glyph d="M313 565C267 527 226 496 170 461C184 443 224 388 269 323C190 266 122 218 98 203C136 161 169 114 198 64C216 79 282 131 361 192C402 131 437 79 446 63C497 106 553 134 601 168C589 183 549 236 502 299C579 357 650 407 684 425C648 463 609 518 582 562C558 538 488 485 409 426C363 490 323 546 313 565Z" glyph-name="multiply" horiz-adv-x="740" unicode="&#215;" /><glyph d="M167 361C167 316 95 147 16 9C106 5 157 1 210 -6L211 0C280 212 384 364 451 364C467 364 478 356 478 337C478 282 404 194 404 100C404 24 458 -10 532 -10C605 -10 669 18 698 32C681 73 667 114 659 161C640 146 621 136 604 136C586 136 578 144 578 161C578 219 672 317 672 406C672 480 627 512 559 512C483 512 394 466 332 347L322 349C327 369 330 386 330 400C330 476 287 512 216 512C153 512 93 490 31 442C50 416 68 382 84 339C115 368 135 378 150 378C162 378 167 373 167 361Z" glyph-name="n" horiz-adv-x="740" unicode="n" /><glyph d="M167 361C167 316 95 147 16 9C106 5 157 1 210 -6L211 0C280 212 384 364 451 364C467 364 478 356 478 337C478 282 404 194 404 100C404 24 458 -10 532 -10C605 -10 669 18 698 32C681 73 667 114 659 161C640 146 621 136 604 136C586 136 578 144 578 161C578 219 672 317 672 406C672 480 627 512 559 512C483 512 394 466 332 347L322 349C327 369 330 386 330 400C330 476 287 512 216 512C153 512 93 490 31 442C50 416 68 382 84 339C115 368 135 378 150 378C162 378 167 373 167 361ZM385 561C437 581 655 632 720 648C711 676 686 768 679 797C630 771 404 681 351 662C360 641 380 583 385 561Z" glyph-name="nacute" horiz-adv-x="740" unicode="&#324;" /><glyph d="M167 361C167 316 95 147 16 9C106 5 157 1 210 -6L211 0C280 212 384 364 451 364C467 364 478 356 478 337C478 282 404 194 404 100C404 24 458 -10 532 -10C605 -10 669 18 698 32C681 73 667 114 659 161C640 146 621 136 604 136C586 136 578 144 578 161C578 219 672 317 672 406C672 480 627 512 559 512C483 512 394 466 332 347L322 349C327 369 330 386 330 400C330 476 287 512 216 512C153 512 93 490 31 442C50 416 68 382 84 339C115 368 135 378 150 378C162 378 167 373 167 361ZM127 539C267 540 347 623 347 709C347 770 317 815 252 815C197 815 163 782 163 741C163 703 187 675 231 675C260 675 282 688 292 708L299 705C292 645 217 622 122 626C125 604 127 566 127 539Z" glyph-name="napostrophe" horiz-adv-x="740" unicode="&#329;" /><glyph d="M167 361C167 316 95 147 16 9C106 5 157 1 210 -6L211 0C280 212 384 364 451 364C467 364 478 356 478 337C478 282 404 194 404 100C404 24 458 -10 532 -10C605 -10 669 18 698 32C681 73 667 114 659 161C640 146 621 136 604 136C586 136 578 144 578 161C578 219 672 317 672 406C672 480 627 512 559 512C483 512 394 466 332 347L322 349C327 369 330 386 330 400C330 476 287 512 216 512C153 512 93 490 31 442C50 416 68 382 84 339C115 368 135 378 150 378C162 378 167 373 167 361ZM526 567C556 603 635 668 701 722C675 736 631 763 611 779C557 744 511 707 473 672C455 707 431 745 403 779C380 768 331 748 296 738C327 683 370 602 377 567C401 568 434 568 447 568C460 568 504 568 526 567Z" glyph-name="ncaron" horiz-adv-x="740" unicode="&#328;" /><glyph d="M167 361C167 316 95 147 16 9C106 5 157 1 210 -6L211 0C280 212 384 364 451 364C467 364 478 356 478 337C478 282 404 194 404 100C404 24 458 -10 532 -10C605 -10 669 18 698 32C681 73 667 114 659 161C640 146 621 136 604 136C586 136 578 144 578 161C578 219 672 317 672 406C672 480 627 512 559 512C483 512 394 466 332 347L322 349C327 369 330 386 330 400C330 476 287 512 216 512C153 512 93 490 31 442C50 416 68 382 84 339C115 368 135 378 150 378C162 378 167 373 167 361ZM218 -322C358 -321 438 -238 438 -152C438 -91 408 -46 343 -46C288 -46 254 -79 254 -120C254 -158 278 -186 322 -186C351 -186 373 -173 383 -153L390 -156C383 -216 308 -239 213 -235C216 -257 218 -295 218 -322Z" glyph-name="ncommaaccent" horiz-adv-x="740" unicode="&#326;" /><glyph d="M544 418C544 362 469 338 372 338C292 338 259 361 259 399C259 459 335 498 417 498C494 498 544 468 544 418ZM295 -14C575 -14 701 204 701 400C701 561 599 642 427 642C235 642 101 534 101 379C101 290 154 219 317 219C411 219 496 255 548 320L555 317C537 278 517 242 492 213C440 152 379 123 284 123C254 123 230 125 209 128V131C209 173 177 206 121 206C64 206 28 169 28 117C28 41 113 -14 295 -14Z" glyph-name="nine" horiz-adv-x="740" unicode="9" /><glyph d="M438 213C438 194 396 183 338 183C295 183 279 190 279 206C279 223 301 235 353 235C412 235 438 224 438 213ZM277 -10C431 -10 555 72 555 202C555 284 499 337 359 337C241 337 160 291 160 212C160 156 201 123 290 123C352 123 410 138 450 169L455 166C425 117 367 84 292 84C246 84 215 89 163 110C151 79 131 39 119 14C157 -2 207 -10 277 -10Z" glyph-name="nine.dnom" horiz-adv-x="740" /><glyph d="M539 514C539 495 497 484 439 484C396 484 380 491 380 507C380 524 402 536 454 536C513 536 539 525 539 514ZM378 291C532 291 656 373 656 503C656 585 600 638 460 638C342 638 261 592 261 513C261 457 302 424 391 424C453 424 511 439 551 470L556 467C526 418 468 385 393 385C347 385 316 390 264 411C252 380 232 340 220 315C258 299 308 291 378 291Z" glyph-name="nine.numr" horiz-adv-x="740" /><glyph d="M544 340C544 284 469 260 372 260C292 260 259 283 259 321C259 381 335 420 417 420C494 420 544 390 544 340ZM295 -92C575 -92 701 126 701 322C701 483 599 564 427 564C235 564 101 456 101 301C101 212 154 141 317 141C411 141 496 177 548 242L555 239C537 200 517 164 492 135C440 74 379 45 284 45C254 45 230 47 209 50V53C209 95 177 128 121 128C64 128 28 91 28 39C28 -37 113 -92 295 -92Z" glyph-name="nine.osf" horiz-adv-x="740" /><glyph d="M167 361C167 316 95 147 16 9C106 5 157 1 210 -6L211 0C280 212 384 364 451 364C467 364 478 356 478 337C478 282 404 194 404 100C404 24 458 -10 532 -10C605 -10 669 18 698 32C681 73 667 114 659 161C640 146 621 136 604 136C586 136 578 144 578 161C578 219 672 317 672 406C672 480 627 512 559 512C483 512 394 466 332 347L322 349C327 369 330 386 330 400C330 476 287 512 216 512C153 512 93 490 31 442C50 416 68 382 84 339C115 368 135 378 150 378C162 378 167 373 167 361ZM449 776C355 776 302 716 279 571C305 574 336 574 365 571C374 625 392 657 417 657C433 657 440 644 449 627C471 586 496 558 565 558C659 558 710 621 735 763C702 760 671 760 649 763C640 712 626 678 598 678C579 678 570 692 558 711C532 750 510 776 449 776Z" glyph-name="ntilde" horiz-adv-x="740" unicode="&#241;" /><glyph d="M68 0C122 5 175 5 225 0C229 20 245 73 267 140C303 140 341 140 378 140C356 73 338 20 330 0C385 5 437 5 490 0C495 20 511 73 532 139C602 139 658 138 683 137C690 186 701 235 713 286C691 284 640 283 578 282C587 310 596 338 605 365C663 365 710 364 729 363C737 412 746 461 759 512C739 510 701 509 652 508C670 563 685 607 692 627C638 625 586 624 532 627C528 607 514 563 497 507C460 507 423 507 386 507C405 563 420 607 427 627C376 624 323 625 270 627C265 607 253 563 236 508C163 509 106 510 84 512C79 462 68 413 54 363C74 365 125 366 191 366C182 338 173 310 164 282C103 283 56 284 38 286C32 236 23 187 8 137C26 138 65 139 117 140C94 73 76 20 68 0ZM294 271C306 306 318 342 329 377H472C460 342 448 307 436 272C390 271 341 271 294 271Z" glyph-name="numbersign" horiz-adv-x="740" unicode="#" /><glyph d="M434 510C193 512 60 352 60 196C60 73 140 -10 304 -10C546 -10 679 150 678 304C679 429 599 512 434 510ZM404 373C465 375 500 347 499 290C500 219 436 129 334 127C274 127 239 155 239 210C239 283 303 373 404 373Z" glyph-name="o" horiz-adv-x="740" unicode="o" /><glyph d="M434 510C193 512 60 352 60 196C60 73 140 -10 304 -10C546 -10 679 150 678 304C679 429 599 512 434 510ZM404 373C465 375 500 347 499 290C500 219 436 129 334 127C274 127 239 155 239 210C239 283 303 373 404 373ZM367 561C419 581 637 632 702 648C693 676 668 768 661 797C612 771 386 681 333 662C342 641 362 583 367 561Z" glyph-name="oacute" horiz-adv-x="740" unicode="&#243;" /><glyph d="M434 510C193 512 60 352 60 196C60 73 140 -10 304 -10C546 -10 679 150 678 304C679 429 599 512 434 510ZM404 373C465 375 500 347 499 290C500 219 436 129 334 127C274 127 239 155 239 210C239 283 303 373 404 373ZM488 682C438 682 429 723 428 772C404 764 319 744 289 739C295 631 371 571 472 571C592 571 652 637 703 739C675 744 602 764 582 772C556 717 538 682 488 682Z" glyph-name="obreve" horiz-adv-x="740" unicode="&#335;" /><glyph d="M434 510C193 512 60 352 60 196C60 73 140 -10 304 -10C546 -10 679 150 678 304C679 429 599 512 434 510ZM404 373C465 375 500 347 499 290C500 219 436 129 334 127C274 127 239 155 239 210C239 283 303 373 404 373ZM559 562C582 573 631 593 666 603C635 658 592 739 585 774C561 773 528 773 515 773C502 773 458 773 436 774C406 738 327 673 261 619C287 605 331 578 351 562C405 597 451 634 489 669C507 634 531 596 559 562Z" glyph-name="ocircumflex" horiz-adv-x="740" unicode="&#244;" /><glyph d="M434 510C193 512 60 352 60 196C60 73 140 -10 304 -10C546 -10 679 150 678 304C679 429 599 512 434 510ZM404 373C465 375 500 347 499 290C500 219 436 129 334 127C274 127 239 155 239 210C239 283 303 373 404 373ZM476 675C476 728 440 760 386 760C331 760 295 729 295 675C295 620 331 588 386 588C440 588 476 622 476 675ZM686 675C686 728 650 760 596 760C541 760 505 729 505 675C505 620 541 588 596 588C650 588 686 622 686 675Z" glyph-name="odieresis" horiz-adv-x="740" unicode="&#246;" /><glyph d="M313 315C313 244 261 127 201 127C170 127 159 147 159 186C159 259 202 373 269 373C296 373 313 353 313 315ZM476 -10C555 -10 626 21 713 93C690 118 660 155 638 191C597 150 552 119 510 119C473 119 454 141 452 199C631 200 735 279 735 384C735 461 679 512 594 512C517 512 451 470 412 393C400 465 356 510 269 510C109 510 13 320 13 154C13 62 50 -10 160 -10C232 -10 296 35 332 88C345 30 392 -10 476 -10ZM548 378C572 378 582 364 582 339C582 294 550 271 457 261C469 329 503 378 548 378Z" glyph-name="oe" horiz-adv-x="740" unicode="&#339;" /><glyph d="M236 -96C220 -103 207 -104 193 -104C164 -104 148 -93 148 -69C148 -25 196 0 256 0V22C136 22 0 -28 0 -135C0 -203 50 -244 136 -244C161 -244 196 -241 227 -230C226 -208 230 -130 236 -96Z" glyph-name="ogonek" horiz-adv-x="256" unicode="&#731;" /><glyph d="M434 510C193 512 60 352 60 196C60 73 140 -10 304 -10C546 -10 679 150 678 304C679 429 599 512 434 510ZM404 373C465 375 500 347 499 290C500 219 436 129 334 127C274 127 239 155 239 210C239 283 303 373 404 373ZM518 561C524 583 544 641 555 663C499 681 298 766 251 794C239 761 205 674 192 644C261 630 466 581 518 561Z" glyph-name="ograve" horiz-adv-x="740" unicode="&#242;" /><glyph d="M434 510C193 512 60 352 60 196C60 73 140 -10 304 -10C546 -10 679 150 678 304C679 429 599 512 434 510ZM404 373C465 375 500 347 499 290C500 219 436 129 334 127C274 127 239 155 239 210C239 283 303 373 404 373ZM360 554C386 585 511 730 545 768C524 777 466 814 441 832C410 784 308 642 279 610C303 598 336 575 360 554ZM539 550C566 581 714 707 745 737C713 756 664 797 643 817C614 779 487 643 458 611C484 596 516 571 539 550Z" glyph-name="ohungarumlaut" horiz-adv-x="740" unicode="&#337;" /><glyph d="M434 510C193 512 60 352 60 196C60 73 140 -10 304 -10C546 -10 679 150 678 304C679 429 599 512 434 510ZM404 373C465 375 500 347 499 290C500 219 436 129 334 127C274 127 239 155 239 210C239 283 303 373 404 373ZM309 739C297 695 281 648 264 603C314 605 634 605 689 603C701 645 720 699 734 739C677 737 357 737 309 739Z" glyph-name="omacron" horiz-adv-x="740" unicode="&#333;" /><glyph d="M611 610C553 616 481 626 435 636C364 613 212 583 132 571C142 530 149 472 155 428C186 436 232 445 291 453C341 460 362 451 351 406C335 343 304 238 277 173C262 134 242 128 211 128C148 128 99 128 77 131C68 89 50 42 33 0C101 3 499 6 571 0C580 41 599 88 615 131C595 130 545 128 494 128C459 128 459 152 465 180C486 269 517 370 611 610Z" glyph-name="one" horiz-adv-x="740" unicode="1" /><glyph d="M494 0C504 31 521 80 534 114C519 113 488 112 453 112C426 112 425 131 430 151C441 186 458 234 494 326C453 325 404 326 372 332C315 311 245 300 195 289C202 263 207 212 210 183C247 195 295 209 329 217C319 187 315 173 306 151C294 120 280 112 256 112C212 112 180 112 165 114C155 81 138 33 125 0C171 2 445 2 494 0Z" glyph-name="one.dnom" horiz-adv-x="740" /><glyph d="M557 301C567 332 584 381 597 415C582 414 551 413 516 413C489 413 488 432 493 452C504 487 521 535 557 627C516 626 467 627 435 633C378 612 308 601 258 590C265 564 270 513 273 484C310 496 358 510 392 518C382 488 378 474 369 452C357 421 343 413 319 413C275 413 243 413 228 415C218 382 201 334 188 301C234 303 508 303 557 301Z" glyph-name="one.numr" horiz-adv-x="740" /><glyph d="M601 548C551 548 485 549 436 553C370 529 232 493 164 481C173 448 184 376 190 339C206 343 265 362 305 369C354 378 367 373 347 306C337 272 319 217 303 180C287 143 269 137 237 137C167 137 114 137 87 138C75 92 59 46 41 0C113 3 533 5 609 0C623 44 637 91 655 138C622 137 569 137 506 137C486 137 480 147 480 163C480 209 517 305 601 548Z" glyph-name="one.osf" horiz-adv-x="740" /><glyph d="M78 369C71 339 54 286 42 256C120 262 611 260 697 256C705 286 721 337 733 369C646 362 152 363 78 369ZM194 73C261 103 331 113 389 113C419 113 431 109 431 97C431 81 408 76 342 70C175 55 131 33 110 -55C105 -75 102 -106 95 -124C192 -123 351 -122 467 -124C476 -93 491 -46 501 -18C402 -26 310 -29 218 -30C229 -8 254 2 321 4C484 10 546 42 546 119C546 182 507 214 396 214C324 214 251 200 173 178C183 149 190 105 194 73ZM606 412C616 443 633 492 646 526C631 525 600 524 565 524C538 524 537 543 542 563C553 598 570 646 606 738C565 737 516 738 484 744C427 723 357 712 307 701C314 675 319 624 322 595C359 607 407 621 441 629C431 599 427 585 418 563C406 532 392 524 368 524C324 524 292 524 277 526C267 493 250 445 237 412C283 414 557 414 606 412Z" glyph-name="onehalf" horiz-adv-x="740" unicode="&#189;" /><glyph d="M78 369C71 339 54 286 42 256C120 262 611 260 697 256C705 286 721 337 733 369C646 362 152 363 78 369ZM511 -58C516 -37 528 2 537 24C524 24 502 23 474 23C488 72 507 131 534 206C490 205 437 206 388 213C343 177 166 68 105 42C108 13 113 -23 110 -58C145 -57 231 -57 316 -57C308 -82 301 -104 295 -120C342 -119 388 -119 435 -120C440 -102 445 -81 451 -58C478 -58 499 -58 511 -58ZM606 412C616 443 633 492 646 526C631 525 600 524 565 524C538 524 537 543 542 563C553 598 570 646 606 738C565 737 516 738 484 744C427 723 357 712 307 701C314 675 319 624 322 595C359 607 407 621 441 629C431 599 427 585 418 563C406 532 392 524 368 524C324 524 292 524 277 526C267 493 250 445 237 412C283 414 557 414 606 412ZM213 17 214 24C266 44 321 81 362 116L370 114C362 87 352 54 341 20C298 19 253 18 213 17Z" glyph-name="onequarter" horiz-adv-x="740" unicode="&#188;" /><glyph d="M557 401C567 432 584 481 597 515C582 514 551 513 516 513C489 513 488 532 493 552C504 587 521 635 557 727C516 726 467 727 435 733C378 712 308 701 258 690C265 664 270 613 273 584C310 596 358 610 392 618C382 588 378 574 369 552C357 521 343 513 319 513C275 513 243 513 228 515C218 482 201 434 188 401C234 403 508 403 557 401Z" glyph-name="onesuperior" horiz-adv-x="740" unicode="&#185;" /><glyph d="M530 292C587 292 623 308 662 331C647 357 633 387 624 421C608 407 591 398 576 398C562 398 557 404 557 416C557 445 604 510 604 562C604 610 566 638 462 638C390 638 325 622 275 605C279 575 276 544 275 504C336 528 394 531 440 531C460 531 469 527 469 512C469 506 467 497 463 486C440 489 419 490 395 490C250 490 179 445 179 365C179 321 201 295 276 295C338 295 399 321 428 370H432C440 317 472 292 530 292ZM346 399C311 399 303 407 303 419C303 438 324 447 380 447C401 447 426 447 448 445C435 409 393 399 346 399Z" glyph-name="ordfeminine" horiz-adv-x="740" unicode="&#170;" /><glyph d="M474 637C306 639 214 532 214 428C214 346 270 290 384 290C552 290 645 397 644 500C645 583 589 639 474 637ZM450 530C487 531 508 516 508 485C508 447 470 399 408 398C372 398 350 412 350 442C350 482 389 530 450 530Z" glyph-name="ordmasculine" horiz-adv-x="740" unicode="&#186;" /><glyph d="M18 58C34 37 51 12 65 -12C76 -2 100 16 132 39C173 8 233 -10 312 -10C546 -10 679 150 678 304C678 339 672 370 660 398C696 421 723 440 739 450C719 473 702 498 689 519C675 506 648 486 612 460C572 493 513 511 434 510C193 512 60 352 60 196C60 160 67 127 81 99C52 80 30 66 18 58ZM208 209C208 297 286 391 409 391C442 391 468 385 488 372C400 311 298 243 210 185C209 192 208 200 208 209ZM329 109C299 109 274 114 255 125C340 183 440 251 529 310C530 304 530 298 530 291C530 203 452 109 329 109Z" glyph-name="oslash" horiz-adv-x="740" unicode="&#248;" /><glyph d="M18 58C34 37 51 12 65 -12C76 -2 100 16 132 39C173 8 233 -10 312 -10C546 -10 679 150 678 304C678 339 672 370 660 398C696 421 723 440 739 450C719 473 702 498 689 519C675 506 648 486 612 460C572 493 513 511 434 510C193 512 60 352 60 196C60 160 67 127 81 99C52 80 30 66 18 58ZM208 209C208 297 286 391 409 391C442 391 468 385 488 372C400 311 298 243 210 185C209 192 208 200 208 209ZM329 109C299 109 274 114 255 125C340 183 440 251 529 310C530 304 530 298 530 291C530 203 452 109 329 109ZM367 561C419 581 637 632 702 648C693 676 668 768 661 797C612 771 386 681 333 662C342 641 362 583 367 561Z" glyph-name="oslashacute" horiz-adv-x="740" unicode="&#511;" /><glyph d="M434 510C193 512 60 352 60 196C60 73 140 -10 304 -10C546 -10 679 150 678 304C679 429 599 512 434 510ZM404 373C465 375 500 347 499 290C500 219 436 129 334 127C274 127 239 155 239 210C239 283 303 373 404 373ZM442 776C348 776 295 716 272 571C298 574 329 574 358 571C367 625 385 657 410 657C426 657 433 644 442 627C464 586 489 558 558 558C652 558 703 621 728 763C695 760 664 760 642 763C633 712 619 678 591 678C572 678 563 692 551 711C525 750 503 776 442 776Z" glyph-name="otilde" horiz-adv-x="740" unicode="&#245;" /><glyph d="M241 22C247 36 252 50 257 64C258 68 260 72 262 75C283 27 342 0 412 0C579 0 703 190 703 356C703 454 648 513 567 513C488 513 409 458 341 337H331C335 363 337 384 337 400C337 476 294 512 223 512C160 512 100 490 38 442C57 416 75 382 92 339C125 368 144 378 163 378C174 378 180 372 180 358C180 321 130 132 60 -7C42 -45 26 -55 -8 -55C-26 -55 -40 -52 -46 -52C-55 -98 -73 -144 -94 -191C-35 -187 295 -187 355 -191C364 -146 383 -99 402 -52C379 -53 321 -55 263 -55C232 -55 218 -42 241 22ZM374 131C348 131 322 137 297 158C362 296 420 360 485 360C512 360 525 344 525 313C525 238 457 131 374 131Z" glyph-name="p" horiz-adv-x="740" unicode="p" /><glyph d="M417 629C210 629 33 501 33 279C33 161 93 99 208 87C184 13 160 -57 138 -118C166 -118 193 -117 221 -117C248 -117 276 -118 303 -118C333 -9 457 386 500 499C526 499 552 498 575 497C536 380 411 -8 368 -118C397 -118 426 -117 454 -117C482 -117 511 -118 539 -118C569 5 666 303 717 441C731 478 744 494 770 494C775 494 792 494 814 493C828 541 842 584 857 628C840 627 767 626 710 626C610 626 499 629 417 629Z" glyph-name="paragraph" horiz-adv-x="740" unicode="&#182;" /><glyph d="M468 15C417 44 355 88 355 210C355 352 431 519 662 590C637 635 617 701 609 736C314 629 187 432 187 197C187 34 258 -68 376 -118C397 -80 446 -10 468 15Z" glyph-name="parenleft" horiz-adv-x="740" unicode="(" /><glyph d="M282 605C333 576 395 532 395 410C395 268 319 101 88 30C113 -15 133 -81 141 -116C436 -9 563 188 563 423C563 586 492 688 374 738C353 700 304 630 282 605Z" glyph-name="parenright" horiz-adv-x="740" unicode=")" /><glyph d="M290 638C142 638 69 523 69 426C69 338 129 291 211 291C342 291 433 406 433 503C433 591 373 638 290 638ZM275 538C299 538 314 526 315 499C317 450 280 391 227 391C203 391 188 403 187 430C185 479 222 538 275 538ZM496 -9C644 -9 717 106 717 203C717 291 657 338 575 338C444 338 353 223 353 126C353 38 413 -9 496 -9ZM511 91C487 91 472 103 471 130C469 179 506 238 559 238C583 238 598 226 599 199C601 150 564 91 511 91ZM-25 91C22 67 126 12 170 -18C202 35 305 191 342 240C334 248 315 270 306 284C242 244 61 136 -25 91ZM796 535C749 559 641 614 597 644C567 590 470 436 429 386C437 378 456 356 465 342C529 382 710 490 796 535Z" glyph-name="percent" horiz-adv-x="740" unicode="%" /><glyph d="M452 105C452 169 409 218 331 218C252 218 209 169 209 105C209 41 244 -10 331 -10C409 -10 452 41 452 105Z" glyph-name="period" horiz-adv-x="740" unicode="." /><glyph d="M504 295C504 359 461 408 383 408C304 408 261 359 261 295C261 231 296 180 383 180C461 180 504 231 504 295Z" glyph-name="periodcentered" horiz-adv-x="740" unicode="&#183;" /><glyph d="M228 558C236 558 241 553 241 540C241 525 235 501 223 464C200 393 185 370 168 370C160 370 156 375 156 388C156 403 162 427 174 465C197 535 211 558 228 558ZM153 291C218 291 273 333 309 464C320 503 325 534 325 559C325 616 297 638 249 638C179 638 124 593 89 466C78 427 73 395 73 370C73 314 100 291 153 291ZM312 70C304 70 300 75 300 88C300 103 306 127 318 165C341 235 355 258 372 258C380 258 385 253 385 240C385 225 379 201 367 164C344 93 329 70 312 70ZM393 338C323 338 268 293 233 166C222 127 217 95 217 70C217 14 244 -9 297 -9C362 -9 417 33 453 164C464 203 469 234 469 259C469 316 441 338 393 338ZM571 165C594 235 608 258 625 258C633 258 638 253 638 240C638 225 632 201 620 164C597 93 582 70 565 70C557 70 553 75 553 88C553 103 559 127 571 165ZM486 166C475 127 470 95 470 70C470 14 497 -9 550 -9C615 -9 670 33 706 164C717 203 722 234 722 259C722 316 694 338 646 338C576 338 521 293 486 166ZM-53 68C-20 45 16 16 43 -12C76 31 180 172 236 239C223 248 207 260 196 271C148 227 13 113 -53 68ZM590 558C557 581 521 610 494 638C461 595 357 454 301 387C314 378 331 366 341 355C389 399 524 513 590 558Z" glyph-name="perthousand" horiz-adv-x="740" unicode="&#8240;" /><glyph d="M147 404C132 346 113 288 92 229C115 232 183 233 263 234C239 162 219 100 211 78C272 80 334 80 397 78C401 100 419 162 442 234C519 233 584 232 608 229C624 286 642 344 663 404C638 400 572 398 494 398C518 472 539 534 547 554C486 551 421 551 361 554C357 534 338 472 315 398C235 399 168 401 147 404Z" glyph-name="plus" horiz-adv-x="740" unicode="+" /><glyph d="M372 -8C356 -47 337 -55 304 -55C270 -55 246 -54 231 -53C222 -98 204 -144 185 -191C237 -187 541 -187 596 -191C606 -146 623 -99 641 -53C628 -54 599 -56 568 -56C532 -56 530 -33 538 -4C566 103 647 350 703 497C652 499 577 505 533 511C522 481 511 454 501 428C479 482 416 513 340 513C170 513 43 318 43 147C43 55 102 0 189 0C271 0 360 49 426 166H433C415 111 395 53 372 -8ZM271 143C237 143 221 159 221 193C221 265 292 372 378 372C406 372 440 363 464 345C398 206 337 143 271 143Z" glyph-name="q" horiz-adv-x="740" unicode="q" /><glyph d="M441 221C444 259 469 269 559 294C637 316 725 353 725 468C725 557 652 642 458 642C262 642 129 565 129 446C129 392 160 353 224 353C281 353 316 392 316 444C316 462 313 477 307 490C350 506 396 513 441 513C517 513 558 496 558 455C558 424 519 404 430 376C325 343 270 296 268 221C326 225 383 225 441 221ZM430 75C430 125 392 161 324 161C256 161 218 125 218 75C218 28 248 -10 324 -10C392 -10 430 28 430 75Z" glyph-name="question" horiz-adv-x="740" unicode="?" /><glyph d="M313 411C310 373 285 363 195 338C117 316 29 279 29 164C29 75 102 -10 296 -10C492 -10 625 67 625 186C625 240 594 279 530 279C473 279 438 240 438 188C438 170 441 155 447 142C404 126 358 119 313 119C237 119 196 136 196 177C196 208 235 228 324 256C429 289 484 336 486 411C428 407 371 407 313 411ZM324 557C324 507 362 471 430 471C498 471 536 507 536 557C536 604 506 642 430 642C362 642 324 604 324 557Z" glyph-name="questiondown" horiz-adv-x="740" unicode="&#191;" /><glyph d="M452 688C376 686 301 686 228 688C212 579 170 408 139 293C163 294 184 294 210 294C247 294 260 294 283 293C328 408 397 580 452 688ZM752 688C676 686 601 686 528 688C512 579 470 408 439 293C463 294 484 294 510 294C547 294 560 294 583 293C628 408 697 580 752 688Z" glyph-name="quotedbl" horiz-adv-x="740" unicode="&quot;" /><glyph d="M-48 -233C166 -231 289 -90 289 55C289 150 243 218 156 218C81 218 34 168 34 104C34 47 67 3 127 3C165 3 194 23 207 53L217 49C207 -69 89 -110 -60 -103C-54 -137 -49 -193 -48 -233ZM282 -233C496 -231 619 -90 619 55C619 150 573 218 486 218C411 218 364 168 364 104C364 47 397 3 457 3C495 3 524 23 537 53L547 49C537 -69 419 -110 270 -103C276 -137 281 -193 282 -233Z" glyph-name="quotedblbase" horiz-adv-x="740" unicode="&#8222;" /><glyph d="M671 315C671 372 638 416 578 416C540 416 511 396 498 366L488 370C498 488 616 529 765 522C759 556 754 612 753 652C539 650 416 509 416 364C416 269 462 201 549 201C624 201 671 251 671 315ZM335 315C335 372 302 416 242 416C204 416 175 396 162 366L152 370C162 488 280 529 429 522C423 556 418 612 417 652C203 650 80 509 80 364C80 269 126 201 213 201C288 201 335 251 335 315Z" glyph-name="quotedblleft" horiz-adv-x="740" unicode="&#8220;" /><glyph d="M64 188C278 190 401 331 401 476C401 571 355 639 268 639C193 639 146 589 146 525C146 468 179 424 239 424C277 424 306 444 319 474L329 470C319 352 201 311 52 318C58 284 63 228 64 188ZM403 188C617 190 740 331 740 476C740 571 694 639 607 639C532 639 485 589 485 525C485 468 518 424 578 424C616 424 645 444 658 474L668 470C658 352 540 311 391 318C397 284 402 228 403 188Z" glyph-name="quotedblright" horiz-adv-x="740" unicode="&#8221;" /><glyph d="M508 315C508 372 475 416 415 416C377 416 348 396 335 366L325 370C335 488 453 529 602 522C596 556 591 612 590 652C376 650 253 509 253 364C253 269 299 201 386 201C461 201 508 251 508 315Z" glyph-name="quoteleft" horiz-adv-x="740" unicode="&#8216;" /><glyph d="M224 188C438 190 561 331 561 476C561 571 515 639 428 639C353 639 306 589 306 525C306 468 339 424 399 424C437 424 466 444 479 474L489 470C479 352 361 311 212 318C218 284 223 228 224 188Z" glyph-name="quoteright" horiz-adv-x="740" unicode="&#8217;" /><glyph d="M128 -233C342 -231 465 -90 465 55C465 150 419 218 332 218C257 218 210 168 210 104C210 47 243 3 303 3C341 3 370 23 383 53L393 49C383 -69 265 -110 116 -103C122 -137 127 -193 128 -233Z" glyph-name="quotesinglbase" horiz-adv-x="740" unicode="&#8218;" /><glyph d="M602 688C526 686 451 686 378 688C362 579 320 408 289 293C313 294 334 294 360 294C397 294 410 294 433 293C478 408 547 580 602 688Z" glyph-name="quotesingle" horiz-adv-x="740" unicode="'" /><glyph d="M472 0C481 45 504 91 523 138C503 137 456 135 407 135C371 135 367 159 377 187C417 297 490 363 571 363C590 363 605 359 618 352C560 348 534 305 534 261C534 215 562 187 606 187C684 187 721 276 721 371C721 455 684 514 604 514C515 514 447 447 378 297H366C373 337 376 368 376 386C376 471 323 512 238 512C172 512 109 489 42 442C63 416 82 380 101 339C144 368 169 378 195 378C218 378 228 363 228 340C228 314 213 250 185 180C170 143 156 135 128 135C88 135 58 138 43 138C33 92 12 46 -7 0C52 3 407 3 472 0Z" glyph-name="r" horiz-adv-x="740" unicode="r" /><glyph d="M472 0C481 45 504 91 523 138C503 137 456 135 407 135C371 135 367 159 377 187C417 297 490 363 571 363C590 363 605 359 618 352C560 348 534 305 534 261C534 215 562 187 606 187C684 187 721 276 721 371C721 455 684 514 604 514C515 514 447 447 378 297H366C373 337 376 368 376 386C376 471 323 512 238 512C172 512 109 489 42 442C63 416 82 380 101 339C144 368 169 378 195 378C218 378 228 363 228 340C228 314 213 250 185 180C170 143 156 135 128 135C88 135 58 138 43 138C33 92 12 46 -7 0C52 3 407 3 472 0ZM343 561C395 581 613 632 678 648C669 676 644 768 637 797C588 771 362 681 309 662C318 641 338 583 343 561Z" glyph-name="racute" horiz-adv-x="740" unicode="&#341;" /><glyph d="M472 0C481 45 504 91 523 138C503 137 456 135 407 135C371 135 367 159 377 187C417 297 490 363 571 363C590 363 605 359 618 352C560 348 534 305 534 261C534 215 562 187 606 187C684 187 721 276 721 371C721 455 684 514 604 514C515 514 447 447 378 297H366C373 337 376 368 376 386C376 471 323 512 238 512C172 512 109 489 42 442C63 416 82 380 101 339C144 368 169 378 195 378C218 378 228 363 228 340C228 314 213 250 185 180C170 143 156 135 128 135C88 135 58 138 43 138C33 92 12 46 -7 0C52 3 407 3 472 0ZM475 567C505 603 584 668 650 722C624 736 580 763 560 779C506 744 460 707 422 672C404 707 380 745 352 779C329 768 280 748 245 738C276 683 319 602 326 567C350 568 383 568 396 568C409 568 453 568 475 567Z" glyph-name="rcaron" horiz-adv-x="740" unicode="&#345;" /><glyph d="M472 0C481 45 504 91 523 138C503 137 456 135 407 135C371 135 367 159 377 187C417 297 490 363 571 363C590 363 605 359 618 352C560 348 534 305 534 261C534 215 562 187 606 187C684 187 721 276 721 371C721 455 684 514 604 514C515 514 447 447 378 297H366C373 337 376 368 376 386C376 471 323 512 238 512C172 512 109 489 42 442C63 416 82 380 101 339C144 368 169 378 195 378C218 378 228 363 228 340C228 314 213 250 185 180C170 143 156 135 128 135C88 135 58 138 43 138C33 92 12 46 -7 0C52 3 407 3 472 0ZM107 -322C247 -321 327 -238 327 -152C327 -91 297 -46 232 -46C177 -46 143 -79 143 -120C143 -158 167 -186 211 -186C240 -186 262 -173 272 -153L279 -156C272 -216 197 -239 102 -235C105 -257 107 -295 107 -322Z" glyph-name="rcommaaccent" horiz-adv-x="740" unicode="&#343;" /><glyph d="M323 -14C581 -14 725 188 725 390C725 532 647 642 440 642C182 642 38 440 38 238C38 96 116 -14 323 -14ZM436 553C571 553 629 497 629 383C629 220 518 75 326 75C193 75 134 131 134 245C134 408 246 553 436 553ZM401 336C386 336 377 336 368 337C375 358 382 380 389 402C399 402 405 402 415 402C440 402 452 396 452 379C452 350 432 336 401 336ZM504 143C510 169 531 238 540 258C520 255 514 255 504 255C480 255 471 264 462 275C455 283 449 289 438 292L440 296C496 298 561 320 561 399C561 460 522 478 454 478C424 478 301 476 280 478C272 450 263 423 253 395C264 396 271 396 277 396C285 396 289 391 286 379C278 346 255 274 242 242C236 225 226 219 211 219C204 219 203 219 198 220C192 196 183 170 175 146C193 147 322 148 341 146C347 170 355 194 364 219C357 218 354 218 350 218C337 218 334 225 338 240C342 253 346 269 352 287C352 287 353 287 353 287C373 286 375 265 377 240C381 198 386 143 484 142C490 142 497 143 504 143Z" glyph-name="registered" horiz-adv-x="740" unicode="&#174;" /><glyph d="M110 564C206 564 267 635 267 705C267 765 233 803 162 803C63 803 0 733 0 663C0 602 36 564 110 564ZM122 639C96 638 87 652 87 669C87 696 109 726 146 726C171 726 181 713 181 696C181 667 159 639 122 639Z" glyph-name="ring" horiz-adv-x="267" unicode="&#730;" /><glyph d="M110 664C206 664 267 735 267 805C267 865 233 903 162 903C63 903 0 833 0 763C0 702 36 664 110 664ZM122 739C96 738 87 752 87 769C87 796 109 826 146 826C171 826 181 813 181 796C181 767 159 739 122 739Z" glyph-name="ring.case" horiz-adv-x="267" /><glyph d="M473 146C473 120 439 108 334 108C274 108 226 116 190 126C198 134 203 147 203 163C203 195 179 226 124 226C57 226 29 186 29 139C29 42 115 -13 330 -13C535 -13 634 58 634 159C634 261 543 286 382 308C304 319 287 333 287 353C287 380 328 395 416 395C447 395 474 393 496 390C493 382 491 374 491 364C491 331 521 299 578 299C637 299 664 334 664 376C664 446 599 512 421 512C239 512 132 448 132 348C132 263 192 218 366 193C458 180 473 166 473 146Z" glyph-name="s" horiz-adv-x="740" unicode="s" /><glyph d="M473 146C473 120 439 108 334 108C274 108 226 116 190 126C198 134 203 147 203 163C203 195 179 226 124 226C57 226 29 186 29 139C29 42 115 -13 330 -13C535 -13 634 58 634 159C634 261 543 286 382 308C304 319 287 333 287 353C287 380 328 395 416 395C447 395 474 393 496 390C493 382 491 374 491 364C491 331 521 299 578 299C637 299 664 334 664 376C664 446 599 512 421 512C239 512 132 448 132 348C132 263 192 218 366 193C458 180 473 166 473 146ZM389 561C441 581 659 632 724 648C715 676 690 768 683 797C634 771 408 681 355 662C364 641 384 583 389 561Z" glyph-name="sacute" horiz-adv-x="740" unicode="&#347;" /><glyph d="M473 146C473 120 439 108 334 108C274 108 226 116 190 126C198 134 203 147 203 163C203 195 179 226 124 226C57 226 29 186 29 139C29 42 115 -13 330 -13C535 -13 634 58 634 159C634 261 543 286 382 308C304 319 287 333 287 353C287 380 328 395 416 395C447 395 474 393 496 390C493 382 491 374 491 364C491 331 521 299 578 299C637 299 664 334 664 376C664 446 599 512 421 512C239 512 132 448 132 348C132 263 192 218 366 193C458 180 473 166 473 146ZM536 567C566 603 645 668 711 722C685 736 641 763 621 779C567 744 521 707 483 672C465 707 441 745 413 779C390 768 341 748 306 738C337 683 380 602 387 567C411 568 444 568 457 568C470 568 514 568 536 567Z" glyph-name="scaron" horiz-adv-x="740" unicode="&#353;" /><glyph d="M473 146C473 120 439 108 334 108C274 108 226 116 190 126C198 134 203 147 203 163C203 195 179 226 124 226C57 226 29 186 29 139C29 57 91 5 241 -9C227 -35 212 -62 202 -77C218 -84 238 -97 258 -113C270 -108 283 -103 302 -103C321 -103 337 -111 335 -131C332 -153 311 -164 280 -164C234 -164 188 -139 161 -113C147 -140 121 -181 101 -200C138 -228 204 -243 264 -243C378 -243 417 -190 423 -138C430 -81 400 -53 349 -53C322 -53 297 -62 278 -75C287 -55 299 -33 309 -13C316 -13 323 -13 330 -13C535 -13 634 58 634 159C634 261 543 286 382 308C304 319 287 333 287 353C287 380 328 395 416 395C447 395 474 393 496 390C493 382 491 374 491 364C491 331 521 299 578 299C637 299 664 334 664 376C664 446 599 512 421 512C239 512 132 448 132 348C132 263 192 218 366 193C458 180 473 166 473 146Z" glyph-name="scedilla" horiz-adv-x="740" unicode="&#351;" /><glyph d="M473 146C473 120 439 108 334 108C274 108 226 116 190 126C198 134 203 147 203 163C203 195 179 226 124 226C57 226 29 186 29 139C29 42 115 -13 330 -13C535 -13 634 58 634 159C634 261 543 286 382 308C304 319 287 333 287 353C287 380 328 395 416 395C447 395 474 393 496 390C493 382 491 374 491 364C491 331 521 299 578 299C637 299 664 334 664 376C664 446 599 512 421 512C239 512 132 448 132 348C132 263 192 218 366 193C458 180 473 166 473 146ZM576 562C599 573 648 593 683 603C652 658 609 739 602 774C578 773 545 773 532 773C519 773 475 773 453 774C423 738 344 673 278 619C304 605 348 578 368 562C422 597 468 634 506 669C524 634 548 596 576 562Z" glyph-name="scircumflex" horiz-adv-x="740" unicode="&#349;" /><glyph d="M473 146C473 120 439 108 334 108C274 108 226 116 190 126C198 134 203 147 203 163C203 195 179 226 124 226C57 226 29 186 29 139C29 42 115 -13 330 -13C535 -13 634 58 634 159C634 261 543 286 382 308C304 319 287 333 287 353C287 380 328 395 416 395C447 395 474 393 496 390C493 382 491 374 491 364C491 331 521 299 578 299C637 299 664 334 664 376C664 446 599 512 421 512C239 512 132 448 132 348C132 263 192 218 366 193C458 180 473 166 473 146ZM164 -322C304 -321 384 -238 384 -152C384 -91 354 -46 289 -46C234 -46 200 -79 200 -120C200 -158 224 -186 268 -186C297 -186 319 -173 329 -153L336 -156C329 -216 254 -239 159 -235C162 -257 164 -295 164 -322Z" glyph-name="scommaaccent" horiz-adv-x="740" unicode="&#537;" /><glyph d="M237 -200C446 -200 556 -101 556 10C556 55 539 86 506 109L507 114C604 125 678 160 678 256C678 322 627 361 483 393C338 425 323 437 323 459C323 486 348 504 421 504C442 504 496 500 543 491C540 484 538 476 538 467C538 434 563 407 618 407C684 407 718 455 718 499C718 576 623 637 460 637C273 637 154 549 154 428C154 381 170 350 205 326L204 320C76 302 27 247 27 183C27 121 56 77 206 43C344 12 378 4 378 -22C378 -52 353 -70 256 -70C215 -70 180 -66 151 -59C156 -50 158 -38 158 -26C158 12 134 41 81 41C26 41 -11 11 -11 -51C-11 -154 97 -200 237 -200ZM257 287C274 287 293 285 314 281C482 246 507 228 507 194C507 163 478 147 437 147C420 147 401 149 380 153C199 189 175 204 175 239C175 271 209 287 257 287Z" glyph-name="section" horiz-adv-x="740" unicode="&#167;" /><glyph d="M551 407C551 471 508 520 430 520C351 520 308 471 308 407C308 343 343 292 430 292C508 292 551 343 551 407ZM128 -233C342 -231 465 -90 465 55C465 150 419 218 332 218C257 218 210 168 210 104C210 47 243 3 303 3C341 3 370 23 383 53L393 49C383 -69 265 -110 116 -103C122 -137 127 -193 128 -233Z" glyph-name="semicolon" horiz-adv-x="740" unicode=";" /><glyph d="M333 487C404 493 476 488 562 485C521 385 222 289 154 4C223 3 288 0 349 -5C377 252 753 296 768 628C609 620 265 624 167 628C155 583 105 438 75 383C128 378 183 366 223 349C235 384 244 409 261 443C277 475 296 484 333 487Z" glyph-name="seven" horiz-adv-x="740" unicode="7" /><glyph d="M185 0C229 1 289 1 333 0C386 151 547 161 587 327C501 325 293 325 212 327C202 294 187 249 174 216C231 220 311 219 409 218C329 164 217 115 185 0Z" glyph-name="seven.dnom" horiz-adv-x="740" /><glyph d="M261 301C305 302 365 302 409 301C462 452 623 462 663 628C577 626 369 626 288 628C278 595 263 550 250 517C307 521 387 520 485 519C405 465 293 416 261 301Z" glyph-name="seven.numr" horiz-adv-x="740" /><glyph d="M305 409C376 415 448 410 534 407C493 307 194 211 126 -74C195 -75 260 -78 321 -83C349 174 725 218 740 550C581 542 237 546 139 550C127 505 77 360 47 305C100 300 155 288 195 271C207 306 216 331 233 365C249 397 268 406 305 409Z" glyph-name="seven.osf" horiz-adv-x="740" /><glyph d="M222 210C222 265 298 289 370 289C467 289 507 266 507 229C507 169 431 130 349 130C272 130 222 160 222 210ZM665 249C665 338 612 409 449 409C355 409 270 373 218 308L211 311C229 350 249 386 274 415C326 476 387 505 482 505C512 505 536 501 557 496C557 494 557 491 557 489C557 447 589 414 645 414C702 414 738 451 738 503C738 584 653 642 471 642C191 642 65 424 65 228C65 67 167 -14 339 -14C531 -14 665 94 665 249Z" glyph-name="six" horiz-adv-x="740" unicode="6" /><glyph d="M264 114C264 130 306 139 364 139C407 139 423 132 423 117C423 102 401 92 349 92C290 92 264 103 264 114ZM542 111C542 166 501 199 412 199C350 199 292 186 252 158L247 161C277 209 335 241 410 241C454 241 483 232 526 215C544 246 572 286 592 309C545 329 495 337 425 337C271 337 147 255 147 125C147 43 203 -10 343 -10C461 -10 542 35 542 111Z" glyph-name="six.dnom" horiz-adv-x="740" /><glyph d="M328 415C328 431 370 440 428 440C471 440 487 433 487 418C487 403 465 393 413 393C354 393 328 404 328 415ZM606 412C606 467 565 500 476 500C414 500 356 487 316 459L311 462C341 510 399 542 474 542C518 542 547 533 590 516C608 547 636 587 656 610C609 630 559 638 489 638C335 638 211 556 211 426C211 344 267 291 407 291C525 291 606 336 606 412Z" glyph-name="six.numr" horiz-adv-x="740" /><glyph d="M222 210C222 265 298 289 370 289C467 289 507 266 507 229C507 169 431 130 349 130C272 130 222 160 222 210ZM665 249C665 338 612 409 449 409C355 409 270 373 218 308L211 311C229 350 249 386 274 415C326 476 387 505 482 505C512 505 536 501 557 496C557 494 557 491 557 489C557 447 589 414 645 414C702 414 738 451 738 503C738 584 653 642 471 642C191 642 65 424 65 228C65 67 167 -14 339 -14C531 -14 665 94 665 249Z" glyph-name="six.osf" horiz-adv-x="740" /><glyph d="M33 -92C111 -96 178 -102 249 -111C333 51 627 573 696 675C640 675 536 682 484 689C411 541 140 77 33 -92Z" glyph-name="slash" horiz-adv-x="740" unicode="/" /><glyph glyph-name="space" horiz-adv-x="740" unicode=" " /><glyph d="M73 373C61 330 48 287 32 245C46 246 84 247 131 248C99 175 58 164 -10 148C3 103 28 27 33 -8C87 17 131 28 170 28C256 28 346 -14 456 -14C623 -14 664 83 676 219C621 218 560 218 515 219C516 152 480 127 431 127C392 127 351 141 302 141C268 141 231 133 196 121L194 127C240 160 271 195 291 248C362 248 425 247 447 245C458 286 472 329 488 373C465 370 396 368 320 368C346 472 384 495 474 496C507 496 528 493 545 488C543 480 542 472 542 462C542 414 576 383 627 383C688 383 724 425 724 488C724 591 630 638 489 638C269 638 202 550 167 377L165 369C121 370 86 371 73 373Z" glyph-name="sterling" horiz-adv-x="740" unicode="&#163;" /></font>
</defs>
</svg>
